<svg width="24" height="24" viewBox="0 0 24 24" fill="none" xmlns="http://www.w3.org/2000/svg">
<circle cx="12" cy="12" r="12" fill="#1E22B0"/>
<mask id="mask0_707_72041" style="mask-type:alpha" maskUnits="userSpaceOnUse" x="6" y="6" width="12" height="12">
<rect x="6" y="6" width="12" height="12" fill="#D9D9D9"/>
</mask>
<g mask="url(#mask0_707_72041)">
<path d="M17.8039 11.0516L15.1376 13.99C15.0119 14.1268 14.8422 14.2035 14.6655 14.2035C14.4887 14.2035 14.3191 14.1268 14.1933 13.99C14.1312 13.9217 14.0819 13.8406 14.0482 13.7513C14.0146 13.6621 13.9973 13.5663 13.9973 13.4696C13.9973 13.3729 14.0146 13.2772 14.0482 13.1879C14.0819 13.0986 14.1312 13.0175 14.1933 12.9493L15.7209 11.2658H11.9992C10.7621 11.2674 9.57616 11.8097 8.70142 12.7737C7.82669 13.7377 7.33462 15.0447 7.33315 16.408C7.33315 16.6029 7.26292 16.7897 7.13792 16.9275C7.01291 17.0653 6.84336 17.1426 6.66658 17.1426C6.48979 17.1426 6.32024 17.0653 6.19524 16.9275C6.07023 16.7897 6 16.6029 6 16.408C6.00147 14.6551 6.634 12.9744 7.75874 11.7349C8.88349 10.4953 10.4086 9.79824 11.9992 9.79662H15.7209L14.1933 8.11315C14.0681 7.97515 13.9978 7.78798 13.9978 7.59281C13.9978 7.49617 14.015 7.40048 14.0486 7.3112C14.0821 7.22192 14.1313 7.1408 14.1933 7.07247C14.2553 7.00413 14.3289 6.94993 14.41 6.91295C14.491 6.87597 14.5778 6.85693 14.6655 6.85693C14.8426 6.85693 15.0124 6.93446 15.1376 7.07247L17.8039 10.0109C17.8661 10.0791 17.9154 10.1602 17.949 10.2495C17.9827 10.3388 18 10.4345 18 10.5312C18 10.6279 17.9827 10.7236 17.949 10.8129C17.9154 10.9022 17.8661 10.9833 17.8039 11.0516Z" fill="white"/>
</g>
</svg>
