<svg width="40" height="28" viewBox="0 0 40 28" fill="none" xmlns="http://www.w3.org/2000/svg">
<path d="M39.5 14C39.5 17.6581 37.3825 21.0209 33.8554 23.4899C30.3299 25.9577 25.4328 27.5 20 27.5C14.5672 27.5 9.67009 25.9577 6.1446 23.4899C2.61752 21.0209 0.5 17.6581 0.5 14C0.5 10.3419 2.61752 6.97907 6.1446 4.51012C9.67009 2.04227 14.5672 0.5 20 0.5C25.4328 0.5 30.3299 2.04227 33.8554 4.51012C37.3825 6.97907 39.5 10.3419 39.5 14Z" stroke="#1E22B0"/>
<path d="M25.8039 13.0781L23.1376 15.9349C23.0119 16.0679 22.8422 16.1425 22.6655 16.1425C22.4887 16.1425 22.3191 16.0679 22.1933 15.9349C22.1312 15.8686 22.0819 15.7897 22.0482 15.7029C22.0146 15.6161 21.9973 15.523 21.9973 15.429C21.9973 15.335 22.0146 15.2419 22.0482 15.1551C22.0819 15.0683 22.1312 14.9895 22.1933 14.9231L23.7209 13.2864H19.9992C18.7621 13.288 17.5762 13.8152 16.7014 14.7524C15.8267 15.6897 15.3346 16.9604 15.3332 18.2858C15.3332 18.4752 15.2629 18.6569 15.1379 18.7908C15.0129 18.9248 14.8434 19 14.6666 19C14.4898 19 14.3202 18.9248 14.1952 18.7908C14.0702 18.6569 14 18.4752 14 18.2858C14.0015 16.5815 14.634 14.9475 15.7587 13.7424C16.8835 12.5373 18.4086 11.8596 19.9992 11.858H23.7209L22.1933 10.2213C22.0681 10.0872 21.9978 9.90518 21.9978 9.71544C21.9978 9.62148 22.015 9.52845 22.0486 9.44165C22.0821 9.35485 22.1313 9.27598 22.1933 9.20955C22.2553 9.14311 22.3289 9.09041 22.41 9.05446C22.491 9.01851 22.5778 9 22.6655 9C22.8426 9 23.0124 9.07538 23.1376 9.20955L25.8039 12.0663C25.8661 12.1327 25.9154 12.2115 25.949 12.2983C25.9827 12.3852 26 12.4782 26 12.5722C26 12.6662 25.9827 12.7593 25.949 12.8461C25.9154 12.9329 25.8661 13.0118 25.8039 13.0781Z" fill="#1E22B0"/>
</svg>
