<svg width="48" height="48" viewBox="0 0 48 48" fill="none" xmlns="http://www.w3.org/2000/svg">
<g clip-path="url(#clip0_18_9059)">
<path d="M37.1361 48H10.8639C7.98263 48 5.21934 46.8571 3.18196 44.8228C1.14458 42.7884 0 40.0292 0 37.1522V10.8479C0 7.97086 1.14458 5.21163 3.18196 3.17726C5.21934 1.14289 7.98263 0 10.8639 0H37.1361C40.0174 0 42.7807 1.14289 44.818 3.17726C46.8554 5.21163 48 7.97086 48 10.8479V37.1522C48 40.0292 46.8554 42.7884 44.818 44.8228C42.7807 46.8571 40.0174 48 37.1361 48Z" fill="url(#paint0_radial_18_9059)"/>
<path d="M31.3846 41.5478H16.6864C13.9786 41.5348 11.3855 40.4549 9.47078 38.543C7.55608 36.6311 6.47462 34.0418 6.46155 31.338V16.5906C6.47462 13.8869 7.55608 11.2975 9.47078 9.38567C11.3855 7.47379 13.9786 6.39391 16.6864 6.38086H31.3846C34.0924 6.39391 36.6855 7.47379 38.6002 9.38567C40.5149 11.2975 41.5964 13.8869 41.6095 16.5906V31.338C41.6095 32.6788 41.345 34.0065 40.8312 35.2452C40.3173 36.4839 39.5642 37.6094 38.6147 38.5574C37.6652 39.5055 36.538 40.2575 35.2975 40.7706C34.057 41.2837 32.7274 41.5478 31.3846 41.5478ZM16.6154 9.64233C14.7522 9.64608 12.9664 10.3868 11.6489 11.7023C10.3314 13.0179 9.58956 14.8011 9.5858 16.6615V31.409C9.58956 33.2694 10.3314 35.0526 11.6489 36.3681C12.9664 37.6837 14.7522 38.4244 16.6154 38.4281H31.3136C33.1768 38.4244 34.9626 37.6837 36.2801 36.3681C37.5976 35.0526 38.3394 33.2694 38.3432 31.409V16.6615C38.3394 14.8011 37.5976 13.0179 36.2801 11.7023C34.9626 10.3868 33.1768 9.64608 31.3136 9.64233H16.6154Z" fill="white"/>
<path d="M24 32.9688C22.2165 32.9688 20.473 32.4407 18.99 31.4513C17.507 30.4619 16.3512 29.0556 15.6687 27.4102C14.9862 25.7649 14.8076 23.9544 15.1555 22.2077C15.5035 20.461 16.3623 18.8566 17.6235 17.5973C18.8846 16.338 20.4914 15.4804 22.2407 15.133C23.99 14.7855 25.8032 14.9639 27.4509 15.6454C29.0987 16.3269 30.5071 17.481 31.498 18.9618C32.4889 20.4426 33.0177 22.1835 33.0177 23.9644C33.014 26.3514 32.0627 28.6395 30.3724 30.3273C28.682 32.0152 26.3905 32.9651 24 32.9688ZM24 18.1505C22.8484 18.1505 21.7227 18.4915 20.7652 19.1303C19.8077 19.7692 19.0614 20.6772 18.6207 21.7395C18.18 22.8019 18.0647 23.9709 18.2894 25.0986C18.5141 26.2264 19.0686 27.2624 19.8829 28.0754C20.6972 28.8885 21.7346 29.4422 22.8641 29.6666C23.9935 29.8909 25.1643 29.7758 26.2282 29.3357C27.2921 28.8957 28.2014 28.1505 28.8412 27.1944C29.481 26.2383 29.8225 25.1143 29.8225 23.9644C29.831 23.1985 29.6863 22.4387 29.3967 21.7295C29.1071 21.0202 28.6786 20.3759 28.1362 19.8343C27.5938 19.2927 26.9485 18.8648 26.2382 18.5756C25.528 18.2865 24.767 18.142 24 18.1505Z" fill="white"/>
<path d="M33.4438 16.7326C34.6202 16.7326 35.574 15.7803 35.574 14.6055C35.574 13.4308 34.6202 12.4785 33.4438 12.4785C32.2673 12.4785 31.3136 13.4308 31.3136 14.6055C31.3136 15.7803 32.2673 16.7326 33.4438 16.7326Z" fill="white"/>
</g>
<defs>
<radialGradient id="paint0_radial_18_9059" cx="0" cy="0" r="1" gradientUnits="userSpaceOnUse" gradientTransform="translate(15.6939 47.8162) rotate(-36.0291) scale(71.4456 54.5946)">
<stop stop-color="white"/>
<stop offset="0.07" stop-color="#FFEBB0"/>
<stop offset="0.22" stop-color="#FFBF02"/>
<stop offset="0.5" stop-color="#FF136E"/>
<stop offset="0.75" stop-color="#812BED"/>
<stop offset="1" stop-color="#564EE7"/>
</radialGradient>
<clipPath id="clip0_18_9059">
<rect width="48" height="48" fill="white"/>
</clipPath>
</defs>
</svg>
