<svg width="45" height="30" viewBox="0 0 45 30" fill="none" xmlns="http://www.w3.org/2000/svg">
<path d="M44.5 15C44.5 18.9229 42.1149 22.5357 38.1326 25.1906C34.1537 27.8431 28.6283 29.5 22.5 29.5C16.3717 29.5 10.8463 27.8431 6.86745 25.1906C2.88514 22.5357 0.5 18.9229 0.5 15C0.5 11.0771 2.88514 7.46429 6.86745 4.80942C10.8463 2.15688 16.3717 0.5 22.5 0.5C28.6283 0.5 34.1537 2.15688 38.1326 4.80942C42.1149 7.46429 44.5 11.0771 44.5 15Z" stroke="#1E22B0"/>
<path d="M29.7713 13.8937L26.6606 17.3219C26.5138 17.4815 26.3159 17.571 26.1097 17.571C25.9035 17.571 25.7056 17.4815 25.5589 17.3219C25.4864 17.2423 25.4289 17.1477 25.3896 17.0435C25.3504 16.9393 25.3302 16.8276 25.3302 16.7148C25.3302 16.602 25.3504 16.4903 25.3896 16.3862C25.4289 16.282 25.4864 16.1874 25.5589 16.1077L27.341 14.1437H22.999C21.5558 14.1456 20.1722 14.7783 19.1517 15.9029C18.1311 17.0276 17.5571 18.5524 17.5553 20.143C17.5553 20.3703 17.4734 20.5883 17.3276 20.749C17.1817 20.9097 16.9839 21 16.7777 21C16.5714 21 16.3736 20.9097 16.2278 20.749C16.0819 20.5883 16 20.3703 16 20.143C16.0017 18.0978 16.7397 16.137 18.0519 14.6909C19.3641 13.2448 21.1433 12.4315 22.999 12.4296H27.341L25.5589 10.4656C25.4128 10.3046 25.3307 10.0862 25.3307 9.85852C25.3307 9.74578 25.3509 9.63414 25.39 9.52998C25.4292 9.42582 25.4865 9.33118 25.5589 9.25146C25.6312 9.17173 25.7171 9.1085 25.8116 9.06535C25.9061 9.02221 26.0074 9 26.1097 9C26.3163 9 26.5145 9.09045 26.6606 9.25146L29.7713 12.6796C29.8438 12.7592 29.9013 12.8538 29.9405 12.958C29.9798 13.0622 30 13.1739 30 13.2867C30 13.3995 29.9798 13.5112 29.9405 13.6153C29.9013 13.7195 29.8438 13.8141 29.7713 13.8937Z" fill="#1E22B0"/>
</svg>
