<svg width="14" height="14" viewBox="0 0 14 14" fill="none" xmlns="http://www.w3.org/2000/svg">
<mask id="mask0_713_12925" style="mask-type:alpha" maskUnits="userSpaceOnUse" x="0" y="0" width="14" height="14">
<rect width="14" height="14" fill="#D9D9D9"/>
</mask>
<g mask="url(#mask0_713_12925)">
<path d="M13.7713 5.89374L10.6606 9.32188C10.5138 9.48152 10.3159 9.57102 10.1097 9.57102C9.90353 9.57102 9.70563 9.48152 9.55888 9.32188C9.48638 9.24226 9.42886 9.14765 9.38961 9.04348C9.35036 8.9393 9.33015 8.82761 9.33015 8.71482C9.33015 8.60202 9.35036 8.49033 9.38961 8.38616C9.42886 8.28198 9.48638 8.18737 9.55888 8.10775L11.341 6.14371H6.99905C5.55581 6.1456 4.17218 6.77827 3.15166 7.90294C2.13114 9.02761 1.55706 10.5524 1.55534 12.143C1.55534 12.3703 1.47341 12.5883 1.32757 12.749C1.18173 12.9097 0.983923 13 0.777672 13C0.57142 13 0.373617 12.9097 0.227775 12.749C0.0819331 12.5883 0 12.3703 0 12.143C0.00171589 10.0978 0.739664 8.13702 2.05187 6.6909C3.36407 5.24478 5.14331 4.43152 6.99905 4.42963H11.341L9.55888 2.46559C9.41279 2.30459 9.33071 2.08622 9.33071 1.85852C9.33071 1.74578 9.35086 1.63414 9.39001 1.52998C9.42916 1.42582 9.48654 1.33118 9.55888 1.25146C9.63122 1.17173 9.7171 1.1085 9.81161 1.06535C9.90613 1.02221 10.0074 1 10.1097 1C10.3163 1 10.5145 1.09045 10.6606 1.25146L13.7713 4.6796C13.8438 4.75922 13.9013 4.85383 13.9405 4.95801C13.9798 5.06218 14 5.17387 14 5.28667C14 5.39947 13.9798 5.51116 13.9405 5.61533C13.9013 5.7195 13.8438 5.81412 13.7713 5.89374Z" fill="#1E22B0"/>
</g>
</svg>
