<svg width="24" height="24" viewBox="0 0 24 24" fill="none" xmlns="http://www.w3.org/2000/svg">
<g clip-path="url(#clip0_42_8952)">
<path d="M12.6048 20.2559H7.40639V14.9759H3.42V6.33591H11.6016L17.7912 3.88791C18.1002 3.76535 18.4345 3.72026 18.765 3.75658C19.0954 3.79289 19.412 3.90951 19.687 4.09626C19.962 4.283 20.1872 4.53421 20.3428 4.82796C20.4985 5.1217 20.5799 5.44907 20.58 5.78151V16.1303C20.5799 16.4628 20.4985 16.7901 20.3428 17.0839C20.1872 17.3776 19.962 17.6288 19.687 17.8156C19.412 18.0023 19.0954 18.1189 18.765 18.1552C18.4345 18.1916 18.1002 18.1465 17.7912 18.0239L10.9248 15.3095V11.1623H12.6048V14.1671L18.4128 16.4663C18.4666 16.4854 18.5242 16.4913 18.5808 16.4837C18.6374 16.4761 18.6914 16.4551 18.7383 16.4225C18.7852 16.3899 18.8237 16.3467 18.8505 16.2963C18.8774 16.2459 18.8919 16.1898 18.8928 16.1327V5.78391C18.8919 5.72681 18.8774 5.67075 18.8505 5.62035C18.8237 5.56996 18.7852 5.52668 18.7383 5.49409C18.6914 5.4615 18.6374 5.44053 18.5808 5.43292C18.5242 5.42531 18.4666 5.43127 18.4128 5.45031L11.9328 8.01831H5.1V13.2983H9.08639V18.5783H10.9248V16.8359H12.6048V20.2559Z" fill="#1E22B0"/>
</g>
<defs>
<clipPath id="clip0_42_8952">
<rect width="24" height="24" fill="white"/>
</clipPath>
</defs>
</svg>
