<svg width="476" height="482" viewBox="0 0 476 482" fill="none" xmlns="http://www.w3.org/2000/svg">
<path d="M476 258.884L472.711 283.847L427.922 277.946L425.083 299.497L405.779 296.954L411.907 250.44L476 258.884Z" fill="#FFEB35"/>
<path d="M469.112 335.068C467.76 338.798 465.972 341.278 463.746 342.509C461.545 343.75 459.244 343.921 456.843 343.022C454.433 342.148 452.631 340.189 451.438 337.145C450.236 334.126 450.329 330.7 451.718 326.869C453.667 321.491 456.505 318.73 460.231 318.588C461.282 318.538 462.366 318.716 463.482 319.12C464.598 319.525 465.669 320.214 466.694 321.188C467.718 322.163 468.52 323.357 469.098 324.772C470.45 327.932 470.455 331.364 469.112 335.068ZM396.147 320.292L404.134 298.257L451.439 315.401L443.453 337.437L396.147 320.292Z" fill="#FFEB35"/>
<path d="M410.77 368.907C411.995 367.129 411.174 365.252 408.307 363.277L382.44 345.455L396.082 325.654L437.516 354.202L429.983 365.136L420.232 365.447C421.474 368.924 421.738 372.727 421.023 376.856C420.293 381.007 418.987 384.449 417.104 387.182C413.643 392.205 409.569 395.264 404.881 396.36C400.178 397.478 395.582 396.491 391.093 393.398L362.826 373.922L376.56 353.988L396.561 367.768C403.339 372.438 408.075 372.818 410.77 368.907Z" fill="#FFEB35"/>
<path d="M355.716 424.399C357.147 426.294 358.746 426.574 360.512 425.24C362.389 423.516 362.913 421.48 362.084 419.129C361.702 417.997 361.12 416.78 360.338 415.476C359.551 414.211 358.763 412.81 357.975 411.275L352.098 418.202L355.219 423.607L355.716 424.399ZM348.971 406.41C348.971 406.41 349.563 405.962 350.747 405.067C351.307 404.644 351.861 404.259 352.411 403.912C350.474 401.35 348.05 400.983 345.136 402.813C344.334 403.318 343.578 403.839 342.867 404.376C341.037 405.759 339.061 407.911 336.94 410.834C334.797 413.772 333.344 417.019 332.579 420.573L322.987 412.042C324.648 404.258 330.333 396.698 340.044 389.36C345.62 385.145 351.639 383.151 358.1 383.376C365.134 383.641 371.026 386.918 375.777 393.205C379.357 397.941 381.343 403.121 381.736 408.743C382.057 413.913 380.944 418.864 378.398 423.596C375.851 428.328 372.317 432.402 367.796 435.819C361.94 440.245 356.547 442.307 351.618 442.007C346.668 441.722 342.78 439.688 339.954 435.904C337.107 432.136 336.374 427.43 337.757 421.785C339.14 416.139 342.878 411.014 348.971 406.41Z" fill="#FFEB35"/>
<path d="M281.423 448.598C279.566 439.944 276.539 436.066 272.344 436.967C270.233 437.42 269.227 438.712 269.326 440.844C269.356 441.5 269.453 442.21 269.618 442.975L276.208 473.689L252.698 478.734L242.141 429.537L255.123 426.751L262.439 433.255C264.811 427.971 269.015 423.963 275.054 421.232C282.454 417.905 288.991 417.883 294.663 421.164C298.948 423.64 301.663 427.543 302.807 432.873L310.009 466.436L286.341 471.514L281.423 448.598Z" fill="#FFEB35"/>
<path d="M176.228 454.194C177.204 446.537 180.581 440.022 186.36 434.647C190.664 430.639 196.161 428.084 202.851 426.983C206.321 426.407 210.191 426.342 214.459 426.79L216.072 413.774L239.935 416.732L232.132 479.682L218.956 478.049L214.328 469.644C207.535 475.301 200.832 477.72 194.216 476.9C187.601 476.08 182.775 473.551 179.738 469.313C176.674 465.072 175.504 460.032 176.228 454.194ZM198.121 460.211C198.656 460.495 199.339 460.689 200.17 460.791C201.857 461.001 203.799 460.249 205.997 458.536C208.164 456.847 209.924 454.821 211.277 452.46L212.706 440.931C212.211 441.196 211.489 441.541 210.538 441.967C209.558 442.417 208.484 442.964 207.317 443.607C200.439 447.323 196.711 451.511 196.133 456.171C195.901 458.046 196.563 459.393 198.121 460.211Z" fill="#FFEB35"/>
<path d="M104.2 457.09L84.0572 441.983L111.162 405.842L93.7722 392.799L105.455 377.222L142.988 405.372L104.2 457.09Z" fill="#FFEB35"/>
<path d="M41.1663 413.714C38.5723 410.713 37.2818 407.94 37.2948 405.397C37.2875 402.871 38.2625 400.779 40.2198 399.124C42.1595 397.447 44.749 396.832 47.9882 397.278C51.2098 397.704 54.1529 399.459 56.8175 402.542C60.5585 406.871 61.581 410.695 59.8851 414.016C59.4148 414.957 58.7304 415.816 57.832 416.593C56.9336 417.369 55.8091 417.966 54.4584 418.385C53.1078 418.803 51.674 418.918 50.157 418.731C46.7395 418.368 43.7426 416.695 41.1663 413.714ZM89.7037 357.267L105.029 375L66.96 407.901L51.6343 390.168L89.7037 357.267Z" fill="#FFEB35"/>
<path d="M40.1629 346.299C41.1136 348.238 43.1517 348.44 46.2773 346.907L74.4804 333.075L85.0686 354.663L39.8927 376.82L34.0461 364.899L38.5479 356.244C34.9077 355.625 31.4624 353.993 28.2119 351.349C24.9496 348.681 22.5876 345.857 21.1259 342.877C18.4402 337.401 17.7669 332.351 19.1058 327.726C20.4328 323.078 23.5435 319.553 28.4379 317.153L59.2577 302.037L69.9172 323.771L48.1107 334.466C40.7207 338.09 38.0714 342.035 40.1629 346.299Z" fill="#FFEB35"/>
<path d="M18.8022 271.19C16.4478 271.501 15.4151 272.753 15.7041 274.947C16.2763 277.43 17.7889 278.891 20.2421 279.33C21.4152 279.556 22.7615 279.651 24.2809 279.614C25.7701 279.554 27.3769 279.56 29.1013 279.633L25.9767 271.103L19.7359 271.149L18.8022 271.19ZM37.7767 274.202C37.7767 274.202 37.8736 274.938 38.0675 276.41C38.1592 277.105 38.2206 277.778 38.2516 278.427C41.4355 278.008 42.9508 276.079 42.7974 272.643C42.7543 271.696 42.6746 270.781 42.5583 269.898C42.2586 267.624 41.3615 264.843 39.8668 261.556C38.3686 258.242 36.2625 255.375 33.5484 252.956L45.702 248.824C51.6519 254.11 55.4218 262.786 57.0116 274.853C57.9246 281.783 56.6889 288.002 53.3045 293.511C49.602 299.497 43.8444 303.005 36.0318 304.034C30.1456 304.81 24.6604 303.981 19.5763 301.547C14.9218 299.275 11.1652 295.864 8.3064 291.314C5.44764 286.764 3.64813 281.68 2.90785 276.061C1.94902 268.783 2.81656 263.075 5.51047 258.937C8.20085 254.772 11.8889 252.394 16.5746 251.804C21.2569 251.187 25.7117 252.873 29.9391 256.862C34.1666 260.85 36.7791 266.631 37.7767 274.202Z" fill="#FFEB35"/>
<path d="M34.1779 194.061C42.6276 196.698 47.4916 195.968 48.7699 191.872C49.413 189.811 48.7821 188.3 46.8773 187.338C46.2911 187.042 45.6245 186.778 44.8775 186.544L14.8912 177.187L22.0542 154.233L70.0864 169.222L66.131 181.897L56.8714 185.071C60.3071 189.734 61.7301 195.366 61.1402 201.966C60.3996 210.047 57.2062 215.75 51.56 219.077C47.298 221.592 42.5651 222.037 37.3613 220.413L4.59277 210.187L11.8041 187.079L34.1779 194.061Z" fill="#FFEB35"/>
<path d="M80.7508 100.243C86.9262 104.873 90.9238 111.027 92.7438 118.707C94.1033 124.428 93.6099 130.47 91.2637 136.831C90.0506 140.133 88.1955 143.53 85.6985 147.02L96.2196 154.851L81.863 174.14L30.9784 136.266L38.906 125.615L48.5003 125.742C46.9356 117.042 48.1432 110.018 52.1231 104.671C56.103 99.3237 60.6854 96.3761 65.8703 95.8282C71.0713 95.2587 76.0315 96.7302 80.7508 100.243ZM64.7065 116.307C64.1949 116.633 63.6894 117.132 63.1899 117.803C62.1748 119.167 61.8693 121.227 62.2733 123.983C62.6719 126.702 63.5636 129.233 64.9485 131.576L74.2681 138.512C74.2823 137.951 74.3387 137.152 74.4375 136.115C74.5307 135.041 74.5857 133.837 74.6024 132.504C74.7681 124.688 72.9676 119.378 69.2008 116.574C67.6854 115.446 66.1873 115.357 64.7065 116.307Z" fill="#FFEB35"/>
<path d="M112.279 36.3855L135.282 26.1463L153.653 67.4179L173.512 58.578L181.43 76.3662L138.569 95.4453L112.279 36.3855Z" fill="#FFEB35"/>
<path d="M180.915 2.31558C184.803 1.52771 187.852 1.76343 190.063 3.02273C192.267 4.25559 193.611 6.13104 194.094 8.64906C194.603 11.1617 193.869 13.7199 191.89 16.3236C189.939 18.9219 186.966 20.6257 182.972 21.435C177.365 22.5712 173.531 21.586 171.469 18.4792C170.88 17.6074 170.467 16.5896 170.231 15.4259C169.995 14.2621 170.026 12.9892 170.325 11.6071C170.623 10.225 171.225 8.91882 172.133 7.68864C174.126 4.88912 177.054 3.0981 180.915 2.31558ZM206.291 72.3033L183.32 76.9582L173.326 27.6438L196.298 22.9889L206.291 72.3033Z" fill="#FFEB35"/>
<path d="M241.24 34.2729C239.084 34.148 237.906 35.8233 237.705 39.2988L235.888 70.6587L211.883 69.2678L214.793 19.0354L228.048 19.8034L233.373 27.9782C235.702 25.1126 238.816 22.9142 242.716 21.3831C246.644 19.8536 250.264 19.1848 253.578 19.3768C259.667 19.7296 264.396 21.6255 267.764 25.0646C271.16 28.5052 272.701 32.9466 272.385 38.3888L270.4 72.6584L246.233 71.2581L247.638 47.0108C248.114 38.7936 245.981 34.5477 241.24 34.2729Z" fill="#FFEB35"/>
<path d="M317.2 52.3196C318.084 50.1155 317.499 48.6015 315.445 47.7777C313 47.0588 310.985 47.6607 309.4 49.5836C308.627 50.4949 307.884 51.6217 307.171 52.9641C306.494 54.2915 305.701 55.6889 304.792 57.1563L313.759 58.6156L316.778 53.1536L317.2 52.3196ZM305.271 67.3798C305.271 67.3798 304.582 67.1036 303.205 66.551C302.554 66.2898 301.937 66.0136 301.356 65.7224C300.161 68.703 301.098 70.969 304.169 72.5204C305.015 72.9472 305.852 73.3263 306.678 73.6578C308.807 74.5118 311.671 75.0933 315.269 75.4024C318.891 75.7215 322.422 75.2914 325.861 74.112L323.504 86.7307C315.98 89.3245 306.569 88.3559 295.273 83.825C288.786 81.223 283.971 77.0967 280.83 71.446C277.428 65.2838 277.194 58.5459 280.127 51.2322C282.337 45.7218 285.749 41.3477 290.363 38.1097C294.625 35.1671 299.44 33.5655 304.807 33.305C310.175 33.0445 315.488 33.9691 320.748 36.0788C327.561 38.8114 332.11 42.3662 334.396 46.7433C336.707 51.1303 336.971 55.5105 335.188 59.8837C333.43 64.2669 329.776 67.3228 324.227 69.0515C318.678 70.7802 312.359 70.2229 305.271 67.3798Z" fill="#FFEB35"/>
<path d="M377.039 103.639C370.601 109.714 368.854 114.312 371.799 117.433C373.28 119.003 374.907 119.194 376.679 118.004C377.224 117.638 377.781 117.187 378.35 116.65L401.198 95.0925L417.7 112.582L381.101 147.112L371.99 137.455L373.759 127.827C368.011 128.538 362.404 127.02 356.939 123.272C350.257 118.668 346.849 113.09 346.715 106.538C346.611 101.59 348.541 97.246 352.506 93.505L377.475 69.9478L394.087 87.555L377.039 103.639Z" fill="#FFEB35"/>
<path d="M435.953 189.58C428.903 192.721 421.58 193.217 413.987 191.068C408.327 189.47 403.29 186.098 398.875 180.952C396.581 178.285 394.518 175.011 392.684 171.131L380.722 176.509L370.862 154.578L428.716 128.567L434.161 140.677L429.379 148.996C437.741 151.865 443.288 156.339 446.021 162.418C448.755 168.498 449.099 173.935 447.053 178.731C445.019 183.551 441.319 187.168 435.953 189.58ZM429.731 167.745C429.696 167.14 429.506 166.455 429.163 165.692C428.466 164.142 426.815 162.872 424.211 161.883C421.642 160.908 418.997 160.455 416.276 160.524L405.68 165.288C406.164 165.574 406.834 166.012 407.692 166.603C408.585 167.207 409.609 167.841 410.766 168.505C417.513 172.454 423.027 173.467 427.31 171.541C429.033 170.766 429.84 169.501 429.731 167.745Z" fill="#FFEB35"/>
</svg>
