<svg width="474" height="474" viewBox="0 0 474 474" fill="none" xmlns="http://www.w3.org/2000/svg">
<path d="M474 245.709L465.488 283.503L450.71 280.134L454.614 262.8L449.775 261.697L445.871 279.031L431.616 275.782L435.52 258.447L417.178 254.266L421.786 233.806L474 245.709Z" fill="#FEF643"/>
<path d="M427.614 313.233C428.429 311.334 428.579 309.084 428.064 306.485C427.548 303.885 426.679 302.308 425.457 301.752L407.606 293.998L415.607 275.358L453.863 291.976L445.863 310.617L441.769 308.838C442.897 310.577 443.601 312.426 443.88 314.384C444.151 316.363 444.002 318.27 443.434 320.105L427.614 313.233Z" fill="#FEF643"/>
<path d="M415.158 347.87C416.71 349.086 418.049 348.967 419.175 347.512C420.307 345.721 420.29 343.968 419.122 342.256C418.574 341.427 417.848 340.573 416.943 339.693C416.041 338.844 415.111 337.887 414.151 336.821L410.936 343.664L414.591 347.341L415.158 347.87ZM405.905 334.849C405.905 334.849 406.283 334.361 407.038 333.385C407.395 332.924 407.756 332.494 408.121 332.096C406.023 330.452 404.005 330.68 402.067 332.781C401.533 333.361 401.04 333.943 400.586 334.528C399.419 336.036 398.3 338.195 397.23 341.004C396.146 343.831 395.68 346.758 395.83 349.783L386.328 344.987C385.987 338.365 388.914 331.053 395.108 323.053C398.665 318.459 403.052 315.555 408.268 314.342C413.952 313.039 419.368 314.404 424.516 318.438C428.396 321.478 431.095 325.218 432.615 329.658C433.981 333.749 434.152 337.973 433.13 342.331C432.108 346.688 430.154 350.729 427.27 354.455C423.535 359.28 419.664 362.103 415.656 362.924C411.636 363.764 408.089 362.965 405.017 360.53C401.932 358.112 400.337 354.482 400.232 349.641C400.128 344.799 402.019 339.869 405.905 334.849Z" fill="#FEF643"/>
<path d="M377.318 390.829C381.848 388.483 384.973 386.573 386.692 385.101C387.185 384.678 387.474 384.239 387.558 383.783C387.625 383.342 387.542 382.984 387.31 382.71C386.832 382.145 385.649 382.17 383.761 382.783C381.871 383.428 380.106 383.98 378.469 384.438C376.831 384.896 375.253 385.096 373.736 385.037C370.449 384.9 367.371 383.136 364.502 379.747C361.648 376.375 360.669 372.739 361.566 368.84C362.463 364.941 364.988 361.212 369.14 357.655C373.291 354.098 376.935 351.641 380.072 350.283C381.436 349.675 382.596 349.346 383.551 349.295L391.615 358.821C391.362 359.008 390.851 359.254 390.082 359.559C389.312 359.864 388.05 360.384 386.295 361.12C384.555 361.873 383.123 362.73 382 363.692C380.86 364.669 380.645 365.577 381.355 366.416C381.906 367.066 382.952 367.262 384.495 367.004C385.186 366.884 385.944 366.722 386.769 366.517C390.168 365.643 393.038 365.531 395.381 366.183C397.72 366.866 399.774 368.252 401.542 370.34C404.686 374.055 405.536 378.111 404.092 382.508C402.878 386.206 400.237 389.798 396.171 393.282C393.329 395.716 390.24 397.876 386.903 399.76C386.189 400.165 385.726 400.415 385.512 400.509L377.318 390.829Z" fill="#FEF643"/>
<path d="M356.223 420.607C355.102 425.538 351.745 429.257 346.15 431.762C344.557 432.476 342.699 432.865 340.575 432.93C338.451 432.995 336.417 432.626 334.471 431.824C330.295 430.126 327.121 426.822 324.949 421.912L314.506 398.31L332.821 390.108L340.169 406.716C341.632 410.023 343.363 412.497 345.361 414.137C347.368 415.798 349.086 416.308 350.515 415.668C352.475 414.791 352.86 413.006 351.669 410.315L341.09 386.405L359.282 378.258L382.227 430.115L364.034 438.262L356.223 420.607Z" fill="#FEF643"/>
<path d="M317.891 434.059C315.504 434.739 314.13 436.334 313.768 438.844C313.64 439.956 313.709 441.151 313.976 442.43L319.782 440.776L323.629 454.438L304.017 460.026L300.336 446.948C298.18 439.29 300.4 433.399 306.998 429.276C309.27 427.857 312.115 426.661 315.534 425.687L317.891 434.059Z" fill="#FEF643"/>
<path d="M265.073 446.907C266.861 446.928 267.772 445.488 267.805 442.588L268.106 416.418L288.018 416.65L287.536 458.569L276.541 458.441L271.822 451.843C270.006 454.318 267.514 456.267 264.346 457.692C261.155 459.116 258.186 459.813 255.437 459.781C250.387 459.722 246.402 458.326 243.483 455.594C240.542 452.861 239.097 449.224 239.149 444.683L239.479 416.084L259.525 416.318L259.292 436.552C259.213 443.41 261.14 446.861 265.073 446.907Z" fill="#FEF643"/>
<path d="M196.231 474L191.262 471.797L172.92 440.74L164.511 459.937L147.239 452.28L168.829 402.991L175.424 405.916L193.189 434.026L200.611 417.082L217.821 424.712L196.231 474Z" fill="#FEF643"/>
<path d="M155.136 408.491C155.401 410.942 155.119 413.483 154.289 416.114C153.427 418.747 152.043 421.182 150.137 423.418C148.231 425.653 146.358 427.4 144.52 428.657C140.859 431.155 136.979 432.562 132.883 432.877C130.9 433.062 128.943 432.973 127.014 432.611C123.043 431.88 119.591 430.248 116.656 427.716C113.705 425.168 111.955 421.954 111.406 418.074C111.232 416.828 111.232 415.568 111.404 414.295L104.426 415.071L96.0806 407.868L123.213 376.05L131.559 383.253L130.679 391.692C136.982 389.964 142.966 391.528 148.629 396.386C150.204 397.716 151.613 399.465 152.855 401.634C154.096 403.771 154.856 406.057 155.136 408.491ZM118.024 410.054C118.329 410.94 118.906 411.749 119.754 412.481C120.602 413.213 121.763 413.681 123.237 413.887C124.679 414.095 126.166 414.06 127.698 413.783C131.122 413.153 133.743 411.771 135.562 409.638C136.842 408.136 137.287 406.683 136.894 405.278C136.527 403.983 135.172 402.947 132.831 402.17C130.458 401.396 128.098 401.004 125.751 400.993L118.024 410.054Z" fill="#FEF643"/>
<path d="M94.8008 352.009C99.7016 353.543 103.635 356.183 106.601 359.929C109.553 363.657 110.907 367.532 110.661 371.552C110.398 375.586 108.483 379.032 104.917 381.89L91.282 392.817L93.6632 395.825L85.351 402.486L82.9698 399.479L74.1594 406.54L60.0689 392.046L70.4788 383.704L64.5675 376.238L72.8797 369.577L78.791 377.042L87.0245 370.444C89.4893 368.468 90.8425 366.478 91.084 364.474C91.294 362.466 90.3129 360.09 88.1406 357.346L94.8008 352.009Z" fill="#FEF643"/>
<path d="M61.4871 343.313C68.2702 340.516 70.988 337.464 69.6405 334.156C68.9625 332.492 67.7619 331.857 66.0387 332.251C65.5085 332.373 64.9435 332.557 64.3438 332.804L40.272 342.729L32.7208 324.191L71.2791 308.294L75.4487 318.53L71.2177 325.487C75.8717 326.654 79.7533 329.513 82.8627 334.063C86.6572 339.642 87.6317 344.999 85.7864 350.134C84.3953 354.012 81.611 356.813 77.4336 358.535L51.1284 369.38L43.5264 350.718L61.4871 343.313Z" fill="#FEF643"/>
<path d="M34.8416 280.151C35.2576 282.177 36.4182 284.106 38.3233 285.937C40.2284 287.768 41.8398 288.558 43.1575 288.307L62.1993 284.349L66.283 304.232L25.4745 312.715L21.3908 292.831L25.7573 291.924C23.8414 291.151 22.2104 290.044 20.8644 288.602C19.5139 287.137 18.548 285.49 17.9666 283.659L34.8416 280.151Z" fill="#FEF643"/>
<path d="M48.1768 268.006C46.3425 269.641 44.1184 270.878 41.5046 271.718C38.8706 272.534 36.096 272.805 33.1807 272.533C30.2655 272.261 27.7666 271.734 25.6839 270.952C21.5408 269.391 18.1571 267.02 15.5326 263.84C14.2364 262.319 13.1772 260.662 12.355 258.869C10.6521 255.187 9.97936 251.41 10.3367 247.536C10.6961 243.641 12.2907 240.346 15.1204 237.652C16.0306 236.789 17.0517 236.06 18.1839 235.465L13.5198 230.186L14.536 219.171L56.0281 223.046L55.0119 234.061L47.6591 238.218C52.7058 242.392 54.8963 248.208 54.2308 255.666C54.063 257.728 53.459 259.895 52.4187 262.169C51.4028 264.423 49.9888 266.368 48.1768 268.006ZM25.4505 238.447C24.9089 239.21 24.5864 240.151 24.4831 241.27C24.3798 242.389 24.6709 243.613 25.3564 244.942C26.0217 246.246 26.9097 247.447 28.0205 248.544C30.5108 250.989 33.1468 252.342 35.9286 252.602C37.8869 252.785 39.3224 252.309 40.2351 251.175C41.0727 250.124 41.1296 248.413 40.4056 246.042C39.6614 243.647 38.6153 241.483 37.2673 239.551L25.4505 238.447Z" fill="#FEF643"/>
<path d="M59.2712 198.098L54.9297 216.716L0 203.751L4.34151 185.133L59.2712 198.098Z" fill="#FEF643"/>
<path d="M51.7326 119.908C50.4646 120.816 49.374 121.964 48.4607 123.351C46.5849 126.2 45.9838 129.373 46.6575 132.87C47.3249 136.335 49.0934 139.024 51.9628 140.936C53.882 142.215 55.6288 142.839 57.2032 142.81C58.7776 142.78 59.9905 142.118 60.8421 140.825C61.6936 139.531 62.3055 137.889 62.6776 135.899C63.0435 133.877 63.1174 130.609 62.8994 126.095L81.0945 138.219C80.0683 143.28 78.0742 148.06 75.1123 152.559C72.1628 157.039 68.5844 160.601 64.3772 163.246C57.6766 167.438 50.7809 168.547 43.6899 166.573C41.2766 165.882 38.8619 164.745 36.4459 163.162C34.0422 161.56 31.9385 159.727 30.1347 157.662C28.331 155.597 26.8738 153.372 25.7633 150.987C23.5237 146.204 22.6994 141.043 23.2903 135.504C23.8935 129.945 25.9631 124.501 29.499 119.171C32.1771 115.103 34.7809 112.146 37.3107 110.298L51.7326 119.908Z" fill="#FEF643"/>
<path d="M84.8378 93.0368C83.4105 94.5259 82.4834 96.5782 82.0565 99.1939C81.6295 101.81 81.8909 103.594 82.8407 104.546L96.8372 118.125L82.8282 132.74L52.8324 103.64L66.8413 89.0246L70.0508 92.1383C69.6032 90.1111 69.5912 88.1316 70.0147 86.1997C70.4537 84.2517 71.2601 82.5196 72.434 81.0033L84.8378 93.0368Z" fill="#FEF643"/>
<path d="M108.651 64.7822C107.626 63.0936 106.331 62.7298 104.767 63.6908C103.079 64.9652 102.48 66.6107 102.971 68.6275C103.194 69.5975 103.574 70.655 104.112 71.7998C104.657 72.9138 105.192 74.1397 105.716 75.4775L111.125 70.2172L108.995 65.4794L108.651 64.7822ZM112.739 80.2517C112.739 80.2517 112.214 80.574 111.165 81.2186C110.669 81.5233 110.181 81.7972 109.7 82.04C111.086 84.3235 113.055 84.8266 115.605 83.5492C116.308 83.1966 116.974 82.8269 117.603 82.4402C119.224 81.444 121.028 79.8216 123.015 77.5731C125.021 75.3129 126.485 72.7408 127.405 69.8568L134.613 77.7184C132.608 84.0353 127.305 89.8366 118.703 95.1222C113.763 98.1576 108.639 99.3165 103.333 98.5989C97.5577 97.8002 92.9695 94.5993 89.5679 88.9962C87.005 84.7747 85.7915 80.3169 85.9272 75.6228C86.0851 71.3103 87.4067 67.2971 89.8921 63.5831C92.3774 59.8692 95.6228 56.7816 99.6282 54.3205C104.816 51.1327 109.429 49.866 113.466 50.5204C117.523 51.1631 120.561 53.1693 122.58 56.5391C124.619 59.8971 124.838 63.8595 123.237 68.4264C121.636 72.9933 118.137 76.9351 112.739 80.2517Z" fill="#FEF643"/>
<path d="M140.568 67.6653C138.418 66.4834 136.506 64.7978 134.835 62.6085C133.18 60.3918 131.985 57.8576 131.252 55.0061C130.518 52.1546 130.164 49.6107 130.189 47.3746C130.245 42.924 131.315 38.9177 133.399 35.3556C134.383 33.6132 135.573 32.049 136.971 30.6631C139.837 27.8034 143.141 25.8863 146.884 24.9117C150.649 23.9314 154.271 24.3239 157.749 26.0892C158.865 26.658 159.893 27.3775 160.832 28.2476L164.188 22.0436L174.833 19.2719L185.274 59.8573L174.629 62.629L168.249 57.0787C166.056 63.2703 161.359 67.315 154.16 69.2127C152.175 69.7528 149.943 69.9159 147.464 69.702C145.012 69.5043 142.714 68.8254 140.568 67.6653ZM160.507 36.1361C159.61 35.8818 158.621 35.8955 157.539 36.1772C156.457 36.4589 155.411 37.1493 154.401 38.2484C153.407 39.3201 152.586 40.5676 151.936 41.9909C150.493 45.1769 150.122 48.1303 150.822 50.8513C151.314 52.7668 152.246 53.9643 153.616 54.4437C154.882 54.8803 156.502 54.3542 158.473 52.8654C160.461 51.3491 162.13 49.6255 163.48 47.6947L160.507 36.1361Z" fill="#FEF643"/>
<path d="M234.719 13.7574C239.185 9.48777 244.314 7.78251 250.107 8.64158C251.699 8.87766 253.287 9.45397 254.869 10.3705C256.474 11.2903 257.814 12.4776 258.888 13.9324C261.226 17.0973 262.067 20.9153 261.412 25.3864L257.266 53.6811L238.03 50.8285L241.164 29.4406C241.565 26.7046 241.448 24.494 240.814 22.8091C240.183 21.1018 239.27 20.1597 238.076 19.9826C236.908 19.7866 236.022 20.4393 235.418 21.9406C235.242 22.3691 235.113 22.8614 235.032 23.4175L231.165 49.8104L212.36 47.0217L215.493 25.6338C215.894 22.8977 215.733 20.6807 215.011 18.9826C214.314 17.2655 213.412 16.325 212.307 16.1611C210.538 15.8987 209.443 17.2023 209.023 20.0719L205.229 45.9642L185.529 43.0427L191.605 1.56822L202.484 3.18145L206.278 10.3579C208.251 8.15035 210.835 6.54499 214.032 5.54176C217.254 4.51957 220.424 4.23964 223.542 4.70197C227.588 5.30201 230.735 7.17791 232.985 10.3297C233.717 11.3473 234.295 12.4899 234.719 13.7574Z" fill="#FEF643"/>
<path d="M307.265 2.66619C317.349 7.42732 324.829 11.2693 329.706 14.1922C334.583 17.1151 338.231 19.7854 340.649 22.2032C343.087 24.6325 344.781 27.1529 345.733 29.7643C347.565 34.8409 346.497 40.7306 342.528 47.4335C340.744 50.447 338.542 52.8698 335.922 54.7021C333.302 56.5343 330.481 57.7618 327.459 58.3845C324.437 59.0072 321.313 59.0326 318.088 58.4605C314.862 57.8885 311.752 56.7049 308.757 54.9098L303.699 51.7214L298.74 60.0952L279.933 48.8238L307.265 2.66619ZM326.935 28.8233C325.284 27.8337 322.184 27.5331 317.635 27.9216L311.167 38.8453L315.515 39.2132C318.394 39.447 320.573 39.3264 322.051 38.8512C324.811 37.9671 326.741 36.5979 327.839 34.7435C328.937 32.889 329.039 31.2884 328.146 29.9416C327.857 29.5068 327.453 29.134 326.935 28.8233Z" fill="#FEF643"/>
<path d="M361.677 70.0771C356.309 75.0991 354.835 78.9192 357.254 81.5373C358.472 82.8546 359.818 83.0231 361.292 82.0429C361.746 81.7413 362.21 81.3685 362.685 80.9245L381.736 63.1025L395.296 77.7738L364.78 106.321L357.292 98.2198L358.815 90.2094C354.051 90.767 349.417 89.4679 344.913 86.3122C339.408 82.4358 336.619 77.7678 336.548 72.3082C336.491 68.1855 338.116 64.5778 341.422 61.485L362.241 42.0094L375.892 56.7795L361.677 70.0771Z" fill="#FEF643"/>
<path d="M427.727 109.415C427.411 108.315 426.969 107.307 426.4 106.392C425.368 104.734 424.106 103.765 422.613 103.485C421.151 103.212 419.579 103.525 417.898 104.425L422.932 112.515L413.924 118.188L408.89 110.098L382.577 126.669L371.94 109.574L398.253 93.0023L396.225 89.7433L405.233 84.0703L407.261 87.3293L413.256 83.5533C416.401 81.5728 419.675 81.2618 423.078 82.6202C426.481 83.9787 429.487 86.7543 432.096 90.9472C434.723 95.1281 436.099 99.5005 436.223 104.065L427.727 109.415Z" fill="#FEF643"/>
<path d="M447.977 148.552C447.877 147.41 447.635 146.336 447.25 145.328C446.554 143.502 445.499 142.307 444.088 141.745C442.705 141.195 441.103 141.199 439.281 141.758L442.681 150.669L432.759 154.5L429.36 145.589L400.378 156.78L393.194 137.95L422.176 126.76L420.807 123.17L430.728 119.339L432.098 122.929L438.702 120.379C442.165 119.041 445.438 119.367 448.519 121.357C451.6 123.346 454.021 126.65 455.783 131.268C457.566 135.878 458.083 140.435 457.335 144.938L447.977 148.552Z" fill="#FEF643"/>
<path d="M442.356 193.22C442.705 188.105 442.697 184.427 442.334 182.186C442.229 181.542 442.005 181.066 441.661 180.758C441.32 180.473 440.973 180.359 440.62 180.417C439.892 180.536 439.301 181.567 438.846 183.51C438.417 185.471 437.973 187.275 437.516 188.922C437.058 190.569 436.412 192.031 435.577 193.307C433.76 196.066 430.668 197.803 426.3 198.52C421.955 199.233 418.356 198.195 415.503 195.405C412.65 192.615 410.785 188.513 409.907 183.099C409.029 177.684 408.824 173.275 409.291 169.872C409.48 168.383 409.8 167.214 410.251 166.366L422.527 164.351C422.555 164.666 422.5 165.233 422.361 166.053C422.222 166.873 422.012 168.229 421.73 170.121C421.47 172.009 421.458 173.685 421.696 175.15C421.937 176.636 422.598 177.291 423.679 177.114C424.517 176.976 425.225 176.177 425.803 174.715C426.059 174.058 426.313 173.321 426.566 172.505C427.581 169.126 428.971 166.597 430.737 164.918C432.528 163.257 434.769 162.206 437.46 161.764C442.247 160.979 446.137 162.345 449.13 165.864C451.648 168.822 453.337 172.953 454.197 178.257C454.798 181.963 455.036 185.74 454.913 189.587C454.888 190.412 454.86 190.94 454.83 191.173L442.356 193.22Z" fill="#FEF643"/>
</svg>
