<svg width="175" height="205" viewBox="0 0 175 205" fill="none" xmlns="http://www.w3.org/2000/svg">
<path d="M12.3966 74.8363C13.7925 72.7251 15.3842 70.8104 17.2208 69.092C19.89 66.6248 22.7796 64.4768 25.9018 62.6111C30.2362 60.0581 34.6807 57.8119 39.3212 55.9339C44.831 53.6386 50.5612 52.0062 56.4383 50.9751C62.3889 49.9195 68.3395 49.3917 74.388 49.404C83.0935 49.4777 91.7745 49.8213 100.419 50.5946C109.185 51.3802 117.769 53.1599 126.131 55.9217C132.082 57.9346 139.294 60.7577 144.46 64.44C147.105 66.3671 149.407 68.6133 151.378 71.24C153.913 74.6768 155.26 78.5554 155.884 82.8023C156.202 84.9994 156.509 89.2709 156.509 89.2709L154.427 90.5474C154.305 89.2341 154.145 87.9207 153.974 86.6074C153.607 84.2384 153.007 81.894 152.113 79.6724C150.705 76.1742 148.428 73.4002 145.22 71.4363C141.583 69.2761 137.714 67.619 133.625 66.5021L132.89 69.2515C136.722 70.3071 140.346 71.8782 143.75 73.9158C146.407 75.536 148.33 77.8312 149.468 80.728C150.044 82.2745 150.876 84.3734 150.84 85.9077C143.873 80.6298 136.061 77.193 135.657 77.0089L132.584 75.5851C123.511 71.4241 112.43 68.4905 102.623 66.7721C98.7536 66.0848 94.811 65.7043 90.9052 65.6183C84.7832 65.5201 78.6857 65.7902 72.6127 66.5144C62.0338 67.7418 51.4305 69.0183 40.8517 70.3317C35.3052 71.0558 29.8199 72.0501 24.3958 73.3511C22.1429 73.9035 20.1838 74.9713 18.5676 76.5915C16.7555 78.3836 15.4209 80.5316 14.5761 82.9128C13.67 83.1337 12.7517 83.3792 11.8824 83.7352L11.8212 76.8125C11.8212 76.1251 11.9926 75.45 12.3844 74.8486L12.3966 74.8363Z" fill="white"/>
<path d="M157.109 130.5C159.472 132.771 159.374 134.269 159.655 136.355C160.047 139.804 159.888 142.124 158.125 146.015C156.643 149.268 157.047 148.445 153.876 152.484C153.105 153.466 150.387 155.393 148.844 156.645C147.191 157.982 149.811 162.34 148.318 163.346C145.599 165.175 139.649 163.678 138.914 166.795C138.498 168.624 139.575 171.337 135.731 174.553C131.458 177.339 127.429 175.731 127.172 178.616C126.927 181.488 126.927 181.782 126.646 183.39C126.584 183.832 126.388 184.225 126.058 184.544C125.764 184.875 125.36 185.072 124.931 185.133C122.458 185.575 119.948 185.919 117.426 186.091C116.667 186.127 116.03 186.447 115.491 187.011C114.977 187.6 114.757 188.239 114.757 189.012C114.818 190.006 114.72 190.927 114.512 191.847C114.438 192.203 114.242 192.547 113.985 192.805C113.728 193.038 113.41 193.185 113.018 193.246C110.753 193.59 108.561 193.296 106.419 192.596C105.929 192.4 105.402 192.387 104.9 192.461C104.386 192.559 103.945 192.768 103.541 193.136C102.856 193.762 102.047 194.155 101.129 194.327C100.235 194.486 99.3537 194.425 98.4967 194.106C97.8845 193.86 97.309 193.86 96.6968 193.983C96.0846 194.167 95.5826 194.498 95.203 195.026C94.8479 195.517 94.6153 196.082 94.6031 196.696C94.6031 197.506 94.4316 198.254 94.0521 198.954C93.697 199.641 93.2072 200.28 92.595 200.734C92.4236 200.832 92.24 200.918 92.0686 200.955C91.8604 200.955 91.7012 200.918 91.5298 200.844C90.3054 200.231 89.2524 199.482 88.3096 198.549C87.7709 198.058 87.1832 197.8 86.473 197.739C85.7629 197.69 85.1629 197.898 84.5875 198.328C82.1754 200.132 79.4817 201.311 76.4819 201.814C73.5066 202.293 70.5681 202.047 67.7275 201.041C65.9398 200.439 64.3114 199.482 63.0135 198.132C61.6422 196.806 60.6382 195.223 60.0015 193.431C59.7689 192.866 59.4015 192.387 58.8995 192.019C58.3608 191.688 57.7976 191.516 57.1731 191.565C53.7815 191.712 50.745 190.755 48.0024 188.754C45.3087 186.704 43.57 184.029 42.7497 180.714C42.5905 180.052 42.2232 179.475 41.6355 179.07C41.0723 178.652 40.3866 178.505 39.7009 178.591C37.3501 178.775 35.2319 178.235 33.334 176.86C32.4402 176.234 31.7791 175.473 31.1791 174.565C30.6281 173.657 30.2731 172.699 30.1261 171.631C30.0282 171.079 29.7955 170.613 29.4649 170.22C29.1221 169.803 28.6691 169.496 28.1303 169.336C27.6161 169.189 27.0896 169.189 26.5631 169.324C25.4612 169.606 24.3592 169.79 23.196 169.803C22.9266 169.803 22.6818 169.68 22.4614 169.52C22.2655 169.324 22.1675 169.066 22.1308 168.808C22.1063 168.121 21.8369 167.532 21.3839 167.053C20.9186 166.513 20.3799 166.243 19.7187 166.133C19.0331 166.034 18.4086 166.169 17.8209 166.513C17.5883 166.66 17.2944 166.795 17.0128 166.881C17.0618 165.482 17.2577 164.046 17.5638 162.696C17.8576 161.333 17.7597 160.045 17.2087 158.743C16.4251 156.902 12.7519 155.699 11.6009 154.718C8.76033 152.299 8.74809 152.005 8.01345 151.011C6.87476 149.476 6.10339 146.985 5.93197 146.396C5.30753 144.358 4.59737 140.725 4.97693 137.939C5.44221 134.71 5.7728 132.489 7.93999 130.071C9.40927 128.512 10.1806 126.646 10.2908 124.523C10.3521 122.608 10.6826 120.779 11.2581 118.926C12.3111 118.926 13.2539 118.57 14.0742 117.932C14.8946 117.281 15.4456 116.434 15.7394 115.44C16.6332 112.052 17.0618 108.615 17.0618 105.105C18.2494 104.098 19.3269 102.957 20.2697 101.644C20.1473 102.822 20.0248 104.025 19.7922 105.166C19.2779 108.112 19.131 111.119 19.3269 114.151C21.2247 114.47 23.1225 114.679 25.0449 114.716C25.3142 114.752 25.6081 114.851 25.7795 115.035C25.9999 115.219 26.1835 115.477 26.1835 115.796C26.3182 116.986 26.4039 118.202 26.4039 119.441C27.6773 119.613 28.9507 119.699 30.2118 119.773C30.3955 119.773 30.5424 119.797 30.6893 119.895C30.7995 119.969 30.922 120.116 31.0077 120.251C31.0812 120.386 31.1056 120.546 31.1056 120.706C30.9832 123.013 31.0567 125.357 31.2648 127.653C31.828 127.874 32.4035 127.935 32.9912 127.886C33.6034 127.837 34.1789 127.653 34.7176 127.346C35.4523 126.916 36.2481 126.622 37.1174 126.499C37.7174 126.425 38.3296 126.548 38.8806 126.879C39.4316 127.235 39.8234 127.702 40.056 128.279C40.4723 129.371 40.9253 130.5 41.3784 131.605C40.558 132.035 39.7499 132.489 38.9418 132.918C38.1459 133.336 37.3501 133.643 36.4808 133.937C35.7461 134.134 35.0115 134.293 34.2523 134.391C33.5544 134.49 32.8443 134.416 32.1954 134.244C31.4974 134.06 30.8853 133.716 30.3343 133.274C28.5466 131.789 26.8202 130.243 25.1673 128.61C24.3225 127.8 23.3552 127.395 22.2165 127.321C21.3349 127.272 20.5513 127.456 19.8167 127.898C19.0943 128.34 18.5678 128.942 18.2372 129.727C17.6372 131.102 17.4291 132.526 17.5515 134.011C17.7597 135.999 18.5188 137.73 19.8289 139.252C22.192 141.928 24.9959 144.063 28.2161 145.585C29.9792 146.408 31.7913 146.972 33.7259 147.218C34.3013 149.12 35.3053 150.802 36.6277 152.287C37.1052 152.815 37.7541 153.171 38.5255 153.343C40.0683 153.601 41.562 153.416 43.0068 152.729C44.7699 151.882 46.4474 150.827 47.9534 149.611C48.333 150.557 48.9084 151.379 49.6676 152.066C50.1328 152.496 50.696 152.79 51.2838 152.95C51.9082 153.097 52.5327 153.134 53.1449 152.999C55.6916 152.52 58.0425 151.538 60.1239 150.041C60.5525 150.078 60.9565 150.188 61.3483 150.446C61.7034 150.692 62.0218 150.974 62.2789 151.342C62.7809 152.066 63.4053 152.594 64.2012 152.938C64.9848 153.257 65.8052 153.38 66.6867 153.232C67.5193 153.097 68.3029 152.741 68.9274 152.164C69.6498 151.526 70.3599 150.851 71.0456 150.176C71.5476 151.416 72.1843 152.57 72.9312 153.625C73.2373 154.092 73.5923 154.411 74.0454 154.668C74.4617 154.951 74.9392 155.135 75.4534 155.209C76.1146 155.307 76.788 155.294 77.4614 155.073C78.1349 154.926 78.7103 154.583 79.2368 154.116C79.8735 153.564 80.4123 152.962 80.8163 152.226C81.7468 153.355 82.7876 154.3 84.0732 155.061C84.8079 155.515 86.7424 155.761 87.6362 155.773C88.5178 155.773 88.2729 155.552 89.0076 155.098C90.2809 154.374 91.2727 153.355 91.9339 152.054C93.8072 153.932 97.0641 155.086 99.6231 155.589C107.631 156.362 110.116 152.373 110.839 151.637C112.638 152.79 114.573 153.588 116.716 153.895C117.793 154.055 118.858 153.969 119.911 153.637C120.989 153.331 121.932 152.803 122.74 152.042C123.781 151.121 124.662 150.029 125.384 148.826C127.16 149.39 128.935 149.378 130.698 148.777C131.898 148.372 132.792 147.586 133.38 146.457C133.931 145.266 134.053 144.1 133.661 142.897C136.698 140.983 139.343 138.651 141.62 135.901C142.159 135.14 142.477 134.219 142.453 133.25C142.404 132.243 142.024 131.433 141.351 130.721C140.947 130.316 140.494 130.009 139.979 129.776C139.453 129.543 138.914 129.494 138.351 129.494C136.184 129.58 134.127 130.034 132.131 130.795C131.617 130.967 131.2 131.274 130.809 131.642C130.429 132.01 130.135 132.44 129.915 132.955C129.817 133.299 129.56 133.544 129.205 133.741C128.874 133.949 128.531 133.999 128.164 133.974C127.76 133.925 127.441 133.753 127.172 133.495C126.878 133.201 126.572 132.882 126.291 132.612C127.588 130.746 130.919 129.285 132.939 128.266C134.127 127.702 135.265 127.1 136.392 126.462C137.151 126.069 137.763 125.517 138.253 124.781C138.755 124.142 139.061 123.357 139.208 122.534C139.441 121.344 139.551 120.178 139.649 118.975C139.685 117.846 140.004 116.815 140.481 115.82C141.277 114.335 144.816 110.395 144.204 108.824C145.881 113.108 148.379 116.778 151.599 119.024C152.113 119.368 152.529 119.76 152.872 120.264C153.105 120.595 153.35 120.914 153.619 121.246C153.925 121.712 154.097 122.191 154.023 122.755C153.962 123.344 153.705 123.811 153.301 124.204C152.86 124.547 152.346 124.731 151.783 124.707C151.354 124.707 150.962 124.817 150.668 125.087C150.362 125.37 150.154 125.713 150.093 126.118C150.032 126.573 150.142 126.929 150.387 127.297C150.632 127.604 150.962 127.825 151.366 127.911C153.252 128.316 155.456 128.843 157.158 130.488L157.109 130.5Z" fill="white"/>
<path d="M154.489 105.264C155.199 105.498 155.835 105.903 156.337 106.529C156.79 107.106 157.096 107.818 157.182 108.579C157.182 108.64 157.182 108.664 157.182 108.689C157.256 108.714 157.268 108.726 157.28 108.726C158.333 108.971 159.288 108.787 160.194 108.296C160.721 108.002 161.149 107.609 161.504 107.081C161.823 106.615 162.043 106.062 162.153 105.461C162.435 103.792 162.263 102.135 161.7 100.502C161.48 99.9252 161.149 99.4342 160.672 99.0537C160.206 98.6855 159.668 98.4154 159.08 98.2927C157.721 98.0717 156.386 98.1699 155.125 98.5995C154.929 98.6732 154.733 98.7468 154.525 98.8082C154.403 100.907 154.195 103.018 153.84 105.105C154.072 105.154 154.256 105.203 154.476 105.277" fill="white"/>
<path d="M169.022 97.5442C168.006 96.2677 166.732 95.3103 165.287 94.6106C161.847 93.1009 158.259 92.7327 154.611 93.4323C154.623 94.2056 154.635 94.9666 154.635 95.7644C156.251 95.2734 157.88 95.2121 159.545 95.4576C160.647 95.6785 161.663 96.1449 162.496 96.8323C163.365 97.5687 163.965 98.4402 164.369 99.5081C165.116 101.607 165.312 103.743 164.945 105.915C164.81 106.946 164.443 107.879 163.843 108.726C163.255 109.573 162.508 110.248 161.651 110.764C160.071 111.647 158.406 111.881 156.692 111.512C156.031 111.365 155.529 111.058 155.088 110.567C154.635 110.076 154.39 109.524 154.329 108.837C154.292 108.677 154.243 108.456 154.109 108.309C153.986 108.161 153.815 108.039 153.607 107.965C152.97 107.769 152.358 107.805 151.758 108.088C151.146 108.358 150.717 108.837 150.448 109.413C150.044 110.273 149.897 111.169 149.909 112.126C149.946 112.875 150.031 113.648 150.154 114.397C151.133 115.195 152.15 115.956 153.178 116.68C153.937 117.195 154.611 117.858 155.149 118.595C155.37 118.889 155.59 119.221 155.798 119.515C156.41 120.313 156.766 121.197 156.827 122.179C157.806 122.461 158.823 122.4 159.765 122.007C162.471 120.878 164.749 119.147 166.536 116.778C168.214 114.544 169.524 112.163 170.479 109.512C171.36 106.983 171.52 104.406 171.03 101.803C170.675 100.22 170.001 98.8084 169.01 97.5442" fill="white"/>
<path d="M132.131 140.443C134.91 138.712 137.322 136.588 139.367 134.06C139.538 133.839 139.624 133.606 139.624 133.336C139.587 133.102 139.501 132.857 139.293 132.673C139.208 132.575 139.048 132.464 138.902 132.427C138.755 132.341 138.62 132.317 138.436 132.317C136.612 132.415 134.861 132.759 133.159 133.422C133.037 133.471 132.89 133.544 132.804 133.655C132.706 133.765 132.62 133.888 132.547 133.999C132.143 134.968 131.518 135.705 130.612 136.22C129.743 136.723 128.812 136.883 127.784 136.76C126.768 136.637 125.911 136.245 125.164 135.521C123.915 134.281 122.629 133.066 121.319 131.9C120.266 130.905 119.005 130.255 117.597 129.899C115.981 129.543 114.414 129.666 112.883 130.218C112.454 130.39 112.063 130.525 111.695 130.721C110.814 131.691 109.834 132.538 108.745 133.274C107.3 134.183 105.733 134.772 104.006 135.042C102.304 135.3 100.602 135.226 98.9616 134.76C97.5902 134.367 96.5005 133.532 95.7536 132.305C95.1292 131.225 94.5415 130.169 93.9293 129.101C93.1702 130.181 92.6926 131.384 92.4722 132.685C92.3743 133.348 92.0804 133.974 91.6641 134.514C91.2478 135.054 90.7091 135.459 90.1092 135.729C87.7705 136.711 85.3462 137.03 82.8117 136.674C81.9179 136.527 81.1098 136.208 80.3507 135.631C79.616 135.091 79.0651 134.379 78.7222 133.532C78.2325 132.366 77.8284 131.114 77.608 129.862C75.8571 130.881 74.2654 132.121 72.8574 133.581C71.8044 134.637 70.5432 135.312 69.0739 135.57C66.2823 136.036 63.5519 135.778 60.895 134.833C58.6176 133.999 56.8789 132.562 55.6055 130.525C55.1892 130.439 54.7974 130.39 54.4179 130.279C52.9241 129.973 51.4671 130.046 49.9733 130.476C48.6754 130.856 47.4266 131.384 46.2389 132.084C44.2798 133.25 42.2841 134.367 40.2761 135.422C39.3088 135.938 38.3293 136.343 37.264 136.625C36.3825 136.883 35.5254 137.067 34.6438 137.165C33.5541 137.325 32.4644 137.227 31.4114 136.969C30.3339 136.662 29.3789 136.134 28.5218 135.435C26.6852 133.9 24.9098 132.28 23.1589 130.599C22.8528 130.292 22.4733 130.108 22.0447 130.12C21.7998 130.083 21.555 130.12 21.3468 130.255C21.1019 130.402 20.9795 130.623 20.8693 130.819C20.453 131.728 20.3306 132.697 20.404 133.667C20.5754 135.054 21.0897 136.257 21.9958 137.313C24.0895 139.706 26.5873 141.559 29.4523 142.946C30.9829 143.634 32.5134 144.125 34.1663 144.321C34.7173 144.432 35.1825 144.616 35.6111 145.009C36.0274 145.352 36.3212 145.806 36.4682 146.346C36.9579 147.819 37.6558 149.133 38.7211 150.262C38.8313 150.36 38.9415 150.434 39.0761 150.458C40.0189 150.63 40.925 150.507 41.8188 150.115C43.3738 149.354 44.8308 148.421 46.1899 147.304C46.6674 146.899 47.2429 146.702 47.8551 146.666C48.4551 146.666 49.006 146.801 49.5448 147.132C50.0713 147.488 50.4263 147.954 50.659 148.519C50.8426 149.059 51.1487 149.489 51.5528 149.845C51.712 149.98 51.8711 150.053 52.0548 150.102C52.2507 150.139 52.4588 150.176 52.6425 150.139C54.7852 149.746 56.7075 148.912 58.4706 147.648C59.0828 147.181 59.7807 147.034 60.5031 147.107C61.348 147.218 62.1194 147.476 62.854 147.942C63.5764 148.384 64.1519 148.949 64.6294 149.66C64.8008 149.931 65.0457 150.078 65.3395 150.262C65.6456 150.372 65.9272 150.397 66.2211 150.336C66.5517 150.286 66.8211 150.188 67.0537 149.943C67.7271 149.378 68.3883 148.728 69.0617 148.089C69.5147 147.648 70.0412 147.377 70.6779 147.316C71.3269 147.23 71.9146 147.341 72.4533 147.648C73.0288 147.967 73.4206 148.445 73.6777 149.034C74.1185 150.053 74.6572 151.035 75.2817 151.956C75.3551 152.066 75.4653 152.164 75.5755 152.214C75.6735 152.275 75.7837 152.349 75.9061 152.349C76.1755 152.385 76.4326 152.373 76.6897 152.299C76.9346 152.201 77.1917 152.091 77.3754 151.894C77.7794 151.563 78.11 151.158 78.4161 150.679C78.7712 150.151 79.1875 149.796 79.7875 149.525C80.3384 149.305 80.9629 149.255 81.5628 149.403C82.175 149.575 82.6648 149.869 83.0566 150.36C83.7668 151.232 84.6116 151.956 85.5666 152.545C85.8727 152.717 86.1911 152.852 86.5829 152.852C86.9624 152.852 87.2685 152.754 87.6114 152.557C88.395 152.091 88.9949 151.477 89.4235 150.655C89.7173 150.127 90.1336 149.71 90.6846 149.427C91.2478 149.157 91.7988 149.084 92.411 149.145C93.011 149.268 93.5497 149.538 93.9783 150.004C95.7536 151.723 97.9086 152.717 100.394 152.864C101.974 152.975 103.504 152.717 104.949 152.14C106.455 151.575 107.716 150.692 108.818 149.538C109.296 149.084 109.859 148.777 110.544 148.703C111.23 148.629 111.83 148.777 112.442 149.133C113.887 150.127 115.442 150.716 117.156 150.962C117.817 151.084 118.479 151.011 119.115 150.839C119.789 150.63 120.34 150.299 120.866 149.832C121.686 149.071 122.372 148.224 122.935 147.279C123.303 146.702 123.756 146.322 124.368 146.076C125.017 145.843 125.629 145.843 126.241 146.04C127.453 146.396 128.629 146.383 129.841 146.003C130.294 145.819 130.625 145.512 130.869 145.045C131.078 144.603 131.127 144.137 130.967 143.671C130.771 143.057 130.796 142.431 131.016 141.805C131.274 141.167 131.641 140.725 132.167 140.369" fill="white"/>
<path d="M38.2437 53.2829C43.9617 50.9262 49.8633 49.2201 55.9363 48.1277C62.0461 47.0721 68.2048 46.532 74.4248 46.5689C83.2037 46.5811 91.9582 46.9862 100.676 47.7349C109.675 48.5573 118.454 50.3616 127.013 53.2215C133.257 55.3204 140.763 58.2662 146.113 62.1204C147.191 62.9059 148.219 63.7406 149.223 64.6366C149.15 63.6056 149.064 62.6113 148.819 61.6171C147.974 57.7016 146.554 54.0071 144.595 50.5334C142.624 47.0598 141.693 44.5681 135.584 37.94C132.021 34.0614 124.539 29.7776 120.572 27.8997C115.736 25.6412 110.74 23.9842 105.549 22.9286C99.2556 21.6521 92.9132 20.9524 86.5096 20.8542C81.7467 20.7683 77.0205 20.977 72.331 21.4802C63.7357 22.4499 55.7771 25.1502 48.3695 29.6672C41.2068 34.0614 35.146 39.6216 30.1504 46.3479C28.8403 48.1277 27.5914 49.9688 26.4038 51.8222C27.8853 50.8403 29.4403 49.8706 30.983 48.9132C33.3828 47.4772 35.8072 46.1147 38.3049 44.8382L39.5783 47.3912C37.1662 48.6309 34.8031 49.9566 32.4156 51.3558C29.1954 53.3197 26.0364 55.4554 22.951 57.6771C22.0449 59.3832 21.1756 61.1016 20.3552 62.8691C21.6776 61.8749 23.0489 61.0034 24.4202 60.181C28.8648 57.5543 33.4563 55.2222 38.2315 53.2829" fill="white"/>
<path d="M20.6 78.6172C19.449 79.7587 18.5185 81.0352 17.8328 82.4836C19.0817 82.4222 20.3551 82.459 21.5917 82.6677C21.6774 82.3976 21.7142 82.1276 21.8366 81.8085C22.3141 79.9305 22.9876 78.1753 23.8936 76.4814C22.6325 76.9601 21.5183 77.6966 20.6122 78.6294" fill="white"/>
<path d="M37.2029 79.2059C38.2926 79.5005 39.3578 79.3777 40.4108 78.9481C41.4271 78.4572 42.2352 77.7698 42.7616 76.7142C43.129 76.0637 43.6065 75.5727 44.2309 75.1677C44.8676 74.7994 45.5533 74.5908 46.3002 74.5785C47.0348 74.5785 47.7205 74.7749 48.3449 75.1308C48.5408 75.2536 48.7979 75.2904 49.0428 75.2536C49.2632 75.1799 49.4469 75.0695 49.5938 74.8608C50.1693 74.063 50.9406 73.5229 51.8467 73.2774C52.814 73.0442 53.7568 73.1301 54.6138 73.5597C55.4587 73.9402 56.3035 74.1121 57.2096 74.0753C58.1401 73.9893 58.9727 73.6825 59.7196 73.1915C60.393 72.6883 61.1766 72.406 62.046 72.32C62.8418 72.2341 63.6744 72.3569 64.4091 72.7005C64.96 72.9092 65.4743 72.9951 66.0253 72.9337C66.5885 72.8601 67.115 72.6514 67.5558 72.2709C67.3721 71.5222 67.1027 70.7857 66.7354 70.0984C58.2136 71.0803 49.7162 72.1359 41.2067 73.1547C39.9823 73.3633 38.7579 73.4984 37.5212 73.707C37.2274 74.0139 36.9457 74.333 36.7498 74.7135C36.2111 75.5604 35.9295 76.4565 35.8928 77.463C35.8928 77.868 36.003 78.224 36.2356 78.5799C36.4805 78.899 36.7866 79.0954 37.2029 79.2304" fill="white"/>
<path d="M15.0048 94.0089C14.4783 94.2421 14.0497 94.5613 13.6947 95.0032C13.3396 95.445 13.107 95.9115 12.9845 96.4883C12.507 98.6977 12.5315 100.87 13.0457 103.08C13.1314 103.337 13.2784 103.583 13.4865 103.792C13.56 103.865 13.6457 103.89 13.7314 103.89C13.8416 103.89 13.9273 103.865 13.964 103.816C15.8741 102.515 17.4413 100.858 18.6535 98.8941C19.0943 98.2558 19.6697 97.7894 20.4166 97.5808V95.5064C19.9146 95.3223 19.4738 95.0645 19.0943 94.7331C18.5433 94.2053 17.8944 93.8985 17.172 93.7635C16.4128 93.6653 15.7149 93.7389 15.0048 94.0089Z" fill="white"/>
<path d="M11.1352 116.078C11.5637 116.078 11.931 115.943 12.2616 115.648C12.5922 115.415 12.8126 115.059 12.9473 114.666C13.633 112.077 14.0248 109.401 14.1472 106.7C13.7187 106.75 13.2656 106.737 12.8493 106.602C12.4331 106.467 12.0412 106.32 11.7229 106.013C10.9638 105.412 10.4863 104.638 10.2904 103.73C9.67815 101.116 9.65366 98.489 10.2291 95.8868C10.4005 94.8681 10.8658 93.9843 11.4903 93.2111C12.1392 92.4255 12.9473 91.8118 13.8656 91.4067C14.9798 90.9526 16.094 90.793 17.2449 90.9158C18.4326 91.0508 19.4734 91.4436 20.4161 92.1309C20.4406 91.3699 20.4774 90.6089 20.5141 89.8234C20.6243 88.3627 20.7835 86.9143 21.0161 85.4537C19.4489 85.245 17.9061 85.2573 16.3389 85.4905C13.0697 85.9692 10.2169 87.3194 7.75584 89.5042C5.93149 91.149 4.62138 93.1497 3.82552 95.4572C2.56439 99.0904 2.52765 102.834 3.60513 106.529C4.75606 110.26 6.86203 113.316 9.93528 115.661C10.3271 115.918 10.6822 116.066 11.1229 116.066" fill="white"/>
<path d="M124.172 130.66C123.854 130.353 123.548 130.083 123.23 129.789C121.809 128.475 120.132 127.616 118.234 127.162C116.863 126.806 115.467 126.794 114.059 126.978C114.487 125.836 114.671 124.719 114.647 123.504C114.573 122.277 114.267 121.147 113.716 120.055C113.349 119.368 112.92 118.668 112.479 117.981C114.732 118.349 116.924 118.091 119.03 117.171C121.797 115.968 124.062 114.151 125.923 111.77L123.646 110.052C122.115 112.04 120.205 113.537 117.904 114.593C115.724 115.489 113.545 115.55 111.328 114.74C109.161 113.942 107.19 112.776 105.427 111.267C102.733 108.861 100.909 105.94 100.027 102.441C99.2069 99.4343 98.9988 96.378 99.3171 93.2603C99.3906 92.352 99.6477 91.5174 100.101 90.7073C100.603 89.9217 101.19 89.2466 101.925 88.7434C103.419 87.6632 105.133 87.0495 106.97 86.8531C111.341 86.4604 115.516 87.1723 119.458 89.087L120.72 86.5708C116.251 84.3983 111.598 83.5391 106.651 83.9932C104.325 84.2878 102.194 85.0488 100.321 86.4113C99.1947 87.16 98.3131 88.1051 97.6519 89.2712C96.9907 90.4372 96.5622 91.6892 96.4643 92.9903C96.1214 96.4516 96.3908 99.8148 97.2356 103.153C98.3253 107.228 100.395 110.641 103.566 113.415C104.668 114.384 105.868 115.244 107.129 115.968C108.794 117.539 110.153 119.355 111.218 121.368C111.586 122.154 111.782 122.964 111.794 123.823C111.794 124.695 111.622 125.529 111.267 126.303C110.275 128.205 108.941 129.739 107.166 130.881C106.039 131.605 104.851 132.072 103.578 132.28C102.268 132.477 100.97 132.378 99.6967 132.047C99.0477 131.875 98.558 131.458 98.1907 130.893C97.5907 129.874 97.003 128.831 96.4398 127.788C96.1092 127.236 95.6439 126.794 95.0195 126.524C94.4317 126.278 93.8073 126.229 93.1584 126.401C92.5217 126.585 92.0074 126.941 91.6279 127.481C90.5749 128.942 89.926 130.513 89.6321 132.305C89.6076 132.452 89.5464 132.661 89.424 132.808C89.277 132.943 89.1546 133.054 88.9342 133.152C87.1221 133.9 85.1998 134.158 83.204 133.9C82.7999 133.851 82.4204 133.692 82.0775 133.434C81.7225 133.152 81.4653 132.82 81.3307 132.464C80.8776 131.446 80.6083 130.464 80.4124 129.396C80.2777 128.794 80.0083 128.267 79.5308 127.812C79.09 127.42 78.5513 127.162 77.8901 127.088C77.3024 126.99 76.7392 127.15 76.1759 127.432C74.2169 128.573 72.3925 129.985 70.8131 131.617C70.1764 132.219 69.4295 132.624 68.5724 132.771C66.2583 133.176 64.0421 132.955 61.826 132.194C60.3322 131.617 59.1078 130.709 58.2017 129.371C57.3202 128.058 56.8794 126.597 56.8794 125.002C56.9651 123.099 57.614 121.467 58.9486 120.08C60.0016 118.999 61.1281 118.005 62.279 117.085C64.4829 115.366 66.1481 113.194 67.3358 110.628C69.5152 105.817 71.3151 100.858 72.7599 95.7765C73.066 94.6841 73.1149 93.5672 72.919 92.4011C72.6986 91.2596 72.2334 90.2654 71.5232 89.3203C69.2458 86.4604 66.3195 84.742 62.683 84.2142C55.8999 83.3181 49.2024 84.0546 42.7376 86.3131L43.7048 88.9643C49.7534 86.8409 55.9733 86.2026 62.3157 87.0372C65.1686 87.4668 67.4704 88.817 69.2581 91.1C69.6989 91.6156 69.9927 92.2661 70.1152 92.9166C70.2254 93.6285 70.2009 94.3159 70.0172 94.991C68.5969 99.9007 66.8338 104.761 64.7278 109.438C63.736 111.537 62.3769 113.341 60.5036 114.814C59.218 115.796 58.0426 116.876 56.9039 118.018C55.0673 119.969 54.1122 122.289 54.0388 124.916C54.0143 125.738 54.1122 126.585 54.2837 127.395C52.5573 127.137 50.8553 127.223 49.1779 127.739C47.6474 128.193 46.1414 128.819 44.7211 129.654C44.4395 129.789 44.1334 129.997 43.8518 130.169C43.4477 129.187 43.0804 128.217 42.7008 127.223C42.2355 126.02 41.4397 125.075 40.3255 124.412C39.2113 123.737 37.9991 123.541 36.7135 123.651C35.7217 123.786 34.7912 124.093 33.8974 124.523C33.8729 123.271 33.8607 122.043 33.9341 120.816C33.9464 120.129 33.8239 119.49 33.4811 118.877C33.1505 118.288 32.7465 117.772 32.1465 117.428C31.5833 117.06 30.9588 116.876 30.2976 116.851C29.9058 116.851 29.4895 116.815 29.11 116.79C29.0733 116.287 29.0488 115.845 28.9753 115.403C28.8529 114.397 28.4121 113.55 27.6774 112.875C26.9428 112.212 26.0857 111.868 25.0695 111.807C24.0655 111.782 23.0614 111.733 22.0697 111.635C22.0452 109.585 22.2166 107.584 22.5717 105.584C23.1104 102.589 23.3431 99.4834 23.2573 96.4025C23.2084 94.2791 23.2573 92.1188 23.3798 89.9585C23.5145 87.4546 23.9063 84.9506 24.5552 82.4958C25.0939 80.3478 25.9633 78.298 27.1632 76.4323C27.3591 76.1131 27.5672 75.7572 27.8121 75.4749C29.7712 75.0085 31.718 74.6157 33.7137 74.272C33.2974 75.2417 33.077 76.2604 33.0403 77.3037C33.0403 78.3839 33.3219 79.3535 33.9464 80.2373C34.5831 81.0597 35.4279 81.6611 36.4564 81.9312C38.2195 82.3608 39.897 82.2626 41.5621 81.5384C43.1783 80.7896 44.464 79.5868 45.3088 78.0402C45.419 77.7947 45.5537 77.6965 45.7251 77.5615C45.8843 77.4633 46.0924 77.4019 46.3128 77.4019C46.4965 77.4019 46.6924 77.4633 46.8883 77.5492C47.7576 78.0157 48.6392 78.1998 49.6065 77.9911C50.586 77.7456 51.3451 77.2178 51.9328 76.4077C52.092 76.2236 52.3246 76.0763 52.5695 75.9659C52.8266 75.9413 53.1082 75.929 53.3409 76.0763C54.6387 76.7146 56.0101 76.9723 57.4426 76.8741C58.8507 76.7269 60.1853 76.2604 61.3484 75.4503C61.6545 75.2294 61.9606 75.168 62.2912 75.1312C62.6463 75.0944 62.9891 75.1557 63.2585 75.2662C64.3482 75.7204 65.4379 75.8554 66.5399 75.6835C67.6419 75.4871 68.6214 75.0698 69.503 74.3334C69.858 73.9897 70.1152 73.646 70.2866 73.1796C70.4213 72.75 70.4335 72.2958 70.3723 71.8294C70.2131 71.1052 70.005 70.3442 69.7478 69.7182C70.8008 69.5464 71.8783 69.4482 72.9558 69.3255C78.9186 68.6258 84.8937 68.2944 90.8687 68.454C93.0727 68.5031 95.2766 68.6627 97.4927 68.8836C96.905 69.1168 96.4153 69.5096 95.9745 69.9883C95.6072 70.4792 95.3011 70.9948 95.1541 71.6208C94.946 72.394 94.9582 73.155 95.1786 73.9283C95.399 74.6893 95.8276 75.3521 96.4275 75.8799C97.0152 76.4077 97.6887 76.7882 98.4845 76.9478C99.7212 77.1565 100.958 77.2424 102.219 77.1319C102.452 77.1319 102.647 77.2056 102.843 77.2915C103.064 77.3651 103.223 77.537 103.358 77.6597C104.251 78.7767 105.39 79.4272 106.798 79.6359C108.17 79.82 109.443 79.4517 110.569 78.5925C110.741 78.4944 110.924 78.4084 111.133 78.3716C111.341 78.3471 111.512 78.3962 111.72 78.4943C111.928 78.568 112.026 78.6662 112.186 78.8503C112.357 79.1203 112.59 79.3413 112.883 79.464C113.141 79.599 113.447 79.6481 113.777 79.6481C115.687 79.5377 117.561 79.3904 119.458 79.2185C119.703 79.2185 119.899 79.2676 120.083 79.3536C120.291 79.4886 120.426 79.6359 120.548 79.8568C120.842 80.4582 121.271 80.9001 121.797 81.2315C122.385 81.5384 123.021 81.6734 123.646 81.612C124.687 81.5138 125.642 81.2561 126.572 80.8633C127.233 80.581 127.772 80.2005 128.237 79.6972C128.666 79.194 129.131 78.0648 129.352 77.4265C129.499 77.5124 129.694 77.5983 129.903 77.6965C130.98 78.1629 138.057 81.7961 139.147 82.3853C139.331 82.6185 140.567 82.9622 140.714 83.2077L141.73 84.4351C141.828 84.5947 145.906 99.6552 144.779 105.314C144.571 106.332 141.522 109.389 141.522 109.389C139.612 112.973 138.547 113.464 137.996 114.47C137.261 115.82 136.882 117.244 136.772 118.791C136.723 119.822 136.588 120.914 136.404 121.982C136.343 122.399 136.159 122.768 135.927 123.111C135.67 123.492 135.388 123.75 135.021 123.921C133.943 124.547 131.188 125.161 130.05 125.664C127.711 126.843 125.74 128.487 124.185 130.623L124.172 130.66Z" fill="#F3CFB2"/>
<path d="M173.798 101.201C173.357 99.2007 172.524 97.3718 171.226 95.7516C169.941 94.0946 168.349 92.8672 166.463 92.0203C164.247 91.0138 161.921 90.4369 159.545 90.265C159.301 87.6629 159.019 85.0976 158.75 82.4709C158.162 77.7207 156.497 73.3879 153.632 69.5583C153.142 68.8219 152.554 68.0977 151.966 67.4103C152.199 65.2501 152.064 63.1143 151.636 61.0154C150.718 56.7931 149.199 52.853 147.093 49.1217C144.424 44.4452 142.294 40.9961 137.421 35.9268C133.196 31.5449 127.295 27.924 121.822 25.2973C116.789 22.9652 111.561 21.21 106.137 20.1298C105.402 19.958 104.656 19.8352 103.909 19.6879C104.656 19.0006 105.39 18.2519 106.027 17.4417C106.247 17.2208 106.309 16.9753 106.394 16.6439C106.443 16.3739 106.394 16.0916 106.284 15.8215C106.174 15.5515 106.002 15.3306 105.77 15.1342C104.827 14.4346 103.774 14.005 102.635 13.8208C103.186 13.9313 103.762 13.8208 104.276 13.5753C104.778 13.3053 105.17 12.9003 105.464 12.397C105.537 12.2497 105.549 12.0779 105.549 11.9306C105.549 11.7465 105.476 11.5746 105.39 11.4519C105.268 11.2923 105.158 11.2064 105.011 11.1328C104.521 10.9609 104.043 10.7523 103.578 10.5436C104.19 10.3104 104.815 10.114 105.451 9.89307C105.647 9.86852 105.794 9.7335 105.904 9.54939C106.051 9.38982 106.088 9.19343 106.051 8.98477C106.051 8.78838 105.953 8.61654 105.794 8.4938C105.415 8.12557 104.986 7.79417 104.521 7.47503C104.252 7.36457 103.958 7.30319 103.639 7.31547C103.309 7.37684 103.039 7.52413 102.856 7.78189C102.733 7.90463 102.599 7.97828 102.488 8.03965C102.341 8.10102 102.219 8.15012 102.035 8.15012C101.044 8.1133 100.089 7.76962 99.305 7.18045C100.052 7.06998 100.762 6.78767 101.435 6.37035C101.656 6.19851 101.827 6.00212 101.974 5.75664C102.06 5.49888 102.121 5.22884 102.109 4.97108C102.072 4.70105 101.999 4.44329 101.864 4.1978C101.656 3.92777 101.411 3.69456 101.056 3.54727C100.689 3.39997 100.346 3.36315 100.003 3.42452C99.4886 3.53499 99.0968 3.75593 98.754 4.09961C98.4234 4.43101 98.203 4.83606 98.1418 5.32704C98.0438 5.78118 97.8479 6.16169 97.5051 6.48082C97.8234 5.4866 97.7867 4.43101 97.3827 3.46135C97.0398 2.56532 96.9174 1.6202 97.0153 0.638262C97.0276 0.503245 97.0153 0.417325 96.9541 0.294583C96.9052 0.208663 96.8439 0.122743 96.7215 0.0736457C96.6235 0.0122743 96.4889 0 96.3909 0C95.4604 0.122743 94.5543 0.17184 93.636 0.110468C93.5136 0.110468 93.3911 0.147291 93.3054 0.233211C93.1952 0.306857 93.1095 0.368228 93.0605 0.490971C93.0116 0.589165 93.0116 0.724182 93.036 0.846925C93.2075 1.69385 93.3176 2.50395 93.4034 3.35088C93.4768 4.12416 93.3176 4.81152 92.8769 5.4866C91.6647 5.057 90.4036 4.61513 89.1547 4.18553C88.4078 3.94004 87.6364 3.84185 86.8406 3.92777C86.6447 3.95232 86.4488 3.95232 86.2774 3.89095C86.0814 3.80503 85.91 3.70683 85.7753 3.57181C85.6407 3.46135 85.4937 3.39997 85.2978 3.37543C85.1264 3.36315 84.9672 3.37543 84.7836 3.47362C84.6244 3.57181 84.5142 3.70683 84.4408 3.87867C84.2081 4.35737 83.8653 4.71332 83.3633 4.94653C83.1429 5.08155 82.9102 5.26566 82.8 5.49888C82.6531 5.71981 82.5919 5.98985 82.6164 6.27216C82.6654 6.52991 82.7878 6.7754 82.9592 6.97179C81.894 6.70176 80.89 6.76313 79.8248 7.18045C79.3472 7.40139 78.8452 7.67142 78.3555 7.90463C78.2086 7.99055 78.1106 8.1133 78.0616 8.23604C78.0126 8.40788 78.0126 8.5429 78.0616 8.67791C78.1106 8.81293 78.2086 8.9234 78.3555 9.00932L79.0534 9.32845L77.4494 9.81942C77.5596 10.6663 77.6943 11.4642 77.7433 12.2988C77.7678 12.4461 77.7066 12.5934 77.6453 12.7162C77.5841 12.8634 77.4494 12.9494 77.3392 13.023C77.1923 13.0721 77.0331 13.1089 76.8984 13.0844C76.727 13.0353 76.6168 12.9616 76.5189 12.8512C76.2862 12.6057 75.9801 12.4216 75.6496 12.3234C75.1108 12.2129 74.5966 12.2252 74.1313 12.3356C74.217 13.2808 74.315 14.2259 74.4007 15.1833C75.2578 15.1833 76.1148 15.0728 76.9842 14.8887C77.0821 14.8642 77.2168 14.8887 77.3025 14.9378C77.4372 15.0237 77.4862 15.1587 77.5474 15.2447C77.5841 15.3674 77.5719 15.4901 77.4862 15.6129C77.0086 16.5703 76.4577 17.4786 75.772 18.3255C74.5231 18.436 73.262 18.5342 72.0131 18.6569C62.9893 19.6879 54.6388 22.5233 46.8761 27.2489C39.4073 31.8272 33.0772 37.6452 27.849 44.6784C22.8167 51.4783 18.7394 58.8552 15.6172 66.7352C15.4703 66.8457 15.3601 66.9439 15.2866 67.0544C13.2541 68.9078 11.4665 71.0067 10.0217 73.3143C9.31154 74.3944 8.98095 75.585 8.95646 76.8493L9.02993 85.0976C7.91572 85.7358 6.85049 86.5091 5.84649 87.4051C3.69154 89.3936 2.1243 91.7748 1.10805 94.5733C-0.287764 98.8325 -0.37347 103.104 0.899906 107.375C2.2345 111.708 4.69555 115.231 8.25855 118.005C8.3565 118.042 8.41772 118.128 8.47894 118.177C7.89123 120.19 7.52391 122.276 7.45045 124.449C7.3525 125.873 6.826 127.137 5.85873 128.18C3.263 130.991 2.66304 133.765 2.13655 137.607C1.72025 140.688 2.58958 144.922 3.25075 147.107C3.91193 149.28 4.35272 150.789 5.65058 152.667C6.9362 154.533 10.0584 157.123 12.0542 158.191C12.7643 158.571 14.2948 159.148 14.5887 159.897C14.8948 160.584 14.956 161.321 14.7724 162.106C14.3683 164.021 14.1479 165.985 14.1112 167.998C14.1112 168.293 14.2091 168.636 14.4173 168.919C14.5765 169.262 14.7846 169.496 15.103 169.667C15.4213 169.839 15.7519 169.913 16.107 169.901C17.2334 169.851 18.3231 169.594 19.2782 168.955C19.3639 170.023 19.7557 170.919 20.5026 171.644C21.2739 172.343 22.1922 172.687 23.2452 172.687C24.6165 172.687 25.9756 172.466 27.3102 172.11C27.5306 173.509 28.0326 174.859 28.7673 176.087C29.5141 177.314 30.4692 178.358 31.6324 179.204C34.1669 180.96 36.934 181.733 39.995 181.451C40.9623 185.415 43.0805 188.631 46.3129 191.098C49.5943 193.529 53.243 194.633 57.3325 194.474C58.1406 196.658 59.365 198.598 61.018 200.206C62.6954 201.85 64.6177 203.078 66.8339 203.814C70.1642 204.944 73.5191 205.238 76.9964 204.686C80.4247 204.134 83.5592 202.759 86.3753 200.635C87.5262 201.777 88.8363 202.722 90.2811 203.446C90.9301 203.765 91.628 203.925 92.3749 203.851C93.0973 203.753 93.7707 203.495 94.3829 203.078C95.3257 202.28 96.0726 201.372 96.6113 200.304C97.1868 199.199 97.4806 198.021 97.5173 196.793C98.8519 197.297 100.26 197.469 101.68 197.211C103.125 196.892 104.386 196.29 105.488 195.321C108.059 196.253 110.729 196.536 113.459 196.118C114.414 195.983 115.247 195.603 115.945 194.965C116.655 194.265 117.12 193.492 117.34 192.559C117.585 191.368 117.708 190.19 117.659 188.975C120.279 188.827 122.875 188.484 125.458 188.03C126.511 187.809 127.393 187.342 128.14 186.618C128.874 185.833 129.327 184.961 129.486 183.906C129.682 182.727 129.854 181.524 129.939 180.358C133.27 180.051 137.188 178.591 139.698 175.792C142.037 173.19 141.082 169.471 142.71 167.826C144.179 166.353 149.322 167.446 151.048 165.678C152.554 164.144 150.228 159.418 152.003 158.056C157.048 154.153 158.75 150.998 159.692 149.157C161.749 145.143 163.072 140.332 162.484 136.208C161.737 131.077 160.403 129.31 158.566 127.984C157.562 127.26 156.313 126.818 155.236 126.315C155.627 125.946 155.982 125.48 156.252 125.014C157.819 125.419 159.362 125.284 160.88 124.682C164.076 123.369 166.72 121.294 168.814 118.582C170.688 116.115 172.157 113.427 173.173 110.53C174.251 107.474 174.459 104.405 173.81 101.238L173.798 101.201ZM22.9636 57.6768C26.0491 55.4552 29.2203 53.3195 32.4282 51.3556C34.8036 49.9563 37.1667 48.6307 39.591 47.391L38.3176 44.8379C35.8198 46.1145 33.3833 47.4769 30.9957 48.913C29.4529 49.8704 27.8979 50.8278 26.4164 51.822C27.6041 49.9686 28.8652 48.1274 30.1631 46.3477C35.1586 39.6214 41.2317 34.0611 48.3822 29.6669C55.7898 25.15 63.7484 22.4619 72.3437 21.48C77.0454 20.9767 81.7716 20.7681 86.5222 20.854C92.9258 20.9522 99.2682 21.6518 105.562 22.9284C110.765 23.9839 115.749 25.6532 120.585 27.8994C124.552 29.7897 132.021 34.0611 135.596 37.9398C141.706 44.5679 142.624 47.0719 144.608 50.5332C146.567 54.0068 147.987 57.7014 148.832 61.6169C149.065 62.5988 149.15 63.6053 149.236 64.6241C148.232 63.7281 147.204 62.8934 146.126 62.1201C140.763 58.266 133.27 55.3202 127.025 53.2213C118.467 50.3614 109.676 48.557 100.689 47.7347C91.9586 46.9859 83.2164 46.5809 74.4374 46.5686C68.2175 46.5318 62.0587 47.0719 55.949 48.1274C49.8759 49.2199 43.9621 50.926 38.2564 53.2826C33.4934 55.222 28.9019 57.5418 24.4451 60.1808C23.0738 60.9909 21.7025 61.8746 20.3801 62.8689C21.2005 61.1014 22.0575 59.383 22.9758 57.6768H22.9636ZM12.397 74.8363C13.7928 72.7251 15.3846 70.8103 17.2212 69.0919C19.8904 66.6248 22.7799 64.4768 25.9022 62.6111C30.2365 60.058 34.6811 57.8119 39.3216 55.9339C44.8314 53.6386 50.5616 52.0061 56.4387 50.9751C62.3893 49.9195 68.3399 49.3917 74.3884 49.404C83.0939 49.4776 91.7749 49.8213 100.419 50.5946C109.186 51.3801 117.769 53.1599 126.132 55.9216C132.082 57.9346 139.294 60.7577 144.461 64.44C147.106 66.367 149.407 68.6132 151.379 71.2399C153.913 74.6767 155.26 78.5554 155.885 82.8023C156.203 84.9994 156.509 89.2708 156.509 89.2708L154.427 90.5473C154.305 89.234 154.146 87.9206 153.974 86.6073C153.607 84.2384 153.007 81.894 152.113 79.6723C150.705 76.1742 148.428 73.4002 145.22 71.4363C141.584 69.276 137.714 67.619 133.625 66.502L132.89 69.2515C136.723 70.3071 140.347 71.8782 143.751 73.9157C146.408 75.5359 148.33 77.8312 149.469 80.7279C150.044 82.2745 150.877 84.3734 150.84 85.9077C143.873 80.6297 136.061 77.1929 135.657 77.0088L132.584 75.585C123.511 71.424 112.431 68.4905 102.623 66.7721C98.754 66.0847 94.8114 65.7042 90.9056 65.6183C84.7836 65.5201 78.6861 65.7901 72.613 66.5143C62.0342 67.7417 51.4309 69.0183 40.8521 70.3316C35.3056 71.0558 29.8202 72.05 24.3962 73.3511C22.1433 73.9034 20.1842 74.9713 18.568 76.5915C16.7559 78.3835 15.4213 80.5315 14.5765 82.9127C13.6704 83.1337 12.7521 83.3792 11.8828 83.7351L11.8216 76.8124C11.8216 76.1251 11.993 75.45 12.3848 74.8485L12.397 74.8363ZM154.538 98.7957C154.746 98.7343 154.942 98.6606 155.138 98.587C156.399 98.1574 157.733 98.0592 159.092 98.2801C159.68 98.4152 160.219 98.6729 160.684 99.0411C161.149 99.4216 161.492 99.9126 161.713 100.49C162.276 102.11 162.447 103.767 162.166 105.448C162.055 106.062 161.835 106.602 161.517 107.069C161.149 107.596 160.733 107.989 160.207 108.284C159.313 108.787 158.358 108.971 157.293 108.713C157.28 108.713 157.268 108.701 157.195 108.676C157.195 108.652 157.195 108.627 157.195 108.566C157.097 107.817 156.803 107.105 156.35 106.516C155.848 105.902 155.211 105.485 154.501 105.252C154.281 105.178 154.097 105.129 153.864 105.08C154.207 102.981 154.427 100.87 154.55 98.7834L154.538 98.7957ZM151.342 104.098C150.73 105.62 149.518 107.609 147.559 109.695C148.048 101.189 147.387 92.8181 144.987 85.7235C144.681 84.8398 146.31 85.5149 147.02 86.1286C148.648 87.1474 150.13 87.8224 151.256 89.1481C151.722 91.3697 151.868 94.1437 152.064 96.8931C152.26 99.6426 152.199 101.938 151.342 104.098ZM130.931 143.744C131.09 144.223 131.041 144.689 130.833 145.119C130.588 145.585 130.258 145.892 129.805 146.076C128.593 146.457 127.417 146.469 126.205 146.113C125.605 145.917 124.981 145.929 124.332 146.15C123.72 146.383 123.266 146.776 122.899 147.353C122.324 148.31 121.65 149.145 120.83 149.906C120.316 150.384 119.752 150.704 119.091 150.912C118.455 151.084 117.793 151.145 117.132 151.023C115.418 150.777 113.863 150.188 112.418 149.194C111.818 148.838 111.218 148.678 110.52 148.764C109.823 148.838 109.272 149.145 108.794 149.587C107.692 150.74 106.431 151.624 104.925 152.189C103.48 152.778 101.95 153.023 100.37 152.913C97.8969 152.753 95.7297 151.771 93.9543 150.053C93.538 149.587 92.9993 149.317 92.3871 149.194C91.7871 149.12 91.2362 149.194 90.6607 149.476C90.1097 149.746 89.6812 150.164 89.3996 150.704C88.9833 151.526 88.3711 152.14 87.5875 152.606C87.2446 152.79 86.9385 152.888 86.559 152.901C86.1672 152.901 85.8488 152.778 85.5427 152.594C84.5999 152.005 83.7428 151.28 83.0327 150.409C82.6409 149.918 82.1511 149.611 81.5389 149.452C80.939 149.292 80.3145 149.341 79.7635 149.574C79.1758 149.832 78.7473 150.188 78.4045 150.716C78.0984 151.195 77.78 151.6 77.3637 151.931C77.1801 152.127 76.9229 152.238 76.678 152.336C76.4209 152.41 76.1638 152.41 75.8944 152.373C75.772 152.373 75.6618 152.299 75.5639 152.238C75.4659 152.201 75.3557 152.091 75.27 151.98C74.6456 151.047 74.1191 150.078 73.6783 149.059C73.4212 148.47 73.0416 147.991 72.4539 147.672C71.9151 147.365 71.3274 147.255 70.6785 147.34C70.0418 147.402 69.5153 147.672 69.0623 148.114C68.3766 148.764 67.7277 149.402 67.0543 149.979C66.8216 150.225 66.54 150.323 66.2217 150.372C65.9278 150.434 65.6462 150.409 65.3401 150.299C65.0462 150.114 64.8014 149.967 64.63 149.697C64.1402 148.985 63.577 148.421 62.8546 147.979C62.1199 147.512 61.3363 147.267 60.5037 147.144C59.7813 147.07 59.0834 147.23 58.4712 147.684C56.6958 148.936 54.7858 149.771 52.6431 150.176C52.4594 150.213 52.2513 150.176 52.0554 150.139C51.8839 150.09 51.7248 150.016 51.5656 149.881C51.1493 149.525 50.8432 149.083 50.6595 148.556C50.4269 148.003 50.0718 147.525 49.5453 147.169C49.0066 146.837 48.4556 146.69 47.8557 146.702C47.2435 146.739 46.668 146.935 46.1905 147.34C44.8314 148.457 43.3866 149.39 41.8316 150.151C40.9378 150.544 40.0317 150.654 39.089 150.495C38.9543 150.47 38.8441 150.397 38.7339 150.299C37.6687 149.157 36.983 147.856 36.481 146.371C36.3341 145.843 36.028 145.377 35.6239 145.033C35.1954 144.64 34.7178 144.456 34.1791 144.346C32.5262 144.137 30.9957 143.658 29.4774 142.971C26.6123 141.584 24.1023 139.73 22.0086 137.337C21.0903 136.281 20.5883 135.078 20.4168 133.691C20.3434 132.722 20.4658 131.752 20.8821 130.844C20.9923 130.635 21.1148 130.426 21.3596 130.279C21.5678 130.144 21.8127 130.107 22.0575 130.144C22.4983 130.144 22.8657 130.328 23.184 130.623C24.9226 132.292 26.7103 133.925 28.5469 135.459C29.4162 136.159 30.359 136.686 31.4365 136.993C32.4894 137.263 33.5792 137.349 34.6689 137.19C35.5504 137.104 36.3953 136.907 37.2891 136.662C38.3421 136.367 39.3338 135.974 40.3011 135.459C42.3091 134.403 44.3049 133.286 46.2639 132.12C47.4516 131.408 48.7005 130.881 50.0106 130.512C51.5044 130.083 52.9614 130.021 54.4552 130.316C54.8348 130.414 55.2266 130.463 55.6429 130.561C56.9162 132.599 58.6671 134.035 60.9323 134.87C63.6015 135.815 66.3196 136.073 69.1113 135.606C70.5805 135.348 71.8417 134.673 72.8947 133.618C74.3027 132.145 75.8944 130.917 77.6576 129.899C77.878 131.151 78.282 132.403 78.7718 133.569C79.1146 134.416 79.6656 135.128 80.4002 135.668C81.1594 136.257 81.9552 136.564 82.8613 136.711C85.408 137.067 87.8201 136.735 90.1587 135.766C90.7587 135.508 91.2974 135.091 91.7137 134.551C92.13 134.023 92.4238 133.397 92.5218 132.734C92.7422 131.433 93.2197 130.242 93.9788 129.15C94.591 130.23 95.1787 131.273 95.8032 132.354C96.5623 133.581 97.6398 134.403 99.0111 134.808C100.652 135.275 102.354 135.348 104.056 135.091C105.782 134.821 107.349 134.231 108.794 133.323C109.884 132.587 110.863 131.74 111.745 130.77C112.124 130.561 112.504 130.439 112.933 130.267C114.463 129.715 116.03 129.592 117.646 129.948C119.055 130.304 120.316 130.942 121.369 131.948C122.679 133.115 123.964 134.317 125.213 135.569C125.96 136.281 126.817 136.686 127.833 136.809C128.862 136.932 129.805 136.772 130.662 136.269C131.568 135.753 132.192 135.017 132.596 134.047C132.658 133.937 132.756 133.814 132.854 133.716C132.951 133.605 133.086 133.52 133.209 133.483C134.911 132.82 136.661 132.476 138.486 132.378C138.669 132.378 138.804 132.415 138.951 132.489C139.098 132.513 139.257 132.624 139.343 132.734C139.551 132.918 139.624 133.164 139.673 133.397C139.673 133.667 139.588 133.9 139.416 134.121C137.372 136.65 134.96 138.773 132.18 140.504C131.654 140.86 131.286 141.301 131.029 141.94C130.821 142.566 130.797 143.192 130.98 143.805L130.931 143.744ZM21.8249 81.8081C21.7147 82.1272 21.6657 82.3972 21.58 82.6673C20.3434 82.4709 19.07 82.4218 17.8211 82.4831C18.5068 81.0348 19.4373 79.7582 20.5883 78.6167C21.4943 77.6962 22.5963 76.9474 23.8697 76.4688C22.9636 78.1749 22.2902 79.9301 21.8127 81.7958L21.8249 81.8081ZM35.881 77.4507C35.9178 76.4442 36.1994 75.5482 36.7381 74.7012C36.934 74.3207 37.2156 74.0139 37.5095 73.6948C38.7461 73.4984 39.9705 73.3511 41.1949 73.1547C49.7045 72.1237 58.2141 71.0803 66.7237 70.0984C67.091 70.7858 67.3604 71.5222 67.544 72.2709C67.1032 72.6515 66.589 72.8478 66.0135 72.9338C65.4625 72.9951 64.9483 72.9092 64.3973 72.7005C63.6627 72.3691 62.8301 72.2464 62.0342 72.32C61.1771 72.406 60.3813 72.6883 59.7079 73.1915C58.961 73.6702 58.1406 73.9893 57.1978 74.0753C56.2918 74.1121 55.4347 73.9402 54.6021 73.5597C53.745 73.1301 52.8022 73.0565 51.835 73.2774C50.9167 73.5229 50.1575 74.063 49.5821 74.8608C49.4351 75.0818 49.2392 75.1799 49.0311 75.2536C48.7862 75.2904 48.5413 75.2536 48.3332 75.1309C47.7087 74.7749 47.0231 74.5785 46.2884 74.5785C45.5415 74.5785 44.8559 74.7994 44.2192 75.1677C43.607 75.5727 43.1295 76.0637 42.7499 76.7142C42.2234 77.7698 41.4153 78.4572 40.3991 78.9482C39.3583 79.3777 38.2809 79.5005 37.1911 79.2059C36.7748 79.0832 36.4565 78.8745 36.2239 78.5554C35.9912 78.1994 35.881 77.8435 35.881 77.4384V77.4507ZM3.63032 106.541C2.5406 102.846 2.58958 99.1025 3.85071 95.4693C4.65882 93.1618 5.96892 91.1733 7.78104 89.5163C10.2298 87.3315 13.0949 85.9813 16.3641 85.5026C17.9313 85.2694 19.4741 85.2571 21.0413 85.4658C20.8087 86.9264 20.6495 88.3748 20.5393 89.8354C20.5026 90.6333 20.4658 91.3943 20.4413 92.143C19.4986 91.4556 18.4456 91.0629 17.2701 90.9156C16.1192 90.7928 14.9928 90.9401 13.8908 91.4065C12.9725 91.7993 12.1644 92.4253 11.5155 93.2109C10.891 93.9841 10.4257 94.8679 10.2543 95.8867C9.67886 98.5011 9.70334 101.128 10.3155 103.73C10.5114 104.65 10.989 105.411 11.7481 106.013C12.0664 106.32 12.4582 106.467 12.8745 106.602C13.2908 106.737 13.7439 106.749 14.1724 106.7C14.05 109.401 13.6582 112.064 12.9725 114.666C12.8501 115.059 12.6297 115.403 12.2868 115.636C11.9562 115.931 11.5889 116.066 11.1604 116.066C10.7196 116.066 10.3645 115.906 9.97271 115.661C6.91171 113.316 4.7935 110.26 3.64256 106.528L3.63032 106.541ZM20.4291 97.5928C19.67 97.8014 19.0945 98.2679 18.6537 98.9061C17.4538 100.87 15.8866 102.515 13.9643 103.828C13.9275 103.877 13.8418 103.902 13.7316 103.902C13.6459 103.902 13.5602 103.877 13.4867 103.804C13.2663 103.595 13.1194 103.337 13.0337 103.092C12.5195 100.882 12.5072 98.6975 12.9847 96.5004C13.1072 95.9112 13.3398 95.4448 13.6949 95.0152C14.0377 94.5733 14.4785 94.2542 15.005 94.021C15.7152 93.7509 16.4131 93.6773 17.1722 93.7755C17.9068 93.9105 18.5435 94.2173 19.0945 94.7451C19.4741 95.0765 19.9148 95.322 20.4046 95.5184V97.5928H20.4291ZM170.492 109.523C169.549 112.175 168.226 114.556 166.549 116.79C164.761 119.159 162.484 120.889 159.778 122.019C158.823 122.399 157.807 122.473 156.827 122.19C156.778 121.208 156.411 120.325 155.799 119.527C155.591 119.232 155.37 118.901 155.15 118.606C154.611 117.858 153.95 117.195 153.179 116.692C152.15 115.967 151.134 115.206 150.154 114.409C150.032 113.66 149.946 112.887 149.909 112.138C149.897 111.18 150.044 110.284 150.448 109.425C150.718 108.848 151.134 108.382 151.746 108.112C152.358 107.83 152.958 107.793 153.595 107.989C153.803 108.063 153.962 108.185 154.097 108.333C154.232 108.48 154.281 108.701 154.317 108.861C154.379 109.536 154.611 110.1 155.076 110.591C155.505 111.082 156.019 111.389 156.68 111.536C158.395 111.905 160.06 111.671 161.639 110.788C162.496 110.272 163.231 109.597 163.831 108.75C164.431 107.903 164.786 106.97 164.921 105.939C165.288 103.767 165.104 101.631 164.345 99.5321C163.941 98.4765 163.341 97.5928 162.472 96.8563C161.639 96.169 160.623 95.7025 159.521 95.4816C157.856 95.2361 156.227 95.2852 154.611 95.7885C154.611 94.9906 154.599 94.2296 154.587 93.4563C158.235 92.7567 161.823 93.1249 165.263 94.6347C166.708 95.322 167.969 96.2917 168.998 97.5682C169.99 98.8325 170.663 100.256 171.018 101.827C171.508 104.43 171.349 107.007 170.467 109.536L170.492 109.523Z" fill="#1E22B0"/>
<path d="M150.337 127.309C150.093 126.941 149.97 126.585 150.044 126.131C150.105 125.726 150.313 125.382 150.619 125.1C150.913 124.83 151.305 124.719 151.733 124.719C152.296 124.744 152.811 124.56 153.251 124.216C153.656 123.811 153.913 123.357 153.974 122.768C154.06 122.203 153.888 121.724 153.57 121.258C153.3 120.926 153.056 120.607 152.823 120.276C152.492 119.785 152.064 119.38 151.55 119.036C148.427 116.851 147.619 113.12 145.354 109.094C145.33 109.045 145.268 109.069 145.232 109.119C143.101 111.254 141.167 114.458 140.432 115.82C139.942 116.815 139.636 117.846 139.599 118.975C139.501 120.178 139.404 121.344 139.159 122.534C139.024 123.369 138.706 124.142 138.204 124.781C137.714 125.517 137.102 126.069 136.343 126.462C135.216 127.1 134.09 127.702 132.89 128.266C130.869 129.285 127.539 130.746 126.241 132.612C126.523 132.882 126.841 133.188 127.123 133.495C127.392 133.753 127.71 133.925 128.115 133.974C128.494 133.999 128.825 133.949 129.155 133.741C129.51 133.532 129.767 133.287 129.865 132.955C130.086 132.44 130.38 132.01 130.759 131.642C131.139 131.261 131.555 130.967 132.082 130.795C134.077 130.034 136.134 129.58 138.302 129.494C138.865 129.494 139.404 129.543 139.93 129.776C140.444 129.997 140.91 130.316 141.301 130.721C141.975 131.433 142.354 132.243 142.403 133.25C142.416 134.219 142.109 135.14 141.571 135.901C139.281 138.651 136.636 140.983 133.612 142.897C134.004 144.1 133.881 145.279 133.33 146.457C132.743 147.586 131.837 148.372 130.649 148.777C128.886 149.378 127.098 149.39 125.335 148.826C124.613 150.029 123.743 151.121 122.69 152.042C121.882 152.803 120.94 153.331 119.862 153.637C118.821 153.969 117.756 154.055 116.666 153.895C114.511 153.588 112.577 152.79 110.789 151.637C110.067 152.361 107.594 156.362 99.5738 155.589C97.0148 155.073 93.7456 153.932 91.8845 152.054C91.2234 153.355 90.2438 154.374 88.9582 155.098C88.2236 155.552 88.4685 155.773 87.5869 155.773C86.6931 155.773 84.7708 155.515 84.0239 155.061C82.7383 154.3 81.6975 153.355 80.767 152.226C80.3752 152.975 79.8242 153.564 79.1875 154.116C78.661 154.583 78.0733 154.926 77.4121 155.073C76.7387 155.294 76.0653 155.319 75.4041 155.209C74.8899 155.135 74.4123 154.951 73.996 154.668C73.543 154.411 73.1879 154.092 72.8818 153.625C72.1349 152.57 71.4983 151.416 70.9963 150.176C70.3106 150.851 69.6004 151.526 68.878 152.164C68.2536 152.741 67.4577 153.085 66.6374 153.232C65.7558 153.392 64.9355 153.257 64.1519 152.938C63.356 152.582 62.7316 152.066 62.2296 151.342C61.9724 150.974 61.6663 150.704 61.299 150.446C60.9072 150.188 60.5031 150.066 60.0746 150.041C57.9931 151.538 55.6423 152.52 53.0955 152.999C52.4956 153.134 51.8711 153.097 51.2344 152.95C50.6345 152.79 50.0835 152.496 49.6182 152.066C48.8591 151.391 48.2836 150.557 47.9041 149.611C46.398 150.839 44.7329 151.882 42.9575 152.729C41.5127 153.416 40.0189 153.601 38.4762 153.343C37.7048 153.159 37.0559 152.815 36.5784 152.287C35.256 150.802 34.252 149.12 33.6765 147.218C31.742 146.972 29.9299 146.408 28.1667 145.585C24.9466 144.063 22.1427 141.928 19.7796 139.252C18.4817 137.73 17.7226 135.999 17.5022 134.011C17.3798 132.526 17.5879 131.102 18.1879 129.727C18.5185 128.942 19.0572 128.34 19.7673 127.898C20.502 127.456 21.2856 127.272 22.1672 127.321C23.2936 127.395 24.2731 127.8 25.118 128.61C26.7587 130.243 28.4973 131.789 30.2849 133.274C30.8359 133.716 31.4481 134.06 32.146 134.244C32.8072 134.416 33.5174 134.49 34.203 134.391C34.9622 134.293 35.6968 134.134 36.4314 133.937C37.2885 133.655 38.0844 133.348 38.8925 132.918C39.7006 132.489 40.5087 132.047 41.329 131.605C40.876 130.5 40.423 129.371 40.0067 128.279C39.774 127.702 39.3945 127.235 38.8313 126.879C38.2803 126.548 37.6803 126.425 37.0681 126.499C36.1988 126.622 35.4029 126.904 34.6683 127.346C34.1296 127.64 33.5541 127.825 32.9419 127.886C32.3542 127.935 31.7787 127.861 31.2155 127.653C31.0073 125.345 30.9461 123.001 31.0563 120.706C31.0563 120.546 31.0318 120.386 30.9584 120.251C30.8727 120.116 30.7502 119.969 30.64 119.895C30.4931 119.797 30.3462 119.773 30.1625 119.773C28.9014 119.687 27.628 119.613 26.3546 119.441C26.3546 118.202 26.2689 116.986 26.1342 115.796C26.1342 115.477 25.9506 115.219 25.7302 115.035C25.5465 114.851 25.2649 114.765 24.9955 114.716C23.0732 114.679 21.1754 114.482 19.2776 114.151C19.0817 111.119 19.2286 108.112 19.7429 105.166C19.9632 104.012 20.0979 102.822 20.2204 101.644C19.2653 102.957 18.1879 104.086 17.0124 105.105C17.0124 108.628 16.5839 112.052 15.6901 115.44C15.3962 116.446 14.8452 117.293 14.0249 117.932C13.2168 118.57 12.2618 118.926 11.2088 118.926C10.6333 120.767 10.3027 122.608 10.2415 124.523C10.1313 126.646 9.35993 128.512 7.89065 130.071C5.72347 132.489 5.38064 134.71 4.92761 137.939C4.54804 140.737 5.27044 144.358 5.88264 146.396C6.0663 146.985 6.82543 149.476 7.96412 151.011C8.711 152.005 8.711 152.299 11.5516 154.718C12.7148 155.712 16.388 156.902 17.1594 158.743C17.7103 160.045 17.7961 161.333 17.5144 162.696C17.2083 164.046 17.0124 165.482 16.9635 166.881C17.2451 166.795 17.5389 166.673 17.7716 166.513C18.347 166.169 18.9837 166.022 19.6694 166.133C20.3306 166.243 20.8693 166.525 21.3346 167.053C21.7998 167.532 22.057 168.121 22.0815 168.808C22.1182 169.066 22.2039 169.324 22.412 169.52C22.6447 169.668 22.8773 169.803 23.1467 169.803C24.3099 169.803 25.4118 169.606 26.5138 169.324C27.0403 169.189 27.5668 169.189 28.081 169.336C28.6198 169.496 29.0605 169.803 29.4156 170.22C29.7462 170.613 29.9788 171.079 30.0768 171.631C30.2237 172.699 30.5788 173.657 31.1298 174.565C31.7297 175.473 32.4032 176.234 33.2847 176.86C35.1948 178.235 37.3008 178.775 39.6516 178.591C40.3373 178.493 41.0229 178.652 41.5862 179.07C42.1739 179.475 42.5412 180.052 42.7004 180.714C43.5207 184.029 45.2716 186.704 47.953 188.754C50.6957 190.755 53.7322 191.712 57.1238 191.565C57.7482 191.504 58.3237 191.688 58.8502 192.019C59.3645 192.387 59.7318 192.854 59.9522 193.431C60.5889 195.223 61.5929 196.806 62.9642 198.132C64.2621 199.482 65.8905 200.439 67.6781 201.041C70.5187 202.047 73.4573 202.293 76.4326 201.814C79.4201 201.311 82.1261 200.132 84.5381 198.328C85.1013 197.898 85.7013 197.69 86.4237 197.739C87.1216 197.8 87.7216 198.046 88.2603 198.549C89.2031 199.482 90.2561 200.231 91.4805 200.844C91.6519 200.918 91.8111 200.955 92.0192 200.955C92.1906 200.918 92.3743 200.844 92.5457 200.734C93.1579 200.28 93.6477 199.641 94.0027 198.954C94.3701 198.254 94.5537 197.506 94.5537 196.696C94.566 196.082 94.8108 195.517 95.1537 195.026C95.5332 194.498 96.0352 194.167 96.6474 193.983C97.2474 193.86 97.8351 193.86 98.4473 194.106C99.3044 194.413 100.186 194.474 101.08 194.327C101.998 194.155 102.806 193.762 103.492 193.136C103.896 192.768 104.337 192.559 104.851 192.461C105.365 192.387 105.879 192.4 106.369 192.596C108.512 193.308 110.704 193.59 112.969 193.246C113.361 193.173 113.679 193.038 113.936 192.805C114.193 192.547 114.401 192.215 114.462 191.847C114.683 190.914 114.769 190.006 114.707 189.012C114.707 188.239 114.928 187.6 115.442 187.011C115.981 186.447 116.617 186.127 117.377 186.091C119.911 185.919 122.409 185.575 124.882 185.133C125.311 185.072 125.715 184.875 126.009 184.544C126.339 184.225 126.535 183.832 126.596 183.39C126.866 181.782 126.878 181.488 127.123 178.616C127.38 175.731 131.408 177.339 135.681 174.553C139.514 171.337 138.448 168.624 138.865 166.795C139.587 163.665 145.55 165.175 148.268 163.346C149.762 162.34 147.142 157.982 148.795 156.645C150.337 155.393 153.056 153.466 153.827 152.484C156.998 148.433 156.594 149.268 158.076 146.015C159.851 142.124 159.998 139.817 159.606 136.355C159.325 134.269 159.41 132.771 157.059 130.5C155.357 128.868 153.154 128.328 151.268 127.923C150.864 127.837 150.533 127.616 150.288 127.309H150.337Z" fill="white"/>
<path d="M124.172 130.66C123.854 130.353 123.548 130.083 123.23 129.789C121.809 128.475 120.132 127.616 118.234 127.162C116.863 126.806 115.467 126.794 114.059 126.978C114.487 125.836 114.671 124.719 114.647 123.504C114.573 122.277 114.267 121.147 113.716 120.055C113.349 119.368 112.92 118.668 112.479 117.981C114.732 118.349 116.924 118.091 119.03 117.171C121.797 115.968 124.062 114.151 125.923 111.77L123.646 110.052C122.115 112.04 120.205 113.537 117.904 114.593C115.724 115.489 113.545 115.55 111.328 114.74C109.161 113.942 107.19 112.776 105.427 111.267C102.733 108.861 100.909 105.94 100.027 102.441C99.2069 99.4343 98.9988 96.378 99.3171 93.2603C99.3906 92.352 99.6477 91.5174 100.101 90.7073C100.603 89.9217 101.19 89.2466 101.925 88.7434C103.419 87.6632 105.133 87.0495 106.97 86.8531C111.341 86.4604 115.516 87.1723 119.458 89.087L120.72 86.5708C116.251 84.3983 111.598 83.5391 106.651 83.9932C104.325 84.2878 102.194 85.0488 100.321 86.4113C99.1947 87.16 98.3131 88.1051 97.6519 89.2712C96.9907 90.4372 96.5622 91.6892 96.4643 92.9903C96.1214 96.4516 96.3908 99.8148 97.2356 103.153C98.3253 107.228 100.395 110.641 103.566 113.415C104.668 114.384 105.868 115.244 107.129 115.968C108.794 117.539 110.153 119.355 111.218 121.368C111.586 122.154 111.782 122.964 111.794 123.823C111.794 124.695 111.622 125.529 111.267 126.303C110.275 128.205 108.941 129.739 107.166 130.881C106.039 131.605 104.851 132.072 103.578 132.28C102.268 132.477 100.97 132.378 99.6967 132.047C99.0477 131.875 98.558 131.458 98.1907 130.893C97.5907 129.874 97.003 128.831 96.4398 127.788C96.1092 127.236 95.6439 126.794 95.0195 126.524C94.4317 126.278 93.8073 126.229 93.1584 126.401C92.5217 126.585 92.0074 126.941 91.6279 127.481C90.5749 128.942 89.926 130.513 89.6321 132.305C89.6076 132.452 89.5464 132.661 89.424 132.808C89.277 132.943 89.1546 133.054 88.9342 133.152C87.1221 133.9 85.1998 134.158 83.204 133.9C82.7999 133.851 82.4204 133.692 82.0775 133.434C81.7225 133.152 81.4653 132.82 81.3307 132.464C80.8776 131.446 80.6083 130.464 80.4124 129.396C80.2777 128.794 80.0083 128.267 79.5308 127.812C79.09 127.42 78.5513 127.162 77.8901 127.088C77.3024 126.99 76.7392 127.15 76.1759 127.432C74.2169 128.573 72.3925 129.985 70.8131 131.617C70.1764 132.219 69.4295 132.624 68.5724 132.771C66.2583 133.176 64.0421 132.955 61.826 132.194C60.3322 131.617 59.1078 130.709 58.2017 129.371C57.3202 128.058 56.8794 126.597 56.8794 125.002C56.9651 123.099 57.614 121.467 58.9486 120.08C60.0016 118.999 61.1281 118.005 62.279 117.085C64.4829 115.366 66.1481 113.194 67.3358 110.628C69.5152 105.817 71.3151 100.858 72.7599 95.7765C73.066 94.6841 73.1149 93.5672 72.919 92.4011C72.6986 91.2596 72.2334 90.2654 71.5232 89.3203C69.2458 86.4604 66.3195 84.742 62.683 84.2142C55.8999 83.3181 49.2024 84.0546 42.7376 86.3131L43.7048 88.9643C49.7534 86.8409 55.9733 86.2026 62.3157 87.0372C65.1686 87.4668 67.4704 88.817 69.2581 91.1C69.6989 91.6156 69.9927 92.2661 70.1152 92.9166C70.2254 93.6285 70.2009 94.3159 70.0172 94.991C68.5969 99.9007 66.8338 104.761 64.7278 109.438C63.736 111.537 62.3769 113.341 60.5036 114.814C59.218 115.796 58.0426 116.876 56.9039 118.018C55.0673 119.969 54.1122 122.289 54.0388 124.916C54.0143 125.738 54.1122 126.585 54.2837 127.395C52.5573 127.137 50.8553 127.223 49.1779 127.739C47.6474 128.193 46.1414 128.819 44.7211 129.654C44.4395 129.789 44.1334 129.997 43.8518 130.169C43.4477 129.187 43.0804 128.217 42.7008 127.223C42.2355 126.02 41.4397 125.075 40.3255 124.412C39.2113 123.737 37.9991 123.541 36.7135 123.651C35.7217 123.786 34.7912 124.093 33.8974 124.523C33.8729 123.271 33.8607 122.043 33.9341 120.816C33.9464 120.129 33.8239 119.49 33.4811 118.877C33.1505 118.288 32.7465 117.772 32.1465 117.428C31.5833 117.06 30.9588 116.876 30.2976 116.851C29.9058 116.851 29.4895 116.815 29.11 116.79C29.0733 116.287 29.0488 115.845 28.9753 115.403C28.8529 114.397 28.4121 113.55 27.6774 112.875C26.9428 112.212 26.0857 111.868 25.0695 111.807C24.0655 111.782 23.0614 111.733 22.0697 111.635C22.0452 109.585 22.2166 107.584 22.5717 105.584C23.1104 102.589 23.3431 99.4834 23.2573 96.4025C23.2084 94.2791 23.2573 92.1188 23.3798 89.9585C23.5145 87.4546 23.9063 84.9506 24.5552 82.4958C25.0939 80.3478 25.9633 78.298 27.1632 76.4323C27.3591 76.1131 27.5672 75.7572 27.8121 75.4749C29.7712 75.0085 31.718 74.6157 33.7137 74.272C33.2974 75.2417 33.077 76.2604 33.0403 77.3037C33.0403 78.3839 33.3219 79.3535 33.9464 80.2373C34.5831 81.0597 35.4279 81.6611 36.4564 81.9312C38.2195 82.3608 39.897 82.2626 41.5621 81.5384C43.1783 80.7896 44.464 79.5868 45.3088 78.0402C45.419 77.7947 45.5537 77.6965 45.7251 77.5615C45.8843 77.4633 46.0924 77.4019 46.3128 77.4019C46.4965 77.4019 46.6924 77.4633 46.8883 77.5492C47.7576 78.0157 48.6392 78.1998 49.6065 77.9911C50.586 77.7456 51.3451 77.2178 51.9328 76.4077C52.092 76.2236 52.3246 76.0763 52.5695 75.9659C52.8266 75.9413 53.1082 75.929 53.3409 76.0763C54.6387 76.7146 56.0101 76.9723 57.4426 76.8741C58.8507 76.7269 60.1853 76.2604 61.3484 75.4503C61.6545 75.2294 61.9606 75.168 62.2912 75.1312C62.6463 75.0944 62.9891 75.1557 63.2585 75.2662C64.3482 75.7204 65.4379 75.8554 66.5399 75.6835C67.6419 75.4871 68.6214 75.0698 69.503 74.3334C69.858 73.9897 70.1152 73.646 70.2866 73.1796C70.4213 72.75 70.4335 72.2958 70.3723 71.8294C70.2131 71.1052 70.005 70.3442 69.7478 69.7182C70.8008 69.5464 71.8783 69.4482 72.9558 69.3255C78.9186 68.6258 84.8937 68.2944 90.8687 68.454C93.0727 68.5031 95.2766 68.6627 97.4927 68.8836C96.905 69.1168 96.4153 69.5096 95.9745 69.9883C95.6072 70.4792 95.3011 70.9948 95.1541 71.6208C94.946 72.394 94.9582 73.155 95.1786 73.9283C95.399 74.6893 95.8276 75.3521 96.4275 75.8799C97.0152 76.4077 97.6887 76.7882 98.4845 76.9478C99.7212 77.1565 100.958 77.2424 102.219 77.1319C102.452 77.1319 102.647 77.2056 102.843 77.2915C103.064 77.3651 103.223 77.537 103.358 77.6597C104.251 78.7767 105.39 79.4272 106.798 79.6359C108.17 79.82 109.443 79.4517 110.569 78.5925C110.741 78.4944 110.924 78.4084 111.133 78.3716C111.341 78.3471 111.512 78.3962 111.72 78.4943C111.928 78.568 112.026 78.6662 112.186 78.8503C112.357 79.1203 112.59 79.3413 112.883 79.464C113.141 79.599 113.447 79.6481 113.777 79.6481C115.687 79.5377 117.561 79.3904 119.458 79.2185C119.703 79.2185 119.899 79.2676 120.083 79.3536C120.291 79.4886 120.426 79.6359 120.548 79.8568C120.842 80.4582 121.271 80.9001 121.797 81.2315C122.385 81.5384 123.021 81.6734 123.646 81.612C124.687 81.5138 125.642 81.2561 126.572 80.8633C127.233 80.581 127.772 80.2005 128.237 79.6972C128.666 79.194 129.131 78.0648 129.352 77.4265C129.499 77.5124 129.694 77.5983 129.903 77.6965C130.98 78.1629 138.057 81.7961 139.147 82.3853C139.331 82.6185 140.567 82.9622 140.714 83.2077L141.73 84.4351C141.828 84.5947 145.906 99.6552 144.779 105.314C144.571 106.332 141.522 109.389 141.522 109.389C139.612 112.973 138.547 113.464 137.996 114.47C137.261 115.82 136.882 117.244 136.772 118.791C136.723 119.822 136.588 120.914 136.404 121.982C136.343 122.399 136.159 122.768 135.927 123.111C135.67 123.492 135.388 123.75 135.021 123.921C133.943 124.547 131.188 125.161 130.05 125.664C127.711 126.843 125.74 128.487 124.185 130.623L124.172 130.66Z" fill="white"/>
<path d="M151.341 104.098C150.729 105.62 149.517 107.609 147.558 109.695C148.048 101.189 147.386 92.8182 144.987 85.7237C144.68 84.8399 146.309 85.515 147.019 86.1287C148.647 87.1475 150.129 87.8226 151.255 89.1482C151.721 91.3698 151.868 94.1438 152.064 96.8933C152.259 99.6427 152.198 101.938 151.341 104.098Z" fill="white"/>
<path d="M98.9735 74.1247C100.014 74.3457 100.994 74.407 102.01 74.3457C102.683 74.2843 103.357 74.4316 104.006 74.6893C104.642 74.9839 105.157 75.4012 105.573 75.9659C105.977 76.4691 106.516 76.7391 107.128 76.8251C107.765 76.8987 108.316 76.7514 108.818 76.3832C109.638 75.7695 110.532 75.4749 111.548 75.5608C112.552 75.6222 113.421 76.0763 114.107 76.7882C115.809 76.69 117.511 76.5673 119.201 76.4568C120.021 76.3586 120.78 76.5305 121.478 76.9355C122.176 77.3406 122.727 77.9052 123.082 78.6417C123.119 78.703 123.143 78.7521 123.168 78.7521C123.241 78.7767 123.302 78.8135 123.364 78.7767C124.086 78.7398 124.821 78.5557 125.482 78.2489C125.763 78.1139 126.118 77.451 126.314 77.1933C126.486 76.911 126.62 76.6287 126.633 76.3341V76.2727C118.784 72.9587 110.544 71.0684 102.169 69.571C101.961 69.5587 101.716 69.5219 101.508 69.4973C101.337 70.0374 101.018 70.4793 100.577 70.8352C100.124 71.1912 99.598 71.3876 99.047 71.4489C98.7654 71.4489 98.5572 71.5471 98.3368 71.719C98.1042 71.9031 97.9695 72.124 97.896 72.394C97.8226 72.6518 97.8226 72.9096 97.896 73.1673C97.9695 73.4005 98.0919 73.6337 98.3246 73.8179C98.4838 73.9897 98.7164 74.1124 98.9735 74.1247Z" fill="white"/>
<path d="M49.129 98.1699C49.729 97.728 50.4391 97.5194 51.1983 97.5685C52.6553 97.6912 54.0634 98.0963 55.3735 98.7836C53.5124 98.6118 51.688 98.7836 49.9249 99.2623C49.5576 99.3605 49.2392 99.5814 48.9944 99.876C48.7372 100.146 48.6148 100.49 48.578 100.895C48.5046 102.282 48.4801 103.755 48.5536 105.154C48.5536 105.522 48.676 105.854 48.8964 106.185C49.1045 106.467 49.3862 106.701 49.7167 106.872C50.0718 107.02 50.4024 107.069 50.782 107.007C51.9452 106.848 53.0961 106.676 54.2348 106.541C55.2388 106.394 56.0959 106.013 56.8795 105.387C57.6876 104.737 58.2263 103.963 58.5569 103.018C58.8385 102.294 58.9977 101.484 59.0834 100.698C59.1569 99.8147 58.9977 98.9309 58.5814 98.1331C58.1651 97.323 57.5284 96.7215 56.7326 96.2797C55.0674 95.3836 53.2797 94.8681 51.4064 94.7208C49.9126 94.6349 48.5781 95.0154 47.4026 95.8992C46.2027 96.832 44.9416 97.6789 43.6315 98.4277L45.015 100.932C46.4598 100.072 47.8189 99.2009 49.1413 98.1699" fill="#1E22B0"/>
<path d="M119.067 96.9059C118.601 96.2554 118.05 95.7153 117.353 95.3348C116.655 94.9543 115.92 94.7579 115.124 94.807C112.737 94.8561 110.618 95.6416 108.769 97.1636L110.582 99.373C111.916 98.2683 113.459 97.7037 115.198 97.6669C115.712 97.716 116.189 97.9492 116.606 98.2438C117.022 98.5629 117.34 98.9802 117.548 99.4344C116.765 99.2994 115.969 99.238 115.161 99.238C114.267 99.238 113.447 99.4712 112.639 99.8517C112.345 100.011 112.051 100.232 111.867 100.527C111.671 100.797 111.586 101.116 111.512 101.46C111.463 102 111.451 102.626 111.414 103.203C111.39 103.362 111.365 103.509 111.255 103.608C111.12 103.73 110.973 103.767 110.826 103.804C110.582 103.804 110.324 103.841 110.055 103.902C109.92 103.951 109.835 104 109.737 104.086C109.663 104.221 109.627 104.332 109.59 104.455C109.516 104.86 109.516 105.277 109.529 105.682C109.553 105.866 109.614 106.026 109.676 106.136C109.786 106.296 109.92 106.406 110.018 106.468C111.035 107.032 112.161 107.351 113.3 107.437C114.769 107.56 116.177 107.376 117.548 106.873C118.197 106.652 118.748 106.283 119.238 105.78C119.691 105.252 120.009 104.663 120.181 104.013C120.487 102.798 120.548 101.558 120.377 100.343C120.156 99.103 119.728 97.9615 119.079 96.9059" fill="#1E22B0"/>
</svg>
