<svg width="80" height="80" viewBox="0 0 80 80" fill="none" xmlns="http://www.w3.org/2000/svg">
<circle cx="40" cy="40" r="40" fill="#FEF643"/>
<path d="M55.6959 29.5118H50.576C54.3439 27.6638 56.4319 24.7118 55.5439 22.1598C54.52 19.2558 50.0959 18.3518 45.2479 20.0558C43.2959 20.7125 41.5199 21.8071 40.0559 23.2558L39.9999 23.3198L39.9439 23.2558C38.48 21.8071 36.704 20.7125 34.7519 20.0558C29.9039 18.3518 25.4799 19.2558 24.4559 22.1598C23.5679 24.6958 25.6559 27.6638 29.4239 29.5118H24.3039C23.0698 29.5139 21.8867 30.0051 21.014 30.8778C20.1413 31.7505 19.6501 32.9336 19.6479 34.1678V39.2958C19.6497 40.3724 20.0245 41.4153 20.7086 42.2467C21.3927 43.0781 22.3438 43.6467 23.3999 43.8558V60.1118H56.5999V43.8558C57.6561 43.6467 58.6072 43.0781 59.2913 42.2467C59.9754 41.4153 60.3502 40.3724 60.352 39.2958V34.1678C60.3498 32.9336 59.8586 31.7505 58.9859 30.8778C58.1132 30.0051 56.9301 29.5139 55.6959 29.5118ZM38.0399 40.5918V32.8718H41.9599V40.5918H38.0399ZM41.9599 43.9518V56.7518H38.0399V43.9518H41.9599ZM42.4799 25.5518C43.5952 24.4913 44.9351 23.6956 46.4 23.2238C47.5521 22.8045 48.7661 22.5801 49.9919 22.5598C51.4159 22.5598 52.2959 22.9438 52.3919 23.2718C52.5839 23.8318 51.1919 25.8558 47.7279 27.0718C46.2986 27.6057 44.7679 27.8134 43.2479 27.6798C42.24 27.5518 41.7759 27.2158 41.7119 27.0238C41.7119 27.0238 41.7119 26.9758 41.7119 26.9518V26.9118C41.8092 26.3855 42.0795 25.9068 42.4799 25.5518ZM27.6239 23.2718C27.8239 22.7118 30.1679 22.0078 33.6399 23.2238C35.0906 23.701 36.4162 24.4964 37.5199 25.5518C37.9323 25.902 38.2142 26.3812 38.32 26.9118V26.9518C38.32 26.9518 38.32 27.0078 38.32 27.0238C38.2559 27.2158 37.7919 27.5518 36.7839 27.6798C35.2639 27.8173 33.7324 27.6094 32.3039 27.0718C28.7999 25.8558 27.4319 23.8318 27.6239 23.2718ZM23.0079 39.2718V34.1438C23.0079 33.8 23.1445 33.4704 23.3875 33.2274C23.6306 32.9843 23.9602 32.8478 24.3039 32.8478H34.7039V40.5678H24.3039C23.965 40.5658 23.6401 40.4319 23.3981 40.1944C23.1562 39.957 23.0163 39.6347 23.0079 39.2958V39.2718ZM26.7599 43.9278H34.6799V56.7278H26.7599V43.9278ZM53.24 56.7278H45.32V43.9278H53.24V56.7278ZM56.9919 39.2718C56.9898 39.6148 56.8526 39.9433 56.61 40.1859C56.3674 40.4285 56.039 40.5657 55.6959 40.5678H45.2959V32.8478H55.6959C56.0397 32.8478 56.3693 32.9843 56.6124 33.2274C56.8554 33.4704 56.9919 33.8 56.9919 34.1438V39.2718Z" fill="#1E22B0"/>
</svg>
