<svg width="80" height="80" viewBox="0 0 80 80" fill="none" xmlns="http://www.w3.org/2000/svg">
<circle cx="40" cy="40" r="40" fill="#FEF643"/>
<path d="M29.6001 39.8959C29.3204 39.5875 28.9602 39.3631 28.5601 39.2479C28.1111 39.1348 27.6411 39.1348 27.1921 39.2479L24.1841 39.8399L25.4321 46.2399L27.4881 45.8399L27.1441 44.0559L28.0961 43.8719C28.552 43.7913 28.9808 43.5989 29.3441 43.3119C29.6735 43.053 29.9231 42.7064 30.0641 42.3119C30.1991 41.9128 30.2267 41.4851 30.1441 41.0719C30.074 40.6375 29.8858 40.2306 29.6001 39.8959ZM28.0001 41.9199C27.8834 42.073 27.7108 42.1737 27.5201 42.1999L26.8401 42.3359L26.5841 41.0559L27.2721 40.9199C27.4605 40.8764 27.6585 40.9079 27.8241 41.0079C27.8985 41.0533 27.9625 41.1138 28.0121 41.1854C28.0617 41.2571 28.0958 41.3383 28.1121 41.4239C28.1268 41.5061 28.1245 41.5904 28.1052 41.6716C28.0859 41.7528 28.0501 41.8291 28.0001 41.8959V41.9199Z" fill="#1E22B0"/>
<path d="M37.3282 38.7521C36.9151 38.2963 36.3875 37.9593 35.8002 37.7761C35.1703 37.5817 34.5011 37.5514 33.8562 37.6881C33.211 37.8006 32.6052 38.076 32.0962 38.4881C31.6181 38.8781 31.2534 39.3892 31.0402 39.9681C30.8336 40.5423 30.7894 41.1623 30.9122 41.7601C31.0242 42.3576 31.3014 42.9119 31.7122 43.3601C32.1237 43.816 32.6521 44.1508 33.2402 44.3281C33.8694 44.5251 34.5386 44.5581 35.1842 44.4241C35.8322 44.3128 36.4409 44.0374 36.9522 43.6241C37.4253 43.2345 37.7869 42.7266 38.0002 42.1521C38.2105 41.5787 38.2549 40.9576 38.1282 40.3601C38.0176 39.7597 37.7403 39.2025 37.3282 38.7521ZM36.0002 41.5841C35.9153 41.8384 35.7633 42.0651 35.5602 42.2401C35.3495 42.4255 35.0923 42.5499 34.8162 42.6001C34.5498 42.6522 34.2745 42.6357 34.0162 42.5521C33.7613 42.4637 33.5329 42.3124 33.3522 42.1121C33.172 41.899 33.0506 41.6425 33.0002 41.3681C32.9481 41.1017 32.9646 40.8264 33.0482 40.5681C33.1351 40.3105 33.2899 40.0811 33.4962 39.9041C33.707 39.7251 33.9606 39.6038 34.2322 39.5521C34.4986 39.5 34.7739 39.5165 35.0322 39.6001C35.2865 39.689 35.5128 39.8435 35.6882 40.0481C35.8672 40.2589 35.9884 40.5125 36.0402 40.7841C36.0971 41.0497 36.0833 41.3255 36.0002 41.5841Z" fill="#1E22B0"/>
<path d="M40.5902 36.5663L38.5332 36.9688L39.7851 43.3674L41.8421 42.965L40.5902 36.5663Z" fill="#1E22B0"/>
<path d="M46.2081 35.4641L46.8322 38.6801L46.8001 38.6881L43.7202 35.9521L41.9521 36.2961L43.2081 42.6961L45.1762 42.3041L44.5441 39.0881L44.5922 39.0801L47.6642 41.8161L49.4241 41.4801L48.1681 35.0801L46.2081 35.4641Z" fill="#1E22B0"/>
<path d="M54.5679 33.832L49.0879 34.904L49.4639 36.816L51.1759 36.48L52.0559 40.96L54.1119 40.56L53.2319 36.08L54.9439 35.744L54.5679 33.832Z" fill="#1E22B0"/>
<path d="M64.9122 45.96L60.8002 25.088C60.6471 24.2984 60.3392 23.547 59.8943 22.877C59.4495 22.2069 58.8764 21.6316 58.2082 21.184C57.5398 20.7319 56.7885 20.4164 55.9977 20.2558C55.2069 20.0951 54.3921 20.0925 53.6002 20.248L19.8962 26.848C18.2998 27.1613 16.8932 28.0958 15.9856 29.4459C15.0779 30.7961 14.7437 32.4514 15.0562 34.048L19.2002 54.904C19.3513 55.6943 19.6583 56.4465 20.1033 57.1169C20.5484 57.7872 21.1225 58.3621 21.7922 58.808C22.7889 59.5012 23.9703 59.8801 25.1842 59.896C25.5937 59.8869 26.0011 59.836 26.4002 59.744L60.1042 53.152C61.6956 52.8346 63.0964 51.8997 64.0002 50.552C64.447 49.8843 64.7575 49.1349 64.914 48.3469C65.0705 47.5589 65.0699 46.7478 64.9122 45.96ZM61.1842 48.696C60.9849 48.9994 60.7262 49.2594 60.4238 49.4601C60.1213 49.6609 59.7813 49.7982 59.4242 49.864L25.7202 56.448C25.364 56.5188 24.9973 56.5178 24.6415 56.4449C24.2857 56.3721 23.948 56.229 23.6482 56.024C23.0455 55.6238 22.6233 55.0035 22.4722 54.296L18.4002 33.392C18.2616 32.6708 18.4145 31.924 18.8253 31.3152C19.2362 30.7065 19.8715 30.2853 20.5922 30.144L54.2962 23.552C54.4696 23.5139 54.6467 23.4951 54.8242 23.496C55.3752 23.4988 55.9128 23.6659 56.3682 23.976C56.9779 24.3837 57.4009 25.0167 57.5442 25.736L61.6002 46.6C61.6728 46.9595 61.6734 47.3299 61.602 47.6896C61.5306 48.0494 61.3886 48.3914 61.1842 48.696Z" fill="#1E22B0"/>
</svg>
