<svg width="80" height="80" viewBox="0 0 80 80" fill="none" xmlns="http://www.w3.org/2000/svg">
<circle cx="40" cy="40" r="40" fill="#FEF643"/>
<mask id="mask0_449_34670" style="mask-type:alpha" maskUnits="userSpaceOnUse" x="0" y="0" width="80" height="80">
<circle cx="40" cy="40" r="40" fill="#FEF643"/>
</mask>
<g mask="url(#mask0_449_34670)">
<path d="M51.9279 39.024H28.0719C26.4572 39.024 24.9087 39.6654 23.767 40.8071C22.6253 41.9488 21.9839 43.4973 21.9839 45.112V80H25.5599V45.112C25.562 44.4471 25.8276 43.8103 26.2985 43.3409C26.7693 42.8715 27.407 42.608 28.0719 42.608H32.9199C32.916 42.6559 32.916 42.7041 32.9199 42.752C32.9199 43.3885 33.1727 43.9989 33.6228 44.449C34.0729 44.8991 34.6834 45.152 35.3199 45.152H44.7119C45.3484 45.152 45.9589 44.8991 46.4089 44.449C46.859 43.9989 47.1119 43.3885 47.1119 42.752C47.1119 42.704 47.1119 42.656 47.1119 42.608H51.9599C52.624 42.608 53.2609 42.8718 53.7305 43.3414C54.2001 43.811 54.4639 44.4479 54.4639 45.112V80H58.0479V45.112C58.0468 44.3101 57.8876 43.5163 57.5793 42.776C57.271 42.0358 56.8196 41.3637 56.2511 40.7981C55.6826 40.2326 55.0081 39.7848 54.2662 39.4803C53.5244 39.1759 52.7298 39.0208 51.9279 39.024Z" fill="#1E22B0"/>
<path d="M39.9999 16.8002C44.5746 16.791 48.9742 18.5578 52.2719 21.7282L54.4479 18.8482C50.5163 15.2113 45.3558 13.1939 39.9999 13.2002C34.6418 13.1943 29.4789 15.2115 25.5439 18.8482L27.7279 21.7282C31.0257 18.5578 35.4253 16.791 39.9999 16.8002Z" fill="#1E22B0"/>
<path d="M36.192 32.9118C37.3324 32.1943 38.6527 31.8143 40 31.8158C41.3528 31.8109 42.6792 32.191 43.824 32.9118L46 30.0398C44.2295 28.8388 42.1394 28.1968 40 28.1968C37.8606 28.1968 35.7705 28.8388 34 30.0398L36.192 32.9118Z" fill="#1E22B0"/>
<path d="M50.2241 24.4159C47.3091 22.1137 43.6986 20.8697 39.9841 20.8879C36.2695 20.8685 32.6585 22.1125 29.7441 24.4159L31.9201 27.2879C34.2165 25.4737 37.0576 24.4868 39.9841 24.4868C42.9107 24.4868 45.7518 25.4737 48.0481 27.2879L50.2241 24.4159Z" fill="#1E22B0"/>
<path d="M37.5442 63.2479L34.4962 60.4559L32.4722 62.6719L37.6402 67.3999L47.5762 57.4639L45.4562 55.3359L37.5442 63.2479Z" fill="#1E22B0"/>
</g>
</svg>
