<svg width="80" height="80" viewBox="0 0 80 80" fill="none" xmlns="http://www.w3.org/2000/svg">
<circle cx="40" cy="40" r="40" fill="#FEF643"/>
<path d="M53.2801 26.6641H26.7201C25.3628 26.6662 24.0618 27.2063 23.102 28.166C22.1423 29.1257 21.6022 30.4268 21.6001 31.7841V48.2241C21.6022 49.5813 22.1423 50.8824 23.102 51.8421C24.0618 52.8018 25.3628 53.3419 26.7201 53.3441H53.2801C54.6374 53.3419 55.9384 52.8018 56.8981 51.8421C57.8579 50.8824 58.398 49.5813 58.4001 48.2241V31.7841C58.398 30.4268 57.8579 29.1257 56.8981 28.166C55.9384 27.2063 54.6374 26.6662 53.2801 26.6641ZM26.7201 30.0241H53.2801C53.736 30.0259 54.1733 30.2045 54.5001 30.5224C54.8269 30.8402 55.0176 31.2724 55.0321 31.7281L40.0001 41.4481L24.9681 31.7281C24.9826 31.2724 25.1733 30.8402 25.5001 30.5224C25.8269 30.2045 26.2642 30.0259 26.7201 30.0241ZM53.2801 50.0241H26.7201C26.254 50.022 25.8075 49.8359 25.4779 49.5062C25.1483 49.1766 24.9622 48.7302 24.9601 48.2641V35.7281L40.0001 45.4481L55.0401 35.7281V48.2241C55.038 48.6902 54.8519 49.1366 54.5223 49.4662C54.1927 49.7959 53.7462 49.982 53.2801 49.9841V50.0241Z" fill="#1E22B0"/>
</svg>
