<svg width="72" height="72" viewBox="0 0 72 72" fill="none" xmlns="http://www.w3.org/2000/svg">
<rect width="72" height="72" rx="7" fill="#FFEB35"/>
<g clip-path="url(#clip0_650_60410)">
<path d="M50.926 21.2833H21.0964C19.6438 21.2852 18.2512 21.8631 17.2241 22.8902C16.197 23.9173 15.6191 25.3099 15.6172 26.7625V45.2449C15.6191 46.6975 16.197 48.09 17.2241 49.1172C18.2512 50.1443 19.6438 50.7222 21.0964 50.7241H50.9548C51.6743 50.7241 52.3868 50.5824 53.0516 50.307C53.7164 50.0317 54.3204 49.6281 54.8292 49.1193C55.3379 48.6105 55.7416 48.0065 56.0169 47.3417C56.2923 46.6769 56.434 45.9644 56.434 45.2449V26.7625C56.434 26.0405 56.2913 25.3257 56.0142 24.659C55.737 23.9924 55.3308 23.3871 54.819 22.8779C54.3071 22.3687 53.6997 21.9657 53.0316 21.6921C52.3635 21.4184 51.6479 21.2795 50.926 21.2833ZM21.0964 24.5377H50.9548C51.5531 24.5396 52.1263 24.7786 52.5488 25.2024C52.9712 25.6262 53.2084 26.2001 53.2084 26.7985V28.6201H18.8428V26.7985C18.8428 26.2001 19.08 25.6262 19.5024 25.2024C19.9248 24.7786 20.498 24.5396 21.0964 24.5377ZM50.9548 47.5345H21.0964C20.4987 47.5345 19.9255 47.297 19.5028 46.8744C19.0802 46.4518 18.8428 45.8786 18.8428 45.2809V31.8097H53.2084V45.2449C53.2084 45.5433 53.1492 45.8387 53.0341 46.114C52.9191 46.3893 52.7505 46.639 52.5382 46.8487C52.3258 47.0583 52.074 47.2237 51.7972 47.3353C51.5205 47.4468 51.2243 47.5023 50.926 47.4985L50.9548 47.5345Z" fill="#1E22B0"/>
<path d="M49.4785 36.9792H38.0449V38.916H49.4785V36.9792Z" fill="#1E22B0"/>
<path d="M49.4785 40.2263H38.0449V42.1631H49.4785V40.2263Z" fill="#1E22B0"/>
<path d="M25.4805 43.5024H27.7341V41.1264V40.4856V37.7064H30.6933V35.3232H25.4805V43.5024Z" fill="#1E22B0"/>
<path d="M30.6934 38.3472H28.375V40.4856H30.6934V38.3472Z" fill="#1E22B0"/>
<path d="M24.8399 38.3472H22.5215V40.4856H24.8399V38.3472Z" fill="#1E22B0"/>
<path d="M24.8399 35.3232H22.5215V37.7064H24.8399V35.3232Z" fill="#1E22B0"/>
<path d="M30.6934 41.1265H28.375V43.5097H30.6934V41.1265Z" fill="#1E22B0"/>
<path d="M24.8399 41.1265H22.5215V43.5097H24.8399V41.1265Z" fill="#1E22B0"/>
</g>
<defs>
<clipPath id="clip0_650_60410">
<rect width="72" height="72" fill="white"/>
</clipPath>
</defs>
</svg>
