<svg width="54" height="54" viewBox="0 0 54 54" fill="none" xmlns="http://www.w3.org/2000/svg">
<rect width="54" height="54" rx="4" fill="#E1E1E8"/>
<g clip-path="url(#clip0_650_62092)">
<path d="M35.052 26.3411H18.9492C17.8594 26.3411 16.8141 26.774 16.0435 27.5447C15.2728 28.3154 14.8398 29.3606 14.8398 30.4505V53.9999H17.2536V30.4505C17.2551 30.0017 17.4344 29.5718 17.7522 29.255C18.07 28.9382 18.5005 28.7603 18.9492 28.7603H22.2216C22.219 28.7926 22.219 28.8252 22.2216 28.8575C22.2216 29.2871 22.3923 29.6992 22.6961 30.003C22.9999 30.3068 23.412 30.4775 23.8416 30.4775H30.1812C30.6109 30.4775 31.023 30.3068 31.3268 30.003C31.6306 29.6992 31.8012 29.2871 31.8012 28.8575C31.8012 28.8251 31.8012 28.7927 31.8012 28.7603H35.0736C35.5219 28.7603 35.9518 28.9384 36.2688 29.2553C36.5858 29.5723 36.7638 30.0022 36.7638 30.4505V53.9999H39.183V30.4505C39.1823 29.9092 39.0748 29.3734 38.8667 28.8737C38.6586 28.3741 38.354 27.9204 37.9702 27.5386C37.5865 27.1569 37.1312 26.8546 36.6304 26.6491C36.1297 26.4436 35.5933 26.339 35.052 26.3411Z" fill="#AFAFAF"/>
<path d="M27 11.34C30.0879 11.3338 33.0576 12.5264 35.2836 14.6664L36.7524 12.7224C34.0985 10.2675 30.6152 8.90582 27 8.91004C23.3832 8.90606 19.8983 10.2676 17.2422 12.7224L18.7164 14.6664C20.9424 12.5264 23.9121 11.3338 27 11.34Z" fill="#AFAFAF"/>
<path d="M24.4288 22.2156C25.1986 21.7313 26.0898 21.4748 26.9992 21.4758C27.9124 21.4725 28.8077 21.7291 29.5804 22.2156L31.0492 20.277C29.8542 19.4663 28.4433 19.033 26.9992 19.033C25.5551 19.033 24.1443 19.4663 22.9492 20.277L24.4288 22.2156Z" fill="#AFAFAF"/>
<path d="M33.9021 16.4809C31.9345 14.9269 29.4974 14.0872 26.9901 14.0995C24.4827 14.0864 22.0453 14.9261 20.0781 16.4809L21.5469 18.4195C23.097 17.1949 25.0147 16.5287 26.9901 16.5287C28.9656 16.5287 30.8833 17.1949 32.4333 18.4195L33.9021 16.4809Z" fill="#AFAFAF"/>
<path d="M25.3416 42.6924L23.2842 40.8078L21.918 42.3036L25.4064 45.495L32.1132 38.7882L30.6822 37.3518L25.3416 42.6924Z" fill="#AFAFAF"/>
</g>
<defs>
<clipPath id="clip0_650_62092">
<rect width="54" height="54" fill="white"/>
</clipPath>
</defs>
</svg>
