<svg width="54" height="54" viewBox="0 0 54 54" fill="none" xmlns="http://www.w3.org/2000/svg">
<rect width="54" height="54" rx="4" fill="#E1E1E8"/>
<g clip-path="url(#clip0_650_62077)">
<path d="M15.0547 25.8174H25.8169V15.0552H15.0547V25.8174ZM16.9771 16.9776H23.8999V23.9004H16.9987L16.9771 16.9776Z" fill="#AFAFAF"/>
<path d="M15.0547 38.9232H25.8169V28.188H15.0547V38.9232ZM16.9771 30.0834H23.8999V37.0062H16.9987L16.9771 30.0834Z" fill="#AFAFAF"/>
<path d="M38.9419 15.0552H28.1797V25.8174H38.9419V15.0552ZM37.0249 23.9004H30.1021V16.9776H37.0249V23.9004Z" fill="#AFAFAF"/>
<path d="M22.1463 18.7217H18.7227V22.1453H22.1463V18.7217Z" fill="#AFAFAF"/>
<path d="M35.2752 18.7217H31.8516V22.1453H35.2752V18.7217Z" fill="#AFAFAF"/>
<path d="M22.1463 31.8491H18.7227V35.2727H22.1463V31.8491Z" fill="#AFAFAF"/>
<path d="M30.8142 28.1826H28.125V30.8718H30.8142V28.1826Z" fill="#AFAFAF"/>
<path d="M38.947 28.1826H36.2578V30.8718H38.947V28.1826Z" fill="#AFAFAF"/>
<path d="M36.2574 33.5664H33.5358V30.8772H30.8142V33.5664V36.2556H28.125V38.9448H30.8142V36.2556H33.5358H36.2574V38.9448H38.9466V36.2556H36.2574V33.5664Z" fill="#AFAFAF"/>
</g>
<defs>
<clipPath id="clip0_650_62077">
<rect width="54" height="54" fill="white"/>
</clipPath>
</defs>
</svg>
