<svg width="72" height="72" viewBox="0 0 72 72" fill="none" xmlns="http://www.w3.org/2000/svg">
<rect width="72" height="72" rx="7" fill="#FFEB35"/>
<g clip-path="url(#clip0_650_60426)">
<path d="M50.9261 21.2759H21.0677C19.6158 21.2778 18.224 21.8559 17.198 22.8832C16.172 23.9106 15.5957 25.3032 15.5957 26.7551V45.2375C15.5957 46.6894 16.172 48.082 17.198 49.1093C18.224 50.1367 19.6158 50.7148 21.0677 50.7167H50.9261C52.3793 50.7167 53.7729 50.1394 54.8005 49.1119C55.828 48.0843 56.4053 46.6907 56.4053 45.2375V26.7551C56.4053 25.3019 55.828 23.9083 54.8005 22.8807C53.7729 21.8532 52.3793 21.2759 50.9261 21.2759ZM18.8141 45.2375V26.7551C18.8141 26.1574 19.0515 25.5842 19.4742 25.1615C19.8968 24.7389 20.47 24.5015 21.0677 24.5015H45.5981L32.2565 47.4983H21.0677C20.4694 47.4964 19.8962 47.2573 19.4737 46.8336C19.0513 46.4098 18.8141 45.8358 18.8141 45.2375ZM53.1869 45.2375C53.185 45.8365 52.9462 46.4104 52.5226 46.834C52.0991 47.2576 51.5251 47.4964 50.9261 47.4983H35.9789L49.3349 24.5015H50.9333C51.5317 24.5015 52.1056 24.7387 52.5294 25.1611C52.9532 25.5835 53.1922 26.1567 53.1941 26.7551L53.1869 45.2375Z" fill="#1E22B0"/>
<path d="M25.1487 32.3281H22.7871V39.6721H25.1487V32.3281Z" fill="#1E22B0"/>
<path d="M32.624 39.4631C33.1659 39.2065 33.6545 38.8499 34.064 38.4119L32.624 37.0079C32.368 37.2313 32.082 37.4179 31.7744 37.5623C31.4546 37.6925 31.1116 37.7562 30.7664 37.7495C30.4399 37.7537 30.1177 37.6744 29.8304 37.5191C29.5614 37.3699 29.3376 37.151 29.1824 36.8855C29.0281 36.6161 28.9485 36.3103 28.952 35.9999C28.9485 35.6839 29.0306 35.3729 29.1896 35.0999C29.3448 34.8344 29.5686 34.6155 29.8376 34.4663C30.1274 34.311 30.452 34.2317 30.7808 34.2359C31.1191 34.2284 31.4552 34.2922 31.7672 34.4231C32.0623 34.5612 32.3362 34.7406 32.5808 34.9559L34.064 33.5519C33.6683 33.1278 33.197 32.7811 32.6744 32.5295C32.0649 32.2424 31.3967 32.1019 30.7232 32.1191C29.9706 32.1036 29.2268 32.2822 28.5632 32.6375C27.9457 32.9719 27.4325 33.4702 27.08 34.0775C26.7226 34.6676 26.5381 35.3461 26.5472 36.0359C26.5382 36.7234 26.7229 37.3996 27.08 37.9871C27.4317 38.5925 27.9421 39.0904 28.556 39.4271C29.2178 39.7877 29.9625 39.9689 30.716 39.9527C31.3808 39.9356 32.0331 39.7682 32.624 39.4631Z" fill="#1E22B0"/>
</g>
<defs>
<clipPath id="clip0_650_60426">
<rect width="72" height="72" fill="white"/>
</clipPath>
</defs>
</svg>
