<svg width="54" height="54" viewBox="0 0 54 54" fill="none" xmlns="http://www.w3.org/2000/svg">
<rect width="54" height="54" rx="4" fill="#E1E1E8"/>
<g clip-path="url(#clip0_650_62193)">
<path d="M38.1925 15.9625H15.8203C14.7309 15.9639 13.6865 16.3973 12.9161 17.1677C12.1458 17.938 11.7124 18.9824 11.7109 20.0719V33.9337C11.7124 35.0231 12.1458 36.0675 12.9161 36.8379C13.6865 37.6082 14.7309 38.0416 15.8203 38.0431H38.2141C38.7538 38.0431 39.2882 37.9368 39.7867 37.7303C40.2853 37.5237 40.7383 37.221 41.1199 36.8394C41.5015 36.4579 41.8042 36.0048 42.0107 35.5063C42.2172 35.0077 42.3235 34.4733 42.3235 33.9337V20.0719C42.3235 19.5304 42.2165 18.9942 42.0087 18.4943C41.8008 17.9943 41.4962 17.5403 41.1123 17.1584C40.7284 16.7765 40.2728 16.4743 39.7718 16.2691C39.2707 16.0638 38.734 15.9596 38.1925 15.9625ZM15.8203 18.4033H38.2141C38.6629 18.4047 39.0928 18.584 39.4096 18.9018C39.7264 19.2196 39.9043 19.6501 39.9043 20.0989V21.4651H14.1301V20.0989C14.1301 19.6501 14.308 19.2196 14.6248 18.9018C14.9417 18.584 15.3716 18.4047 15.8203 18.4033ZM38.2141 35.6509H15.8203C15.3721 35.6509 14.9421 35.4728 14.6252 35.1558C14.3082 34.8388 14.1301 34.4089 14.1301 33.9607V23.8573H39.9043V33.9337C39.9044 34.1574 39.8599 34.379 39.7736 34.5855C39.6873 34.792 39.5609 34.9793 39.4017 35.1365C39.2424 35.2938 39.0535 35.4178 38.846 35.5015C38.6384 35.5851 38.4163 35.6267 38.1925 35.6239L38.2141 35.6509Z" fill="#AFAFAF"/>
<path d="M37.1065 27.7344H28.5312V29.187H37.1065V27.7344Z" fill="#AFAFAF"/>
<path d="M37.1065 30.1699H28.5312V31.6225H37.1065V30.1699Z" fill="#AFAFAF"/>
<path d="M19.1094 32.6268H20.7996V30.8448V30.3642V28.2798H23.019V26.4924H19.1094V32.6268Z" fill="#AFAFAF"/>
<path d="M23.0201 28.7604H21.2812V30.3642H23.0201V28.7604Z" fill="#AFAFAF"/>
<path d="M18.6294 28.7605H16.8906V30.3643H18.6294V28.7605Z" fill="#AFAFAF"/>
<path d="M18.6294 26.4924H16.8906V28.2798H18.6294V26.4924Z" fill="#AFAFAF"/>
<path d="M23.0201 30.8448H21.2812V32.6322H23.0201V30.8448Z" fill="#AFAFAF"/>
<path d="M18.6294 30.8447H16.8906V32.6321H18.6294V30.8447Z" fill="#AFAFAF"/>
</g>
<defs>
<clipPath id="clip0_650_62193">
<rect width="54" height="54" fill="white"/>
</clipPath>
</defs>
</svg>
