<svg width="72" height="72" viewBox="0 0 72 72" fill="none" xmlns="http://www.w3.org/2000/svg">
<rect width="72" height="72" rx="7" fill="#FFEB35"/>
<g clip-path="url(#clip0_650_60436)">
<path d="M20.0742 34.4231H34.4238V20.0735H20.0742V34.4231ZM22.6374 22.6367H31.8678V31.8671H22.6662L22.6374 22.6367Z" fill="#1E22B0"/>
<path d="M20.0742 51.8976H34.4238V37.584H20.0742V51.8976ZM22.6374 40.1112H31.8678V49.3416H22.6662L22.6374 40.1112Z" fill="#1E22B0"/>
<path d="M51.9258 20.0735H37.5762V34.4231H51.9258V20.0735ZM49.3698 31.8671H40.1394V22.6367H49.3698V31.8671Z" fill="#1E22B0"/>
<path d="M29.5277 24.9624H24.9629V29.5272H29.5277V24.9624Z" fill="#1E22B0"/>
<path d="M47.0296 24.9624H42.4648V29.5272H47.0296V24.9624Z" fill="#1E22B0"/>
<path d="M29.5277 42.4656H24.9629V47.0304H29.5277V42.4656Z" fill="#1E22B0"/>
<path d="M41.0836 37.5769H37.498V41.1625H41.0836V37.5769Z" fill="#1E22B0"/>
<path d="M51.9254 37.5769H48.3398V41.1625H51.9254V37.5769Z" fill="#1E22B0"/>
<path d="M48.3412 44.7553H44.7124V41.1697H41.0836V44.7553V48.3409H37.498V51.9265H41.0836V48.3409H44.7124H48.3412V51.9265H51.9268V48.3409H48.3412V44.7553Z" fill="#1E22B0"/>
</g>
<defs>
<clipPath id="clip0_650_60436">
<rect width="72" height="72" fill="white"/>
</clipPath>
</defs>
</svg>
