<svg width="54" height="54" viewBox="0 0 54 54" fill="none" xmlns="http://www.w3.org/2000/svg">
<rect width="54" height="54" rx="4" fill="#E1E1E8"/>
<g clip-path="url(#clip0_650_62103)">
<path d="M31.8116 26.973H39.9602C40.6586 26.9716 41.3281 26.6935 41.822 26.1996C42.3158 25.7057 42.5939 25.0362 42.5954 24.3378V17.9118C42.5954 17.2129 42.3177 16.5426 41.8235 16.0484C41.3293 15.5542 40.6591 15.2766 39.9602 15.2766H31.8116C31.4639 15.2737 31.1192 15.3398 30.7973 15.471C30.4754 15.6023 30.1827 15.796 29.9361 16.0411C29.6895 16.2861 29.494 16.5776 29.3608 16.8987C29.2276 17.2198 29.1594 17.5642 29.1602 17.9118V24.3378C29.1602 24.6852 29.2289 25.0292 29.3623 25.35C29.4957 25.6708 29.6913 25.962 29.9377 26.2069C30.1841 26.4518 30.4765 26.6456 30.7981 26.7771C31.1197 26.9085 31.4641 26.9751 31.8116 26.973ZM31.2068 17.9118C31.2082 17.7518 31.2723 17.5988 31.3855 17.4857C31.4986 17.3726 31.6516 17.3084 31.8116 17.307H39.9602C40.0415 17.3048 40.1224 17.3188 40.1982 17.3481C40.2741 17.3774 40.3434 17.4214 40.4021 17.4777C40.4609 17.5339 40.5079 17.6012 40.5405 17.6757C40.5731 17.7502 40.5906 17.8305 40.592 17.9118V24.3378C40.5849 24.4996 40.515 24.6524 40.3969 24.7633C40.2789 24.8743 40.1221 24.9348 39.9602 24.9318H31.8116C31.6511 24.929 31.4981 24.8636 31.3851 24.7496C31.2721 24.6357 31.2081 24.4821 31.2068 24.3216V17.9118Z" fill="#AFAFAF"/>
<path d="M42.7683 35.073C42.7701 33.7081 42.3649 32.3736 41.6044 31.2402C40.844 30.1067 39.7628 29.2257 38.4991 28.7098C37.2354 28.1939 35.8466 28.0665 34.5102 28.3439C33.1737 28.6213 31.9503 29.2908 30.9963 30.267H24.7701C24.3884 29.7499 23.9481 29.2788 23.4579 28.863V21.3624H27.0867V15.2766H18.8625L18.3873 17.2584C17.3171 17.1317 16.2378 17.4036 15.3553 18.0222C14.4728 18.6407 13.849 19.5626 13.6029 20.6118C13.3584 21.6556 13.5033 22.7528 14.0104 23.6973C14.5174 24.6419 15.3518 25.3689 16.3569 25.7418L15.9843 27.3024C14.3027 27.7929 12.8254 28.8153 11.774 30.2163C10.7225 31.6172 10.1535 33.3213 10.1523 35.073V36.0828H13.5543C13.7859 37.1568 14.3785 38.119 15.2334 38.8091C16.0882 39.4993 17.1537 39.8757 18.2523 39.8757C19.351 39.8757 20.4165 39.4993 21.2713 38.8091C22.1262 38.119 22.7187 37.1568 22.9503 36.0828H31.2015C31.4331 37.1568 32.0257 38.119 32.8806 38.8091C33.7354 39.4993 34.8009 39.8757 35.8995 39.8757C36.9982 39.8757 38.0637 39.4993 38.9185 38.8091C39.7734 38.119 40.3659 37.1568 40.5975 36.0828H42.7575L42.7683 35.073ZM15.5739 21.0762C15.6472 20.7711 15.7804 20.4837 15.9658 20.2306C16.1512 19.9775 16.3851 19.7638 16.6539 19.602C16.8863 19.4578 17.1422 19.3554 17.4099 19.2996L16.4217 23.4792C16.0668 23.2005 15.7986 22.8265 15.6485 22.401C15.4983 21.9754 15.4725 21.5159 15.5739 21.0762ZM20.4609 17.2962H25.0617V19.332H21.4329V27.6318C20.4273 27.2034 19.3454 26.983 18.2523 26.9838H18.1443L20.4609 17.2962ZM18.2523 37.854C17.7035 37.8487 17.1685 37.6811 16.7147 37.3723C16.261 37.0635 15.9087 36.6273 15.7024 36.1187C15.496 35.6101 15.4448 35.0518 15.5551 34.5141C15.6654 33.9764 15.9324 33.4834 16.3224 33.0972C16.7124 32.711 17.2079 32.4488 17.7467 32.3436C18.2854 32.2385 18.8431 32.2951 19.3497 32.5064C19.8563 32.7176 20.2891 33.0741 20.5935 33.5308C20.8979 33.9875 21.0603 34.5241 21.0603 35.073C21.0596 35.4403 20.9863 35.8038 20.8446 36.1427C20.7029 36.4815 20.4957 36.789 20.2347 37.0475C19.9737 37.3059 19.6642 37.5102 19.324 37.6487C18.9838 37.7871 18.6196 37.8569 18.2523 37.854ZM18.2523 30.267C17.156 30.2684 16.0929 30.6437 15.2387 31.3309C14.3845 32.0182 13.7903 32.9764 13.5543 34.047H12.2637C12.4745 32.8078 13.0645 31.6645 13.9524 30.7748C14.8402 29.885 15.9822 29.2925 17.2209 29.079L21.4869 29.916C22.2509 30.3983 22.8968 31.046 23.3769 31.8114L23.6793 32.2812H31.9089L32.2113 31.9248C32.8002 31.2425 33.5672 30.7373 34.4266 30.4657C35.286 30.1942 36.204 30.167 37.078 30.3872C37.952 30.6074 38.7476 31.0662 39.3758 31.7125C40.004 32.3589 40.4401 33.1671 40.6353 34.047H22.9503C22.7162 32.9754 22.1225 32.0162 21.2679 31.3286C20.4133 30.641 19.3492 30.2664 18.2523 30.267ZM35.8995 37.854C35.3396 37.8534 34.7927 37.6841 34.3304 37.3682C33.868 37.0523 33.5116 36.6043 33.3075 36.0828H38.4915C38.2869 36.6039 37.9303 37.0514 37.4681 37.3673C37.0059 37.6831 36.4594 37.8527 35.8995 37.854Z" fill="#AFAFAF"/>
</g>
<defs>
<clipPath id="clip0_650_62103">
<rect width="54" height="54" fill="white"/>
</clipPath>
</defs>
</svg>
