<svg width="478" height="478" viewBox="0 0 478 478" fill="none" xmlns="http://www.w3.org/2000/svg">
<path d="M409.146 261.507C410.907 249.875 413.513 242.372 416.965 238.999L434.763 241.692C434.721 241.792 434.548 242.15 434.243 242.766C433.934 243.409 433.547 244.211 433.083 245.175C432.001 247.423 430.94 249.793 429.9 252.285C428.883 254.808 428.254 256.859 428.015 258.44C427.623 261.031 428.217 262.446 429.798 262.685C431.015 262.869 432.479 261.951 434.189 259.931C434.964 259.014 435.786 257.96 436.656 256.766C437.522 255.599 438.469 254.417 439.498 253.221C441.983 250.285 444.708 248.034 447.675 246.469C450.637 244.929 454.152 244.467 458.22 245.083C467.106 246.428 472.368 252.021 474.006 261.862C474.673 265.858 474.63 270.344 473.878 275.318C473.121 280.318 471.761 285.452 469.798 290.72C469.396 291.799 469.116 292.512 468.957 292.859L451.12 290.159C453.689 283.34 455.207 278.389 455.674 275.306C455.854 274.114 455.782 273.189 455.458 272.53C455.133 271.872 454.712 271.503 454.194 271.425C453.676 271.346 453.092 271.523 452.444 271.955C451.822 272.391 451.129 273.2 450.367 274.384C449.631 275.571 448.734 276.945 447.676 278.508C446.64 280.1 445.557 281.566 444.427 282.906C439.356 288.922 433.297 291.398 426.25 290.331C419.566 289.32 414.738 286.284 411.768 281.223C408.831 276.114 407.957 269.543 409.146 261.507Z" fill="#FFEB35"/>
<path d="M434.567 332.675C437.107 337.995 436.713 343.836 433.386 350.198C432.438 352.009 431.013 353.717 429.108 355.323C427.203 356.929 425.067 358.074 422.699 358.757C417.632 360.247 412.324 359.54 406.775 356.638L380.097 342.684L390.991 321.858L409.763 331.676C413.501 333.632 416.881 334.631 419.904 334.674C422.95 334.73 424.899 333.945 425.749 332.32C426.914 330.091 425.977 328.181 422.935 326.59L395.909 312.454L406.73 291.767L465.344 322.425L454.523 343.113L434.567 332.675Z" fill="#FFEB35"/>
<path d="M376.555 395.038C377.117 394.873 377.705 394.505 378.319 393.934C378.914 393.381 379.406 392.583 379.797 391.541C380.205 390.517 380.478 389.368 380.617 388.094C380.9 385.398 380.685 382.646 379.972 379.839C379.258 377.032 378.169 374.842 376.706 373.268C375.261 371.714 373.694 371.221 372.005 371.79C371.404 371.991 370.797 372.377 370.183 372.948C369.569 373.519 369.095 374.299 368.763 375.288C368.448 376.296 368.249 377.429 368.166 378.687C367.997 381.313 368.259 384.057 368.952 386.919C369.663 389.8 370.714 391.989 372.106 393.486C373.498 394.983 374.98 395.5 376.555 395.038ZM357.355 363.193C362.843 358.09 369.188 355.428 376.39 355.208C384.056 354.949 390.485 357.612 395.677 363.195C400.888 368.799 403.157 375.222 402.486 382.465C401.832 389.728 398.589 396.071 392.756 401.495C386.922 406.919 380.396 409.732 373.177 409.933C365.975 410.153 359.653 407.355 354.209 401.54C350.711 397.816 348.583 393.623 347.825 388.96C347.068 384.298 347.56 379.69 349.301 375.137C351.043 370.583 353.727 366.602 357.355 363.193Z" fill="#FFEB35"/>
<path d="M295.447 436.945C292.475 430.066 292.073 422.952 294.241 415.602C295.854 410.125 299.182 405.271 304.226 401.041C306.841 398.843 310.042 396.875 313.829 395.137L308.737 383.465L330.136 374.13L354.761 430.581L342.945 435.736L334.92 431.003C332.045 439.09 327.641 444.427 321.709 447.015C315.776 449.603 310.493 449.878 305.86 447.84C301.202 445.812 297.731 442.181 295.447 436.945ZM316.714 431.141C317.302 431.114 317.968 430.937 318.713 430.612C320.226 429.952 321.476 428.363 322.465 425.845C323.44 423.362 323.908 420.799 323.871 418.157L319.36 407.818C319.078 408.284 318.645 408.93 318.062 409.756C317.466 410.617 316.839 411.605 316.182 412.72C312.274 419.228 311.232 424.571 313.055 428.75C313.788 430.431 315.008 431.228 316.714 431.141Z" fill="#FFEB35"/>
<path d="M214.167 408.721C225.786 410.57 233.269 413.234 236.615 416.712L233.785 434.489C233.686 434.447 233.329 434.27 232.715 433.961C232.076 433.646 231.276 433.254 230.316 432.783C228.077 431.683 225.715 430.604 223.23 429.545C220.715 428.508 218.669 427.864 217.09 427.613C214.503 427.201 213.083 427.784 212.832 429.363C212.638 430.579 213.545 432.05 215.552 433.776C216.462 434.557 217.511 435.387 218.698 436.266C219.859 437.141 221.033 438.097 222.221 439.135C225.138 441.643 227.368 444.385 228.91 447.364C230.427 450.338 230.862 453.856 230.215 457.919C228.802 466.795 223.169 472.014 213.316 473.576C209.314 474.213 204.829 474.136 199.861 473.345C194.867 472.55 189.743 471.15 184.491 469.147C183.415 468.737 182.704 468.451 182.359 468.29L185.194 450.474C191.994 453.095 196.933 454.651 200.013 455.141C201.203 455.331 202.129 455.266 202.79 454.946C203.451 454.627 203.823 454.209 203.905 453.691C203.987 453.174 203.815 452.589 203.388 451.937C202.957 451.312 202.153 450.613 200.976 449.842C199.794 449.097 198.426 448.189 196.872 447.119C195.288 446.071 193.83 444.977 192.499 443.836C186.522 438.719 184.093 432.642 185.213 425.603C186.276 418.927 189.349 414.123 194.432 411.191C199.563 408.293 206.142 407.47 214.167 408.721Z" fill="#FFEB35"/>
<path d="M143.076 433.475C137.737 435.975 131.899 435.538 125.562 432.163C123.758 431.203 122.06 429.764 120.469 427.848C118.877 425.931 117.748 423.787 117.082 421.413C115.63 416.336 116.376 411.033 119.319 405.506L133.47 378.932L154.215 389.979L144.258 408.678C142.275 412.401 141.251 415.774 141.185 418.797C141.107 421.843 141.877 423.797 143.496 424.659C145.716 425.841 147.633 424.917 149.247 421.888L163.582 394.967L184.189 405.94L153.098 464.326L132.491 453.353L143.076 433.475Z" fill="#FFEB35"/>
<path d="M81.2018 374.778C81.3606 375.342 81.7222 375.934 82.2864 376.554C82.833 377.155 83.6254 377.656 84.6637 378.057C85.6826 378.477 86.8284 378.763 88.101 378.915C90.7943 379.228 93.5482 379.043 96.3628 378.36C99.1774 377.677 101.379 376.613 102.969 375.167C104.539 373.738 105.048 372.177 104.498 370.481C104.304 369.879 103.925 369.267 103.36 368.647C102.796 368.027 102.021 367.545 101.036 367.201C100.031 366.876 98.9004 366.665 97.6436 366.568C95.0191 366.37 92.2723 366.602 89.4031 367.264C86.5145 367.943 84.3143 368.971 82.8025 370.346C81.2906 371.721 80.7571 373.198 81.2018 374.778ZM113.254 355.927C118.297 361.47 120.89 367.843 121.031 375.047C121.207 382.716 118.474 389.116 112.834 394.246C107.174 399.395 100.727 401.594 93.4914 400.844C86.2364 400.112 79.9289 396.799 74.5687 390.907C69.2085 385.015 66.4672 378.458 66.3449 371.237C66.2032 364.034 69.0696 357.742 74.9441 352.363C78.706 348.905 82.9222 346.823 87.5927 346.116C92.2632 345.41 96.8654 345.952 101.399 347.743C105.933 349.534 109.885 352.262 113.254 355.927Z" fill="#FFEB35"/>
<path d="M40.1776 293.269C47.0896 290.374 54.208 290.052 61.5326 292.302C66.9917 293.976 71.8079 297.359 75.9813 302.45C78.1501 305.089 80.0821 308.311 81.7775 312.118L93.5058 307.157L102.6 328.659L45.8771 352.651L40.8552 340.778L45.6771 332.807C37.6231 329.84 32.3355 325.377 29.8143 319.416C27.2931 313.456 27.0774 308.17 29.1671 303.559C31.2465 298.924 34.9167 295.494 40.1776 293.269ZM45.7429 314.599C45.7642 315.188 45.9331 315.856 46.2495 316.604C46.8925 318.125 48.4675 319.393 50.9743 320.41C53.4467 321.412 56.0041 321.909 58.6465 321.901L69.0355 317.507C68.5724 317.219 67.9311 316.779 67.1116 316.187C66.2578 315.581 65.2768 314.943 64.1687 314.274C57.7056 310.294 52.3745 309.191 48.1754 310.967C46.4862 311.682 45.6753 312.893 45.7429 314.599Z" fill="#FFEB35"/>
<path d="M69.0985 212.889C67.1156 224.486 64.3662 231.937 60.8502 235.244L43.1067 232.21C43.1502 232.111 43.3305 231.757 43.6475 231.146C43.9689 230.51 44.3707 229.715 44.8529 228.76C45.9779 226.534 47.0841 224.184 48.1714 221.712C49.2373 219.209 49.9049 217.17 50.1743 215.595C50.6159 213.012 50.0489 211.586 48.4735 211.317C47.2596 211.109 45.7783 211.999 44.0297 213.986C43.2376 214.887 42.3954 215.926 41.5031 217.103C40.6152 218.253 39.6454 219.417 38.5937 220.593C36.0529 223.481 33.2847 225.679 30.2888 227.187C27.2974 228.67 23.7742 229.064 19.7193 228.371C10.8605 226.856 5.70653 221.163 4.25749 211.293C3.66693 207.284 3.7956 202.8 4.64348 197.841C5.49577 192.857 6.95381 187.75 9.01759 182.52C9.43993 181.449 9.73367 180.742 9.8988 180.398L27.681 183.438C24.9819 190.207 23.3695 195.129 22.844 198.202C22.6409 199.39 22.6951 200.317 23.0068 200.981C23.3185 201.646 23.7326 202.022 24.2491 202.111C24.7657 202.199 25.3522 202.034 26.0088 201.614C26.6395 201.19 27.3471 200.394 28.1317 199.226C28.8905 198.053 29.8137 196.696 30.9014 195.154C31.9677 193.582 33.0786 192.137 34.2343 190.819C39.4197 184.901 45.525 182.542 52.5501 183.743C59.2136 184.882 63.982 188.01 66.8552 193.127C69.6939 198.291 70.4416 204.878 69.0985 212.889Z" fill="#FFEB35"/>
<path d="M44.8786 141.496C42.4376 136.129 42.9393 130.296 46.3839 123.997C47.3645 122.204 48.8217 120.522 50.7556 118.952C52.6895 117.381 54.8467 116.276 57.2271 115.637C62.3206 114.241 67.6146 115.045 73.1091 118.05L99.5242 132.494L88.2477 153.116L69.6606 142.952C65.9592 140.928 62.5978 139.866 59.5761 139.767C56.5315 139.655 54.5692 140.404 53.6892 142.013C52.4823 144.22 53.3847 146.147 56.3964 147.794L83.1563 162.427L71.9553 182.911L13.918 151.174L25.119 130.691L44.8786 141.496Z" fill="#FFEB35"/>
<path d="M104.543 79.6564C103.977 79.8091 103.381 80.1641 102.755 80.7216C102.148 81.2616 101.638 82.0485 101.226 83.0823C100.795 84.0966 100.497 85.2392 100.33 86.5101C99.9879 89.1998 100.143 91.9556 100.795 94.7774C101.448 97.5993 102.488 99.8127 103.917 101.418C105.328 103.003 106.884 103.53 108.585 102.998C109.19 102.81 109.805 102.438 110.432 101.88C111.058 101.323 111.548 100.554 111.902 99.572C112.239 98.5708 112.462 97.4424 112.573 96.1868C112.8 93.5646 112.598 90.8154 111.967 87.9391C111.319 85.0433 110.316 82.832 108.957 81.3053C107.598 79.7786 106.127 79.2289 104.543 79.6564ZM123.043 111.913C117.445 116.895 111.044 119.417 103.839 119.481C96.1691 119.572 89.7994 116.77 84.7302 111.074C79.6437 105.359 77.5149 98.8879 78.3439 91.661C79.1554 84.4144 82.5363 78.1434 88.4866 72.8478C94.4369 67.5521 101.023 64.8825 108.245 64.839C115.45 64.7758 121.71 67.7107 127.025 73.6435C130.441 77.4429 132.477 81.6815 133.133 86.3595C133.789 91.0375 133.196 95.6335 131.356 100.148C129.516 104.662 126.745 108.583 123.043 111.913Z" fill="#FFEB35"/>
<path d="M185.329 39.867C188.172 46.8005 188.442 53.9211 186.136 61.2287C184.422 66.6751 181.003 71.4659 175.881 75.6011C173.226 77.7501 169.989 79.658 166.17 81.3249L171.043 93.09L149.474 102.024L125.906 45.1227L137.816 40.1896L145.751 45.071C148.778 37.0393 153.281 31.7852 159.26 29.3087C165.239 26.8321 170.527 26.6558 175.122 28.7799C179.741 30.8939 183.143 34.5896 185.329 39.867ZM163.958 45.2728C163.369 45.2897 162.7 45.4536 161.949 45.7644C160.424 46.3961 159.144 47.9615 158.109 50.4606C157.088 52.9255 156.571 55.4791 156.56 58.1215L160.876 68.5431C161.167 68.0821 161.612 67.4441 162.21 66.6291C162.823 65.7798 163.468 64.8036 164.145 63.7005C168.174 57.2673 169.316 51.9446 167.571 47.7324C166.87 46.0378 165.665 45.218 163.958 45.2728Z" fill="#FFEB35"/>
<path d="M266.542 69.2329C254.969 67.1171 247.55 64.2823 244.284 60.7286L247.521 43.0211C247.62 43.0657 247.972 43.2501 248.579 43.5741C249.211 43.9028 250.002 44.3137 250.95 44.8068C253.164 45.9573 255.501 47.0903 257.96 48.2059C260.451 49.3005 262.482 49.9915 264.054 50.2789C266.632 50.7502 268.064 50.1996 268.352 48.6274C268.573 47.4159 267.7 45.9245 265.733 44.1532C264.841 43.3508 263.812 42.4968 262.646 41.591C261.505 40.6899 260.353 39.7068 259.19 38.6417C256.33 36.068 254.164 33.2747 252.691 30.2617C251.243 27.2534 250.889 23.726 251.629 19.6793C253.245 10.8384 258.997 5.75019 268.883 4.41457C272.898 3.87007 277.38 4.0502 282.329 4.95495C287.304 5.86442 292.394 7.38099 297.599 9.50467C298.665 9.93928 299.369 10.2411 299.711 10.4102L296.467 28.1563C289.729 25.3796 284.827 23.7109 281.759 23.1502C280.574 22.9334 279.647 22.977 278.979 23.281C278.31 23.5851 277.929 23.9948 277.835 24.5103C277.741 25.0258 277.899 25.6142 278.311 26.2755C278.728 26.911 279.516 27.6278 280.675 28.4257C281.839 29.1979 283.186 30.1367 284.715 31.242C286.275 32.3262 287.707 33.4537 289.011 34.6245C294.87 39.8775 297.158 46.0094 295.876 53.0202C294.661 59.6702 291.478 64.4024 286.329 67.2167C281.133 69.9959 274.537 70.6679 266.542 69.2329Z" fill="#FFEB35"/>
<path d="M338.265 45.8044C343.658 43.423 349.485 43.9893 355.746 47.5034C357.528 48.5037 359.193 49.9795 360.742 51.9307C362.291 53.8818 363.373 56.0511 363.986 58.4385C365.325 63.5471 364.462 68.8319 361.397 74.2928L346.661 100.546L326.165 89.0422L336.534 70.5688C338.599 66.8901 339.698 63.5405 339.831 60.5202C339.976 57.477 339.249 55.5065 337.65 54.6087C335.457 53.3775 333.52 54.2585 331.84 57.2518L316.911 83.848L296.553 72.4209L328.93 14.7385L349.288 26.1657L338.265 45.8044Z" fill="#FFEB35"/>
<path d="M398.733 105.279C398.584 104.712 398.234 104.114 397.681 103.483C397.145 102.872 396.362 102.357 395.331 101.937C394.32 101.499 393.18 101.192 391.91 101.016C389.223 100.655 386.466 100.79 383.64 101.421C380.813 102.053 378.592 103.077 376.977 104.494C375.381 105.894 374.843 107.446 375.363 109.151C375.546 109.757 375.914 110.375 376.467 111.006C377.019 111.636 377.785 112.132 378.764 112.493C379.763 112.837 380.89 113.069 382.145 113.188C384.765 113.434 387.516 113.252 390.396 112.642C393.297 112.016 395.515 111.028 397.052 109.681C398.588 108.333 399.149 106.866 398.733 105.279ZM366.343 123.544C361.402 117.91 358.926 111.491 358.915 104.286C358.879 96.6149 361.727 90.2657 367.46 85.2381C373.212 80.1932 379.698 78.1116 386.919 78.9931C394.16 79.8573 400.406 83.2838 405.658 89.2724C410.91 95.261 413.532 101.866 413.523 109.089C413.534 116.294 410.553 122.532 404.582 127.804C400.758 131.193 396.505 133.198 391.822 133.819C387.139 134.441 382.548 133.815 378.047 131.942C373.547 130.069 369.645 127.27 366.343 123.544Z" fill="#FFEB35"/>
<path d="M438.534 187.79C431.569 190.555 424.446 190.744 417.165 188.357C411.738 186.582 406.986 183.11 402.908 177.941C400.789 175.262 398.918 172.004 397.294 168.167L385.475 172.907L376.784 151.239L433.946 128.311L438.745 140.276L433.775 148.156C441.772 151.272 446.975 155.834 449.384 161.841C451.794 167.847 451.911 173.136 449.735 177.707C447.569 182.302 443.836 185.663 438.534 187.79ZM433.369 166.359C433.358 165.77 433.202 165.099 432.9 164.345C432.285 162.813 430.734 161.515 428.247 160.452C425.793 159.403 423.246 158.858 420.604 158.817L410.134 163.016C410.592 163.313 411.225 163.765 412.033 164.372C412.876 164.994 413.845 165.65 414.94 166.34C421.328 170.44 426.637 171.642 430.869 169.945C432.571 169.262 433.404 168.067 433.369 166.359Z" fill="#FFEB35"/>
</svg>
