<svg width="24" height="24" viewBox="0 0 24 24" fill="none" xmlns="http://www.w3.org/2000/svg">
<g clip-path="url(#clip0_42_8940)">
<path d="M17.04 20.2248H6.96001C6.0317 20.2258 5.12442 19.9484 4.35548 19.4283C3.58654 18.9082 2.99131 18.1694 2.64677 17.3074C2.30222 16.4454 2.22421 15.4999 2.42282 14.593C2.62142 13.6862 3.08751 12.8599 3.76081 12.2208C3.62236 11.714 3.55214 11.1909 3.55201 10.6656C3.54946 9.75576 3.75434 8.85734 4.15108 8.0386C4.54783 7.21985 5.12599 6.50232 5.84164 5.94053C6.55729 5.37875 7.39159 4.9875 8.28113 4.79652C9.17067 4.60554 10.092 4.61985 10.9752 4.83837C11.5679 4.32435 12.2887 3.98052 13.0611 3.84342C13.8336 3.70632 14.6287 3.78108 15.3621 4.05975C16.0954 4.33841 16.7395 4.81058 17.226 5.42604C17.7125 6.04151 18.0231 6.77729 18.1248 7.55517C19.0128 7.89736 19.7292 8.57723 20.1173 9.44613C20.5054 10.315 20.5337 11.3023 20.196 12.192C20.8745 12.8277 21.3465 13.6523 21.551 14.5593C21.7555 15.4662 21.6831 16.4137 21.3431 17.279C21.0031 18.1443 20.4112 18.8877 19.644 19.4129C18.8769 19.9381 17.9697 20.2209 17.04 20.2248ZM9.56161 6.34317C8.86123 6.34239 8.17116 6.51191 7.55085 6.83713C6.93055 7.16235 6.39863 7.63351 6.00091 8.21002C5.60319 8.78652 5.3516 9.45108 5.26782 10.1464C5.18405 10.8418 5.2706 11.5471 5.52001 12.2016L5.76001 12.8016L5.23681 13.1808C4.72932 13.5466 4.35071 14.0638 4.1553 14.6581C3.95988 15.2524 3.95769 15.8934 4.14904 16.489C4.3404 17.0846 4.71546 17.6044 5.22044 17.9737C5.72543 18.343 6.33439 18.5429 6.96001 18.5448H17.04C17.6758 18.5443 18.2945 18.3394 18.8049 17.9604C19.3153 17.5814 19.6903 17.0483 19.8746 16.4398C20.0588 15.8314 20.0426 15.1798 19.8282 14.5813C19.6138 13.9828 19.2127 13.4691 18.684 13.116L18 12.66L18.4488 11.9664C18.6234 11.7005 18.7292 11.3955 18.7567 11.0786C18.7842 10.7618 18.7326 10.4431 18.6065 10.1511C18.4804 9.85918 18.2837 9.60312 18.0342 9.40595C17.7846 9.2088 17.49 9.07671 17.1768 9.02157L16.4736 8.89197L16.488 8.17197C16.4868 8.14878 16.4868 8.12555 16.488 8.10237C16.4852 7.56389 16.3194 7.0389 16.0124 6.59647C15.7054 6.15405 15.2717 5.81493 14.7683 5.62375C14.2649 5.43258 13.7154 5.3983 13.1922 5.52542C12.6689 5.65255 12.1964 5.93513 11.8368 6.33597L11.4672 6.74637L10.944 6.56877C10.4986 6.41887 10.0316 6.34267 9.56161 6.34317Z" fill="#1E22B0"/>
<path d="M14.9712 15.9673H13.2912C13.2925 15.1536 13.6163 14.3736 14.1917 13.7982C14.7671 13.2228 15.5471 12.899 16.3608 12.8977V14.5777C15.9924 14.5783 15.6394 14.7249 15.3789 14.9854C15.1184 15.2459 14.9718 15.599 14.9712 15.9673Z" fill="#1E22B0"/>
<path d="M7.87439 13.7255V12.0455C8.69403 12.0449 9.47992 11.719 10.0595 11.1394C10.6391 10.5599 10.965 9.77399 10.9656 8.95435H12.6456C12.6443 10.2194 12.1412 11.4322 11.2467 12.3267C10.3522 13.2212 9.1394 13.7243 7.87439 13.7255Z" fill="#1E22B0"/>
</g>
<defs>
<clipPath id="clip0_42_8940">
<rect width="24" height="24" fill="white"/>
</clipPath>
</defs>
</svg>
