<svg width="24" height="24" viewBox="0 0 24 24" fill="none" xmlns="http://www.w3.org/2000/svg">
<g clip-path="url(#clip0_18_8986)">
<path d="M17.04 20.225H6.96004C6.03173 20.2261 5.12445 19.9487 4.35551 19.4286C3.58657 18.9085 2.99134 18.1697 2.6468 17.3077C2.30225 16.4457 2.22424 15.5001 2.42285 14.5933C2.62145 13.6865 3.08754 12.8601 3.76084 12.221C3.62239 11.7142 3.55217 11.1912 3.55204 10.6658C3.54949 9.756 3.75437 8.85759 4.15111 8.03884C4.54786 7.22009 5.12602 6.50256 5.84167 5.94078C6.55732 5.379 7.39162 4.98775 8.28116 4.79676C9.1707 4.60578 10.0921 4.62009 10.9752 4.83861C11.5679 4.3246 12.2887 3.98077 13.0612 3.84367C13.8336 3.70657 14.6288 3.78133 15.3621 4.05999C16.0954 4.33866 16.7396 4.81082 17.226 5.42629C17.7125 6.04176 18.0231 6.77753 18.1248 7.55541C19.0128 7.8976 19.7292 8.57748 20.1173 9.44638C20.5055 10.3153 20.5338 11.3025 20.196 12.1922C20.8745 12.8279 21.3465 13.6526 21.551 14.5595C21.7555 15.4665 21.6831 16.4139 21.3431 17.2793C21.0031 18.1446 20.4113 18.8879 19.6441 19.4131C18.8769 19.9383 17.9698 20.2211 17.04 20.225ZM9.56164 6.34341C8.86126 6.34263 8.17119 6.51216 7.55088 6.83738C6.93058 7.16259 6.39866 7.63375 6.00094 8.21026C5.60322 8.78677 5.35163 9.45133 5.26785 10.1467C5.18408 10.842 5.27063 11.5473 5.52004 12.2018L5.76004 12.8018L5.23684 13.181C4.72935 13.5469 4.35074 14.064 4.15533 14.6584C3.95991 15.2527 3.95772 15.8936 4.14908 16.4893C4.34043 17.0849 4.71549 17.6046 5.22047 17.9739C5.72546 18.3433 6.33443 18.5432 6.96004 18.545H17.04C17.6758 18.5445 18.2945 18.3397 18.8049 17.9606C19.3153 17.5816 19.6903 17.0485 19.8746 16.4401C20.0589 15.8316 20.0426 15.18 19.8282 14.5815C19.6138 13.983 19.2127 13.4693 18.684 13.1162L18 12.6602L18.4488 11.9666C18.6234 11.7008 18.7292 11.3957 18.7567 11.0789C18.7843 10.7621 18.7326 10.4433 18.6065 10.1514C18.4804 9.85942 18.2838 9.60336 18.0342 9.4062C17.7847 9.20904 17.4901 9.07696 17.1768 9.02181L16.4736 8.89221L16.488 8.17221C16.4869 8.14903 16.4869 8.1258 16.488 8.10261C16.4852 7.56414 16.3194 7.03914 16.0124 6.59672C15.7055 6.15429 15.2717 5.81518 14.7683 5.624C14.2649 5.43282 13.7154 5.39854 13.1922 5.52567C12.6689 5.65279 12.1964 5.93537 11.8368 6.33621L11.4672 6.74661L10.944 6.56901C10.4986 6.41911 10.0316 6.34291 9.56164 6.34341Z" fill="#1E22B0"/>
<path d="M14.9713 15.9671H13.2913C13.2925 15.1533 13.6163 14.3733 14.1917 13.7979C14.7671 13.2225 15.5471 12.8987 16.3609 12.8975V14.5775C15.9925 14.5781 15.6394 14.7247 15.379 14.9852C15.1185 15.2456 14.9719 15.5987 14.9713 15.9671Z" fill="#1E22B0"/>
<path d="M7.87439 13.7258V12.0458C8.69403 12.0452 9.47992 11.7193 10.0595 11.1397C10.6391 10.5601 10.965 9.77423 10.9656 8.95459H12.6456C12.6443 10.2196 12.1412 11.4324 11.2467 12.3269C10.3522 13.2214 9.1394 13.7245 7.87439 13.7258Z" fill="#1E22B0"/>
</g>
<defs>
<clipPath id="clip0_18_8986">
<rect width="24" height="24" fill="white"/>
</clipPath>
</defs>
</svg>
