<svg width="24" height="24" viewBox="0 0 24 24" fill="none" xmlns="http://www.w3.org/2000/svg">
<g clip-path="url(#clip0_42_8947)">
<path d="M15.7368 6.06708V3.27588H8.2632V6.05748H3.2016V9.82788C3.20201 10.3614 3.32492 10.8877 3.56085 11.3662C3.79678 11.8447 4.13943 12.2627 4.5624 12.5879V20.7047H19.4424V12.5975C19.8297 12.2984 20.1498 11.9212 20.3817 11.4904C20.6137 11.0595 20.7524 10.5847 20.7888 10.0967H20.8032V6.06708H15.7368ZM9.9432 4.95588H14.0568V6.05748H9.9432V4.95588ZM13.0968 19.0247H10.9032V17.3159H13.0968V19.0247ZM17.7576 19.0247H14.7768V15.6455H9.2232V19.0343H6.2424V13.2983C6.81921 13.3757 7.40623 13.3064 7.9491 13.0966C8.49197 12.8868 8.97313 12.5434 9.348 12.0983C9.67469 12.4828 10.0811 12.7916 10.539 13.0035C10.9969 13.2153 11.4955 13.325 12 13.325C12.5045 13.325 13.0031 13.2153 13.461 13.0035C13.9189 12.7916 14.3253 12.4828 14.652 12.0983C14.9789 12.4825 15.3854 12.7911 15.8433 13.0028C16.3011 13.2146 16.7995 13.3244 17.304 13.3247C17.4557 13.324 17.6072 13.3136 17.7576 13.2935V19.0247ZM17.304 11.6399C16.8236 11.6392 16.3631 11.4481 16.0234 11.1085C15.6837 10.7688 15.4926 10.3083 15.492 9.82788H13.812C13.812 10.3085 13.6211 10.7693 13.2813 11.1092C12.9415 11.449 12.4806 11.6399 12 11.6399C11.5194 11.6399 11.0585 11.449 10.7187 11.1092C10.3789 10.7693 10.188 10.3085 10.188 9.82788H8.508C8.49092 10.2974 8.2924 10.7419 7.95423 11.068C7.61606 11.3941 7.16458 11.5763 6.6948 11.5763C6.22501 11.5763 5.77354 11.3941 5.43537 11.068C5.09719 10.7419 4.89868 10.2974 4.8816 9.82788V7.73748H19.1184V9.82788C19.1193 10.0668 19.0731 10.3035 18.9824 10.5244C18.8916 10.7454 18.7581 10.9463 18.5895 11.1155C18.4209 11.2848 18.2206 11.419 18 11.5107C17.7794 11.6023 17.5429 11.6495 17.304 11.6495V11.6399Z" fill="#1E22B0"/>
</g>
<defs>
<clipPath id="clip0_42_8947">
<rect width="24" height="24" fill="white"/>
</clipPath>
</defs>
</svg>
