<svg width="30" height="30" viewBox="0 0 30 30" fill="none" xmlns="http://www.w3.org/2000/svg">
<circle cx="15" cy="15" r="15" fill="#FFEB35"/>
<g clip-path="url(#clip0_907_44050)">
<path d="M10 15.7678L14.9976 22L19.9958 15.7678L15.9894 15.7678L15.9894 4.47421C15.9894 3.83525 16.2332 3.22248 16.6673 2.77067C17.1013 2.31886 17.6899 2.06502 18.3037 2.06502L20.702 2.06502C21.3158 2.06502 21.9045 2.31886 22.3385 2.77067C22.7725 3.22248 23.0163 3.83525 23.0163 4.47421L23.0163 9.57894L25 9.57894L25 4.47421C24.9986 3.28802 24.5453 2.15084 23.7396 1.31208C22.9339 0.47332 21.8415 0.0014594 20.702 2.28309e-06L18.3037 2.49275e-06C17.1643 0.00145981 16.0719 0.473321 15.2661 1.31208C14.4604 2.15084 14.0071 3.28802 14.0057 4.47421L14.0057 15.7678L10 15.7678Z" fill="#1E22B0"/>
</g>
<defs>
<clipPath id="clip0_907_44050">
<rect width="12" height="14" fill="white" transform="translate(21 22) rotate(180)"/>
</clipPath>
</defs>
</svg>
