<svg width="24" height="25" viewBox="0 0 24 25" fill="none" xmlns="http://www.w3.org/2000/svg">
<circle cx="12" cy="12.0508" r="12" fill="#1E22B0"/>
<path d="M16.8366 11.2625L14.6147 13.5479C14.5099 13.6543 14.3685 13.714 14.2212 13.714C14.074 13.714 13.9326 13.6543 13.8278 13.5479C13.776 13.4948 13.7349 13.4318 13.7069 13.3623C13.6788 13.2929 13.6644 13.2184 13.6644 13.1432C13.6644 13.068 13.6788 12.9936 13.7069 12.9241C13.7349 12.8547 13.776 12.7916 13.8278 12.7385L15.1007 11.4291H11.9993C10.9684 11.4304 9.98013 11.8522 9.25119 12.602C8.52224 13.3517 8.11218 14.3683 8.11096 15.4286C8.11096 15.5802 8.05244 15.7255 7.94826 15.8327C7.84409 15.9398 7.7028 16 7.55548 16C7.40816 16 7.26687 15.9398 7.1627 15.8327C7.05852 15.7255 7 15.5802 7 15.4286C7.00123 14.0652 7.52833 12.758 8.46562 11.7939C9.40291 10.8299 10.6738 10.2877 11.9993 10.2864H15.1007L13.8278 8.97706C13.7234 8.86972 13.6648 8.72415 13.6648 8.57235C13.6648 8.49719 13.6792 8.42276 13.7072 8.35332C13.7351 8.28388 13.7761 8.22078 13.8278 8.16764C13.8794 8.11449 13.9408 8.07233 14.0083 8.04357C14.0758 8.0148 14.1482 8 14.2212 8C14.3688 8 14.5103 8.0603 14.6147 8.16764L16.8366 10.4531C16.8884 10.5061 16.9295 10.5692 16.9575 10.6387C16.9856 10.7081 17 10.7826 17 10.8578C17 10.933 16.9856 11.0074 16.9575 11.0769C16.9295 11.1463 16.8884 11.2094 16.8366 11.2625Z" fill="white"/>
</svg>
