<svg width="71" height="84" viewBox="0 0 71 84" fill="none" xmlns="http://www.w3.org/2000/svg">
<path d="M5.4383 30.7619C6.00279 29.9081 6.64651 29.1338 7.38927 28.4388C8.46874 27.4411 9.63734 26.5724 10.9 25.8179C12.6529 24.7854 14.4504 23.877 16.3271 23.1175C18.5554 22.1892 20.8727 21.529 23.2496 21.112C25.6561 20.6851 28.0626 20.4717 30.5088 20.4766C34.0294 20.5064 37.5402 20.6454 41.0361 20.9582C44.5815 21.2758 48.0526 21.9956 51.4346 23.1125C53.8412 23.9266 56.7577 25.0683 58.8473 26.5575C59.9169 27.3368 60.8478 28.2452 61.6451 29.3075C62.6701 30.6974 63.2147 32.266 63.4673 33.9835C63.596 34.8721 63.7198 36.5995 63.7198 36.5995L62.878 37.1158C62.8285 36.5846 62.7641 36.0535 62.6948 35.5224C62.5463 34.5643 62.3036 33.6162 61.9422 32.7177C61.3727 31.303 60.4517 30.1812 59.1544 29.3869C57.6837 28.5133 56.119 27.8431 54.4651 27.3914L54.168 28.5033C55.7179 28.9302 57.1836 29.5656 58.5601 30.3896C59.6347 31.0449 60.4121 31.9731 60.8726 33.1446C61.1053 33.7701 61.442 34.6189 61.4272 35.2394C58.6097 33.1049 55.4505 31.715 55.2871 31.6406L54.0442 31.0647C50.375 29.382 45.8937 28.1956 41.9274 27.5006C40.3626 27.2226 38.7682 27.0688 37.1886 27.034C34.7127 26.9943 32.2468 27.1035 29.7908 27.3964C25.5125 27.8928 21.2243 28.409 16.946 28.9402C14.7029 29.233 12.4846 29.6351 10.291 30.1613C9.37985 30.3847 8.58758 30.8165 7.93395 31.4718C7.2011 32.1965 6.66137 33.0652 6.3197 34.0282C5.95327 34.1176 5.5819 34.2168 5.23032 34.3608L5.20557 31.5611C5.20557 31.2832 5.27489 31.0101 5.43335 30.7669L5.4383 30.7619Z" fill="white"/>
<path d="M63.9625 53.2757C64.9181 54.194 64.8785 54.7996 64.9924 55.6435C65.1509 57.0384 65.0865 57.9766 64.3735 59.5501C63.7743 60.8656 63.9377 60.533 62.6552 62.1661C62.3433 62.5632 61.244 63.3426 60.6201 63.8489C59.9516 64.39 61.0113 66.1522 60.4071 66.5592C59.3079 67.2988 56.9013 66.6932 56.6042 67.9541C56.4359 68.6937 56.8716 69.7907 55.3168 71.0913C53.5887 72.2181 51.9595 71.5678 51.8556 72.7344C51.7565 73.8959 51.7565 74.0151 51.6426 74.6653C51.6179 74.844 51.5386 75.0029 51.4049 75.1319C51.2861 75.266 51.1227 75.3454 50.9494 75.3702C49.9492 75.5489 48.9341 75.6879 47.914 75.7574C47.607 75.7723 47.3495 75.9014 47.1316 76.1297C46.9237 76.368 46.8345 76.6261 46.8345 76.9388C46.8593 77.3409 46.8197 77.7132 46.7355 78.0855C46.7058 78.2294 46.6266 78.3684 46.5226 78.4727C46.4186 78.567 46.2898 78.6266 46.1314 78.6514C45.2153 78.7904 44.329 78.6712 43.4624 78.3883C43.2644 78.3089 43.0514 78.3039 42.8484 78.3337C42.6404 78.3734 42.4622 78.4578 42.2988 78.6067C42.0215 78.8599 41.6947 79.0187 41.3233 79.0882C40.9618 79.1527 40.6053 79.1279 40.2587 78.9989C40.0111 78.8996 39.7784 78.8996 39.5308 78.9492C39.2832 79.0237 39.0802 79.1577 38.9267 79.3711C38.7831 79.5697 38.689 79.798 38.684 80.0462C38.684 80.3739 38.6147 80.6767 38.4612 80.9596C38.3176 81.2376 38.1195 81.4957 37.872 81.6794C37.8026 81.7191 37.7284 81.7538 37.659 81.7687C37.5749 81.7687 37.5105 81.7538 37.4412 81.7241C36.946 81.4759 36.5201 81.1731 36.1389 80.7958C35.921 80.5972 35.6833 80.493 35.3961 80.4682C35.1089 80.4483 34.8663 80.5327 34.6335 80.7064C33.6581 81.4361 32.5687 81.9127 31.3555 82.1162C30.1523 82.3098 28.9638 82.2105 27.815 81.8035C27.0921 81.5602 26.4335 81.1731 25.9086 80.627C25.3541 80.0909 24.948 79.4506 24.6905 78.7258C24.5964 78.4975 24.4479 78.3039 24.2449 78.155C24.027 78.021 23.7992 77.9515 23.5467 77.9713C22.1751 78.0309 20.947 77.6437 19.8379 76.8346C18.7485 76.0056 18.0453 74.9235 17.7136 73.5832C17.6492 73.3151 17.5007 73.0818 17.263 72.918C17.0352 72.7492 16.7579 72.6897 16.4806 72.7244C15.5299 72.7989 14.6732 72.5805 13.9057 72.0245C13.5442 71.7714 13.2769 71.4636 13.0342 71.0963C12.8114 70.7289 12.6678 70.3417 12.6084 69.9099C12.5688 69.6865 12.4747 69.4979 12.341 69.339C12.2023 69.1702 12.0191 69.0461 11.8012 68.9816C11.5933 68.9221 11.3804 68.9221 11.1674 68.9767C10.7218 69.0908 10.2761 69.1653 9.80571 69.1702C9.69678 69.1702 9.59774 69.1206 9.50861 69.0561C9.42938 68.9767 9.38977 68.8724 9.37492 68.7682C9.36501 68.4902 9.25607 68.2519 9.07286 68.0583C8.8847 67.8399 8.66682 67.7307 8.39943 67.686C8.12213 67.6463 7.8696 67.7009 7.63192 67.8399C7.53783 67.8995 7.41899 67.9541 7.3051 67.9888C7.32491 67.4229 7.40414 66.8422 7.52793 66.2961C7.64677 65.7451 7.60716 65.2239 7.38433 64.6977C7.06742 63.9531 5.58191 63.4667 5.11645 63.0696C3.96766 62.0917 3.96271 61.9725 3.6656 61.5704C3.2051 60.95 2.89314 59.9423 2.82382 59.704C2.57128 58.88 2.28408 57.4107 2.43758 56.2838C2.62575 54.9783 2.75944 54.0799 3.63589 53.102C4.2301 52.4715 4.54205 51.717 4.58662 50.8583C4.61138 50.0839 4.74508 49.3443 4.97781 48.5947C5.40365 48.5947 5.78493 48.4507 6.1167 48.1926C6.44846 47.9295 6.67129 47.587 6.79013 47.1849C7.1516 45.8149 7.32491 44.425 7.32491 43.0053C7.80523 42.5983 8.24098 42.1366 8.62226 41.6055C8.57274 42.082 8.52322 42.5685 8.42914 43.0301C8.22117 44.2215 8.16175 45.4376 8.24098 46.6637C9.00849 46.7928 9.776 46.8772 10.5534 46.8921C10.6624 46.907 10.7812 46.9467 10.8505 47.0211C10.9397 47.0956 11.0139 47.1998 11.0139 47.3289C11.0684 47.8104 11.1031 48.3018 11.1031 48.8032C11.618 48.8727 12.133 48.9074 12.643 48.9372C12.7173 48.9372 12.7767 48.9471 12.8362 48.9869C12.8807 49.0166 12.9302 49.0762 12.9649 49.1308C12.9946 49.1854 13.0045 49.2499 13.0045 49.3145C12.955 50.2477 12.9847 51.1958 13.0689 52.1241C13.2967 52.2134 13.5294 52.2382 13.7671 52.2184C14.0147 52.1985 14.2474 52.1241 14.4653 52C14.7624 51.8262 15.0842 51.7071 15.4358 51.6575C15.6784 51.6277 15.926 51.6773 16.1488 51.8113C16.3717 51.9553 16.5301 52.1439 16.6242 52.3772C16.7926 52.819 16.9758 53.2757 17.159 53.7225C16.8272 53.8962 16.5004 54.0799 16.1736 54.2536C15.8517 54.4224 15.5299 54.5465 15.1783 54.6656C14.8812 54.745 14.5841 54.8096 14.2771 54.8493C13.9949 54.889 13.7077 54.8592 13.4452 54.7897C13.163 54.7152 12.9154 54.5763 12.6926 54.3975C11.9696 53.7969 11.2714 53.1715 10.6029 52.5113C10.2613 52.1836 9.87009 52.0198 9.40958 51.99C9.05305 51.9702 8.73615 52.0446 8.43904 52.2233C8.14689 52.402 7.93397 52.6453 7.80027 52.963C7.55764 53.5189 7.47346 54.0948 7.52298 54.6954C7.60716 55.4995 7.91416 56.1995 8.444 56.815C9.39967 57.8971 10.5336 58.7609 11.8359 59.3764C12.549 59.709 13.2818 59.9373 14.0642 60.0366C14.2969 60.806 14.7029 61.4861 15.2377 62.0867C15.4308 62.3001 15.6933 62.4441 16.0052 62.5136C16.6292 62.6178 17.2333 62.5434 17.8176 62.2654C18.5306 61.9229 19.209 61.496 19.8181 61.0046C19.9716 61.3868 20.2043 61.7194 20.5113 61.9973C20.6995 62.1711 20.9272 62.2902 21.1649 62.3548C21.4174 62.4143 21.67 62.4292 21.9176 62.3746C22.9475 62.181 23.8983 61.7839 24.74 61.1783C24.9134 61.1932 25.0768 61.2379 25.2352 61.3421C25.3788 61.4414 25.5076 61.5556 25.6115 61.7045C25.8146 61.9973 26.0671 62.2108 26.389 62.3498C26.7059 62.4789 27.0376 62.5285 27.3942 62.4689C27.7309 62.4143 28.0478 62.2704 28.3003 62.0371C28.5925 61.7789 28.8797 61.5059 29.157 61.2329C29.36 61.7343 29.6175 62.2009 29.9195 62.6278C30.0433 62.8164 30.1869 62.9455 30.3701 63.0497C30.5385 63.1639 30.7316 63.2383 30.9396 63.2681C31.207 63.3078 31.4793 63.3029 31.7517 63.2135C32.024 63.1539 32.2567 63.015 32.4696 62.8263C32.7271 62.6029 32.945 62.3597 33.1084 62.0619C33.4847 62.5186 33.9056 62.9008 34.4256 63.2085C34.7227 63.3922 35.505 63.4915 35.8665 63.4965C36.223 63.4965 36.124 63.4071 36.4211 63.2234C36.9361 62.9306 37.3372 62.5186 37.6046 61.9924C38.3622 62.7519 39.6793 63.2185 40.7142 63.422C43.9526 63.7347 44.9578 62.1214 45.25 61.8236C45.9779 62.2902 46.7603 62.6129 47.6268 62.737C48.0626 62.8015 48.4933 62.7668 48.9192 62.6327C49.3549 62.5086 49.7362 62.2952 50.063 61.9874C50.4839 61.6151 50.8405 61.1733 51.1326 60.6869C51.8506 60.9152 52.5686 60.9102 53.2817 60.667C53.7669 60.5032 54.1284 60.1855 54.3661 59.7288C54.5889 59.2473 54.6384 58.7757 54.48 58.2893C55.708 57.5149 56.7775 56.5718 57.6986 55.4598C57.9164 55.1521 58.0452 54.7798 58.0353 54.3876C58.0155 53.9806 57.862 53.653 57.5896 53.3651C57.4262 53.2012 57.243 53.0771 57.035 52.9828C56.8221 52.8885 56.6042 52.8687 56.3765 52.8687C55.5 52.9034 54.6681 53.0871 53.861 53.3948C53.653 53.4643 53.4847 53.5884 53.3262 53.7373C53.1727 53.8863 53.0539 54.06 52.9647 54.2685C52.9251 54.4075 52.8211 54.5068 52.6775 54.5862C52.5438 54.6706 52.4052 54.6904 52.2566 54.6805C52.0932 54.6606 51.9645 54.5911 51.8556 54.4869C51.7367 54.3678 51.6129 54.2387 51.499 54.1295C52.0239 53.375 53.3708 52.7843 54.1878 52.3723C54.6681 52.1439 55.1286 51.9007 55.5842 51.6426C55.8912 51.4837 56.1388 51.2603 56.3368 50.9625C56.5399 50.7044 56.6637 50.3867 56.7231 50.0541C56.8172 49.5726 56.8617 49.101 56.9013 48.6146C56.9162 48.1579 57.0449 47.7409 57.2381 47.3388C57.5599 46.7382 58.991 45.1448 58.7434 44.5094C59.4218 46.2418 60.4319 47.726 61.7342 48.6344C61.9422 48.7734 62.1105 48.9322 62.2492 49.1358C62.3433 49.2698 62.4423 49.3989 62.5512 49.5329C62.675 49.7215 62.7443 49.9151 62.7146 50.1434C62.6899 50.3817 62.5859 50.5703 62.4225 50.7292C62.2442 50.8682 62.0362 50.9426 61.8085 50.9327C61.6352 50.9327 61.4767 50.9774 61.3579 51.0866C61.2341 51.2008 61.1499 51.3398 61.1251 51.5036C61.1004 51.6872 61.1449 51.8312 61.244 51.9801C61.343 52.1042 61.4767 52.1936 61.6401 52.2283C62.4027 52.3921 63.294 52.6056 63.9823 53.2707L63.9625 53.2757Z" fill="white"/>
<path d="M62.9026 43.0688C63.1898 43.1632 63.4473 43.327 63.6503 43.5801C63.8335 43.8134 63.9573 44.1013 63.9919 44.4091C63.9919 44.4339 63.9919 44.4438 63.9919 44.4538C64.0217 44.4637 64.0266 44.4687 64.0316 44.4687C64.4574 44.5679 64.8436 44.4935 65.2101 44.2949C65.423 44.1758 65.5963 44.017 65.7399 43.8035C65.8686 43.6149 65.9578 43.3915 66.0023 43.1483C66.1162 42.4732 66.0469 41.803 65.8191 41.1428C65.73 40.9095 65.5963 40.711 65.4032 40.5571C65.215 40.4082 64.9971 40.299 64.7595 40.2493C64.2098 40.16 63.6701 40.1997 63.1601 40.3734C63.0808 40.4032 63.0016 40.433 62.9174 40.4578C62.8679 41.3066 62.7837 42.1604 62.6401 43.0043C62.7342 43.0242 62.8085 43.044 62.8976 43.0738" fill="white"/>
<path d="M68.7802 39.9474C68.3692 39.4312 67.8542 39.044 67.2699 38.761C65.8785 38.1505 64.4276 38.0015 62.952 38.2845C62.957 38.5972 62.9619 38.905 62.9619 39.2276C63.6156 39.0291 64.2741 39.0043 64.9476 39.1035C65.3932 39.1929 65.8042 39.3815 66.1409 39.6595C66.4925 39.9573 66.7351 40.3098 66.8985 40.7416C67.2006 41.5905 67.2798 42.4542 67.1313 43.3328C67.0768 43.7498 66.9282 44.127 66.6856 44.4696C66.4479 44.8121 66.1459 45.0851 65.7993 45.2936C65.1605 45.651 64.4871 45.7453 63.7938 45.5964C63.5264 45.5368 63.3234 45.4127 63.1452 45.2142C62.9619 45.0156 62.8629 44.7922 62.8381 44.5142C62.8233 44.4497 62.8035 44.3604 62.749 44.3008C62.6995 44.2412 62.6302 44.1916 62.546 44.1618C62.2885 44.0824 62.0409 44.0973 61.7983 44.2114C61.5507 44.3206 61.3774 44.5142 61.2685 44.7475C61.105 45.095 61.0456 45.4574 61.0506 45.8446C61.0654 46.1474 61.1001 46.4601 61.1496 46.7629C61.5458 47.0856 61.9567 47.3933 62.3727 47.6862C62.6797 47.8947 62.952 48.1627 63.1699 48.4606C63.259 48.5797 63.3482 48.7137 63.4324 48.8329C63.6799 49.1555 63.8235 49.5129 63.8483 49.91C64.2444 50.0242 64.6554 49.9994 65.0367 49.8406C66.131 49.3839 67.052 48.684 67.775 47.7259C68.4534 46.8225 68.9832 45.8595 69.3694 44.7873C69.726 43.7647 69.7903 42.7223 69.5923 41.6699C69.4487 41.0295 69.1763 40.4587 68.7752 39.9474" fill="white"/>
<path d="M53.8608 57.2957C54.9849 56.5958 55.9604 55.737 56.7873 54.7144C56.8566 54.6251 56.8913 54.5307 56.8913 54.4215C56.8764 54.3272 56.8418 54.2279 56.7576 54.1535C56.7229 54.1138 56.6586 54.0691 56.5991 54.0542C56.5397 54.0195 56.4852 54.0095 56.411 54.0095C55.6732 54.0492 54.9651 54.1882 54.2768 54.4563C54.2273 54.4761 54.1678 54.5059 54.1332 54.5506C54.0936 54.5953 54.0589 54.6449 54.0292 54.6896C53.8658 55.0817 53.6133 55.3796 53.2468 55.5881C52.8953 55.7916 52.5189 55.8561 52.103 55.8065C51.692 55.7568 51.3454 55.598 51.0433 55.3051C50.5382 54.8038 50.0183 54.3123 49.4885 53.8408C49.0626 53.4387 48.5526 53.1756 47.9832 53.0316C47.3295 52.8877 46.6957 52.9373 46.0768 53.1607C45.9035 53.2302 45.745 53.2848 45.5965 53.3642C45.2399 53.7564 44.8438 54.0989 44.4031 54.3967C43.8188 54.7641 43.185 55.0023 42.4868 55.1115C41.7985 55.2158 41.1102 55.186 40.4467 54.9974C39.8921 54.8385 39.4514 54.501 39.1493 54.0046C38.8968 53.5677 38.6591 53.1408 38.4115 52.709C38.1045 53.1458 37.9114 53.6323 37.8223 54.1585C37.7827 54.4265 37.6638 54.6797 37.4955 54.8981C37.3271 55.1165 37.1092 55.2803 36.8666 55.3895C35.9208 55.7866 34.9404 55.9157 33.9154 55.7717C33.5539 55.7122 33.2271 55.5831 32.9201 55.3498C32.623 55.1314 32.4002 54.8435 32.2615 54.501C32.0635 54.0294 31.9 53.5231 31.8109 53.0167C31.1028 53.4288 30.4591 53.9301 29.8897 54.5208C29.4638 54.9477 28.9538 55.2207 28.3596 55.325C27.2306 55.5136 26.1264 55.4094 25.0518 55.0271C24.1308 54.6896 23.4277 54.1088 22.9127 53.2848C22.7443 53.2501 22.5859 53.2302 22.4324 53.1855C21.8283 53.0614 21.239 53.0912 20.6349 53.2649C20.11 53.4188 19.605 53.6323 19.1247 53.9152C18.3324 54.3868 17.5253 54.8385 16.7132 55.2654C16.322 55.4739 15.9259 55.6377 15.4951 55.7519C15.1385 55.8561 14.7919 55.9306 14.4354 55.9703C13.9947 56.0348 13.554 55.9951 13.1281 55.8909C12.6924 55.7668 12.3062 55.5533 11.9595 55.2704C11.2168 54.6499 10.4988 53.9946 9.7907 53.3146C9.66691 53.1905 9.51341 53.116 9.3401 53.121C9.24106 53.1061 9.14203 53.121 9.05785 53.1756C8.95882 53.2352 8.9093 53.3245 8.86473 53.4039C8.69637 53.7713 8.64686 54.1634 8.67657 54.5556C8.74589 55.1165 8.95386 55.603 9.32029 56.0299C10.167 56.9978 11.1772 57.7474 12.3359 58.3083C12.9548 58.5863 13.5738 58.7848 14.2423 58.8643C14.4651 58.9089 14.6533 58.9834 14.8266 59.1423C14.9949 59.2812 15.1138 59.4649 15.1732 59.6833C15.3713 60.279 15.6535 60.8101 16.0843 61.2668C16.1289 61.3065 16.1734 61.3363 16.2279 61.3462C16.6092 61.4157 16.9756 61.3661 17.3371 61.2073C17.966 60.8995 18.5552 60.5222 19.1049 60.0705C19.298 59.9067 19.5307 59.8273 19.7783 59.8124C20.0209 59.8124 20.2437 59.867 20.4616 60.001C20.6745 60.145 20.8181 60.3336 20.9122 60.5619C20.9865 60.7804 21.1103 60.9541 21.2737 61.098C21.3381 61.1526 21.4024 61.1824 21.4767 61.2023C21.5559 61.2172 21.6401 61.2321 21.7144 61.2172C22.5809 61.0583 23.3584 60.7208 24.0714 60.2095C24.319 60.0209 24.6012 59.9613 24.8934 59.9911C25.2351 60.0358 25.547 60.14 25.8441 60.3286C26.1363 60.5073 26.369 60.7357 26.5621 61.0236C26.6314 61.1328 26.7305 61.1924 26.8493 61.2668C26.9731 61.3115 27.087 61.3214 27.2058 61.2966C27.3395 61.2767 27.4485 61.237 27.5425 61.1378C27.8149 60.9094 28.0823 60.6463 28.3546 60.3882C28.5378 60.2095 28.7508 60.1003 29.0083 60.0755C29.2707 60.0407 29.5084 60.0854 29.7262 60.2095C29.959 60.3386 30.1174 60.5322 30.2214 60.7704C30.3997 61.1824 30.6176 61.5795 30.8701 61.9518C30.8998 61.9965 30.9444 62.0362 30.9889 62.0561C31.0285 62.0809 31.0731 62.1107 31.1226 62.1107C31.2316 62.1256 31.3356 62.1206 31.4395 62.0908C31.5386 62.0511 31.6426 62.0064 31.7168 61.927C31.8802 61.793 32.0139 61.6292 32.1377 61.4356C32.2813 61.2221 32.4497 61.0782 32.6923 60.969C32.9151 60.8796 33.1677 60.8598 33.4103 60.9193C33.6579 60.9888 33.856 61.108 34.0144 61.3065C34.3016 61.659 34.6433 61.9518 35.0295 62.1901C35.1533 62.2596 35.2821 62.3142 35.4405 62.3142C35.594 62.3142 35.7178 62.2745 35.8565 62.1951C36.1734 62.0064 36.416 61.7583 36.5893 61.4257C36.7081 61.2122 36.8765 61.0434 37.0993 60.9293C37.3271 60.8201 37.5499 60.7903 37.7975 60.8151C38.0402 60.8647 38.258 60.9739 38.4313 61.1626C39.1493 61.8575 40.0208 62.2596 41.026 62.3192C41.6648 62.3639 42.2838 62.2596 42.8681 62.0263C43.4771 61.798 43.9871 61.4406 44.4328 60.9739C44.6259 60.7903 44.8537 60.6662 45.131 60.6364C45.4083 60.6066 45.6509 60.6662 45.8985 60.8101C46.4828 61.2122 47.1117 61.4505 47.8049 61.5498C48.0723 61.5994 48.3397 61.5696 48.5972 61.5001C48.8695 61.4157 49.0924 61.2817 49.3053 61.0931C49.637 60.7853 49.9143 60.4428 50.1421 60.0606C50.2907 59.8273 50.4739 59.6734 50.7215 59.5741C50.9839 59.4798 51.2315 59.4798 51.4791 59.5592C51.9693 59.7032 52.4447 59.6982 52.9349 59.5443C53.1181 59.4699 53.2518 59.3458 53.3508 59.1571C53.435 58.9784 53.4548 58.7898 53.3904 58.6012C53.3112 58.353 53.3211 58.0998 53.4102 57.8467C53.5142 57.5885 53.6628 57.4098 53.8757 57.2659" fill="white"/>
<path d="M15.8912 22.0462C18.2036 21.0931 20.5903 20.4031 23.0464 19.9613C25.5173 19.5344 28.008 19.316 30.5234 19.3309C34.0738 19.3359 37.6143 19.4997 41.1399 19.8025C44.7794 20.1351 48.3298 20.8647 51.791 22.0213C54.3164 22.8702 57.3518 24.0615 59.5157 25.6202C59.9514 25.9379 60.3673 26.2754 60.7734 26.6378C60.7437 26.2208 60.709 25.8188 60.61 25.4167C60.2683 23.8332 59.6939 22.339 58.9016 20.9342C58.1044 19.5294 57.7281 18.5218 55.2572 15.8412C53.8162 14.2726 50.7908 12.5402 49.1864 11.7807C47.2305 10.8674 45.2102 10.1972 43.1107 9.77034C40.5655 9.25409 38.0005 8.97114 35.4108 8.93143C33.4846 8.89668 31.5732 8.98107 29.6767 9.18459C26.2006 9.57674 22.982 10.6688 19.9862 12.4955C17.0895 14.2726 14.6384 16.5213 12.6181 19.2415C12.0883 19.9613 11.5832 20.7059 11.1029 21.4555C11.702 21.0583 12.3309 20.6662 12.9548 20.279C13.9253 19.6982 14.9058 19.1472 15.9159 18.631L16.4309 19.6635C15.4554 20.1648 14.4997 20.7009 13.5342 21.2668C12.2319 22.0611 10.9543 22.9248 9.7065 23.8233C9.34007 24.5132 8.9885 25.2082 8.65674 25.923C9.19152 25.5209 9.74611 25.1685 10.3007 24.8359C12.0982 23.7736 13.9551 22.8305 15.8862 22.0462" fill="white"/>
<path d="M8.7558 32.2934C8.29034 32.7551 7.91401 33.2713 7.63672 33.8571C8.14179 33.8322 8.65677 33.8471 9.15689 33.9315C9.19155 33.8223 9.20641 33.7131 9.25593 33.584C9.44904 32.8246 9.72139 32.1147 10.0878 31.4297C9.57779 31.6233 9.12718 31.9211 8.76076 32.2984" fill="white"/>
<path d="M15.4703 32.5309C15.911 32.65 16.3418 32.6004 16.7676 32.4267C17.1786 32.2281 17.5054 31.9501 17.7183 31.5232C17.8669 31.2601 18.06 31.0616 18.3125 30.8978C18.57 30.7488 18.8473 30.6645 19.1494 30.6595C19.4465 30.6595 19.7238 30.7389 19.9763 30.8829C20.0555 30.9325 20.1595 30.9474 20.2586 30.9325C20.3477 30.9027 20.422 30.8581 20.4814 30.7737C20.7141 30.451 21.0261 30.2326 21.3925 30.1333C21.7837 30.039 22.165 30.0738 22.5116 30.2475C22.8532 30.4014 23.1949 30.4709 23.5613 30.456C23.9377 30.4212 24.2744 30.2971 24.5764 30.0986C24.8488 29.895 25.1657 29.7809 25.5173 29.7461C25.8391 29.7114 26.1758 29.761 26.4729 29.9C26.6958 29.9844 26.9037 30.0191 27.1266 29.9943C27.3543 29.9645 27.5673 29.8802 27.7455 29.7263C27.6713 29.4235 27.5623 29.1256 27.4138 28.8477C23.9674 29.2448 20.5309 29.6717 17.0895 30.0837C16.5943 30.1681 16.0991 30.2227 15.599 30.3071C15.4802 30.4312 15.3663 30.5602 15.287 30.7141C15.0692 31.0566 14.9553 31.419 14.9404 31.826C14.9404 31.9898 14.985 32.1338 15.0791 32.2777C15.1781 32.4068 15.3019 32.4862 15.4703 32.5408" fill="white"/>
<path d="M6.49343 38.5165C6.2805 38.6108 6.10719 38.7398 5.9636 38.9185C5.82 39.0972 5.72591 39.2859 5.6764 39.5192C5.48328 40.4127 5.49318 41.2913 5.70115 42.1848C5.73582 42.2891 5.79524 42.3883 5.87942 42.4727C5.90913 42.5025 5.94379 42.5124 5.97845 42.5124C6.02301 42.5124 6.05768 42.5025 6.07253 42.4827C6.845 41.9565 7.47882 41.2863 7.96903 40.4921C8.14729 40.234 8.38002 40.0454 8.68208 39.961V39.1221C8.47906 39.0476 8.3008 38.9434 8.14729 38.8093C7.92447 38.5959 7.66203 38.4718 7.36988 38.4172C7.06287 38.3775 6.78063 38.4073 6.49343 38.5165Z" fill="white"/>
<path d="M4.92825 47.4429C5.10156 47.4429 5.25011 47.3883 5.3838 47.2691C5.5175 47.1748 5.60663 47.0309 5.6611 46.872C5.93839 45.8246 6.09685 44.7425 6.14636 43.6504C5.97305 43.6703 5.78984 43.6653 5.62148 43.6107C5.45313 43.5561 5.29467 43.4965 5.16593 43.3724C4.85892 43.1292 4.66581 42.8165 4.58658 42.4491C4.33899 41.3918 4.32909 40.3295 4.56182 39.2772C4.63114 38.8652 4.81931 38.5078 5.07184 38.195C5.33428 37.8773 5.6611 37.6291 6.03247 37.4653C6.48308 37.2817 6.93368 37.2171 7.39914 37.2668C7.87946 37.3214 8.30035 37.4802 8.68163 37.7582C8.69154 37.4504 8.70639 37.1427 8.72125 36.825C8.76581 36.2343 8.83019 35.6485 8.92427 35.0578C8.29045 34.9734 7.66654 34.9784 7.03272 35.0727C5.71061 35.2663 4.55687 35.8123 3.56158 36.6959C2.82377 37.3611 2.29394 38.1702 1.97208 39.1034C1.46206 40.5728 1.4472 42.0868 1.88295 43.5809C2.34841 45.09 3.2001 46.326 4.44298 47.2741C4.60143 47.3783 4.74503 47.4379 4.92329 47.4379" fill="white"/>
<path d="M50.6428 53.3392C50.514 53.2151 50.3902 53.1059 50.2615 52.9868C49.6871 52.4557 49.0087 52.1082 48.2412 51.9245C47.6866 51.7806 47.1221 51.7756 46.5527 51.85C46.726 51.3884 46.8002 50.9367 46.7903 50.4453C46.7606 49.9489 46.6368 49.4922 46.414 49.0504C46.2655 48.7724 46.0922 48.4895 45.9139 48.2115C46.825 48.3604 47.7114 48.2562 48.563 47.8839C49.6821 47.3974 50.5982 46.6627 51.3509 45.6997L50.4298 45.0048C49.8109 45.8089 49.0384 46.4145 48.1075 46.8414C47.2261 47.2038 46.3447 47.2286 45.4484 46.901C44.572 46.5783 43.7748 46.1068 43.0617 45.4962C41.9723 44.5233 41.2345 43.3418 40.878 41.9271C40.5463 40.711 40.4621 39.4749 40.5908 38.2141C40.6205 37.8468 40.7245 37.5092 40.9077 37.1816C41.1107 36.8639 41.3484 36.5909 41.6455 36.3874C42.2496 35.9505 42.9429 35.7023 43.6856 35.6229C45.4534 35.4641 47.1419 35.752 48.7364 36.5264L49.2464 35.5087C47.439 34.6301 45.5574 34.2827 43.5569 34.4663C42.6161 34.5855 41.7545 34.8932 40.9969 35.4442C40.5413 35.747 40.1848 36.1292 39.9174 36.6008C39.65 37.0724 39.4767 37.5787 39.4371 38.1049C39.2984 39.5047 39.4074 40.8648 39.749 42.215C40.1897 43.8631 41.0266 45.243 42.3091 46.3649C42.7547 46.757 43.24 47.1045 43.75 47.3974C44.4234 48.0328 44.9731 48.7674 45.4039 49.5815C45.5524 49.8992 45.6316 50.2268 45.6366 50.5743C45.6366 50.9268 45.5673 51.2643 45.4237 51.577C45.0226 52.3464 44.4829 52.9669 43.7649 53.4286C43.3093 53.7215 42.829 53.9101 42.314 53.9945C41.7842 54.0739 41.2593 54.0342 40.7443 53.9002C40.4819 53.8307 40.2838 53.6619 40.1353 53.4335C39.8926 53.0215 39.6549 52.5996 39.4272 52.1777C39.2935 51.9543 39.1053 51.7756 38.8528 51.6664C38.6151 51.5671 38.3626 51.5472 38.1001 51.6167C37.8426 51.6912 37.6347 51.8352 37.4811 52.0536C37.0553 52.6443 36.7929 53.2797 36.674 54.0044C36.6641 54.064 36.6394 54.1484 36.5898 54.2079C36.5304 54.2625 36.4809 54.3072 36.3918 54.3469C35.6589 54.6497 34.8815 54.754 34.0744 54.6497C33.911 54.6299 33.7575 54.5653 33.6188 54.4611C33.4752 54.3469 33.3712 54.2129 33.3168 54.0689C33.1336 53.6569 33.0246 53.2598 32.9454 52.8279C32.8909 52.5847 32.782 52.3713 32.5889 52.1876C32.4106 52.0288 32.1927 51.9245 31.9253 51.8947C31.6877 51.855 31.4599 51.9195 31.2321 52.0337C30.4398 52.4954 29.702 53.0662 29.0633 53.7264C28.8058 53.9697 28.5037 54.1335 28.1571 54.193C27.2212 54.3568 26.325 54.2675 25.4287 53.9597C24.8246 53.7264 24.3294 53.3591 23.963 52.818C23.6065 52.2869 23.4282 51.6962 23.4282 51.0509C23.4629 50.2814 23.7253 49.6212 24.2651 49.0603C24.6909 48.6235 25.1465 48.2214 25.6119 47.8491C26.5032 47.1542 27.1767 46.2755 27.657 45.2381C28.5384 43.2922 29.2663 41.2868 29.8506 39.2317C29.9744 38.7899 29.9942 38.3382 29.9149 37.8666C29.8258 37.405 29.6377 37.0029 29.3505 36.6207C28.4294 35.4641 27.246 34.7691 25.7753 34.5557C23.0321 34.1933 20.3235 34.4911 17.709 35.4045L18.1002 36.4767C20.5463 35.618 23.0618 35.3598 25.6268 35.6974C26.7805 35.8711 27.7114 36.4171 28.4344 37.3404C28.6127 37.5489 28.7315 37.812 28.781 38.0751C28.8256 38.363 28.8157 38.641 28.7414 38.914C28.167 40.8996 27.454 42.8653 26.6023 44.7566C26.2012 45.6054 25.6515 46.3351 24.8939 46.9308C24.374 47.3279 23.8986 47.7647 23.4381 48.2264C22.6954 49.0156 22.3091 49.9538 22.2794 51.0161C22.2695 51.3487 22.3091 51.6912 22.3785 52.0188C21.6803 51.9146 20.992 51.9493 20.3136 52.1578C19.6946 52.3415 19.0856 52.5946 18.5112 52.9322C18.3973 52.9868 18.2735 53.0712 18.1596 53.1407C17.9962 52.7436 17.8477 52.3514 17.6942 51.9493C17.506 51.4629 17.1841 51.0806 16.7335 50.8126C16.2829 50.5396 15.7927 50.4601 15.2728 50.5048C14.8717 50.5594 14.4954 50.6835 14.1339 50.8573C14.124 50.3509 14.119 49.8545 14.1487 49.3582C14.1537 49.0802 14.1042 48.822 13.9655 48.5738C13.8318 48.3356 13.6684 48.1271 13.4258 47.9881C13.198 47.8392 12.9455 47.7647 12.6781 47.7548C12.5196 47.7548 12.3513 47.7399 12.1978 47.73C12.1829 47.5265 12.173 47.3478 12.1433 47.1691C12.0938 46.762 11.9155 46.4195 11.6184 46.1465C11.3213 45.8784 10.9747 45.7394 10.5637 45.7146C10.1577 45.7047 9.75163 45.6848 9.35054 45.6451C9.34064 44.8161 9.40996 44.007 9.55356 43.1979C9.77143 41.9867 9.86551 40.7308 9.83085 39.4849C9.81105 38.6261 9.83085 37.7524 9.88037 36.8788C9.93484 35.8662 10.0933 34.8535 10.3557 33.8607C10.5736 32.992 10.9252 32.163 11.4104 31.4085C11.4897 31.2795 11.5739 31.1355 11.6729 31.0213C12.4652 30.8327 13.2525 30.6739 14.0596 30.5349C13.8912 30.927 13.8021 31.339 13.7873 31.761C13.7873 32.1978 13.9012 32.5899 14.1537 32.9474C14.4112 33.2799 14.7528 33.5232 15.1688 33.6324C15.8818 33.8061 16.5602 33.7664 17.2336 33.4735C17.8873 33.1707 18.4072 32.6843 18.7489 32.0588C18.7934 31.9595 18.8479 31.9198 18.9172 31.8652C18.9816 31.8255 19.0658 31.8007 19.1549 31.8007C19.2292 31.8007 19.3084 31.8255 19.3876 31.8602C19.7392 32.0489 20.0957 32.1233 20.4869 32.0389C20.883 31.9397 21.1901 31.7262 21.4277 31.3986C21.4921 31.3241 21.5862 31.2646 21.6852 31.2199C21.7892 31.21 21.9031 31.205 21.9972 31.2646C22.5221 31.5227 23.0766 31.6269 23.656 31.5872C24.2254 31.5277 24.7652 31.339 25.2356 31.0114C25.3594 30.9221 25.4832 30.8972 25.6169 30.8824C25.7605 30.8675 25.8991 30.8923 26.0081 30.937C26.4488 31.1206 26.8895 31.1752 27.3351 31.1057C27.7808 31.0263 28.1769 30.8575 28.5334 30.5597C28.677 30.4207 28.781 30.2817 28.8503 30.0931C28.9048 29.9193 28.9098 29.7357 28.885 29.547C28.8206 29.2542 28.7364 28.9464 28.6325 28.6933C29.0583 28.6238 29.4941 28.584 29.9298 28.5344C32.3413 28.2515 34.7577 28.1174 37.1741 28.182C38.0654 28.2018 38.9568 28.2664 39.853 28.3557C39.6153 28.45 39.4173 28.6089 39.239 28.8025C39.0904 29.001 38.9667 29.2095 38.9072 29.4627C38.8231 29.7754 38.828 30.0832 38.9171 30.3959C39.0063 30.7036 39.1796 30.9717 39.4222 31.1852C39.6599 31.3986 39.9322 31.5525 40.2541 31.617C40.7542 31.7014 41.2543 31.7361 41.7644 31.6915C41.8585 31.6915 41.9377 31.7213 42.0169 31.756C42.106 31.7858 42.1704 31.8553 42.2249 31.9049C42.5863 32.3566 43.0469 32.6197 43.6163 32.7041C44.1709 32.7786 44.6859 32.6297 45.1414 32.2822C45.2108 32.2425 45.285 32.2077 45.3692 32.1928C45.4534 32.1829 45.5227 32.2028 45.6069 32.2425C45.6911 32.2723 45.7307 32.312 45.7951 32.3864C45.8644 32.4956 45.9585 32.585 46.0773 32.6346C46.1813 32.6892 46.3051 32.7091 46.4388 32.7091C47.2112 32.6644 47.9688 32.6048 48.7364 32.5353C48.8354 32.5353 48.9146 32.5552 48.9889 32.5899C49.0731 32.6446 49.1275 32.7041 49.1771 32.7935C49.2959 33.0367 49.4692 33.2154 49.6821 33.3494C49.9198 33.4735 50.1773 33.5281 50.4298 33.5033C50.8507 33.4636 51.237 33.3594 51.6133 33.2005C51.8807 33.0863 52.0986 32.9325 52.2867 32.7289C52.46 32.5254 52.6482 32.0687 52.7373 31.8106C52.7968 31.8454 52.876 31.8801 52.9602 31.9198C53.3959 32.1084 56.258 33.5778 56.6987 33.816C56.773 33.9104 57.2731 34.0493 57.3325 34.1486L57.7435 34.645C57.7831 34.7096 59.432 40.8003 58.9765 43.0887C58.8923 43.5007 57.6593 44.7367 57.6593 44.7367C56.8869 46.1862 56.4561 46.3847 56.2332 46.7918C55.9361 47.3378 55.7826 47.9136 55.7381 48.5391C55.7183 48.9561 55.6638 49.3979 55.5895 49.8297C55.5648 49.9985 55.4905 50.1474 55.3964 50.2864C55.2924 50.4403 55.1785 50.5445 55.03 50.614C54.5942 50.8672 53.4801 51.1154 53.0196 51.3189C52.0738 51.7954 51.2766 52.4606 50.6477 53.3243L50.6428 53.3392Z" fill="#F3CFB2"/>
<path d="M70.7117 41.4258C70.5334 40.6166 70.1967 39.877 69.6718 39.2218C69.1519 38.5516 68.5082 38.0552 67.7456 37.7127C66.8494 37.3057 65.9086 37.0724 64.9479 37.0029C64.8489 35.9505 64.735 34.9131 64.6261 33.8508C64.3884 31.9297 63.715 30.1775 62.5563 28.6287C62.3582 28.3309 62.1205 28.038 61.8828 27.76C61.9769 26.8864 61.9224 26.0226 61.7491 25.1738C61.3777 23.4662 60.7637 21.8728 59.912 20.3637C58.8326 18.4725 57.971 17.0776 56.0002 15.0275C54.2919 13.2554 51.9051 11.791 49.6917 10.7287C47.6566 9.78558 45.5422 9.07574 43.3486 8.63891C43.0515 8.56942 42.7495 8.51978 42.4474 8.46021C42.7495 8.18223 43.0466 7.87943 43.304 7.55181C43.3932 7.46246 43.4179 7.36318 43.4526 7.22915C43.4724 7.11995 43.4526 7.00578 43.408 6.89657C43.3635 6.78736 43.2941 6.69801 43.2001 6.61859C42.8188 6.33564 42.3929 6.16191 41.9324 6.08745C42.1552 6.13212 42.388 6.08745 42.5959 5.98817C42.799 5.87896 42.9574 5.71515 43.0763 5.51163C43.106 5.45206 43.1109 5.38257 43.1109 5.323C43.1109 5.24854 43.0812 5.17905 43.0466 5.12941C42.997 5.06487 42.9525 5.03013 42.8931 5.00034C42.695 4.93085 42.5019 4.84646 42.3137 4.76207C42.5613 4.66776 42.8138 4.58834 43.0713 4.49898C43.1505 4.48906 43.21 4.43445 43.2545 4.35999C43.3139 4.29546 43.3288 4.21604 43.3139 4.13165C43.3139 4.05223 43.2743 3.98273 43.21 3.9331C43.0565 3.78418 42.8831 3.65015 42.695 3.52109C42.586 3.47641 42.4672 3.45159 42.3385 3.45656C42.2048 3.48138 42.0958 3.54094 42.0215 3.64519C41.972 3.69483 41.9176 3.72461 41.873 3.74943C41.8136 3.77425 41.7641 3.79411 41.6898 3.79411C41.2887 3.77921 40.9025 3.64022 40.5856 3.40195C40.8876 3.35728 41.1748 3.24311 41.4472 3.07433C41.5363 3.00484 41.6056 2.92541 41.665 2.82614C41.6997 2.72189 41.7244 2.61269 41.7195 2.50844C41.7046 2.39924 41.6749 2.29499 41.6205 2.19572C41.5363 2.08651 41.4372 1.99219 41.2936 1.93263C41.1451 1.87306 41.0065 1.85817 40.8678 1.88299C40.6598 1.92766 40.5014 2.01701 40.3627 2.156C40.229 2.29003 40.1399 2.45384 40.1151 2.6524C40.0755 2.83606 39.9963 2.98995 39.8577 3.11901C39.9864 2.71693 39.9715 2.29003 39.8081 1.89788C39.6695 1.53551 39.62 1.15329 39.6596 0.756172C39.6645 0.701569 39.6596 0.666821 39.6348 0.617182C39.615 0.582434 39.5903 0.547686 39.5407 0.527831C39.5011 0.503011 39.4467 0.498047 39.4071 0.498047C39.0307 0.547686 38.6643 0.567542 38.2929 0.542722C38.2434 0.542722 38.1939 0.557614 38.1592 0.592362C38.1147 0.622145 38.08 0.646965 38.0602 0.696605C38.0404 0.736316 38.0404 0.79092 38.0503 0.840559C38.1196 1.18307 38.1642 1.51069 38.1988 1.8532C38.2285 2.16593 38.1642 2.44391 37.9859 2.71693C37.4957 2.54319 36.9857 2.36449 36.4806 2.19075C36.1785 2.09147 35.8666 2.05176 35.5447 2.08651C35.4655 2.09644 35.3863 2.09644 35.3169 2.07162C35.2377 2.03687 35.1684 1.99716 35.1139 1.94255C35.0595 1.89788 35 1.87306 34.9208 1.86313C34.8515 1.85817 34.7871 1.86313 34.7128 1.90284C34.6485 1.94255 34.6039 1.99716 34.5742 2.06665C34.4801 2.26025 34.3415 2.4042 34.1384 2.49852C34.0493 2.55312 33.9552 2.62758 33.9107 2.72189C33.8512 2.81124 33.8265 2.92045 33.8364 3.03462C33.8562 3.13886 33.9057 3.23814 33.975 3.31757C33.5442 3.20836 33.1382 3.23318 32.7074 3.40195C32.5143 3.4913 32.3113 3.60051 32.1132 3.69483C32.0538 3.72957 32.0142 3.77921 31.9944 3.82885C31.9746 3.89835 31.9746 3.95295 31.9944 4.00755C32.0142 4.06216 32.0538 4.10683 32.1132 4.14158L32.3954 4.27064L31.7468 4.4692C31.7913 4.81171 31.8458 5.13437 31.8656 5.47192C31.8755 5.53149 31.8508 5.59105 31.826 5.64069C31.8012 5.70026 31.7468 5.73501 31.7022 5.76479C31.6428 5.78465 31.5784 5.79954 31.5239 5.78961C31.4546 5.76975 31.4101 5.73997 31.3704 5.69529C31.2764 5.59602 31.1526 5.52156 31.0189 5.48185C30.801 5.43717 30.593 5.44213 30.4049 5.48681C30.4395 5.86903 30.4791 6.25126 30.5138 6.63844C30.8604 6.63844 31.207 6.59377 31.5586 6.51931C31.5982 6.50938 31.6527 6.51931 31.6874 6.53917C31.7418 6.57391 31.7616 6.62852 31.7864 6.66326C31.8012 6.7129 31.7963 6.76254 31.7616 6.81218C31.5685 7.19937 31.3457 7.5667 31.0684 7.90921C30.5633 7.95389 30.0533 7.9936 29.5482 8.04324C25.8988 8.46021 22.5218 9.60688 19.3824 11.518C16.3618 13.3696 13.8018 15.7225 11.6874 18.5668C9.65229 21.3168 8.00337 24.3002 6.74069 27.487C6.68127 27.5317 6.6367 27.5714 6.60699 27.6161C5.78501 28.3656 5.06206 29.2145 4.47776 30.1477C4.19056 30.5845 4.05686 31.066 4.04696 31.5773L4.07667 34.9131C3.62607 35.1712 3.19527 35.4839 2.78923 35.8463C1.91773 36.6504 1.28391 37.6134 0.872921 38.7452C0.308427 40.4677 0.273766 42.1952 0.788743 43.9226C1.32848 45.6749 2.32377 47.0995 3.76471 48.2214C3.80433 48.2363 3.82909 48.271 3.85385 48.2909C3.61616 49.105 3.46761 49.9488 3.4379 50.8275C3.39829 51.4033 3.18537 51.9146 2.79418 52.3365C1.74442 53.4732 1.50179 54.5951 1.28886 56.1488C1.12051 57.3948 1.47208 59.1073 1.73947 59.9909C2.00686 60.8695 2.18512 61.4801 2.71 62.2396C3.22993 62.9941 4.49262 64.0415 5.29974 64.4733C5.58694 64.6272 6.2059 64.8605 6.32474 65.1633C6.44854 65.4413 6.47329 65.7392 6.39902 66.0568C6.23561 66.8312 6.14648 67.6255 6.13163 68.4395C6.13163 68.5587 6.17124 68.6977 6.25542 68.8118C6.31979 68.9508 6.40397 69.0451 6.53271 69.1146C6.66146 69.1841 6.79515 69.2139 6.93875 69.2089C7.39431 69.1891 7.83501 69.0849 8.22124 68.8267C8.25591 69.2586 8.41436 69.621 8.71641 69.9138C9.02837 70.1968 9.39975 70.3358 9.8256 70.3358C10.3802 70.3358 10.9298 70.2464 11.4696 70.1025C11.5587 70.6684 11.7617 71.2144 12.0588 71.7108C12.3609 72.2072 12.7471 72.6291 13.2175 72.9716C14.2425 73.6815 15.3616 73.9942 16.5995 73.88C16.9907 75.4834 17.8474 76.7839 19.1546 77.7817C20.4817 78.7645 21.9573 79.2113 23.6111 79.1468C23.9379 80.0303 24.4331 80.8146 25.1016 81.4649C25.78 82.1301 26.5574 82.6265 27.4537 82.9243C28.8005 83.381 30.1573 83.5001 31.5636 83.2768C32.95 83.0534 34.2177 82.4974 35.3566 81.6387C35.822 82.1003 36.3519 82.4825 36.9362 82.7754C37.1986 82.9045 37.4808 82.969 37.7829 82.9392C38.075 82.8995 38.3474 82.7953 38.595 82.6265C38.9763 82.3038 39.2783 81.9365 39.4962 81.5046C39.7289 81.0579 39.8478 80.5813 39.8626 80.0849C40.4023 80.2885 40.9718 80.358 41.5462 80.2537C42.1305 80.1247 42.6405 79.8814 43.0862 79.4893C44.126 79.8665 45.2055 79.9807 46.3097 79.8119C46.696 79.7573 47.0327 79.6034 47.3149 79.3453C47.6021 79.0624 47.7903 78.7496 47.8794 78.3724C47.9784 77.8909 48.028 77.4143 48.0082 76.9229C49.0678 76.8633 50.1176 76.7244 51.1624 76.5407C51.5882 76.4513 51.9448 76.2627 52.2468 75.9698C52.5439 75.6521 52.7271 75.2997 52.7915 74.8728C52.8707 74.3963 52.94 73.9098 52.9747 73.4382C54.3216 73.3141 55.9061 72.7234 56.9212 71.5916C57.867 70.5393 57.4808 69.0352 58.1393 68.37C58.7335 67.7744 60.8133 68.2162 61.5114 67.5014C62.1205 66.8809 61.1797 64.9697 61.8977 64.4187C63.9378 62.8402 64.6261 61.5645 65.0073 60.8199C65.8392 59.1967 66.374 57.2508 66.1363 55.5829C65.8343 53.508 65.2945 52.7932 64.5518 52.2571C64.1457 51.9642 63.6407 51.7855 63.2049 51.582C63.3634 51.4331 63.507 51.2444 63.6159 51.0558C64.2497 51.2196 64.8736 51.165 65.4877 50.9218C66.7801 50.3906 67.8496 49.5517 68.6964 48.4547C69.454 47.4569 70.0482 46.3698 70.4592 45.1984C70.8949 43.9623 70.9791 42.7213 70.7167 41.4406L70.7117 41.4258ZM9.71171 23.8236C10.9595 22.9251 12.242 22.0614 13.5394 21.2672C14.5 20.7013 15.4557 20.1652 16.4361 19.6638L15.9211 18.6313C14.911 19.1476 13.9256 19.6986 12.96 20.2794C12.3361 20.6665 11.7072 21.0537 11.1081 21.4558C11.5884 20.7063 12.0984 19.9617 12.6233 19.2419C14.6436 16.5217 17.0996 14.273 19.9914 12.4959C22.9872 10.6692 26.2058 9.58206 29.6819 9.18495C31.5834 8.98143 33.4947 8.89704 35.416 8.93179C38.0057 8.9715 40.5707 9.25444 43.1159 9.77069C45.2203 10.1976 47.2357 10.8727 49.1916 11.7811C50.796 12.5455 53.8165 14.273 55.2624 15.8416C57.7333 18.5221 58.1047 19.5348 58.9069 20.9346C59.6991 22.3394 60.2735 23.8335 60.6152 25.417C60.7093 25.8142 60.7439 26.2212 60.7786 26.6332C60.3726 26.2708 59.9566 25.9333 59.5209 25.6206C57.352 24.0619 54.3216 22.8705 51.7962 22.0217C48.335 20.8651 44.7796 20.1354 41.1451 19.8028C37.6145 19.5 34.079 19.3362 30.5287 19.3312C28.0132 19.3164 25.5225 19.5348 23.0516 19.9617C20.5955 20.4035 18.2039 21.0934 15.8964 22.0465C13.9702 22.8308 12.1133 23.769 10.3109 24.8363C9.75627 25.1639 9.20168 25.5213 8.6669 25.9234C8.99866 25.2086 9.34528 24.5136 9.71666 23.8236H9.71171ZM5.43839 30.7632C6.00288 29.9094 6.6466 29.135 7.38936 28.4401C8.46883 27.4423 9.63743 26.5736 10.9001 25.8191C12.653 24.7866 14.4505 23.8782 16.3272 23.1187C18.5554 22.1905 20.8728 21.5303 23.2497 21.1133C25.6562 20.6864 28.0627 20.473 30.5088 20.4779C34.0295 20.5077 37.5403 20.6467 41.0362 20.9594C44.5816 21.2771 48.0527 21.9969 51.4347 23.1138C53.8413 23.9279 56.7578 25.0696 58.8474 26.5587C59.917 27.3381 60.8479 28.2465 61.6451 29.3088C62.6701 30.6987 63.2148 32.2673 63.4674 33.9848C63.5961 34.8734 63.7199 36.6008 63.7199 36.6008L62.8781 37.1171C62.8286 36.5859 62.7642 36.0548 62.6949 35.5236C62.5463 34.5656 62.3037 33.6175 61.9422 32.719C61.3728 31.3043 60.4518 30.1824 59.1544 29.3882C57.6838 28.5145 56.119 27.8444 54.4652 27.3927L54.1681 28.5046C55.718 28.9315 57.1837 29.5669 58.5602 30.3909C59.6347 31.0462 60.4122 31.9744 60.8727 33.1459C61.1054 33.7714 61.4421 34.6202 61.4273 35.2407C58.6097 33.1062 55.4506 31.7163 55.2872 31.6418L54.0443 31.066C50.3751 29.3832 45.8938 28.1968 41.9275 27.5019C40.3627 27.2239 38.7683 27.07 37.1887 27.0353C34.7128 26.9956 32.2469 27.1048 29.7908 27.3977C25.5126 27.8941 21.2244 28.4103 16.9461 28.9414C14.703 29.2343 12.4847 29.6364 10.2911 30.1626C9.37994 30.3859 8.58767 30.8178 7.93405 31.4731C7.2012 32.1978 6.66146 33.0665 6.31979 34.0295C5.95337 34.1188 5.58199 34.2181 5.23042 34.3621L5.20566 31.5624C5.20566 31.2844 5.27498 31.0114 5.43344 30.7682L5.43839 30.7632ZM62.9227 40.4528C63.0069 40.428 63.0861 40.3982 63.1653 40.3684C63.6753 40.1947 64.2151 40.155 64.7647 40.2443C65.0024 40.2989 65.2203 40.4032 65.4084 40.5521C65.5966 40.706 65.7352 40.9045 65.8244 41.1378C66.0521 41.7931 66.1215 42.4632 66.0076 43.1433C65.963 43.3915 65.8739 43.6099 65.7451 43.7985C65.5966 44.012 65.4282 44.1708 65.2153 44.29C64.8538 44.4935 64.4676 44.5679 64.0368 44.4637C64.0319 44.4637 64.0269 44.4587 63.9972 44.4488C63.9972 44.4389 63.9972 44.4289 63.9972 44.4041C63.9576 44.1013 63.8387 43.8134 63.6555 43.5751C63.4525 43.3269 63.195 43.1582 62.9078 43.0639C62.8187 43.0341 62.7444 43.0142 62.6503 42.9944C62.789 42.1455 62.8781 41.2917 62.9276 40.4479L62.9227 40.4528ZM61.6303 42.5972C61.3827 43.2128 60.8925 44.0169 60.1002 44.8608C60.2983 41.4208 60.0309 38.0354 59.0604 35.1662C58.9366 34.8088 59.5951 35.0818 59.8823 35.33C60.5409 35.742 61.1401 36.0151 61.5956 36.5512C61.7838 37.4496 61.8432 38.5715 61.9224 39.6834C62.0017 40.7953 61.9769 41.7236 61.6303 42.5972ZM53.3758 58.6308C53.4402 58.8244 53.4204 59.013 53.3362 59.1867C53.2372 59.3754 53.1035 59.4995 52.9202 59.5739C52.43 59.7278 51.9547 59.7328 51.4644 59.5888C51.2218 59.5094 50.9693 59.5144 50.7068 59.6037C50.4592 59.698 50.276 59.8569 50.1275 60.0902C49.8948 60.4774 49.6224 60.8149 49.2906 61.1227C49.0827 61.3163 48.8549 61.4453 48.5875 61.5297C48.33 61.5992 48.0626 61.624 47.7952 61.5744C47.102 61.4751 46.4731 61.2369 45.8888 60.8348C45.6462 60.6908 45.4036 60.6263 45.1213 60.661C44.8391 60.6908 44.6162 60.8149 44.4231 60.9936C43.9775 61.4602 43.4674 61.8176 42.8584 62.046C42.2741 62.2842 41.6551 62.3835 41.0164 62.3388C40.0161 62.2743 39.1397 61.8772 38.4217 61.1823C38.2533 60.9936 38.0354 60.8844 37.7878 60.8348C37.5452 60.805 37.3224 60.8348 37.0897 60.9489C36.8668 61.0582 36.6935 61.2269 36.5796 61.4453C36.4113 61.7779 36.1637 62.0261 35.8468 62.2147C35.7081 62.2892 35.5843 62.3289 35.4308 62.3339C35.2724 62.3339 35.1436 62.2842 35.0198 62.2098C34.6386 61.9715 34.2919 61.6786 34.0047 61.3262C33.8463 61.1276 33.6482 61.0035 33.4006 60.939C33.158 60.8745 32.9055 60.8943 32.6826 60.9887C32.445 61.0929 32.2717 61.2369 32.133 61.4503C32.0092 61.6439 31.8805 61.8077 31.7121 61.9417C31.6378 62.0212 31.5338 62.0658 31.4348 62.1055C31.3308 62.1353 31.2268 62.1353 31.1179 62.1204C31.0684 62.1204 31.0238 62.0907 30.9842 62.0658C30.9446 62.0509 30.9 62.0063 30.8654 61.9616C30.6128 61.5843 30.3999 61.1922 30.2216 60.7802C30.1177 60.5419 29.9642 60.3483 29.7265 60.2192C29.5086 60.0951 29.2709 60.0505 29.0085 60.0852C28.751 60.11 28.5381 60.2192 28.3549 60.3979C28.0776 60.661 27.8151 60.9192 27.5428 61.1525C27.4487 61.2517 27.3348 61.2915 27.2061 61.3113C27.0872 61.3361 26.9733 61.3262 26.8495 61.2815C26.7307 61.2071 26.6317 61.1475 26.5623 61.0383C26.3643 60.7504 26.1365 60.522 25.8443 60.3433C25.5472 60.1547 25.2303 60.0554 24.8936 60.0058C24.6015 59.976 24.3192 60.0405 24.0716 60.2242C23.3536 60.7305 22.5812 61.0681 21.7146 61.2319C21.6404 61.2468 21.5562 61.2319 21.4769 61.217C21.4076 61.1971 21.3433 61.1674 21.2789 61.1128C21.1105 60.9688 20.9867 60.7901 20.9125 60.5766C20.8184 60.3533 20.6748 60.1597 20.4618 60.0157C20.244 59.8817 20.0211 59.8221 19.7785 59.8271C19.5309 59.842 19.2982 59.9214 19.1051 60.0852C18.5554 60.5369 17.9711 60.9142 17.3423 61.222C16.9808 61.3808 16.6144 61.4255 16.2331 61.361C16.1786 61.351 16.1341 61.3212 16.0895 61.2815C15.6587 60.8199 15.3814 60.2937 15.1784 59.6931C15.119 59.4796 14.9952 59.291 14.8318 59.152C14.6585 58.9931 14.4653 58.9187 14.2475 58.874C13.579 58.7896 12.96 58.596 12.346 58.3181C11.1873 57.7571 10.1722 57.0076 9.32547 56.0396C8.9541 55.6127 8.75108 55.1262 8.68175 54.5653C8.65204 54.1732 8.70156 53.781 8.86992 53.4137C8.91448 53.3293 8.964 53.2449 9.06303 53.1853C9.14721 53.1307 9.24625 53.1158 9.34528 53.1307C9.52354 53.1307 9.67209 53.2052 9.80084 53.3243C10.504 53.9994 11.2269 54.6596 11.9697 55.2801C12.3213 55.5631 12.7025 55.7765 13.1383 55.9006C13.5641 56.0098 14.0048 56.0446 14.4455 55.98C14.8021 55.9453 15.1437 55.8659 15.5052 55.7666C15.931 55.6475 16.3321 55.4886 16.7233 55.2801C17.5354 54.8532 18.3425 54.4015 19.1348 53.9299C19.6151 53.642 20.1202 53.4286 20.65 53.2797C21.2541 53.1059 21.8434 53.0811 22.4475 53.2002C22.601 53.2399 22.7594 53.2598 22.9278 53.2995C23.4428 54.1235 24.1509 54.7043 25.0669 55.0419C26.1464 55.4241 27.2457 55.5283 28.3747 55.3397C28.9689 55.2354 29.4789 54.9624 29.9047 54.5355C30.4742 53.9399 31.1179 53.4435 31.831 53.0315C31.9201 53.5378 32.0835 54.0441 32.2816 54.5157C32.4202 54.8582 32.643 55.1461 32.9401 55.3645C33.2471 55.6028 33.569 55.7269 33.9354 55.7864C34.9654 55.9304 35.9409 55.7964 36.8866 55.4042C37.1293 55.3 37.3471 55.1312 37.5155 54.9128C37.6839 54.6993 37.8027 54.4462 37.8423 54.1781C37.9314 53.652 38.1246 53.1704 38.4316 52.7287C38.6792 53.1655 38.9168 53.5874 39.1694 54.0242C39.4764 54.5206 39.9121 54.8532 40.4667 55.017C41.1302 55.2057 41.8185 55.2354 42.5068 55.1312C43.205 55.022 43.8388 54.7837 44.4231 54.4164C44.8638 54.1186 45.26 53.776 45.6165 53.3839C45.77 53.2995 45.9235 53.2499 46.0968 53.1804C46.7158 52.957 47.3496 52.9074 48.0032 53.0513C48.5727 53.1953 49.0827 53.4534 49.5085 53.8604C50.0383 54.332 50.5583 54.8185 51.0634 55.3248C51.3654 55.6127 51.712 55.7765 52.123 55.8262C52.539 55.8758 52.9202 55.8113 53.2669 55.6077C53.6333 55.3993 53.8858 55.1014 54.0492 54.7093C54.074 54.6646 54.1136 54.615 54.1532 54.5752C54.1928 54.5306 54.2473 54.4958 54.2968 54.4809C54.9851 54.2129 55.6932 54.0739 56.431 54.0342C56.5053 54.0342 56.5597 54.0491 56.6192 54.0788C56.6786 54.0888 56.743 54.1334 56.7776 54.1781C56.8618 54.2526 56.8915 54.3519 56.9113 54.4462C56.9113 54.5554 56.8767 54.6497 56.8073 54.7391C55.9804 55.7616 55.0049 56.6204 53.8809 57.3203C53.6679 57.4643 53.5194 57.643 53.4154 57.9011C53.3312 58.1542 53.3213 58.4074 53.3956 58.6556L53.3758 58.6308ZM9.2512 33.5827C9.20663 33.7118 9.18683 33.821 9.15217 33.9302C8.65204 33.8508 8.13707 33.8309 7.63199 33.8557C7.90929 33.27 8.28562 32.7537 8.75108 32.2921C9.1175 31.9198 9.56316 31.617 10.0781 31.4234C9.71171 32.1134 9.43936 32.8232 9.24625 33.5778L9.2512 33.5827ZM14.9358 31.8205C14.9506 31.4135 15.0645 31.0511 15.2824 30.7086C15.3616 30.5547 15.4755 30.4306 15.5943 30.3016C16.0944 30.2221 16.5896 30.1626 17.0848 30.0831C20.5262 29.6662 23.9677 29.2442 27.4091 28.8471C27.5576 29.1251 27.6666 29.4229 27.7408 29.7257C27.5626 29.8796 27.3546 29.959 27.1219 29.9938C26.8991 30.0186 26.6911 29.9839 26.4683 29.8995C26.1712 29.7655 25.8344 29.7158 25.5126 29.7456C25.166 29.7803 24.8441 29.8945 24.5718 30.098C24.2697 30.2916 23.9379 30.4207 23.5567 30.4554C23.1902 30.4703 22.8436 30.4008 22.5069 30.247C22.1603 30.0732 21.779 30.0434 21.3878 30.1328C21.0164 30.2321 20.7094 30.4505 20.4767 30.7731C20.4173 30.8625 20.3381 30.9022 20.2539 30.932C20.1548 30.9469 20.0558 30.932 19.9716 30.8823C19.7191 30.7384 19.4418 30.659 19.1447 30.659C18.8426 30.659 18.5653 30.7483 18.3079 30.8972C18.0603 31.061 17.8672 31.2596 17.7137 31.5227C17.5007 31.9496 17.1739 32.2276 16.7629 32.4261C16.342 32.5999 15.9063 32.6495 15.4656 32.5304C15.2972 32.4807 15.1685 32.3963 15.0744 32.2673C14.9803 32.1233 14.9358 31.9794 14.9358 31.8156V31.8205ZM1.89297 43.5851C1.45227 42.0909 1.47208 40.5769 1.9821 39.1076C2.30892 38.1744 2.83875 37.3702 3.5716 36.7001C4.56194 35.8165 5.72064 35.2705 7.04274 35.0769C7.67656 34.9826 8.30047 34.9776 8.93429 35.062C8.84021 35.6527 8.77584 36.2384 8.73127 36.8291C8.71642 37.1518 8.70156 37.4596 8.69166 37.7624C8.31038 37.4844 7.88453 37.3255 7.40917 37.266C6.94371 37.2163 6.48815 37.2759 6.0425 37.4645C5.67112 37.6234 5.34431 37.8765 5.08187 38.1942C4.82933 38.507 4.64117 38.8644 4.57184 39.2764C4.33911 40.3337 4.34901 41.396 4.5966 42.4483C4.67583 42.8206 4.86894 43.1284 5.17595 43.3716C5.30469 43.4957 5.46315 43.5553 5.63151 43.6099C5.79986 43.6645 5.98308 43.6695 6.15639 43.6496C6.10687 44.7417 5.94842 45.8188 5.67112 46.8712C5.6216 47.03 5.53247 47.169 5.39382 47.2634C5.26013 47.3825 5.11158 47.4371 4.93827 47.4371C4.76001 47.4371 4.61641 47.3726 4.45795 47.2733C3.22003 46.3252 2.36338 45.0891 1.89792 43.5801L1.89297 43.5851ZM8.68671 39.9664C8.3797 40.0507 8.14697 40.2394 7.96871 40.4975C7.48344 41.2917 6.84962 41.9569 6.07221 42.488C6.05735 42.5079 6.02269 42.5178 5.97812 42.5178C5.94346 42.5178 5.9088 42.5079 5.87909 42.4781C5.78996 42.3937 5.73054 42.2895 5.69588 42.1902C5.48791 41.2967 5.48295 40.4131 5.67607 39.5246C5.72559 39.2863 5.81967 39.0977 5.96327 38.9239C6.10192 38.7452 6.28018 38.6162 6.4931 38.5219C6.7803 38.4126 7.06255 38.3829 7.36955 38.4226C7.66666 38.4772 7.92414 38.6013 8.14697 38.8147C8.30047 38.9487 8.47873 39.048 8.6768 39.1275V39.9664H8.68671ZM69.3747 44.7913C68.9935 45.8635 68.4587 46.8265 67.7803 47.73C67.0574 48.688 66.1363 49.3879 65.042 49.8446C64.6558 49.9985 64.2448 50.0283 63.8486 49.9141C63.8288 49.517 63.6803 49.1596 63.4327 48.8369C63.3485 48.7178 63.2594 48.5838 63.1703 48.4646C62.9524 48.1618 62.685 47.8938 62.373 47.6903C61.9571 47.3974 61.5461 47.0896 61.15 46.767C61.1005 46.4642 61.0658 46.1514 61.0509 45.8486C61.046 45.4614 61.1054 45.0991 61.2688 44.7516C61.3777 44.5183 61.5461 44.3297 61.7937 44.2205C62.0413 44.1063 62.2839 44.0914 62.5414 44.1708C62.6256 44.2006 62.6899 44.2502 62.7444 44.3098C62.7989 44.3694 62.8187 44.4587 62.8335 44.5233C62.8583 44.7963 62.9524 45.0246 63.1405 45.2232C63.3139 45.4217 63.5218 45.5458 63.7892 45.6054C64.4825 45.7543 65.1559 45.66 65.7947 45.3026C66.1413 45.0941 66.4384 44.8211 66.681 44.4786C66.9237 44.1361 67.0673 43.7588 67.1217 43.3418C67.2703 42.4632 67.196 41.5995 66.889 40.7507C66.7256 40.3238 66.4829 39.9664 66.1314 39.6685C65.7947 39.3905 65.3837 39.2019 64.938 39.1126C64.2646 39.0133 63.606 39.0331 62.9524 39.2367C62.9524 38.914 62.9474 38.6062 62.9425 38.2935C64.4181 38.0106 65.8689 38.1595 67.2604 38.77C67.8447 39.048 68.3547 39.4402 68.7706 39.9564C69.1717 40.4677 69.4441 41.0435 69.5877 41.6789C69.7857 42.7313 69.7214 43.7737 69.3648 44.7963L69.3747 44.7913Z" fill="#1E22B0"/>
<path d="M61.2245 51.9831C61.1254 51.8342 61.0759 51.6902 61.1056 51.5066C61.1304 51.3428 61.2146 51.2038 61.3384 51.0896C61.4572 50.9804 61.6157 50.9357 61.789 50.9357C62.0168 50.9457 62.2247 50.8712 62.403 50.7322C62.5664 50.5684 62.6704 50.3847 62.6951 50.1465C62.7298 49.9181 62.6605 49.7245 62.5317 49.5359C62.4228 49.4019 62.3238 49.2728 62.2297 49.1388C62.096 48.9402 61.9227 48.7764 61.7147 48.6374C60.452 47.7538 60.1252 46.2448 59.2091 44.6166C59.1992 44.5968 59.1745 44.6067 59.1596 44.6266C58.298 45.4903 57.5157 46.7859 57.2186 47.3369C57.0205 47.739 56.8967 48.1559 56.8818 48.6126C56.8422 49.0991 56.8026 49.5706 56.7036 50.0521C56.6491 50.3897 56.5204 50.7024 56.3173 50.9605C56.1193 51.2584 55.8717 51.4818 55.5647 51.6406C55.1091 51.8987 54.6536 52.142 54.1683 52.3703C53.3513 52.7823 52.0044 53.373 51.4795 54.1275C51.5934 54.2368 51.7222 54.3608 51.8361 54.4849C51.945 54.5892 52.0737 54.6587 52.2371 54.6785C52.3907 54.6885 52.5243 54.6686 52.658 54.5842C52.8016 54.4998 52.9056 54.4006 52.9452 54.2665C53.0344 54.0581 53.1532 53.8843 53.3067 53.7354C53.4602 53.5815 53.6286 53.4624 53.8415 53.3929C54.6486 53.0851 55.4805 52.9015 56.357 52.8667C56.5847 52.8667 56.8026 52.8866 57.0155 52.9809C57.2235 53.0702 57.4117 53.1993 57.5701 53.3631C57.8425 53.651 57.996 53.9786 58.0158 54.3857C58.0207 54.7778 57.8969 55.1501 57.6791 55.4579C56.7531 56.5698 55.6835 57.513 54.4605 58.2873C54.6189 58.7738 54.5694 59.2503 54.3466 59.7269C54.1089 60.1836 53.7425 60.5012 53.2621 60.6651C52.5491 60.9083 51.8262 60.9133 51.1131 60.6849C50.821 61.1714 50.4694 61.6132 50.0435 61.9855C49.7167 62.2932 49.3354 62.5067 48.8997 62.6308C48.4788 62.7648 48.048 62.7996 47.6073 62.735C46.7358 62.6109 45.9534 62.2883 45.2305 61.8217C44.9383 62.1145 43.9381 63.7328 40.6947 63.42C39.6598 63.2116 38.3377 62.7499 37.5851 61.9904C37.3177 62.5166 36.9215 62.9286 36.4016 63.2215C36.1045 63.4052 36.2035 63.4945 35.847 63.4945C35.4855 63.4945 34.7081 63.3903 34.4061 63.2066C33.8861 62.8988 33.4653 62.5166 33.0889 62.0599C32.9305 62.3627 32.7076 62.601 32.4502 62.8244C32.2372 63.013 31.9995 63.152 31.7322 63.2116C31.4598 63.3009 31.1875 63.3108 30.9201 63.2662C30.7121 63.2364 30.519 63.1619 30.3506 63.0477C30.1674 62.9435 30.0238 62.8144 29.9 62.6258C29.598 62.1989 29.3405 61.7323 29.1375 61.2309C28.8602 61.504 28.573 61.777 28.2808 62.0351C28.0283 62.2684 27.7064 62.4074 27.3747 62.467C27.0181 62.5315 26.6864 62.4769 26.3695 62.3478C26.0476 62.2039 25.7951 61.9954 25.592 61.7025C25.4881 61.5536 25.3643 61.4444 25.2157 61.3402C25.0573 61.2359 24.8939 61.1863 24.7205 61.1763C23.8788 61.7819 22.928 62.1791 21.8981 62.3727C21.6554 62.4273 21.4029 62.4124 21.1454 62.3528C20.9028 62.2883 20.68 62.1691 20.4918 61.9954C20.1848 61.7224 19.9521 61.3848 19.7986 61.0026C19.1895 61.499 18.5161 61.9209 17.7981 62.2634C17.2138 62.5414 16.6097 62.6159 15.9857 62.5116C15.6738 62.4372 15.4114 62.2982 15.2182 62.0847C14.6835 61.4841 14.2774 60.804 14.0447 60.0346C13.2623 59.9354 12.5295 59.707 11.8164 59.3744C10.5141 58.7589 9.38018 57.8952 8.4245 56.813C7.89962 56.1975 7.59262 55.4976 7.50349 54.6934C7.45397 54.0928 7.53815 53.517 7.78078 52.961C7.91448 52.6433 8.13235 52.4001 8.41955 52.2214C8.71665 52.0427 9.03356 51.9682 9.39008 51.9881C9.84564 52.0179 10.2418 52.1817 10.5834 52.5093C11.247 53.1695 11.9501 53.795 12.6731 54.3956C12.8959 54.5743 13.1435 54.7133 13.4257 54.7877C13.6931 54.8572 13.9803 54.887 14.2576 54.8473C14.5646 54.8076 14.8617 54.7431 15.1588 54.6636C15.5054 54.5495 15.8273 54.4254 16.1541 54.2516C16.4809 54.0779 16.8077 53.8992 17.1395 53.7205C16.9563 53.2737 16.7731 52.8171 16.6047 52.3753C16.5106 52.142 16.3571 51.9533 16.1293 51.8094C15.9065 51.6754 15.6639 51.6257 15.4163 51.6555C15.0647 51.7051 14.7429 51.8193 14.4458 51.998C14.2279 52.1171 13.9952 52.1916 13.7476 52.2164C13.5099 52.2363 13.2772 52.2065 13.0494 52.1221C12.9652 51.1889 12.9405 50.2408 12.985 49.3125C12.985 49.248 12.9751 49.1835 12.9454 49.1289C12.9107 49.0743 12.8612 49.0147 12.8167 48.9849C12.7572 48.9452 12.6978 48.9353 12.6235 48.9353C12.1135 48.9005 11.5985 48.8707 11.0836 48.8012C11.0836 48.2999 11.0489 47.8084 10.9944 47.3269C10.9944 47.1979 10.9202 47.0936 10.831 47.0192C10.7568 46.9447 10.6429 46.91 10.5339 46.8901C9.75651 46.8752 8.989 46.7958 8.22148 46.6618C8.14225 45.4357 8.20168 44.2195 8.40965 43.0282C8.49878 42.5616 8.55325 42.0801 8.60276 41.6035C8.21653 42.1347 7.78078 42.5913 7.30542 43.0033C7.30542 44.428 7.13211 45.8129 6.77063 47.183C6.65179 47.59 6.42897 47.9325 6.0972 48.1907C5.77039 48.4488 5.38416 48.5927 4.95831 48.5927C4.72558 49.3373 4.59189 50.0819 4.56713 50.8563C4.52256 51.7151 4.21061 52.4696 3.6164 53.1C2.73995 54.0779 2.6013 54.9764 2.41809 56.2819C2.26459 57.4137 2.55674 58.878 2.80432 59.7021C2.8786 59.9403 3.1856 60.948 3.64611 61.5685C3.94817 61.9706 3.94817 62.0897 5.09696 63.0676C5.56737 63.4697 7.05288 63.9512 7.36484 64.6958C7.58766 65.222 7.62233 65.7432 7.50844 66.2942C7.38465 66.8402 7.30542 67.421 7.28561 67.9869C7.3995 67.9521 7.51834 67.9025 7.61242 67.838C7.84515 67.699 8.10264 67.6394 8.37994 67.6841C8.64733 67.7288 8.8652 67.8429 9.05337 68.0564C9.24153 68.25 9.34552 68.4882 9.35542 68.7662C9.37028 68.8705 9.40494 68.9747 9.48912 69.0541C9.5832 69.1137 9.67728 69.1683 9.78622 69.1683C10.2566 69.1683 10.7023 69.0889 11.1479 68.9747C11.3609 68.9201 11.5738 68.9201 11.7818 68.9797C11.9996 69.0442 12.1779 69.1683 12.3215 69.3371C12.4552 69.4959 12.5493 69.6845 12.5889 69.9079C12.6483 70.3398 12.7919 70.727 13.0147 71.0943C13.2574 71.4616 13.5297 71.7694 13.8862 72.0226C14.6587 72.5785 15.5104 72.7969 16.4611 72.7225C16.7384 72.6828 17.0157 72.7473 17.2435 72.9161C17.4812 73.0799 17.6297 73.3132 17.6941 73.5812C18.0258 74.9215 18.7339 76.0036 19.8184 76.8326C20.9275 77.6417 22.1556 78.0289 23.5272 77.9694C23.7797 77.9445 24.0125 78.019 24.2254 78.153C24.4333 78.3019 24.5819 78.4906 24.671 78.7239C24.9285 79.4486 25.3346 80.089 25.8891 80.6251C26.414 81.1711 27.0726 81.5583 27.7956 81.8015C28.9443 82.2086 30.1328 82.3078 31.336 82.1143C32.5442 81.9107 33.6386 81.4342 34.614 80.7045C34.8418 80.5308 35.0845 80.4464 35.3766 80.4662C35.6589 80.491 35.9015 80.5903 36.1194 80.7938C36.5006 81.1711 36.9265 81.4739 37.4217 81.7221C37.491 81.7519 37.5554 81.7668 37.6395 81.7668C37.7089 81.7519 37.7831 81.7221 37.8525 81.6774C38.1 81.4938 38.2981 81.2356 38.4417 80.9577C38.5903 80.6747 38.6645 80.3719 38.6645 80.0443C38.6695 79.7961 38.7685 79.5678 38.9072 79.3692C39.0607 79.1557 39.2637 79.0217 39.5113 78.9473C39.7539 78.8976 39.9916 78.8976 40.2392 78.9969C40.5858 79.121 40.9423 79.1458 41.3038 79.0863C41.6752 79.0168 42.002 78.8579 42.2793 78.6048C42.4427 78.4558 42.6209 78.3714 42.8289 78.3317C43.0369 78.3019 43.2449 78.3069 43.4429 78.3863C44.3095 78.6742 45.1958 78.7884 46.1119 78.6494C46.2703 78.6196 46.3991 78.565 46.5031 78.4707C46.6071 78.3665 46.6912 78.2325 46.716 78.0835C46.8051 77.7063 46.8398 77.3389 46.815 76.9369C46.815 76.6241 46.9042 76.366 47.1121 76.1277C47.33 75.8994 47.5875 75.7703 47.8945 75.7554C48.9195 75.6859 49.9297 75.547 50.9299 75.3683C51.1032 75.3434 51.2666 75.264 51.3855 75.13C51.5191 75.0009 51.5984 74.8421 51.6231 74.6634C51.7321 74.0131 51.737 73.894 51.8361 72.7324C51.94 71.5659 53.5692 72.2162 55.2973 71.0893C56.8472 69.7888 56.4164 68.6918 56.5847 67.9521C56.8769 66.6863 59.2884 67.2969 60.3876 66.5573C60.9917 66.1502 59.9321 64.388 60.6006 63.8469C61.2245 63.3406 62.3238 62.5613 62.6357 62.1642C63.9182 60.5261 63.7548 60.8636 64.354 59.5482C65.072 57.9746 65.1314 57.0414 64.9729 55.6415C64.859 54.7977 64.8937 54.1921 63.943 53.2737C63.2547 52.6135 62.3634 52.3951 61.6008 52.2313C61.4374 52.1966 61.3037 52.1072 61.2047 51.9831H61.2245Z" fill="white"/>
<path d="M50.6428 53.3392C50.514 53.2151 50.3902 53.1059 50.2615 52.9868C49.6871 52.4557 49.0087 52.1082 48.2412 51.9245C47.6866 51.7806 47.1221 51.7756 46.5527 51.85C46.726 51.3884 46.8002 50.9367 46.7903 50.4453C46.7606 49.9489 46.6368 49.4922 46.414 49.0504C46.2655 48.7724 46.0922 48.4895 45.9139 48.2115C46.825 48.3604 47.7114 48.2562 48.563 47.8839C49.6821 47.3974 50.5982 46.6627 51.3509 45.6997L50.4298 45.0048C49.8109 45.8089 49.0384 46.4145 48.1075 46.8414C47.2261 47.2038 46.3447 47.2286 45.4484 46.901C44.572 46.5783 43.7748 46.1068 43.0617 45.4962C41.9723 44.5233 41.2345 43.3418 40.878 41.9271C40.5463 40.711 40.4621 39.4749 40.5908 38.2141C40.6205 37.8468 40.7245 37.5092 40.9077 37.1816C41.1107 36.8639 41.3484 36.5909 41.6455 36.3874C42.2496 35.9505 42.9429 35.7023 43.6856 35.6229C45.4534 35.4641 47.1419 35.752 48.7364 36.5264L49.2464 35.5087C47.439 34.6301 45.5574 34.2827 43.5569 34.4663C42.6161 34.5855 41.7545 34.8932 40.9969 35.4442C40.5413 35.747 40.1848 36.1292 39.9174 36.6008C39.65 37.0724 39.4767 37.5787 39.4371 38.1049C39.2984 39.5047 39.4074 40.8648 39.749 42.215C40.1897 43.8631 41.0266 45.243 42.3091 46.3649C42.7547 46.757 43.24 47.1045 43.75 47.3974C44.4234 48.0328 44.9731 48.7674 45.4039 49.5815C45.5524 49.8992 45.6316 50.2268 45.6366 50.5743C45.6366 50.9268 45.5673 51.2643 45.4237 51.577C45.0226 52.3464 44.4829 52.9669 43.7649 53.4286C43.3093 53.7215 42.829 53.9101 42.314 53.9945C41.7842 54.0739 41.2593 54.0342 40.7443 53.9002C40.4819 53.8307 40.2838 53.6619 40.1353 53.4335C39.8926 53.0215 39.6549 52.5996 39.4272 52.1777C39.2935 51.9543 39.1053 51.7756 38.8528 51.6664C38.6151 51.5671 38.3626 51.5472 38.1001 51.6167C37.8426 51.6912 37.6347 51.8352 37.4811 52.0536C37.0553 52.6443 36.7929 53.2797 36.674 54.0044C36.6641 54.064 36.6394 54.1484 36.5898 54.2079C36.5304 54.2625 36.4809 54.3072 36.3918 54.3469C35.6589 54.6497 34.8815 54.754 34.0744 54.6497C33.911 54.6299 33.7575 54.5653 33.6188 54.4611C33.4752 54.3469 33.3712 54.2129 33.3168 54.0689C33.1336 53.6569 33.0246 53.2598 32.9454 52.8279C32.8909 52.5847 32.782 52.3713 32.5889 52.1876C32.4106 52.0288 32.1927 51.9245 31.9253 51.8947C31.6877 51.855 31.4599 51.9195 31.2321 52.0337C30.4398 52.4954 29.702 53.0662 29.0633 53.7264C28.8058 53.9697 28.5037 54.1335 28.1571 54.193C27.2212 54.3568 26.325 54.2675 25.4287 53.9597C24.8246 53.7264 24.3294 53.3591 23.963 52.818C23.6065 52.2869 23.4282 51.6962 23.4282 51.0509C23.4629 50.2814 23.7253 49.6212 24.2651 49.0603C24.6909 48.6235 25.1465 48.2214 25.6119 47.8491C26.5032 47.1542 27.1767 46.2755 27.657 45.2381C28.5384 43.2922 29.2663 41.2868 29.8506 39.2317C29.9744 38.7899 29.9942 38.3382 29.9149 37.8666C29.8258 37.405 29.6377 37.0029 29.3505 36.6207C28.4294 35.4641 27.246 34.7691 25.7753 34.5557C23.0321 34.1933 20.3235 34.4911 17.709 35.4045L18.1002 36.4767C20.5463 35.618 23.0618 35.3598 25.6268 35.6974C26.7805 35.8711 27.7114 36.4171 28.4344 37.3404C28.6127 37.5489 28.7315 37.812 28.781 38.0751C28.8256 38.363 28.8157 38.641 28.7414 38.914C28.167 40.8996 27.454 42.8653 26.6023 44.7566C26.2012 45.6054 25.6515 46.3351 24.8939 46.9308C24.374 47.3279 23.8986 47.7647 23.4381 48.2264C22.6954 49.0156 22.3091 49.9538 22.2794 51.0161C22.2695 51.3487 22.3091 51.6912 22.3785 52.0188C21.6803 51.9146 20.992 51.9493 20.3136 52.1578C19.6946 52.3415 19.0856 52.5946 18.5112 52.9322C18.3973 52.9868 18.2735 53.0712 18.1596 53.1407C17.9962 52.7436 17.8477 52.3514 17.6942 51.9493C17.506 51.4629 17.1841 51.0806 16.7335 50.8126C16.2829 50.5396 15.7927 50.4601 15.2728 50.5048C14.8717 50.5594 14.4954 50.6835 14.1339 50.8573C14.124 50.3509 14.119 49.8545 14.1487 49.3582C14.1537 49.0802 14.1042 48.822 13.9655 48.5738C13.8318 48.3356 13.6684 48.1271 13.4258 47.9881C13.198 47.8392 12.9455 47.7647 12.6781 47.7548C12.5196 47.7548 12.3513 47.7399 12.1978 47.73C12.1829 47.5265 12.173 47.3478 12.1433 47.1691C12.0938 46.762 11.9155 46.4195 11.6184 46.1465C11.3213 45.8784 10.9747 45.7394 10.5637 45.7146C10.1577 45.7047 9.75163 45.6848 9.35054 45.6451C9.34064 44.8161 9.40996 44.007 9.55356 43.1979C9.77143 41.9867 9.86551 40.7308 9.83085 39.4849C9.81105 38.6261 9.83085 37.7524 9.88037 36.8788C9.93484 35.8662 10.0933 34.8535 10.3557 33.8607C10.5736 32.992 10.9252 32.163 11.4104 31.4085C11.4897 31.2795 11.5739 31.1355 11.6729 31.0213C12.4652 30.8327 13.2525 30.6739 14.0596 30.5349C13.8912 30.927 13.8021 31.339 13.7873 31.761C13.7873 32.1978 13.9012 32.5899 14.1537 32.9474C14.4112 33.2799 14.7528 33.5232 15.1688 33.6324C15.8818 33.8061 16.5602 33.7664 17.2336 33.4735C17.8873 33.1707 18.4072 32.6843 18.7489 32.0588C18.7934 31.9595 18.8479 31.9198 18.9172 31.8652C18.9816 31.8255 19.0658 31.8007 19.1549 31.8007C19.2292 31.8007 19.3084 31.8255 19.3876 31.8602C19.7392 32.0489 20.0957 32.1233 20.4869 32.0389C20.883 31.9397 21.1901 31.7262 21.4277 31.3986C21.4921 31.3241 21.5862 31.2646 21.6852 31.2199C21.7892 31.21 21.9031 31.205 21.9972 31.2646C22.5221 31.5227 23.0766 31.6269 23.656 31.5872C24.2254 31.5277 24.7652 31.339 25.2356 31.0114C25.3594 30.9221 25.4832 30.8972 25.6169 30.8824C25.7605 30.8675 25.8991 30.8923 26.0081 30.937C26.4488 31.1206 26.8895 31.1752 27.3351 31.1057C27.7808 31.0263 28.1769 30.8575 28.5334 30.5597C28.677 30.4207 28.781 30.2817 28.8503 30.0931C28.9048 29.9193 28.9098 29.7357 28.885 29.547C28.8206 29.2542 28.7364 28.9464 28.6325 28.6933C29.0583 28.6238 29.4941 28.584 29.9298 28.5344C32.3413 28.2515 34.7577 28.1174 37.1741 28.182C38.0654 28.2018 38.9568 28.2664 39.853 28.3557C39.6153 28.45 39.4173 28.6089 39.239 28.8025C39.0904 29.001 38.9667 29.2095 38.9072 29.4627C38.8231 29.7754 38.828 30.0832 38.9171 30.3959C39.0063 30.7036 39.1796 30.9717 39.4222 31.1852C39.6599 31.3986 39.9322 31.5525 40.2541 31.617C40.7542 31.7014 41.2543 31.7361 41.7644 31.6915C41.8585 31.6915 41.9377 31.7213 42.0169 31.756C42.106 31.7858 42.1704 31.8553 42.2249 31.9049C42.5863 32.3566 43.0469 32.6197 43.6163 32.7041C44.1709 32.7786 44.6859 32.6297 45.1414 32.2822C45.2108 32.2425 45.285 32.2077 45.3692 32.1928C45.4534 32.1829 45.5227 32.2028 45.6069 32.2425C45.6911 32.2723 45.7307 32.312 45.7951 32.3864C45.8644 32.4956 45.9585 32.585 46.0773 32.6346C46.1813 32.6892 46.3051 32.7091 46.4388 32.7091C47.2112 32.6644 47.9688 32.6048 48.7364 32.5353C48.8354 32.5353 48.9146 32.5552 48.9889 32.5899C49.0731 32.6446 49.1275 32.7041 49.1771 32.7935C49.2959 33.0367 49.4692 33.2154 49.6821 33.3494C49.9198 33.4735 50.1773 33.5281 50.4298 33.5033C50.8507 33.4636 51.237 33.3594 51.6133 33.2005C51.8807 33.0863 52.0986 32.9325 52.2867 32.7289C52.46 32.5254 52.6482 32.0687 52.7373 31.8106C52.7968 31.8454 52.876 31.8801 52.9602 31.9198C53.3959 32.1084 56.258 33.5778 56.6987 33.816C56.773 33.9104 57.2731 34.0493 57.3325 34.1486L57.7435 34.645C57.7831 34.7096 59.432 40.8003 58.9765 43.0887C58.8923 43.5007 57.6593 44.7367 57.6593 44.7367C56.8869 46.1862 56.4561 46.3847 56.2332 46.7918C55.9361 47.3378 55.7826 47.9136 55.7381 48.5391C55.7183 48.9561 55.6638 49.3979 55.5895 49.8297C55.5648 49.9985 55.4905 50.1474 55.3964 50.2864C55.2924 50.4403 55.1785 50.5445 55.03 50.614C54.5942 50.8672 53.4801 51.1154 53.0196 51.3189C52.0738 51.7954 51.2766 52.4606 50.6477 53.3243L50.6428 53.3392Z" fill="white"/>
<path d="M61.6297 42.5969C61.3821 43.2124 60.8919 44.0166 60.0996 44.8604C60.2977 41.4204 60.0303 38.035 59.0598 35.1659C58.936 34.8084 59.5945 35.0815 59.8817 35.3297C60.5403 35.7417 61.1395 36.0147 61.595 36.5508C61.7832 37.4493 61.8426 38.5711 61.9218 39.683C62.0011 40.795 61.9763 41.7232 61.6297 42.5969Z" fill="white"/>
<path d="M40.4512 30.4749C40.8721 30.5643 41.2682 30.5891 41.6792 30.5643C41.9516 30.5395 42.2239 30.599 42.4863 30.7033C42.7438 30.8224 42.9518 30.9912 43.1202 31.2195C43.2836 31.423 43.5014 31.5322 43.749 31.567C44.0065 31.5968 44.2293 31.5372 44.4324 31.3883C44.7641 31.1401 45.1256 31.021 45.5366 31.0557C45.9426 31.0805 46.2942 31.2642 46.5715 31.5521C47.2598 31.5124 47.9481 31.4627 48.6314 31.4181C48.9632 31.3784 49.2702 31.4479 49.5524 31.6117C49.8347 31.7755 50.0575 32.0038 50.2011 32.3017C50.216 32.3265 50.2259 32.3463 50.2358 32.3463C50.2655 32.3563 50.2902 32.3711 50.315 32.3563C50.6071 32.3414 50.9042 32.2669 51.1716 32.1428C51.2855 32.0882 51.4291 31.8202 51.5083 31.7159C51.5777 31.6017 51.6321 31.4876 51.6371 31.3684V31.3436C48.463 30.0033 45.1306 29.2389 41.7436 28.6333C41.6594 28.6283 41.5604 28.6134 41.4762 28.6035C41.4069 28.8219 41.2781 29.0006 41.0999 29.1446C40.9167 29.2885 40.7037 29.368 40.4809 29.3928C40.367 29.3928 40.2828 29.4325 40.1937 29.502C40.0996 29.5764 40.0452 29.6658 40.0154 29.775C39.9857 29.8792 39.9857 29.9835 40.0154 30.0877C40.0452 30.182 40.0947 30.2764 40.1888 30.3508C40.2531 30.4203 40.3472 30.47 40.4512 30.4749Z" fill="white"/>
<path d="M20.2936 40.2004C20.5363 40.0217 20.8235 39.9373 21.1305 39.9572C21.7197 40.0068 22.2892 40.1707 22.819 40.4486C22.0663 40.3791 21.3285 40.4486 20.6155 40.6422C20.4669 40.6819 20.3382 40.7713 20.2392 40.8904C20.1352 40.9996 20.0857 41.1386 20.0708 41.3024C20.0411 41.8634 20.0312 42.459 20.0609 43.0249C20.0609 43.1738 20.1104 43.3079 20.1995 43.4419C20.2837 43.5561 20.3976 43.6504 20.5313 43.7199C20.6749 43.7794 20.8086 43.7993 20.9621 43.7745C21.4325 43.7099 21.898 43.6404 22.3585 43.5858C22.7645 43.5263 23.1111 43.3724 23.4281 43.1192C23.7549 42.8561 23.9727 42.5434 24.1064 42.1612C24.2203 41.8683 24.2847 41.5407 24.3194 41.223C24.3491 40.8656 24.2847 40.5082 24.1163 40.1855C23.948 39.8579 23.6905 39.6147 23.3686 39.436C22.6952 39.0736 21.9723 38.8651 21.2146 38.8056C20.6105 38.7708 20.0708 38.9247 19.5954 39.2821C19.1102 39.6594 18.6001 40.0019 18.0703 40.3047L18.6299 41.3173C19.2142 40.9698 19.7638 40.6174 20.2986 40.2004" fill="#1E22B0"/>
<path d="M48.5775 39.6878C48.3893 39.4247 48.1665 39.2063 47.8842 39.0524C47.602 38.8985 47.3049 38.8191 46.983 38.8389C46.0174 38.8588 45.1608 39.1765 44.4131 39.792L45.1459 40.6855C45.6857 40.2388 46.3096 40.0104 47.0127 39.9955C47.2207 40.0154 47.4138 40.1097 47.5822 40.2288C47.7505 40.3579 47.8793 40.5267 47.9635 40.7103C47.6465 40.6557 47.3247 40.6309 46.9979 40.6309C46.6364 40.6309 46.3046 40.7252 45.9778 40.8791C45.859 40.9437 45.7401 41.033 45.6659 41.1521C45.5866 41.2613 45.552 41.3904 45.5223 41.5294C45.5025 41.7478 45.4975 42.001 45.4827 42.2343C45.4727 42.2988 45.4628 42.3584 45.4183 42.3981C45.3638 42.4477 45.3044 42.4626 45.245 42.4775C45.1459 42.4775 45.0419 42.4924 44.933 42.5172C44.8785 42.5371 44.8439 42.5569 44.8043 42.5917C44.7746 42.6463 44.7597 42.691 44.7448 42.7406C44.7151 42.9044 44.7151 43.0732 44.7201 43.237C44.73 43.3115 44.7548 43.376 44.7795 43.4207C44.8241 43.4852 44.8785 43.5299 44.9182 43.5547C45.3291 43.783 45.7847 43.9121 46.2452 43.9468C46.8394 43.9965 47.4089 43.922 47.9635 43.7185C48.2259 43.6291 48.4487 43.4802 48.6468 43.2767C48.83 43.0633 48.9587 42.825 49.0281 42.5619C49.1519 42.0705 49.1766 41.5691 49.1073 41.0777C49.0182 40.5763 48.8449 40.1147 48.5824 39.6878" fill="#1E22B0"/>
</svg>
