<svg width="180" height="180" viewBox="0 0 180 180" fill="none" xmlns="http://www.w3.org/2000/svg">
<path d="M180 93.3066L176.768 107.659L171.156 106.38L172.638 99.7968L170.801 99.3779L169.318 105.961L163.905 104.727L165.387 98.144L158.422 96.5562L160.172 88.7867L180 93.3066Z" fill="white"/>
<path d="M162.385 118.949C162.694 118.228 162.751 117.374 162.556 116.386C162.36 115.399 162.03 114.8 161.566 114.589L154.787 111.645L157.825 104.566L172.353 110.877L169.315 117.956L167.76 117.28C168.189 117.941 168.456 118.643 168.562 119.386C168.665 120.138 168.608 120.862 168.392 121.559L162.385 118.949Z" fill="white"/>
<path d="M157.655 132.104C158.244 132.566 158.753 132.52 159.18 131.968C159.61 131.288 159.604 130.622 159.16 129.972C158.952 129.657 158.676 129.333 158.333 128.998C157.99 128.676 157.637 128.313 157.273 127.908L156.052 130.507L157.44 131.903L157.655 132.104ZM154.141 127.159C154.141 127.159 154.285 126.974 154.571 126.603C154.707 126.428 154.844 126.265 154.983 126.114C154.186 125.489 153.419 125.576 152.683 126.374C152.481 126.594 152.293 126.815 152.121 127.037C151.678 127.61 151.253 128.43 150.847 129.497C150.435 130.57 150.258 131.681 150.315 132.83L146.707 131.009C146.577 128.494 147.689 125.718 150.041 122.68C151.392 120.935 153.058 119.832 155.039 119.372C157.197 118.877 159.254 119.395 161.209 120.927C162.682 122.081 163.707 123.502 164.284 125.188C164.803 126.741 164.868 128.345 164.48 130C164.091 131.655 163.35 133.19 162.255 134.604C160.836 136.436 159.366 137.509 157.844 137.821C156.317 138.139 154.971 137.836 153.804 136.911C152.632 135.993 152.027 134.615 151.987 132.776C151.947 130.938 152.665 129.065 154.141 127.159Z" fill="white"/>
<path d="M143.285 148.417C145.006 147.526 146.192 146.801 146.845 146.242C147.032 146.082 147.142 145.915 147.174 145.742C147.199 145.574 147.168 145.439 147.08 145.335C146.898 145.12 146.449 145.129 145.732 145.362C145.014 145.607 144.344 145.817 143.722 145.991C143.1 146.164 142.501 146.24 141.925 146.218C140.677 146.166 139.508 145.496 138.419 144.209C137.335 142.929 136.963 141.548 137.304 140.067C137.644 138.586 138.603 137.171 140.18 135.82C141.756 134.469 143.14 133.536 144.331 133.02C144.849 132.789 145.29 132.664 145.652 132.645L148.715 136.263C148.619 136.334 148.425 136.427 148.132 136.543C147.84 136.659 147.361 136.856 146.694 137.136C146.033 137.422 145.49 137.747 145.063 138.113C144.63 138.483 144.549 138.828 144.818 139.147C145.027 139.394 145.425 139.468 146.011 139.37C146.273 139.325 146.561 139.263 146.874 139.185C148.165 138.853 149.255 138.811 150.145 139.058C151.033 139.318 151.813 139.844 152.484 140.637C153.678 142.048 154.001 143.588 153.453 145.258C152.992 146.662 151.989 148.026 150.445 149.349C149.366 150.274 148.192 151.094 146.925 151.809C146.654 151.963 146.478 152.058 146.397 152.094L143.285 148.417Z" fill="white"/>
<path d="M135.274 159.723C134.848 161.596 133.573 163.008 131.449 163.96C130.844 164.23 130.138 164.378 129.332 164.403C128.525 164.428 127.753 164.288 127.014 163.983C125.428 163.338 124.223 162.083 123.398 160.219L119.432 151.256L126.387 148.142L129.178 154.448C129.733 155.704 130.39 156.644 131.149 157.266C131.911 157.897 132.564 158.091 133.106 157.848C133.851 157.515 133.997 156.837 133.545 155.815L129.527 146.735L136.436 143.641L145.149 163.334L138.24 166.428L135.274 159.723Z" fill="white"/>
<path d="M120.719 164.832C119.812 165.09 119.29 165.696 119.153 166.649C119.104 167.071 119.131 167.525 119.232 168.011L121.437 167.382L122.897 172.57L115.45 174.692L114.052 169.726C113.233 166.818 114.077 164.581 116.582 163.015C117.445 162.476 118.525 162.022 119.824 161.652L120.719 164.832Z" fill="white"/>
<path d="M100.66 169.712C101.339 169.719 101.685 169.173 101.698 168.071L101.812 158.133L109.374 158.221L109.191 174.14L105.015 174.092L103.223 171.586C102.534 172.526 101.587 173.266 100.384 173.807C99.1727 174.348 98.045 174.612 97.0011 174.6C95.0832 174.578 93.57 174.048 92.4616 173.01C91.3446 171.973 90.7961 170.591 90.816 168.867L90.941 158.007L98.5534 158.095L98.465 165.779C98.435 168.383 99.1668 169.694 100.66 169.712Z" fill="white"/>
<path d="M74.5181 180L72.6308 179.163L65.6654 167.37L62.4723 174.66L55.9135 171.752L64.112 153.035L66.6167 154.145L73.3627 164.82L76.1811 158.385L82.7166 161.283L74.5181 180Z" fill="white"/>
<path d="M58.9123 155.123C59.0131 156.054 58.9059 157.019 58.5906 158.018C58.2634 159.018 57.7378 159.942 57.0139 160.791C56.2899 161.64 55.579 162.304 54.881 162.781C53.4905 163.73 52.0174 164.264 50.4616 164.384C49.7086 164.454 48.9657 164.42 48.233 164.283C46.7252 164.005 45.4142 163.385 44.2998 162.424C43.179 161.456 42.5144 160.236 42.3061 158.762C42.24 158.289 42.2398 157.811 42.3053 157.327L39.6554 157.622L36.4862 154.887L46.7898 142.804L49.959 145.539L49.6248 148.744C52.0185 148.087 54.2907 148.682 56.4412 150.526C57.0393 151.031 57.5743 151.696 58.0462 152.519C58.5172 153.331 58.8059 154.199 58.9123 155.123ZM44.8192 155.717C44.935 156.053 45.154 156.36 45.4761 156.638C45.7981 156.916 46.239 157.094 46.7987 157.172C47.3464 157.251 47.9111 157.238 48.493 157.133C49.7929 156.893 50.7882 156.369 51.479 155.559C51.9653 154.988 52.134 154.436 51.9851 153.903C51.8454 153.411 51.331 153.018 50.4419 152.723C49.5408 152.429 48.6447 152.28 47.7536 152.276L44.8192 155.717Z" fill="white"/>
<path d="M36.0006 133.675C37.8617 134.257 39.3554 135.26 40.4818 136.683C41.6029 138.098 42.1168 139.57 42.0235 141.096C41.9236 142.628 41.1965 143.937 39.8423 145.022L34.6644 149.172L35.5686 150.314L32.4121 152.844L31.5078 151.702L28.1621 154.383L22.8113 148.879L26.7644 145.711L24.5196 142.876L27.6762 140.346L29.921 143.181L33.0476 140.676C33.9836 139.925 34.4975 139.17 34.5892 138.408C34.6689 137.646 34.2964 136.744 33.4714 135.702L36.0006 133.675Z" fill="white"/>
<path d="M23.3497 130.372C25.9256 129.31 26.9577 128.151 26.4459 126.895C26.1885 126.263 25.7325 126.022 25.0782 126.172C24.8768 126.218 24.6623 126.288 24.4345 126.382L15.2933 130.151L12.4258 123.111L27.0682 117.074L28.6516 120.961L27.0449 123.603C28.8122 124.046 30.2862 125.132 31.467 126.86C32.908 128.979 33.278 131.013 32.5773 132.963C32.049 134.436 30.9917 135.499 29.4054 136.153L19.416 140.271L16.5292 133.184L23.3497 130.372Z" fill="white"/>
<path d="M13.231 106.387C13.3889 107.156 13.8297 107.888 14.5531 108.583C15.2766 109.279 15.8885 109.579 16.3889 109.484L23.62 107.98L25.1707 115.531L9.67382 118.753L8.12308 111.202L9.78123 110.857C9.05366 110.564 8.43431 110.143 7.92318 109.595C7.41033 109.039 7.04352 108.414 6.82274 107.719L13.231 106.387Z" fill="white"/>
<path d="M18.2947 101.774C17.5981 102.395 16.7535 102.865 15.7609 103.184C14.7607 103.494 13.707 103.597 12.6 103.494C11.4929 103.39 10.544 103.19 9.75307 102.893C8.17976 102.3 6.89478 101.4 5.89814 100.192C5.40592 99.6147 5.0037 98.9855 4.69148 98.3046C4.04481 96.9065 3.78933 95.472 3.92502 94.0012C4.0615 92.5218 4.66704 91.2707 5.74163 90.2477C6.08725 89.9198 6.47504 89.643 6.905 89.4173L5.13378 87.4125L5.51969 83.2296L21.2762 84.7009L20.8903 88.8838L18.0981 90.4625C20.0145 92.0478 20.8464 94.2564 20.5937 97.0883C20.5299 97.8713 20.3006 98.6945 19.9055 99.558C19.5197 100.414 18.9828 101.153 18.2947 101.774ZM9.66446 90.5496C9.45876 90.8391 9.3363 91.1964 9.29708 91.6215C9.25786 92.0466 9.3684 92.5114 9.62871 93.016C9.88135 93.5112 10.2186 93.9671 10.6404 94.3838C11.5861 95.3125 12.5871 95.8262 13.6435 95.9248C14.3871 95.9942 14.9323 95.8136 15.2788 95.3829C15.5969 94.9839 15.6185 94.3342 15.3436 93.4338C15.061 92.5242 14.6637 91.7025 14.1518 90.9687L9.66446 90.5496Z" fill="white"/>
<path d="M22.5081 75.2283L20.8594 82.2983L0 77.375L1.64867 70.305L22.5081 75.2283Z" fill="white"/>
<path d="M19.6456 45.5349C19.1641 45.8797 18.7499 46.3155 18.4031 46.8423C17.6907 47.9243 17.4625 49.1292 17.7183 50.457C17.9718 51.7729 18.6433 52.7939 19.733 53.52C20.4618 54.0057 21.1251 54.2428 21.723 54.2316C22.3209 54.2203 22.7815 53.9691 23.1049 53.4779C23.4282 52.9867 23.6606 52.3631 23.8019 51.6073C23.9408 50.8396 23.9689 49.5986 23.8861 47.8843L30.7957 52.4884C30.406 54.4101 29.6487 56.2253 28.5239 57.9337C27.4039 59.6351 26.045 60.9879 24.4473 61.9921C21.9028 63.5841 19.2841 64.0052 16.5914 63.2556C15.6749 62.9931 14.758 62.5613 13.8405 61.9602C12.9277 61.352 12.1288 60.6558 11.4438 59.8716C10.7589 59.0875 10.2055 58.2425 9.78381 57.3368C8.93333 55.5206 8.62029 53.5608 8.84468 51.4572C9.07376 49.3464 9.85968 47.279 11.2024 45.2549C12.2194 43.7102 13.2082 42.587 14.1689 41.8855L19.6456 45.5349Z" fill="white"/>
<path d="M32.2167 35.3306C31.6747 35.8961 31.3227 36.6755 31.1605 37.6688C30.9984 38.662 31.0977 39.3396 31.4583 39.7013L36.7735 44.8578L31.4536 50.4079L20.0628 39.3571L25.3826 33.807L26.6014 34.9894C26.4315 34.2196 26.4269 33.4679 26.5877 32.7343C26.7544 31.9945 27.0607 31.3367 27.5064 30.7609L32.2167 35.3306Z" fill="white"/>
<path d="M41.2595 24.5996C40.8702 23.9584 40.3786 23.8202 39.7846 24.1852C39.1436 24.6691 38.9163 25.294 39.1028 26.0599C39.1872 26.4282 39.3316 26.8298 39.5358 27.2645C39.7429 27.6876 39.946 28.1531 40.145 28.6611L42.1992 26.6635L41.3904 24.8644L41.2595 24.5996ZM42.812 30.4741C42.812 30.4741 42.6128 30.5965 42.2144 30.8413C42.0261 30.957 41.8406 31.061 41.6579 31.1532C42.1844 32.0204 42.9318 32.2114 43.9004 31.7263C44.1671 31.5924 44.42 31.452 44.6591 31.3052C45.2747 30.9269 45.9598 30.3108 46.7144 29.4569C47.4762 28.5986 48.0319 27.6219 48.3814 26.5267L51.1187 29.5121C50.3573 31.9109 48.3433 34.1139 45.0767 36.1211C43.2007 37.2738 41.2552 37.7139 39.24 37.4414C37.047 37.1381 35.3046 35.9226 34.0128 33.7948C33.0396 32.1917 32.5788 30.4988 32.6303 28.7163C32.6903 27.0786 33.1921 25.5546 34.136 24.1443C35.0798 22.7339 36.3122 21.5614 37.8332 20.6268C39.8033 19.4163 41.555 18.9352 43.0882 19.1837C44.6286 19.4278 45.7823 20.1897 46.5493 21.4693C47.3234 22.7445 47.4065 24.2492 46.7986 25.9835C46.1906 27.7177 44.8618 29.2146 42.812 30.4741Z" fill="white"/>
<path d="M53.3801 25.6964C52.5633 25.2476 51.8376 24.6075 51.2029 23.7761C50.5743 22.9343 50.1208 21.972 49.8422 20.8891C49.5636 19.8063 49.4291 18.8403 49.4386 17.9911C49.4597 16.301 49.8661 14.7796 50.6577 13.4269C51.0311 12.7652 51.4832 12.1713 52.0141 11.645C53.1023 10.559 54.3571 9.83098 55.7786 9.46087C57.2082 9.08863 58.5835 9.23768 59.9044 9.90803C60.3282 10.124 60.7185 10.3973 61.0752 10.7277L62.3496 8.37174L66.3921 7.31919L70.3569 22.7314L66.3144 23.7839L63.8917 21.6762C63.0589 24.0274 61.2754 25.5634 58.5415 26.2841C57.7877 26.4892 56.9401 26.5511 55.9987 26.4699C55.0677 26.3948 54.1948 26.137 53.3801 25.6964ZM60.9517 13.7233C60.6112 13.6268 60.2356 13.632 59.8248 13.7389C59.4139 13.8459 59.0167 14.1081 58.6332 14.5255C58.2557 14.9324 57.9436 15.4062 57.6969 15.9467C57.149 17.1565 57.008 18.2781 57.2738 19.3114C57.4609 20.0388 57.8146 20.4935 58.3348 20.6756C58.8158 20.8414 59.4307 20.6416 60.1795 20.0762C60.9343 19.5004 61.5681 18.8459 62.0808 18.1127L60.9517 13.7233Z" fill="white"/>
<path d="M89.1336 5.22431C90.8296 3.60295 92.7775 2.95538 94.9773 3.28161C95.5819 3.37127 96.1846 3.59011 96.7856 3.93816C97.395 4.28746 97.9037 4.73833 98.3118 5.2908C99.1995 6.49265 99.5189 7.94252 99.2702 9.64041L97.6958 20.3852L90.391 19.302L91.581 11.18C91.7332 10.141 91.6889 9.30154 91.4481 8.66167C91.2085 8.01336 90.862 7.65558 90.4086 7.58834C89.9649 7.5139 89.6283 7.76175 89.3989 8.33189C89.3322 8.49461 89.2833 8.68155 89.2524 8.89273L87.7839 18.9153L80.6428 17.8563L81.8328 9.73435C81.985 8.69534 81.9239 7.85342 81.6495 7.20857C81.3847 6.55652 81.0425 6.19937 80.6226 6.13711C79.9509 6.0375 79.5352 6.53254 79.3756 7.62223L77.9349 17.4548L70.4537 16.3453L72.7614 0.595528L76.8924 1.20815L78.3333 3.93337C79.0823 3.09507 80.0639 2.48544 81.2778 2.10447C82.5014 1.71629 83.7052 1.60999 84.8891 1.78556C86.4256 2.01342 87.6209 2.72579 88.475 3.92266C88.753 4.30911 88.9725 4.74299 89.1336 5.22431Z" fill="white"/>
<path d="M116.683 1.01182C120.512 2.81984 123.353 4.27883 125.205 5.38878C127.057 6.49873 128.442 7.51279 129.36 8.43094C130.286 9.35347 130.93 10.3106 131.291 11.3023C131.987 13.23 131.581 15.4667 130.074 18.0121C129.396 19.1564 128.56 20.0765 127.565 20.7723C126.57 21.4681 125.499 21.9342 124.351 22.1707C123.204 22.4071 122.017 22.4168 120.793 22.1995C119.568 21.9823 118.387 21.5328 117.249 20.8511L115.329 19.6404L113.446 22.8203L106.304 18.54L116.683 1.01182ZM124.152 10.9449C123.525 10.5691 122.348 10.455 120.621 10.6025L118.165 14.7507L119.816 14.8904C120.909 14.9792 121.736 14.9334 122.298 14.753C123.346 14.4172 124.079 13.8973 124.496 13.1931C124.913 12.4888 124.951 11.881 124.612 11.3696C124.503 11.2045 124.349 11.0629 124.152 10.9449Z" fill="white"/>
<path d="M137.346 26.6117C135.307 28.5188 134.747 29.9695 135.666 30.9637C136.128 31.4639 136.639 31.528 137.199 31.1557C137.372 31.0412 137.548 30.8996 137.728 30.731L144.963 23.9632L150.112 29.5346L138.524 40.3753L135.68 37.2989L136.259 34.2569C134.449 34.4687 132.69 33.9754 130.979 32.777C128.889 31.3049 127.83 29.5322 127.803 27.459C127.781 25.8934 128.398 24.5234 129.654 23.3489L137.56 15.9531L142.744 21.562L137.346 26.6117Z" fill="white"/>
<path d="M162.428 41.5502C162.308 41.1321 162.14 40.7494 161.924 40.402C161.532 39.7724 161.053 39.4043 160.486 39.2979C159.931 39.1943 159.334 39.3133 158.695 39.6549L160.607 42.7272L157.186 44.8815L155.275 41.8092L145.282 48.1022L141.243 41.6103L151.235 35.3173L150.465 34.0797L153.886 31.9254L154.656 33.163L156.933 31.7291C158.127 30.977 159.37 30.8589 160.662 31.3748C161.955 31.8906 163.096 32.9447 164.087 34.5369C165.085 36.1246 165.607 37.785 165.654 39.5182L162.428 41.5502Z" fill="white"/>
<path d="M170.118 56.4112C170.08 55.9777 169.988 55.5697 169.842 55.1871C169.577 54.4935 169.177 54.0399 168.641 53.8262C168.116 53.6174 167.508 53.6191 166.816 53.8314L168.107 57.2153L164.339 58.6701L163.048 55.2862L152.042 59.5358L149.314 52.3854L160.32 48.1357L159.8 46.7726L163.568 45.3178L164.088 46.6809L166.596 45.7126C167.911 45.2047 169.154 45.3285 170.324 46.084C171.494 46.8394 172.413 48.094 173.082 49.8478C173.759 51.5984 173.956 53.3288 173.672 55.039L170.118 56.4112Z" fill="white"/>
<path d="M167.984 73.3749C168.116 71.4326 168.113 70.0359 167.975 69.1848C167.935 68.9404 167.85 68.7597 167.72 68.6427C167.59 68.5342 167.458 68.4909 167.324 68.5129C167.048 68.5583 166.823 68.9498 166.651 69.6876C166.488 70.4324 166.319 71.1175 166.145 71.743C165.972 72.3685 165.726 72.9235 165.409 73.4081C164.719 74.4556 163.545 75.1155 161.886 75.3877C160.236 75.6585 158.869 75.2642 157.786 74.2048C156.703 73.1454 155.995 71.5876 155.661 69.5314C155.328 67.4752 155.25 65.801 155.427 64.5088C155.499 63.9433 155.621 63.4994 155.792 63.1772L160.453 62.4123C160.464 62.5316 160.443 62.747 160.39 63.0585C160.338 63.3699 160.258 63.8848 160.151 64.6031C160.052 65.3201 160.048 65.9567 160.138 66.5128C160.229 67.0775 160.48 67.3261 160.891 67.2587C161.209 67.2065 161.478 66.9028 161.698 66.3477C161.795 66.0982 161.891 65.8185 161.987 65.5086C162.373 64.2255 162.901 63.2651 163.571 62.6274C164.251 61.9967 165.102 61.5975 166.124 61.4298C167.942 61.1315 169.419 61.6504 170.556 62.9865C171.512 64.11 172.153 65.6788 172.48 67.6929C172.708 69.1002 172.799 70.5344 172.752 71.9955C172.742 72.3085 172.732 72.5092 172.721 72.5976L167.984 73.3749Z" fill="white"/>
</svg>
