<svg width="45" height="30" viewBox="0 0 45 30" fill="none" xmlns="http://www.w3.org/2000/svg">
<path d="M44.5 15C44.5 18.9229 42.1149 22.5357 38.1326 25.1906C34.1537 27.8431 28.6283 29.5 22.5 29.5C16.3717 29.5 10.8463 27.8431 6.86745 25.1906C2.88514 22.5357 0.5 18.9229 0.5 15C0.5 11.0771 2.88514 7.46429 6.86745 4.80942C10.8463 2.15688 16.3717 0.5 22.5 0.5C28.6283 0.5 34.1537 2.15688 38.1326 4.80942C42.1149 7.46429 44.5 11.0771 44.5 15Z" stroke="#1E22B0"/>
<path d="M7.5 10.2991C9.51823 10.0997 11.0441 10 12.0776 10C13.1112 10 13.929 10.0753 14.5312 10.2258C15.1375 10.3764 15.636 10.6104 16.0266 10.9277C16.7834 11.5462 17.1619 12.5614 17.1619 13.9734C17.1619 14.6082 17.0418 15.19 16.8018 15.719C16.5617 16.248 16.2341 16.7017 15.8191 17.0801C15.4041 17.4585 14.9178 17.7535 14.3604 17.9651C13.8029 18.1767 13.2068 18.2825 12.572 18.2825L11.4856 18.2581V20.022H7.5V10.2991ZM12.9993 12.533C12.6493 12.533 12.1366 12.7751 11.4612 13.2593V15.5603L12.1753 15.2124C12.6473 14.9805 12.9769 14.7587 13.1641 14.5471C13.514 14.1524 13.689 13.7598 13.689 13.3691C13.689 12.9785 13.5567 12.7201 13.2922 12.594C13.2068 12.5533 13.1091 12.533 12.9993 12.533Z" fill="#1E22B0"/>
<path d="M18.4434 10.2747C20.9132 10.0916 22.5246 10 23.2773 10C24.0342 10 24.6303 10.0712 25.0657 10.2136C25.5051 10.352 25.8978 10.5452 26.2437 10.7935C26.915 11.2695 27.4216 11.9023 27.7634 12.6917C28.1093 13.481 28.2822 14.2806 28.2822 15.0903C28.2822 15.9001 28.15 16.6081 27.8855 17.2144C27.6251 17.8166 27.2629 18.3252 26.7991 18.7402C25.851 19.5988 24.6242 20.026 23.1187 20.022H18.4434V10.2747ZM22.2397 13.3691V17.0862C22.4554 16.9031 22.6894 16.722 22.9417 16.543C23.9101 15.8472 24.3943 15.1188 24.3943 14.3579C24.3943 13.9876 24.2844 13.6458 24.0647 13.3325C23.845 13.0151 23.5581 12.8564 23.2041 12.8564C22.8542 12.8564 22.5327 13.0273 22.2397 13.3691Z" fill="#1E22B0"/>
<path d="M29.7407 10.2747H36.7537V13.0334H33.5371V13.9368H36.7537V16.5979H33.5371V20.022H29.7407V10.2747Z" fill="#1E22B0"/>
</svg>
