<svg width="478" height="478" viewBox="0 0 478 478" fill="none" xmlns="http://www.w3.org/2000/svg">
<path d="M478 250.241L476.825 256.534L446.346 285.894L470.5 290.407L466.417 312.277L404.399 300.69L405.959 292.338L433.233 264.43L411.914 260.446L415.983 238.654L478 250.241Z" fill="#FFEB35"/>
<path d="M416.497 349.33C418.497 350.502 420.042 350.156 421.134 348.292C422.181 346.036 421.891 344.003 420.264 342.195C419.496 341.317 418.515 340.438 417.322 339.555C416.139 338.709 414.905 337.742 413.62 336.653L410.917 345.099L415.753 348.803L416.497 349.33ZM403.683 335.639C403.683 335.639 404.049 335.014 404.781 333.764C405.127 333.173 405.483 332.618 405.848 332.099C403.143 330.514 400.821 331.092 398.88 333.833C398.346 334.588 397.86 335.341 397.42 336.091C396.289 338.024 395.314 340.704 394.497 344.133C393.666 347.585 393.571 351.056 394.213 354.546L382.374 350.448C380.957 342.809 383.25 333.864 389.254 323.612C392.701 317.725 397.379 313.672 403.286 311.455C409.725 309.06 416.262 309.807 422.898 313.695C427.897 316.625 431.627 320.55 434.086 325.472C436.311 330.012 437.162 334.892 436.638 340.111C436.115 345.331 434.456 350.328 431.66 355.101C428.039 361.284 423.952 365.163 419.397 366.738C414.829 368.336 410.563 367.959 406.6 365.606C402.623 363.275 400.201 359.307 399.333 353.699C398.466 348.092 399.916 342.072 403.683 335.639Z" fill="#FFEB35"/>
<path d="M357.86 409.003L363.777 424.775L349.759 436.029L331.827 387.037L336.941 382.931L360.78 390.04L359.771 364.603L364.886 360.497L409.529 388.044L392.276 401.896L377.88 392.476L378.658 412.828L376.686 414.411L357.86 409.003Z" fill="#FFEB35"/>
<path d="M293.238 440.805C299.207 440.145 303.445 439.371 305.952 438.483C306.672 438.228 307.174 437.869 307.457 437.405C307.715 436.951 307.774 436.525 307.633 436.127C307.343 435.308 306.031 434.836 303.696 434.713C301.345 434.623 299.173 434.484 297.179 434.295C295.184 434.107 293.364 433.662 291.719 432.959C288.159 431.425 285.509 428.199 283.769 423.282C282.038 418.389 282.482 413.998 285.1 410.109C287.719 406.219 292.058 403.202 298.116 401.057C304.173 398.913 309.212 397.757 313.233 397.592C314.989 397.501 316.403 397.629 317.476 397.976L322.366 411.796C322.009 411.895 321.344 411.948 320.37 411.958C319.395 411.968 317.788 412.006 315.549 412.072C313.318 412.163 311.383 412.499 309.745 413.079C308.081 413.668 307.465 414.571 307.895 415.788C308.229 416.731 309.299 417.387 311.105 417.753C311.916 417.913 312.819 418.055 313.812 418.178C317.919 418.652 321.125 419.739 323.431 421.438C325.72 423.17 327.401 425.552 328.473 428.582C330.38 433.971 329.618 438.767 326.189 442.972C323.305 446.508 318.897 449.326 312.963 451.427C308.817 452.895 304.513 453.958 300.052 454.615C299.097 454.757 298.482 454.835 298.207 454.849L293.238 440.805Z" fill="#FFEB35"/>
<path d="M223.564 477.854L217.292 476.582L188.41 445.649L183.53 469.738L161.732 465.32L174.261 403.469L182.586 405.156L210.066 432.862L214.373 411.6L236.094 416.003L223.564 477.854Z" fill="#FFEB35"/>
<path d="M125.668 414.907C124.467 416.89 124.79 418.441 126.637 419.56C128.878 420.64 130.913 420.38 132.745 418.779C133.633 418.024 134.527 417.056 135.427 415.876C136.29 414.705 137.275 413.485 138.382 412.215L129.98 409.388L126.206 414.17L125.668 414.907ZM139.542 402.292C139.542 402.292 140.161 402.667 141.4 403.418C141.986 403.773 142.536 404.137 143.049 404.509C144.673 401.828 144.129 399.496 141.418 397.515C140.671 396.97 139.925 396.472 139.182 396.022C137.267 394.861 134.602 393.847 131.187 392.979C127.749 392.097 124.28 391.951 120.782 392.542L125.052 380.761C132.709 379.456 141.617 381.881 151.777 388.037C157.611 391.572 161.593 396.31 163.723 402.251C166.021 408.726 165.179 415.254 161.194 421.833C158.193 426.79 154.214 430.463 149.258 432.85C144.687 435.009 139.796 435.788 134.587 435.187C129.377 434.587 124.407 432.854 119.676 429.988C113.549 426.275 109.732 422.13 108.224 417.551C106.694 412.959 107.134 408.698 109.545 404.768C111.933 400.825 115.935 398.461 121.553 397.676C127.171 396.89 133.167 398.429 139.542 402.292Z" fill="#FFEB35"/>
<path d="M66.902 355.404L51.0509 361.092L40.0057 346.907L89.2394 329.686L93.2691 334.861L85.8153 358.6L111.257 357.963L115.287 363.138L87.0996 407.388L73.5055 389.93L83.1314 375.668L62.7758 376.15L61.2222 374.155L66.902 355.404Z" fill="#FFEB35"/>
<path d="M36.1691 290.799C36.7615 296.777 37.4873 301.025 38.3464 303.543C38.5931 304.266 38.9465 304.771 39.4067 305.06C39.8583 305.323 40.2835 305.387 40.6823 305.251C41.5048 304.97 41.9911 303.663 42.141 301.329C42.2574 298.979 42.421 296.807 42.6317 294.815C42.8423 292.822 43.3082 291.007 44.0295 289.369C45.6032 285.825 48.8577 283.211 53.7929 281.526C58.7031 279.85 63.0875 280.343 66.946 283.007C70.8045 285.67 73.7716 290.043 75.8472 296.127C77.9228 302.21 79.0208 307.264 79.1412 311.287C79.212 313.044 79.068 314.457 78.7092 315.526L64.8384 320.261C64.7442 319.904 64.6978 319.238 64.6992 318.263C64.7005 317.288 64.6807 315.68 64.6397 313.44C64.5738 311.207 64.2602 309.269 63.6987 307.623C63.1288 305.953 62.2331 305.326 61.0118 305.743C60.0647 306.066 59.3976 307.129 59.0107 308.931C58.8416 309.74 58.6898 310.641 58.5553 311.634C58.0349 315.736 56.9125 318.931 55.1882 321.218C53.4304 323.488 51.0311 325.142 47.9902 326.18C42.5815 328.027 37.795 327.211 33.6309 323.733C30.1286 320.809 27.3609 316.368 25.3279 310.409C23.9073 306.245 22.8937 301.929 22.2871 297.459C22.1553 296.502 22.0843 295.886 22.074 295.611L36.1691 290.799Z" fill="#FFEB35"/>
<path d="M0 220.147L1.36751 213.894L32.7346 185.476L8.72846 180.231L13.481 158.497L75.1174 171.964L73.3025 180.264L45.1833 207.328L66.372 211.958L61.6364 233.615L0 220.147Z" fill="#FFEB35"/>
<path d="M64.3679 123.125C62.4034 121.895 60.8483 122.196 59.7023 124.027C58.5897 126.252 58.8199 128.292 60.3931 130.147C61.135 131.047 62.0891 131.955 63.2554 132.872C64.4133 133.752 65.6186 134.756 66.8712 135.882L69.8211 127.519L65.0961 123.675L64.3679 123.125ZM76.7738 137.188C76.7738 137.188 76.3895 137.802 75.6209 139.03C75.2576 139.61 74.8859 140.155 74.5059 140.663C77.1624 142.326 79.5008 141.817 81.5211 139.135C82.0772 138.395 82.5858 137.657 83.0469 136.92C84.2348 135.022 85.2877 132.371 86.2059 128.968C87.138 125.542 87.3345 122.075 86.7954 118.567L98.5089 123.012C99.701 130.689 97.1458 139.563 90.8433 149.634C87.2239 155.418 82.4292 159.331 76.4591 161.373C69.9529 163.577 63.4405 162.639 56.9221 158.557C52.0109 155.482 48.3986 151.448 46.0851 146.456C43.9946 141.853 43.2877 136.95 43.9642 131.748C44.6408 126.546 46.4464 121.6 49.381 116.911C53.1821 110.837 57.3821 107.08 61.981 105.64C66.5939 104.177 70.8467 104.68 74.7394 107.148C78.646 109.595 80.9504 113.633 81.6526 119.263C82.3549 124.893 80.7286 130.868 76.7738 137.188Z" fill="#FFEB35"/>
<path d="M124.695 65.1956L119.241 49.2585L133.581 38.4182L150.077 87.9123L144.846 91.8672L121.225 84.0657L121.491 109.522L116.259 113.477L72.4375 84.6387L90.0873 71.2967L104.203 81.1324L104.018 60.766L106.035 59.2412L124.695 65.1956Z" fill="#FFEB35"/>
<path d="M189.015 35.6276C183.031 36.1299 178.774 36.7918 176.244 37.6132C175.518 37.849 175.007 38.1948 174.712 38.6507C174.442 39.0984 174.372 39.5228 174.502 39.9237C174.77 40.7506 176.069 41.2566 178.4 41.4417C180.748 41.5937 182.916 41.79 184.904 42.0307C186.893 42.2714 188.7 42.7648 190.327 43.5109C193.845 45.1384 196.409 48.4329 198.019 53.3943C199.621 58.3307 199.061 62.7084 196.341 66.5275C193.62 70.3465 189.204 73.2482 183.092 75.2325C176.979 77.2167 171.912 78.2387 167.888 78.2984C166.131 78.3428 164.72 78.1775 163.657 77.8025L159.133 63.8578C159.492 63.769 160.158 63.7326 161.133 63.7487C162.107 63.7648 163.714 63.7692 165.955 63.762C168.187 63.7297 170.13 63.4452 171.783 62.9085C173.462 62.3636 174.102 61.4773 173.703 60.2494C173.394 59.2972 172.342 58.6141 170.546 58.1999C169.74 58.0186 168.842 57.8531 167.852 57.7037C163.759 57.1213 160.582 55.9506 158.323 54.1914C156.08 52.3991 154.462 49.9744 153.471 46.9174C151.706 41.4798 152.594 36.7048 156.133 32.5923C159.109 29.1335 163.59 26.4323 169.577 24.4887C173.76 23.1306 178.091 22.1819 182.567 21.6426C183.526 21.5253 184.143 21.4635 184.418 21.4574L189.015 35.6276Z" fill="#FFEB35"/>
<path d="M259.449 0L265.685 1.43896L293.733 33.1358L299.252 9.18448L320.924 14.1853L306.754 75.681L298.478 73.7712L271.745 45.3384L266.874 66.4787L245.279 61.4956L259.449 0Z" fill="#FFEB35"/>
<path d="M356.963 66.046C358.221 64.0992 357.944 62.5393 356.13 61.3663C353.923 60.2207 351.88 60.4211 350.002 61.9673C349.092 62.6962 348.17 63.6371 347.237 64.7902C346.34 65.9354 345.319 67.1262 344.175 68.3625L352.491 71.4357L356.403 66.7663L356.963 66.046ZM342.724 78.2478C342.724 78.2478 342.116 77.8544 340.9 77.0676C340.325 76.6957 339.786 76.3159 339.284 75.9284C337.582 78.5609 338.057 80.9072 340.708 82.9673C341.44 83.5344 342.17 84.0539 342.9 84.526C344.78 85.7419 347.414 86.834 350.802 87.8022C354.213 88.7848 357.676 89.0322 361.19 88.5445L356.575 100.195C348.884 101.275 340.05 98.5887 330.076 92.1372C324.348 88.4322 320.507 83.5792 318.553 77.578C316.445 71.0382 317.479 64.5384 321.655 58.0787C324.801 53.2118 328.886 49.658 333.91 47.4173C338.542 45.394 343.453 44.7589 348.643 45.5119C353.833 46.265 358.75 48.1435 363.395 51.1475C369.41 55.0384 373.104 59.2944 374.477 63.9153C375.871 68.5506 375.306 72.7967 372.781 76.6538C370.279 80.5253 366.208 82.7708 360.57 83.3906C354.932 84.0103 348.983 82.296 342.724 78.2478Z" fill="#FFEB35"/>
<path d="M413.993 127.232L430.003 122.009L440.63 136.511L390.915 152.287L387.038 146.997L395.181 123.485L369.731 123.38L365.854 118.089L395.32 74.6807L408.399 92.5285L398.361 106.503L418.722 106.616L420.217 108.655L413.993 127.232Z" fill="#FFEB35"/>
<path d="M442.743 192.49C442.331 186.498 441.733 182.23 440.951 179.687C440.726 178.957 440.388 178.441 439.937 178.139C439.493 177.862 439.07 177.785 438.667 177.909C437.837 178.165 437.311 179.457 437.091 181.785C436.904 184.131 436.675 186.296 436.404 188.282C436.133 190.267 435.613 192.068 434.843 193.683C433.163 197.178 429.831 199.692 424.847 201.227C419.889 202.755 415.521 202.129 411.745 199.351C407.968 196.572 405.134 192.111 403.243 185.968C401.352 179.824 400.407 174.74 400.408 170.715C400.39 168.957 400.577 167.548 400.968 166.491L414.975 162.176C415.058 162.536 415.085 163.204 415.054 164.178C415.023 165.152 414.994 166.76 414.968 169.001C414.966 171.234 415.221 173.182 415.733 174.843C416.252 176.53 417.129 177.184 418.362 176.804C419.318 176.509 420.017 175.467 420.458 173.677C420.652 172.873 420.831 171.978 420.995 170.99C421.639 166.905 422.857 163.745 424.65 161.512C426.475 159.296 428.923 157.715 431.994 156.769C437.456 155.086 442.216 156.046 446.273 159.648C449.686 162.676 452.318 167.199 454.17 173.217C455.465 177.421 456.348 181.767 456.819 186.252C456.922 187.213 456.974 187.831 456.976 188.106L442.743 192.49Z" fill="#FFEB35"/>
</svg>
