<svg width="12" height="7" viewBox="0 0 12 7" fill="none" xmlns="http://www.w3.org/2000/svg">
<path d="M6 6.99998C5.8565 6.99998 5.71731 6.97327 5.58242 6.91983C5.44753 6.86639 5.33561 6.79515 5.24664 6.70609L0.295964 1.79007C0.0986543 1.59414 0 1.34478 0 1.04198C0 0.739183 0.0986543 0.48982 0.295964 0.293892C0.493273 0.0979637 0.744394 0 1.04933 0C1.35426 0 1.60538 0.0979637 1.80269 0.293892L6 4.46182L10.1973 0.293892C10.3946 0.0979637 10.6457 0 10.9507 0C11.2556 0 11.5067 0.0979637 11.704 0.293892C11.9013 0.48982 12 0.739183 12 1.04198C12 1.34478 11.9013 1.59414 11.704 1.79007L6.75336 6.70609C6.64574 6.81296 6.52915 6.88884 6.40359 6.93372C6.27803 6.97861 6.1435 7.0007 6 6.99998Z" fill="#333333"/>
</svg>
