<svg width="25" height="25" viewBox="0 0 25 25" fill="none" xmlns="http://www.w3.org/2000/svg">
<mask id="mask0_725_24807" style="mask-type:alpha" maskUnits="userSpaceOnUse" x="0" y="0" width="25" height="25">
<rect width="25" height="25" fill="#D9D9D9"/>
</mask>
<g mask="url(#mask0_725_24807)">
<path d="M5.764 11.5792C5.70042 11.644 5.62456 11.6955 5.54085 11.7306C5.45715 11.7657 5.36728 11.7838 5.2765 11.7838C5.18572 11.7838 5.09585 11.7657 5.01215 11.7306C4.92844 11.6955 4.85258 11.644 4.789 11.5792C4.65959 11.4475 4.58707 11.2703 4.58707 11.0857C4.58707 10.9011 4.65959 10.7239 4.789 10.5922L10.82 4.50021C12.18 3.44421 13.548 2.93721 14.91 3.00621C16.626 3.09421 17.962 3.74821 19.096 4.82121C20.252 5.91521 21 7.4762 21 9.36821C21 10.8202 20.578 12.0982 19.687 13.2322L11.184 21.9922C10.324 22.6972 9.368 23.0382 8.344 22.9972C7.044 22.9432 6.077 22.5232 5.358 21.8122C4.516 20.9812 4 19.9602 4 18.5872C4 17.4952 4.377 16.4872 5.155 15.5412L12.639 7.90021C13.239 7.26021 13.826 6.88021 14.426 6.78821C14.8265 6.72513 15.2363 6.76095 15.6197 6.89254C16.0032 7.02414 16.3487 7.24751 16.626 7.54321C17.158 8.10621 17.386 8.8082 17.306 9.6072C17.251 10.1522 17.028 10.6542 16.618 11.1352L9.738 18.1832C9.67483 18.2482 9.59935 18.3001 9.51596 18.3356C9.43256 18.3712 9.34292 18.3898 9.25226 18.3903C9.1616 18.3909 9.07173 18.3734 8.9879 18.3389C8.90408 18.3043 8.82796 18.2535 8.764 18.1892C8.63378 18.0583 8.56019 17.8815 8.55906 17.6969C8.55794 17.5123 8.62938 17.3347 8.758 17.2022L15.605 10.1902C15.805 9.9552 15.91 9.7182 15.935 9.46621C15.975 9.06621 15.879 8.7712 15.63 8.5082C15.5042 8.37351 15.3471 8.27199 15.1727 8.21267C14.9982 8.15335 14.8118 8.13808 14.63 8.16821C14.387 8.20521 14.047 8.42621 13.628 8.87221L6.175 16.4792C5.638 17.1342 5.378 17.8292 5.378 18.5882C5.378 19.5422 5.723 20.2252 6.32 20.8142C6.795 21.2842 7.44 21.5642 8.4 21.6042C9.08 21.6312 9.71 21.4062 10.258 20.9622L18.655 12.3122C19.3 11.4852 19.622 10.5122 19.622 9.3692C19.622 7.88721 19.045 6.6852 18.154 5.84121C17.244 4.97921 16.204 4.47121 14.841 4.40121C13.833 4.34921 12.776 4.7412 11.724 5.5472L5.764 11.5792Z" fill="#333333"/>
</g>
</svg>
