<svg width="25" height="25" viewBox="0 0 25 25" fill="none" xmlns="http://www.w3.org/2000/svg">
<path d="M5.03571 7.07249H3.67857C3.4986 7.07249 3.32601 7.00101 3.19875 6.87376C3.07149 6.74651 3 6.57393 3 6.39397C3 6.21402 3.07149 6.04143 3.19875 5.91418C3.32601 5.78694 3.4986 5.71545 3.67857 5.71545H9.10714V3.67852C9.10714 3.49857 9.17864 3.32598 9.30589 3.19873C9.43315 3.07149 9.60575 3 9.78571 3H15.2143C15.3943 3 15.5669 3.07149 15.6941 3.19873C15.8214 3.32598 15.8929 3.49857 15.8929 3.67852V5.71545H21.3214C21.5014 5.71545 21.674 5.78694 21.8013 5.91418C21.9285 6.04143 22 6.21402 22 6.39397C22 6.57393 21.9285 6.74651 21.8013 6.87376C21.674 7.00101 21.5014 7.07249 21.3214 7.07249H19.9643V21.3215C19.9643 21.5014 19.8928 21.674 19.7655 21.8013C19.6383 21.9285 19.4657 22 19.2857 22H5.71429C5.53432 22 5.36172 21.9285 5.23446 21.8013C5.10721 21.674 5.03571 21.5014 5.03571 21.3215V7.07249ZM14.5357 5.71545V4.3584H10.4643V5.71545H14.5357ZM6.39286 20.643H18.6071V7.07249H6.39286V20.643ZM10.4643 17.9289C10.2843 17.9289 10.1117 17.8574 9.98446 17.7301C9.85721 17.6029 9.78571 17.4303 9.78571 17.2503V10.4651C9.78571 10.2852 9.85721 10.1126 9.98446 9.98532C10.1117 9.85807 10.2843 9.78659 10.4643 9.78659C10.6443 9.78659 10.8169 9.85807 10.9441 9.98532C11.0714 10.1126 11.1429 10.2852 11.1429 10.4651V17.2503C11.1429 17.4303 11.0714 17.6029 10.9441 17.7301C10.8169 17.8574 10.6443 17.9289 10.4643 17.9289ZM14.5357 17.9289C14.3557 17.9289 14.1831 17.8574 14.0559 17.7301C13.9286 17.6029 13.8571 17.4303 13.8571 17.2503V10.4651C13.8571 10.2852 13.9286 10.1126 14.0559 9.98532C14.1831 9.85807 14.3557 9.78659 14.5357 9.78659C14.7157 9.78659 14.8883 9.85807 15.0155 9.98532C15.1428 10.1126 15.2143 10.2852 15.2143 10.4651V17.2503C15.2143 17.4303 15.1428 17.6029 15.0155 17.7301C14.8883 17.8574 14.7157 17.9289 14.5357 17.9289Z" fill="#333333"/>
</svg>
