<svg width="24" height="24" viewBox="0 0 24 24" fill="none" xmlns="http://www.w3.org/2000/svg">
<g clip-path="url(#clip0_18_8972)">
<path d="M15.7369 6.06708V3.27588H8.26326V6.05748H3.20166V9.82788C3.20207 10.3614 3.32498 10.8877 3.56091 11.3662C3.79684 11.8447 4.13949 12.2627 4.56246 12.5879V20.7047H19.4425V12.5975C19.8298 12.2984 20.1498 11.9212 20.3818 11.4904C20.6138 11.0595 20.7525 10.5847 20.7889 10.0967H20.8033V6.06708H15.7369ZM9.94326 4.95588H14.0569V6.05748H9.94326V4.95588ZM13.0969 19.0247H10.9033V17.3159H13.0969V19.0247ZM17.7577 19.0247H14.7769V15.6455H9.22326V19.0343H6.24246V13.2983C6.81927 13.3757 7.40629 13.3064 7.94916 13.0966C8.49203 12.8868 8.97319 12.5434 9.34806 12.0983C9.67475 12.4828 10.0811 12.7916 10.5391 13.0035C10.997 13.2153 11.4955 13.325 12.0001 13.325C12.5046 13.325 13.0031 13.2153 13.461 13.0035C13.919 12.7916 14.3254 12.4828 14.6521 12.0983C14.979 12.4825 15.3854 12.7911 15.8433 13.0028C16.3012 13.2146 16.7996 13.3244 17.3041 13.3247C17.4558 13.324 17.6073 13.3136 17.7577 13.2935V19.0247ZM17.3041 11.6399C16.8237 11.6392 16.3632 11.4481 16.0235 11.1085C15.6838 10.7688 15.4927 10.3083 15.4921 9.82788H13.8121C13.8121 10.3085 13.6212 10.7693 13.2813 11.1092C12.9415 11.449 12.4806 11.6399 12.0001 11.6399C11.5195 11.6399 11.0586 11.449 10.7188 11.1092C10.379 10.7693 10.1881 10.3085 10.1881 9.82788H8.50806C8.49098 10.2974 8.29246 10.7419 7.95429 11.068C7.61612 11.3941 7.16464 11.5763 6.69486 11.5763C6.22507 11.5763 5.7736 11.3941 5.43543 11.068C5.09726 10.7419 4.89874 10.2974 4.88166 9.82788V7.73748H19.1185V9.82788C19.1194 10.0668 19.0732 10.3035 18.9824 10.5244C18.8917 10.7454 18.7582 10.9463 18.5896 11.1155C18.421 11.2848 18.2207 11.419 18.0001 11.5107C17.7795 11.6023 17.5429 11.6495 17.3041 11.6495V11.6399Z" fill="#1E22B0"/>
</g>
<defs>
<clipPath id="clip0_18_8972">
<rect width="24" height="24" fill="white"/>
</clipPath>
</defs>
</svg>
