<svg width="80" height="80" viewBox="0 0 80 80" fill="none" xmlns="http://www.w3.org/2000/svg">
<circle cx="40" cy="40" r="40" fill="#1E22B0"/>
<path d="M26.8066 50.6426H35.666V53.6777H33.0586V60H29.4141V53.6777H26.8066V50.6426Z" fill="white"/>
<path d="M41.332 54.791C41.2539 54.752 41.1523 54.7324 41.0273 54.7324C40.9062 54.7324 40.7715 54.7695 40.623 54.8438C40.4746 54.9141 40.3281 55.0117 40.1836 55.1367C39.8789 55.4023 39.623 55.7246 39.416 56.1035C39.209 56.4824 39.1055 56.832 39.1055 57.1523C39.1055 57.4688 39.2266 57.6816 39.4688 57.791C39.5547 57.8301 39.6602 57.8496 39.7852 57.8496C39.9102 57.8496 40.041 57.8125 40.1777 57.7383C40.3145 57.6602 40.4512 57.5566 40.5879 57.4277C40.873 57.1582 41.123 56.832 41.3379 56.4492C41.5527 56.0625 41.6602 55.7168 41.6602 55.4121C41.6602 55.1074 41.5508 54.9004 41.332 54.791ZM40.1953 60.2168C39.0781 60.2168 38.1152 59.8633 37.3066 59.1562C36.4434 58.4062 36.0117 57.4629 36.0117 56.3262C36.0117 55.1855 36.416 54.2539 37.2246 53.5312C38.0332 52.8047 39.0312 52.4414 40.2188 52.4414C41.4062 52.4414 42.4043 52.7969 43.2129 53.5078C44.0215 54.2148 44.4277 55.1621 44.4316 56.3496C44.4355 57.1113 44.2422 57.7852 43.8516 58.3711C43.4609 58.957 42.9395 59.4102 42.2871 59.7305C41.6348 60.0508 40.9375 60.2129 40.1953 60.2168Z" fill="white"/>
<path d="M54.0762 55.3828C54.0723 56.5 53.7031 57.4961 52.9688 58.3711C52.4219 59.0234 51.6777 59.4883 50.7363 59.7656C50.248 59.9102 49.6934 59.9883 49.0723 60V61.8984H45.5918V52.7168H47.5137L48.3281 53.8418C49.2031 52.9082 50.123 52.4414 51.0879 52.4414C52.0527 52.4414 52.791 52.7188 53.3027 53.2734C53.8184 53.8281 54.0762 54.5312 54.0762 55.3828ZM50.8242 54.9082C50.7422 54.877 50.6406 54.8613 50.5195 54.8613C50.2734 54.8613 50.0078 55.0039 49.7227 55.2891C49.4414 55.5703 49.2246 55.8926 49.0723 56.2559V57.9375C49.1387 57.8906 49.2363 57.8281 49.3652 57.75C49.498 57.668 49.6426 57.5703 49.7988 57.457C50.7207 56.8008 51.1816 56.1328 51.1816 55.4531C51.1816 55.1797 51.0625 54.998 50.8242 54.9082Z" fill="white"/>
<path d="M48 26.2322L43.0024 20L38.0042 26.2322H42.0106V37.5258C42.0106 38.1648 41.7668 38.7775 41.3327 39.2293C40.8987 39.6811 40.31 39.935 39.6963 39.935H37.298C36.6842 39.935 36.0955 39.6811 35.6615 39.2293C35.2275 38.7775 34.9837 38.1648 34.9837 37.5258V32.4211H33V37.5258C33.0014 38.712 33.4547 39.8492 34.2604 40.6879C35.0661 41.5267 36.1585 41.9985 37.298 42H39.6963C40.8357 41.9985 41.9281 41.5267 42.7339 40.6879C43.5396 39.8492 43.9929 38.712 43.9943 37.5258V26.2322H48Z" fill="#FFEB35"/>
</svg>
