<svg width="232" height="44" viewBox="0 0 232 44" fill="none" xmlns="http://www.w3.org/2000/svg">
<g clip-path="url(#clip0_1_27757)">
<path d="M45.537 8.03809V23.1559C45.537 24.2372 45.6798 25.3134 45.9654 26.3539C46.2307 27.3077 46.6795 28.1849 47.3017 28.9551C47.924 29.7202 48.6891 30.3424 49.5715 30.8015C51.1169 31.587 52.7746 31.9287 54.5087 31.8165C56.2327 31.6839 57.8342 31.1177 59.2573 30.1282C60.8129 29.001 61.8279 27.4811 62.2665 25.6041C62.7052 23.5945 62.644 21.5645 62.0829 19.5804C61.6443 18.1115 60.7976 16.9027 59.5633 15.9897C58.2525 15.0461 56.7631 14.5157 55.1463 14.4188C53.7079 14.3423 52.2645 14.429 50.8466 14.6687L50.3263 14.7554V8.03809H45.537ZM52.3053 25.0124L52.2951 25.0023C51.7137 24.4055 51.4127 23.6761 51.4025 22.8448C51.4127 21.9981 51.7137 21.2738 52.2951 20.6719C52.9021 20.0803 53.6314 19.7794 54.4628 19.7692C55.3044 19.7845 56.0338 20.0854 56.6356 20.6617C57.2222 21.2687 57.5282 21.9981 57.5384 22.8294C57.5282 23.6761 57.2273 24.4004 56.6458 25.0023C56.0389 25.5888 55.3146 25.8948 54.4781 25.905C53.6365 25.8948 52.9072 25.5939 52.3104 25.0124H52.3053Z" fill="#1E22B0"/>
<path d="M68.7543 15.9032C67.3721 17.1018 66.403 18.5962 65.8777 20.3508C65.6278 21.2179 65.5002 22.1155 65.5002 22.9928C65.5002 23.8701 65.6278 24.7678 65.8828 25.6451C66.4081 27.3945 67.3772 28.889 68.7594 30.0876C70.2794 31.3576 72.0594 31.9492 74.0435 31.8472C75.8491 31.7044 77.4149 30.9955 78.7105 29.7458C78.4248 29.5112 75.742 27.3078 75.6451 27.2313H73.1254C72.7684 27.2313 72.4369 27.1293 72.1411 26.9304C71.8452 26.7264 71.631 26.4509 71.4984 26.1245C71.3097 25.6298 71.2128 25.1146 71.2128 24.5842V23.5386H81.883C81.8881 23.3958 81.8983 23.1407 81.8983 23.1407C81.8983 21.9013 81.6585 20.6874 81.1893 19.5245C80.6078 18.1168 79.7255 16.8978 78.5728 15.9032C77.1599 14.7148 75.5074 14.1027 73.661 14.0874C71.8197 14.1027 70.1723 14.7199 68.7543 15.9032ZM71.2077 21.3148V18.4381H74.2068C74.8035 18.4483 75.3238 18.6574 75.7522 19.0604C76.1806 19.4786 76.4102 19.9937 76.4357 20.5854C76.4357 20.5956 76.4357 21.4984 76.4357 21.4984H71.2077V21.3148Z" fill="#1E22B0"/>
<path d="M89.6663 14.3525C88.2432 14.8065 86.9936 15.5817 85.9429 16.6477C84.3618 18.3054 83.4998 20.315 83.3927 22.6102V22.8805C83.3927 24.2526 83.7242 25.5634 84.3822 26.7824C85.0912 28.0728 86.101 29.1133 87.3609 29.8733C88.6309 30.6179 90.0233 31.0005 91.5024 31.0056H99.2807V31.5156H101.897V23.156H101.066V22.7071C101.076 20.621 100.423 18.7389 99.1175 17.1119C97.7862 15.5154 96.0725 14.4954 94.0272 14.0873C92.5633 13.817 91.0944 13.9037 89.6714 14.3525H89.6663ZM90.5997 24.7677L90.5895 24.7575C90.0233 24.176 89.7326 23.4671 89.7224 22.6561C89.7326 21.8349 90.0233 21.126 90.5895 20.5445C91.1811 19.9733 91.8901 19.6774 92.7011 19.6672C93.5222 19.6774 94.2312 19.9733 94.8178 20.5394C95.389 21.126 95.6848 21.8349 95.695 22.651C95.6848 23.4722 95.389 24.1862 94.8229 24.7677C94.2363 25.339 93.5273 25.6348 92.7113 25.645C91.8901 25.6297 91.176 25.339 90.5946 24.7728L90.5997 24.7677Z" fill="#1E22B0"/>
<path d="M112.68 13.2661C111.501 13.2865 110.384 13.5925 109.359 14.1791C108.344 14.7759 107.528 15.597 106.931 16.6171C106.049 18.1626 105.595 19.8457 105.585 21.6258V30.623H111.588V21.7533C111.598 21.1259 111.823 20.5802 112.256 20.1364C112.71 19.6927 113.256 19.4683 113.878 19.4581H114.138V13.2661H112.674H112.68Z" fill="#1E22B0"/>
<path d="M128.996 7.39551V14.1128L128.476 14.021C127.053 13.7813 125.609 13.6946 124.176 13.7762C122.559 13.8731 121.07 14.4036 119.754 15.3522C118.525 16.2652 117.678 17.474 117.239 18.943C116.678 20.9271 116.617 22.957 117.056 24.9768C117.494 26.8436 118.509 28.3635 120.07 29.4958C121.488 30.4853 123.085 31.0515 124.819 31.179C126.548 31.2912 128.205 30.9444 129.756 30.1589C130.633 29.705 131.398 29.0827 132.021 28.3176C132.643 27.5475 133.092 26.6753 133.357 25.7164C133.643 24.6759 133.785 23.5997 133.785 22.5184V7.39551H128.996ZM122.687 24.375L122.677 24.3648C122.095 23.768 121.794 23.0387 121.784 22.2073C121.799 21.3606 122.1 20.6312 122.677 20.0345C123.283 19.4479 124.013 19.1419 124.844 19.1317C125.686 19.1419 126.415 19.4428 127.017 20.0243C127.604 20.6261 127.904 21.3555 127.92 22.192C127.904 23.0336 127.604 23.7629 127.022 24.3648C126.415 24.9513 125.686 25.2574 124.854 25.2676C124.013 25.2574 123.283 24.9564 122.682 24.375H122.687Z" fill="#1E22B0"/>
<path d="M150.336 14.8779C149.459 15.3318 148.694 15.9541 148.072 16.7191C147.45 17.4893 147.001 18.3666 146.735 19.3204C146.45 20.3609 146.307 21.4371 146.307 22.5235V37.6464H151.096V30.924L151.617 31.0158C153.029 31.2606 154.478 31.3422 155.916 31.2657C157.533 31.1688 159.022 30.6383 160.338 29.6896C161.568 28.7818 162.409 27.5678 162.853 26.0989C163.414 24.1148 163.48 22.0848 163.037 20.0702C162.598 18.2034 161.583 16.6783 160.022 15.5511C158.604 14.5667 157.008 13.9955 155.279 13.868C153.55 13.7558 151.892 14.0975 150.341 14.8881L150.336 14.8779ZM153.075 25.0125L153.065 25.0023C152.484 24.4056 152.183 23.6762 152.173 22.8448C152.183 21.9981 152.484 21.2739 153.065 20.672C153.672 20.0804 154.401 19.7794 155.233 19.7692C156.074 19.7845 156.804 20.0855 157.401 20.6618C157.992 21.2688 158.293 21.9981 158.308 22.8295C158.298 23.6762 157.992 24.4005 157.416 25.0023C156.809 25.5889 156.085 25.8949 155.248 25.9051C154.401 25.8949 153.677 25.594 153.075 25.0125Z" fill="#1E22B0"/>
<path d="M171.054 14.3523C169.631 14.8063 168.377 15.5815 167.331 16.6475C165.75 18.3052 164.888 20.3148 164.781 22.61V22.8803C164.781 24.2574 165.112 25.5683 165.765 26.7873C166.479 28.0777 167.484 29.1182 168.749 29.8782C170.019 30.6228 171.411 31.0054 172.891 31.0105H180.674V31.5205H183.29V23.1608H182.459V22.712C182.469 20.6259 181.816 18.7438 180.511 17.1168C179.18 15.5203 177.466 14.5002 175.42 14.0922C173.952 13.8219 172.488 13.9086 171.065 14.3574L171.054 14.3523ZM171.983 24.7675V24.7573C171.406 24.1758 171.116 23.4669 171.105 22.6559C171.116 21.8347 171.406 21.1257 171.978 20.5443C172.564 19.973 173.273 19.6772 174.084 19.667C174.905 19.6772 175.614 19.973 176.196 20.5392C176.767 21.1257 177.068 21.8347 177.078 22.6508C177.068 23.4771 176.772 24.186 176.206 24.7675C175.614 25.3387 174.905 25.6346 174.094 25.6448C173.273 25.6295 172.564 25.3387 171.983 24.7726V24.7675Z" fill="#1E22B0"/>
<path d="M190.038 14.8781C189.161 15.332 188.396 15.9543 187.769 16.7194C187.146 17.4895 186.698 18.3617 186.437 19.3206C186.152 20.3662 186.004 21.4424 186.004 22.5186V37.6415H190.793V30.9242L191.313 31.0109C192.726 31.2557 194.18 31.3373 195.618 31.2608C197.235 31.1639 198.724 30.6334 200.04 29.6848C201.27 28.7718 202.116 27.563 202.555 26.094C203.121 24.1099 203.177 22.08 202.739 20.0653C202.3 18.1985 201.285 16.6735 199.724 15.5463C198.306 14.5619 196.71 13.9906 194.981 13.8631C193.257 13.7509 191.594 14.0926 190.049 14.8832L190.038 14.8781ZM192.772 25.0127L192.762 25.0025C192.181 24.4007 191.88 23.6764 191.869 22.845C191.88 22.0034 192.181 21.2741 192.762 20.6722C193.369 20.0806 194.098 19.7796 194.93 19.7694C195.771 19.7847 196.506 20.0857 197.103 20.662C197.694 21.269 197.995 21.9983 198.005 22.8297C197.995 23.6713 197.694 24.4007 197.113 25.0025C196.511 25.5891 195.782 25.8951 194.945 25.9053C194.103 25.8951 193.374 25.5942 192.772 25.0127Z" fill="#1E22B0"/>
<path d="M211.42 14.3525C209.997 14.8065 208.747 15.5817 207.696 16.6477C206.115 18.3054 205.253 20.315 205.146 22.6102V22.8754C205.141 24.2526 205.472 25.5634 206.13 26.7824C206.845 28.0728 207.844 29.1133 209.109 29.8733C210.379 30.6179 211.772 31.0005 213.251 31.0056H221.034V31.5156H223.651V23.156H222.819V22.7071C222.829 20.621 222.177 18.7389 220.871 17.1119C219.54 15.5154 217.826 14.4954 215.775 14.0873C214.312 13.817 212.843 13.9037 211.42 14.3525ZM212.353 24.7677V24.7575C211.782 24.176 211.486 23.4671 211.476 22.6561C211.486 21.8349 211.782 21.126 212.348 20.5445C212.94 19.9733 213.643 19.6774 214.46 19.6672C215.281 19.6774 215.99 19.9733 216.571 20.5394C217.147 21.126 217.443 21.8349 217.453 22.651C217.443 23.4773 217.147 24.1862 216.581 24.7677C215.995 25.339 215.286 25.6348 214.475 25.645C213.649 25.6297 212.94 25.339 212.358 24.7728L212.353 24.7677Z" fill="#1E22B0"/>
<path d="M228.435 33.9229H229.858C230.087 33.9229 230.271 33.9943 230.419 34.1422C230.567 34.2901 230.638 34.4941 230.638 34.7542C230.638 35.0144 230.567 35.2184 230.419 35.3663C230.342 35.4479 230.23 35.4989 230.082 35.5193L230.745 36.825H230.317L229.705 35.5703H228.822V36.825H228.435V33.9229ZM228.822 34.2442V35.2439H229.822C229.934 35.2439 230.031 35.2031 230.113 35.1266C230.189 35.045 230.23 34.9225 230.23 34.7542C230.23 34.5961 230.184 34.4737 230.098 34.3819C230.006 34.2901 229.899 34.2442 229.776 34.2442H228.827H228.822Z" fill="#1E22B0"/>
<path d="M226.991 35.2543C226.991 36.6366 228.113 37.7587 229.496 37.7587C230.878 37.7587 232 36.6366 232 35.2543C232 33.8721 230.878 32.75 229.496 32.75C228.113 32.75 226.991 33.8721 226.991 35.2543ZM227.302 35.2543C227.302 34.0455 228.287 33.0611 229.496 33.0611C230.704 33.0611 231.689 34.0455 231.689 35.2543C231.689 36.4631 230.704 37.4475 229.496 37.4475C228.287 37.4475 227.302 36.4631 227.302 35.2543Z" fill="#1E22B0"/>
<path d="M2.64204 15.9235C2.93787 15.4747 3.2796 15.0667 3.67233 14.6994C4.24359 14.1741 4.85564 13.7201 5.5238 13.3223C6.44699 12.7765 7.39568 12.3022 8.38517 11.8993C9.55828 11.4096 10.7824 11.0628 12.0371 10.8435C13.3071 10.619 14.5771 10.5068 15.8676 10.5068C17.7241 10.5221 19.5756 10.5986 21.422 10.7619C23.2887 10.9302 25.1198 11.3076 26.905 11.8942C28.175 12.3226 29.7102 12.9245 30.8119 13.7048C31.3781 14.118 31.8677 14.5923 32.286 15.1534C32.8266 15.8878 33.1123 16.709 33.25 17.6169C33.3214 18.081 33.3826 18.994 33.3826 18.994L32.9388 19.2643C32.9133 18.9838 32.8776 18.7033 32.8419 18.4279C32.7654 17.9229 32.6328 17.4282 32.4441 16.9538C32.1432 16.2092 31.6586 15.6226 30.9752 15.1993C30.1999 14.7402 29.3736 14.3883 28.5014 14.1486L28.3433 14.7351C29.1594 14.9595 29.9347 15.2962 30.6589 15.7297C31.2251 16.0714 31.6382 16.5611 31.8779 17.1783C32.0003 17.5047 32.1789 17.9535 32.1687 18.28C30.6844 17.1578 29.0166 16.4234 28.9299 16.3877L28.2719 16.0816C26.3388 15.1942 23.9722 14.5719 21.881 14.2047C21.0547 14.0568 20.2183 13.9752 19.3818 13.9599C18.0761 13.9395 16.7754 13.9956 15.4799 14.1486C13.2255 14.4087 10.9609 14.679 8.7065 14.9595C7.52319 15.1126 6.35518 15.3217 5.19737 15.6022C4.71793 15.7195 4.29969 15.949 3.95286 16.2908C3.56522 16.6733 3.2796 17.1272 3.10108 17.6373C2.90726 17.6832 2.71344 17.7342 2.52473 17.8107L2.51453 16.3367C2.51453 16.1888 2.55023 16.0459 2.63694 15.9184L2.64204 15.9235Z" fill="white"/>
<path d="M33.5101 27.7672C34.0151 28.2517 33.9947 28.5679 34.0559 29.0117C34.1375 29.7461 34.1069 30.2358 33.7295 31.0672C33.4132 31.7608 33.4999 31.5823 32.8216 32.4443C32.6584 32.6534 32.0769 33.0614 31.7505 33.3318C31.3986 33.6174 31.9596 34.5457 31.6383 34.7599C31.0568 35.1475 29.7868 34.8313 29.6338 35.4944C29.542 35.882 29.7715 36.4584 28.9554 37.1469C28.0424 37.7386 27.1856 37.3968 27.1295 38.0089C27.0785 38.621 27.0785 38.6822 27.0172 39.0239C27.007 39.1157 26.9611 39.2024 26.8948 39.2687C26.8336 39.3401 26.7469 39.3809 26.6551 39.3962C26.1247 39.488 25.5942 39.5645 25.0536 39.6003C24.8904 39.6105 24.7577 39.6768 24.6404 39.7941C24.5282 39.9165 24.4823 40.0542 24.4823 40.2174C24.4925 40.4265 24.4772 40.6254 24.4313 40.8193C24.416 40.8958 24.3752 40.9672 24.3191 41.0233C24.263 41.0743 24.1967 41.1049 24.11 41.1202C23.6254 41.1916 23.1613 41.1304 22.7022 40.9825C22.6002 40.9417 22.488 40.9366 22.3758 40.9519C22.2687 40.9723 22.1718 41.0182 22.0851 41.0947C21.9423 41.2273 21.7689 41.314 21.5699 41.3497C21.3812 41.3803 21.1925 41.3701 21.0089 41.3038C20.8814 41.2528 20.7539 41.2528 20.6264 41.2783C20.4937 41.3191 20.3866 41.3854 20.3101 41.4976C20.2336 41.5996 20.1877 41.722 20.1826 41.8547C20.1826 42.0281 20.1469 42.1862 20.0653 42.3341C19.9888 42.482 19.8868 42.6146 19.7542 42.7115C19.7185 42.7319 19.6777 42.7523 19.642 42.7574C19.6012 42.7574 19.5655 42.7523 19.5298 42.737C19.2696 42.6044 19.0452 42.4463 18.8412 42.2474C18.7239 42.1403 18.6015 42.0893 18.4485 42.074C18.2954 42.0638 18.1679 42.1097 18.0455 42.2015C17.5304 42.584 16.954 42.8391 16.3165 42.9411C15.684 43.0431 15.0515 42.9921 14.4497 42.7778C14.0672 42.6503 13.7203 42.4463 13.4449 42.1607C13.1491 41.8802 12.9399 41.5435 12.8022 41.161C12.7512 41.0386 12.6747 40.9417 12.5676 40.8601C12.4554 40.7887 12.333 40.753 12.2004 40.7632C11.4761 40.7938 10.8284 40.5897 10.2469 40.1664C9.67565 39.7278 9.29821 39.1616 9.1248 38.4577C9.08909 38.3149 9.01259 38.1925 8.88508 38.1058C8.76266 38.0191 8.61985 37.9834 8.47194 38.0038C7.97209 38.0446 7.51815 37.9273 7.11521 37.6366C6.92649 37.504 6.78368 37.3407 6.65617 37.1469C6.53886 36.9531 6.46235 36.7491 6.43175 36.5247C6.41135 36.4074 6.36034 36.3104 6.28894 36.2237C6.21753 36.137 6.12062 36.0707 6.00331 36.035C5.8911 36.0044 5.78399 36.0044 5.67178 36.035C5.43716 36.0962 5.20254 36.1319 4.95261 36.137C4.89651 36.137 4.8455 36.1115 4.7945 36.0758C4.75369 36.035 4.73329 35.9789 4.72309 35.9228C4.71799 35.7749 4.66189 35.6525 4.56498 35.5505C4.46807 35.4383 4.35076 35.3771 4.20794 35.3516C4.06513 35.3312 3.92742 35.3618 3.80501 35.4332C3.754 35.4638 3.6928 35.4944 3.63159 35.5097C3.64179 35.2087 3.6826 34.9078 3.7489 34.6171C3.81011 34.3264 3.7897 34.0509 3.67239 33.7755C3.50408 33.3828 2.72371 33.1278 2.47378 32.9186C1.86683 32.4035 1.86683 32.3423 1.70871 32.1281C1.46389 31.8016 1.30068 31.2712 1.26497 31.1437C1.13236 30.7101 0.979345 29.94 1.06095 29.3432C1.15786 28.6597 1.22927 28.1854 1.69341 27.6703C2.00454 27.3387 2.17286 26.9409 2.19326 26.4869C2.20346 26.0789 2.27486 25.6913 2.39728 25.2985C2.6217 25.2985 2.82572 25.222 2.99913 25.0843C3.17255 24.9466 3.28986 24.7681 3.35616 24.5539C3.54488 23.8347 3.63669 23.1053 3.63669 22.3556C3.89171 22.1413 4.12124 21.8965 4.32015 21.6211C4.29465 21.871 4.26915 22.126 4.21814 22.3709C4.10593 22.9982 4.07533 23.6358 4.12124 24.2835C4.52417 24.3498 4.93221 24.3957 5.34025 24.4009C5.39635 24.4111 5.45756 24.4315 5.49836 24.4672C5.54427 24.508 5.58507 24.559 5.58507 24.6304C5.61057 24.8854 5.63097 25.1404 5.63097 25.4056C5.9013 25.4413 6.17673 25.4617 6.44195 25.477C6.48275 25.477 6.51336 25.4822 6.54396 25.5026C6.56946 25.5179 6.59496 25.5485 6.61027 25.5791C6.62557 25.6097 6.63067 25.6403 6.63067 25.676C6.60516 26.1656 6.62047 26.6655 6.66637 27.1551C6.78368 27.201 6.91119 27.2163 7.0336 27.2061C7.16622 27.1959 7.28863 27.1551 7.40084 27.0939C7.55895 27.0021 7.72727 26.9409 7.91089 26.9154C8.0384 26.9001 8.16591 26.9256 8.28832 26.997C8.40563 27.0735 8.48724 27.1704 8.53824 27.2928C8.62495 27.5274 8.72186 27.7621 8.81877 28.0018C8.64535 28.0936 8.47194 28.1905 8.29852 28.2823C8.13021 28.3741 7.95679 28.4353 7.77317 28.4965C7.61506 28.5373 7.46204 28.573 7.29883 28.5934C7.15092 28.6138 6.9979 28.5985 6.86019 28.5628C6.71227 28.522 6.57966 28.4506 6.46235 28.3537C6.07982 28.0375 5.71258 27.706 5.36065 27.3591C5.18213 27.1857 4.97301 27.099 4.73329 27.0837C4.54457 27.0735 4.37626 27.1092 4.22324 27.2061C4.07023 27.2979 3.95802 27.4254 3.88661 27.5937C3.7591 27.8845 3.7132 28.1905 3.7387 28.5067C3.7846 28.9301 3.94782 29.2973 4.22324 29.6186C4.72819 30.1899 5.32495 30.6438 6.01351 30.9652C6.39094 31.1386 6.77858 31.261 7.18662 31.312C7.30903 31.7149 7.52325 32.072 7.80888 32.3882C7.91089 32.5004 8.0486 32.5769 8.21181 32.6126C8.53824 32.6687 8.85957 32.6279 9.1656 32.48C9.54304 32.3015 9.90007 32.0771 10.2214 31.8169C10.303 32.0159 10.4254 32.1944 10.5835 32.3372C10.6855 32.429 10.8029 32.4902 10.9304 32.5259C11.063 32.5565 11.1956 32.5667 11.3282 32.5361C11.8689 32.4341 12.3738 32.225 12.8175 31.9036C12.9093 31.9087 12.9961 31.9342 13.0777 31.9904C13.1542 32.0414 13.2205 32.1026 13.2766 32.1791C13.3837 32.3321 13.5163 32.4443 13.6846 32.5208C13.8529 32.5871 14.0264 32.6177 14.2151 32.582C14.3936 32.5514 14.5619 32.48 14.6945 32.3576C14.8475 32.2199 15.0005 32.0771 15.1485 31.9342C15.2556 32.1995 15.3933 32.4443 15.5514 32.6687C15.6177 32.7656 15.6942 32.837 15.7911 32.8931C15.8778 32.9543 15.9798 32.99 16.092 33.0104C16.2349 33.0308 16.3777 33.0257 16.5205 32.9798C16.6633 32.9492 16.7857 32.8778 16.8979 32.7758C17.0356 32.6585 17.1478 32.531 17.2345 32.3729C17.4335 32.6126 17.6528 32.8115 17.9282 32.9747C18.0863 33.0717 18.4944 33.1227 18.6882 33.1278C18.8769 33.1278 18.8259 33.0819 18.9789 32.9849C19.2492 32.8319 19.4635 32.6126 19.6012 32.3372C19.999 32.735 20.6978 32.9798 21.2435 33.087C22.9522 33.2502 23.4826 32.4035 23.6356 32.2454C24.0182 32.4902 24.4313 32.6636 24.8904 32.7248C25.1199 32.7605 25.3494 32.7401 25.5687 32.6687C25.7982 32.6024 25.9972 32.4902 26.1706 32.327C26.395 32.1332 26.5837 31.8985 26.7367 31.6435C27.1142 31.7659 27.4967 31.7608 27.869 31.6333C28.1241 31.5466 28.3179 31.3783 28.4403 31.1386C28.5576 30.8886 28.5831 30.6387 28.5015 30.3786C29.1492 29.9706 29.7103 29.4758 30.1999 28.8893C30.3173 28.726 30.3836 28.5322 30.3785 28.3231C30.3683 28.1089 30.2866 27.9355 30.1438 27.7876C30.0571 27.7009 29.9602 27.6345 29.848 27.5886C29.7358 27.5376 29.6185 27.5274 29.5012 27.5274C29.0421 27.5427 28.5984 27.6396 28.1751 27.8029C28.0628 27.8386 27.9761 27.9049 27.8945 27.9814C27.8129 28.0579 27.7517 28.1497 27.7058 28.2619C27.6854 28.3333 27.6293 28.3843 27.5528 28.4302C27.4814 28.4761 27.41 28.4863 27.3284 28.4812C27.2417 28.471 27.1754 28.4353 27.1193 28.3792C27.0581 28.318 26.9917 28.2466 26.9305 28.1905C27.206 27.7927 27.9149 27.4815 28.3485 27.2673C28.6035 27.1449 28.8432 27.0174 29.0829 26.8848C29.2462 26.8032 29.3737 26.6859 29.4808 26.5277C29.5879 26.39 29.6542 26.2268 29.6848 26.0483C29.7358 25.7933 29.7562 25.5485 29.7766 25.2934C29.7868 25.0537 29.8531 24.8344 29.9551 24.6202C30.1234 24.3039 30.8783 23.4675 30.7457 23.1308C31.1027 24.0387 31.6332 24.8242 32.3217 25.3036C32.4288 25.375 32.5207 25.4617 32.5921 25.5689C32.6431 25.6403 32.6941 25.7066 32.7502 25.778C32.8165 25.8749 32.8522 25.982 32.8369 26.0993C32.8267 26.2268 32.7655 26.3237 32.6839 26.4104C32.5921 26.4818 32.4799 26.5226 32.3574 26.5175C32.2656 26.5175 32.184 26.543 32.1177 26.5992C32.0514 26.6604 32.0055 26.7318 31.9953 26.8185C31.98 26.9154 32.0055 26.9919 32.0565 27.0684C32.1075 27.1347 32.1789 27.1806 32.2656 27.201C32.6686 27.2877 33.1378 27.3999 33.4999 27.7468L33.5101 27.7672Z" fill="white"/>
<path d="M32.9491 22.4011C33.1021 22.4522 33.2347 22.5389 33.3418 22.6715C33.4387 22.7939 33.505 22.9469 33.5203 23.105C33.5203 23.1203 33.5203 23.1254 33.5203 23.1305C33.5356 23.1305 33.5356 23.1356 33.5407 23.1356C33.7652 23.1866 33.9692 23.1509 34.163 23.0438C34.2752 22.9826 34.367 22.8959 34.4435 22.7837C34.5098 22.6817 34.5557 22.5695 34.5812 22.4369C34.6424 22.0798 34.6067 21.7279 34.4843 21.3811C34.4384 21.2586 34.367 21.1515 34.265 21.075C34.163 20.9985 34.0508 20.9424 33.9233 20.9118C33.6326 20.8659 33.3469 20.8863 33.0817 20.9781C33.0409 20.9934 33.0001 21.0087 32.9542 21.024C32.9287 21.4678 32.8828 21.9217 32.8063 22.3654C32.8573 22.3756 32.8981 22.3858 32.944 22.4011" fill="white"/>
<path d="M36.0451 20.7537C35.8258 20.4833 35.5555 20.2793 35.2494 20.1314C34.515 19.8101 33.7499 19.7336 32.9746 19.8815C32.9746 20.0447 32.9746 20.2079 32.9797 20.3762C33.3266 20.2691 33.6734 20.2589 34.0253 20.3099C34.2599 20.3558 34.4742 20.4578 34.6527 20.6007C34.8414 20.7588 34.9689 20.9424 35.0505 21.1719C35.2086 21.6207 35.2494 22.0747 35.1729 22.5337C35.1423 22.753 35.0658 22.952 34.9383 23.1305C34.8108 23.309 34.6527 23.4569 34.4691 23.564C34.1324 23.7527 33.7754 23.7986 33.4133 23.7221C33.2704 23.6915 33.1633 23.6252 33.0715 23.5232C32.9746 23.4212 32.9236 23.2988 32.9083 23.156C32.9032 23.1203 32.8879 23.0744 32.8624 23.0438C32.8369 23.0132 32.8012 22.9877 32.7553 22.9724C32.6176 22.9316 32.4901 22.9367 32.3626 22.9979C32.2299 23.054 32.1432 23.156 32.082 23.2784C31.9953 23.462 31.9647 23.6507 31.9647 23.8548C31.9749 24.0129 31.9902 24.1812 32.0157 24.3393C32.2248 24.5076 32.4391 24.6708 32.6584 24.8238C32.8216 24.9309 32.9644 25.0738 33.0766 25.2319C33.1225 25.2931 33.1684 25.3645 33.2143 25.4257C33.347 25.594 33.4235 25.7827 33.4337 25.9918C33.6428 26.0531 33.857 26.0378 34.061 25.9561C34.6374 25.7164 35.1219 25.3492 35.5044 24.8442C35.8615 24.3699 36.142 23.865 36.346 23.2988C36.5347 22.7581 36.5653 22.2124 36.4633 21.6615C36.3868 21.3249 36.244 21.024 36.0298 20.7537" fill="white"/>
<path d="M28.1801 29.8835C28.7718 29.5163 29.2869 29.0623 29.7255 28.5268C29.7612 28.4809 29.7817 28.4299 29.7817 28.3738C29.7714 28.3228 29.7561 28.2717 29.7102 28.2309C29.6949 28.2105 29.6592 28.185 29.6286 28.1799C29.598 28.1646 29.5674 28.1544 29.5317 28.1544C29.1441 28.1748 28.7718 28.2513 28.4045 28.3891C28.379 28.3993 28.3484 28.4146 28.328 28.4401C28.3076 28.4605 28.2872 28.4911 28.2719 28.5115C28.1852 28.7206 28.0526 28.8736 27.8588 28.9858C27.6752 29.0929 27.4762 29.1286 27.2569 29.1031C27.0427 29.0776 26.8591 28.9909 26.6959 28.8379C26.4306 28.5727 26.1552 28.3126 25.8747 28.0677C25.6503 27.8586 25.3799 27.7209 25.079 27.6444C24.7322 27.5679 24.4007 27.5934 24.0742 27.7107C23.9824 27.7464 23.9008 27.777 23.8192 27.8178C23.6305 28.0218 23.4214 28.2054 23.1867 28.3636C22.8807 28.5574 22.5441 28.6849 22.1768 28.741C21.8147 28.7971 21.4475 28.7818 21.1006 28.6798C20.8099 28.5982 20.5753 28.4197 20.4172 28.1595C20.2846 27.93 20.1571 27.7056 20.0296 27.4761C19.8663 27.7056 19.7643 27.9606 19.7184 28.236C19.698 28.3789 19.6368 28.5115 19.545 28.6237C19.4583 28.741 19.341 28.8277 19.2135 28.8838C18.7136 29.0929 18.1985 29.1643 17.6578 29.0878C17.464 29.0572 17.2957 28.9909 17.1325 28.8685C16.9744 28.7512 16.8571 28.6033 16.7857 28.4197C16.6836 28.1697 16.5969 27.9045 16.5459 27.6393C16.1736 27.8586 15.8319 28.1187 15.5309 28.4299C15.3065 28.6543 15.0362 28.7971 14.7251 28.8532C14.1283 28.9501 13.5469 28.8991 12.9807 28.6951C12.4962 28.5166 12.1238 28.2105 11.8535 27.777C11.7668 27.7566 11.6801 27.7464 11.6036 27.726C11.2822 27.6597 10.9762 27.675 10.6549 27.7668C10.3795 27.8484 10.1091 27.9606 9.85921 28.1085C9.44097 28.3585 9.01763 28.5931 8.58919 28.8175C8.38518 28.9246 8.17096 29.0113 7.94654 29.0725C7.75782 29.1286 7.5793 29.1694 7.39058 29.1847C7.16106 29.2153 6.92644 29.2 6.70202 29.1439C6.4725 29.0776 6.26848 28.9654 6.08486 28.8175C5.69213 28.4911 5.31469 28.1442 4.94236 27.7872C4.87605 27.7209 4.79954 27.6852 4.70264 27.6852C4.65163 27.675 4.59553 27.6852 4.55472 27.7158C4.50372 27.7464 4.47821 27.7923 4.45271 27.8382C4.366 28.032 4.3354 28.236 4.3507 28.4452C4.38641 28.741 4.49352 28.996 4.69243 29.2204C5.14128 29.7305 5.67173 30.1232 6.28378 30.419C6.61021 30.567 6.93664 30.669 7.28857 30.7149C7.40589 30.7404 7.50279 30.7761 7.5946 30.8577C7.68131 30.9342 7.74762 31.026 7.77822 31.1433C7.88533 31.4544 8.03324 31.735 8.25766 31.9798C8.28317 32.0002 8.30357 32.0155 8.33417 32.0206C8.53309 32.0563 8.72691 32.0308 8.92073 31.9492C9.25226 31.786 9.56338 31.5922 9.85411 31.3524C9.95612 31.2657 10.0785 31.2249 10.2111 31.2147C10.3387 31.2147 10.456 31.2453 10.5733 31.3167C10.6855 31.3932 10.762 31.4901 10.813 31.6126C10.8538 31.7248 10.915 31.8217 11.0068 31.8931C11.0425 31.9237 11.0731 31.939 11.1139 31.9492C11.1547 31.9594 11.2006 31.9645 11.2414 31.9594C11.7005 31.8778 12.1085 31.6993 12.486 31.4289C12.6186 31.332 12.7665 31.2963 12.9195 31.3116C13.098 31.3371 13.2663 31.3881 13.4193 31.4901C13.5724 31.582 13.6948 31.7044 13.7968 31.8574C13.8325 31.9135 13.8886 31.9492 13.9498 31.9849C14.0161 32.0053 14.0773 32.0104 14.1385 32.0002C14.2099 31.99 14.266 31.9696 14.317 31.9186C14.4598 31.7962 14.6026 31.6585 14.7455 31.5207C14.8424 31.4289 14.9546 31.3677 15.0923 31.3575C15.23 31.3422 15.3524 31.3626 15.4697 31.4289C15.5921 31.4952 15.6737 31.5973 15.7299 31.7248C15.8268 31.9441 15.939 32.1481 16.0716 32.347C16.0869 32.3725 16.1124 32.3929 16.1328 32.4031C16.1532 32.4184 16.1787 32.4286 16.2042 32.4286C16.2603 32.4388 16.3164 32.4337 16.3725 32.4184C16.4235 32.398 16.4796 32.3725 16.5204 32.3317C16.6071 32.2603 16.6785 32.1736 16.7397 32.0716C16.8163 31.9594 16.903 31.8829 17.0305 31.8268C17.1478 31.7809 17.2804 31.7707 17.4079 31.8013C17.5405 31.837 17.6425 31.9033 17.7241 32.0053C17.8772 32.194 18.0557 32.3419 18.2597 32.4694C18.326 32.5051 18.3923 32.5357 18.4739 32.5357C18.5555 32.5357 18.6218 32.5153 18.6932 32.4745C18.8615 32.3776 18.9891 32.245 19.0809 32.0716C19.1421 31.9594 19.2339 31.8676 19.3512 31.8115C19.4736 31.7554 19.5909 31.735 19.7184 31.7503C19.8459 31.7758 19.9632 31.8319 20.05 31.9339C20.4274 32.3011 20.8864 32.5102 21.4169 32.5408C21.7535 32.5663 22.0799 32.5102 22.3911 32.3878C22.7124 32.2654 22.9827 32.0818 23.2173 31.837C23.3194 31.7401 23.4367 31.6738 23.5846 31.6585C23.7325 31.6432 23.86 31.6738 23.9875 31.7503C24.2986 31.9594 24.6302 32.0869 24.9923 32.1379C25.1351 32.1634 25.2728 32.1481 25.4105 32.1124C25.5534 32.0665 25.6707 32.0002 25.7829 31.8982C25.9614 31.735 26.1042 31.5565 26.2266 31.3524C26.3082 31.23 26.4 31.1484 26.5326 31.0974C26.6704 31.0464 26.803 31.0464 26.9305 31.0872C27.1906 31.1637 27.4405 31.1637 27.6956 31.0821C27.7925 31.0413 27.8639 30.9801 27.9149 30.8781C27.9608 30.7863 27.971 30.6843 27.9353 30.5823C27.8945 30.4496 27.8996 30.317 27.9455 30.1844C28.0016 30.0518 28.0781 29.9549 28.1903 29.8784" fill="white"/>
<path d="M8.15563 11.3386C9.37464 10.8387 10.6345 10.4715 11.93 10.242C13.2357 10.0175 14.5465 9.90532 15.8726 9.91042C17.7445 9.91042 19.6113 9.99713 21.473 10.1603C23.3907 10.3338 25.2626 10.7214 27.0937 11.3283C28.4249 11.7772 30.0264 12.3994 31.169 13.2206C31.3985 13.3889 31.6178 13.5624 31.832 13.7562C31.8167 13.5369 31.7963 13.3226 31.7453 13.1135C31.5668 12.277 31.2608 11.4916 30.8425 10.7571C30.4192 10.0175 30.2254 9.48708 28.9196 8.07935C28.1597 7.25307 26.5632 6.34519 25.7166 5.94225C24.6863 5.46281 23.6203 5.11088 22.5135 4.88646C21.172 4.61613 19.8204 4.46822 18.4535 4.44272C17.4385 4.42231 16.4286 4.46822 15.4289 4.57533C13.5978 4.78445 11.8994 5.3557 10.3182 6.31459C8.79319 7.24797 7.49767 8.43128 6.43167 9.86452C6.15115 10.242 5.88592 10.6347 5.6309 11.0274C5.94713 10.8183 6.27866 10.6092 6.61019 10.4103C7.12024 10.1042 7.64048 9.81351 8.17093 9.54319L8.44126 10.0889C7.92611 10.3542 7.42116 10.6347 6.91622 10.9305C6.23275 11.3488 5.55439 11.8027 4.89643 12.277C4.70261 12.6392 4.519 13.0064 4.34558 13.3787C4.62611 13.1696 4.92193 12.9809 5.21266 12.8075C6.16135 12.2464 7.14064 11.7517 8.15563 11.3386Z" fill="white"/>
<path d="M4.39158 16.7295C4.14676 16.9744 3.94784 17.2447 3.79993 17.5507C4.06515 17.5354 4.33548 17.5507 4.6007 17.5864C4.6211 17.5303 4.6262 17.4691 4.65171 17.4028C4.75371 17.005 4.89653 16.6326 5.09035 16.2705C4.82002 16.3725 4.5854 16.5306 4.39158 16.7245" fill="white"/>
<path d="M7.93128 16.8518C8.1659 16.913 8.39032 16.8875 8.61475 16.7956C8.83407 16.6936 9.00238 16.5457 9.11459 16.3213C9.1911 16.1836 9.29311 16.0765 9.42572 15.9898C9.56343 15.9133 9.70625 15.8674 9.86436 15.8674C10.0225 15.8674 10.1704 15.9082 10.303 15.9847C10.3438 16.0102 10.3999 16.0204 10.4509 16.0102C10.4968 15.9949 10.5376 15.9745 10.5682 15.9235C10.6906 15.7552 10.8539 15.6378 11.0477 15.5868C11.2568 15.5409 11.4557 15.5562 11.6393 15.648C11.8178 15.7296 12.0015 15.7654 12.1953 15.7603C12.3942 15.745 12.5727 15.6735 12.7308 15.5715C12.8736 15.4644 13.042 15.4032 13.2256 15.3879C13.3939 15.3726 13.5724 15.3981 13.7305 15.4695C13.8478 15.5154 13.9549 15.5307 14.0774 15.5205C14.1998 15.5052 14.3069 15.4593 14.4038 15.3777C14.363 15.2196 14.3069 15.0615 14.2304 14.9136C12.4146 15.1227 10.5988 15.3471 8.78306 15.5664C8.52294 15.6123 8.25771 15.6429 7.99759 15.6837C7.93638 15.7501 7.87518 15.8164 7.83437 15.898C7.71706 16.0765 7.66096 16.2703 7.65076 16.4794C7.65076 16.5661 7.67626 16.6426 7.72216 16.714C7.77317 16.7803 7.83947 16.8263 7.93128 16.8518Z" fill="white"/>
<path d="M3.198 20.004C3.08579 20.0499 2.99399 20.1213 2.91748 20.2131C2.84097 20.3049 2.79507 20.4069 2.76446 20.5293C2.66245 20.9986 2.66756 21.4627 2.77467 21.9319C2.79507 21.9881 2.82567 22.0391 2.87157 22.085C2.88688 22.1003 2.90728 22.1054 2.92258 22.1054C2.94808 22.1054 2.96338 22.1003 2.97358 22.0901C3.38162 21.8146 3.71315 21.4627 3.97328 21.0445C4.06508 20.9068 4.1875 20.8098 4.35071 20.7639V20.3202C4.2436 20.2794 4.14669 20.2284 4.07018 20.157C3.95287 20.0448 3.81516 19.9785 3.65705 19.953C3.49383 19.9326 3.34592 19.9479 3.1929 20.004" fill="white"/>
<path d="M2.37172 24.6964C2.46353 24.6964 2.54514 24.6658 2.61145 24.6046C2.68285 24.5536 2.72876 24.4771 2.75426 24.3955C2.90217 23.8446 2.98378 23.2734 3.00928 22.7021C2.91747 22.7123 2.82057 22.7123 2.73386 22.6817C2.64715 22.6511 2.56044 22.6205 2.49414 22.5542C2.33092 22.4267 2.22891 22.2635 2.18811 22.0697C2.0555 21.5137 2.0504 20.9578 2.17281 20.4018C2.20851 20.1876 2.31052 19.9989 2.44313 19.8306C2.58084 19.6622 2.75426 19.5296 2.94808 19.448C3.1827 19.3511 3.42242 19.3154 3.67234 19.346C3.92737 19.3766 4.14669 19.4582 4.35071 19.6061C4.35581 19.4429 4.36601 19.2848 4.37111 19.1165C4.39151 18.8054 4.42721 18.4942 4.47822 18.1882C4.14669 18.1423 3.81516 18.1474 3.48363 18.1984C2.78996 18.3004 2.17791 18.586 1.65256 19.0553C1.26492 19.4072 0.984397 19.8306 0.810981 20.3202C0.540656 21.0955 0.535555 21.8911 0.765076 22.6766C1.0099 23.4723 1.45874 24.1201 2.1116 24.6199C2.19321 24.676 2.26972 24.7066 2.36662 24.7066" fill="white"/>
<path d="M26.4817 27.8028C26.4154 27.7365 26.3491 27.6804 26.2828 27.6192C25.9818 27.3386 25.6248 27.1601 25.2168 27.0632C24.926 26.9867 24.6251 26.9867 24.3293 27.0224C24.4211 26.7827 24.4619 26.543 24.4568 26.2828C24.4415 26.0227 24.3752 25.7779 24.2579 25.5484C24.1814 25.4005 24.0896 25.2526 23.9926 25.1097C24.4721 25.1862 24.9413 25.1301 25.3902 24.9363C25.9818 24.6813 26.4664 24.2937 26.8591 23.7887L26.3746 23.4215C26.0481 23.8448 25.6401 24.1611 25.1505 24.3855C24.6863 24.5742 24.2222 24.5895 23.7478 24.4161C23.2837 24.2478 22.8654 23.9978 22.488 23.6765C21.9168 23.1665 21.524 22.5442 21.3353 21.7995C21.1619 21.162 21.116 20.5091 21.1823 19.8461C21.1976 19.6522 21.2537 19.4737 21.3506 19.3054C21.4577 19.1371 21.5852 18.9943 21.7382 18.8872C22.0596 18.6576 22.4217 18.525 22.8144 18.4842C23.7478 18.3975 24.6353 18.5505 25.4769 18.9586L25.7472 18.423C24.7934 17.9589 23.7988 17.7804 22.7481 17.8722C22.2534 17.9334 21.7994 18.0966 21.3965 18.3873C21.1568 18.5454 20.9681 18.7495 20.8253 18.9943C20.6824 19.2442 20.5957 19.5094 20.5702 19.7848C20.4988 20.5193 20.5549 21.2385 20.7334 21.9474C20.963 22.8145 21.4067 23.5388 22.0851 24.1304C22.3197 24.3396 22.5747 24.5181 22.845 24.6762C23.2021 25.0077 23.4877 25.3954 23.7172 25.8238C23.7988 25.9921 23.8345 26.1655 23.8396 26.3441C23.8396 26.5277 23.8039 26.7062 23.7274 26.8694C23.5183 27.2723 23.2327 27.5988 22.8552 27.8436C22.6155 27.9966 22.3605 28.0986 22.0902 28.1445C21.8096 28.1853 21.5342 28.1649 21.2639 28.0935C21.1262 28.0578 21.0191 27.9711 20.9426 27.8487C20.8151 27.6345 20.6875 27.4101 20.5702 27.1856C20.4988 27.0683 20.4019 26.9765 20.2693 26.9153C20.1418 26.8643 20.0092 26.8541 19.8715 26.8898C19.7338 26.9306 19.6266 27.002 19.545 27.1193C19.3206 27.4305 19.1829 27.762 19.1217 28.1445C19.1166 28.1751 19.1013 28.221 19.0758 28.2516C19.0452 28.2822 19.0197 28.3026 18.9738 28.323C18.5861 28.4811 18.1781 28.5373 17.7497 28.4812C17.663 28.4709 17.5814 28.4352 17.5099 28.3842C17.4334 28.323 17.3824 28.2516 17.3518 28.1751C17.2549 27.9609 17.1988 27.7467 17.158 27.5223C17.1274 27.3947 17.0713 27.2825 16.9693 27.1856C16.8775 27.104 16.7602 27.0479 16.6174 27.0326C16.4899 27.0122 16.3725 27.0428 16.2501 27.1091C15.8319 27.3488 15.4443 27.6498 15.1076 28.0017C14.975 28.1292 14.8118 28.2159 14.6282 28.2465C14.1334 28.3332 13.6642 28.2873 13.1898 28.1241C12.8736 28.0017 12.6084 27.8079 12.4197 27.5223C12.231 27.2417 12.1391 26.9306 12.1391 26.594C12.1545 26.191 12.2973 25.8391 12.5829 25.5484C12.8073 25.3189 13.047 25.1046 13.2919 24.9108C13.7611 24.5436 14.1181 24.0845 14.3681 23.5388C14.8322 22.5136 15.2198 21.4629 15.5259 20.3816C15.5922 20.147 15.6024 19.9124 15.5616 19.6624C15.5157 19.4176 15.4137 19.2085 15.2657 19.0096C14.7812 18.4026 14.1538 18.0354 13.3786 17.9232C11.93 17.7294 10.5019 17.8875 9.12477 18.372L9.32879 18.9382C10.6192 18.4893 11.9453 18.3516 13.297 18.5301C13.9039 18.6219 14.3987 18.9076 14.7812 19.3921C14.873 19.5043 14.9393 19.642 14.9648 19.7797C14.9903 19.9328 14.9852 20.0756 14.9444 20.2235C14.6435 21.2691 14.266 22.2994 13.8172 23.2991C13.603 23.7479 13.3174 24.1304 12.9144 24.4416C12.639 24.6507 12.3891 24.8802 12.1442 25.125C11.7515 25.5382 11.5475 26.0329 11.5322 26.594C11.5322 26.7674 11.5475 26.951 11.5832 27.1193C11.216 27.0632 10.8487 27.0836 10.4917 27.1907C10.1653 27.2876 9.84394 27.4203 9.53791 27.5988C9.4767 27.6243 9.4104 27.6702 9.35429 27.711C9.26758 27.5019 9.19108 27.2978 9.10947 27.0836C9.01256 26.8286 8.83915 26.6246 8.60452 26.4869C8.3648 26.3441 8.10978 26.3032 7.83435 26.3237C7.62013 26.3543 7.42632 26.4155 7.2325 26.5073C7.2274 26.242 7.2274 25.9768 7.2427 25.7167C7.2427 25.5688 7.2172 25.4362 7.14579 25.3036C7.07438 25.176 6.98767 25.0689 6.86016 24.9975C6.73775 24.9159 6.60514 24.8802 6.46743 24.8751C6.38072 24.8751 6.29401 24.8649 6.2124 24.8649C6.2073 24.7578 6.2022 24.666 6.1818 24.5691C6.1563 24.3549 6.06449 24.1764 5.90127 24.0284C5.74316 23.8856 5.55954 23.8142 5.34532 23.804C5.1311 23.7989 4.91688 23.7887 4.70776 23.7683C4.70776 23.3348 4.73837 22.9063 4.81487 22.4779C4.92708 21.8403 4.97809 21.1824 4.96279 20.5244C4.95259 20.0705 4.96279 19.6114 4.98829 19.1524C5.01889 18.6219 5.1005 18.0864 5.23821 17.5661C5.35042 17.1122 5.53914 16.6736 5.79416 16.2757C5.83497 16.2043 5.88087 16.1329 5.93188 16.0717C6.35012 15.9748 6.76835 15.8881 7.19169 15.8167C7.10499 16.0258 7.05908 16.24 7.04888 16.4644C7.04888 16.694 7.11009 16.9031 7.2427 17.0867C7.38041 17.2601 7.55893 17.3876 7.77825 17.4488C8.15568 17.5406 8.51271 17.5202 8.86465 17.3672C9.21148 17.2091 9.4818 16.949 9.66032 16.6226C9.68072 16.5716 9.71133 16.5511 9.74703 16.5205C9.78273 16.5001 9.82864 16.4848 9.87454 16.4848C9.91534 16.4848 9.95615 16.495 9.99695 16.5154C10.1806 16.6124 10.3693 16.6532 10.5784 16.6124C10.7875 16.5614 10.9507 16.4491 11.0732 16.2757C11.1089 16.2349 11.1548 16.2043 11.2109 16.1788C11.267 16.1737 11.3282 16.1737 11.3741 16.1992C11.6495 16.3369 11.9453 16.393 12.2463 16.3726C12.5472 16.342 12.8328 16.24 13.0776 16.0717C13.1439 16.0258 13.2102 16.0105 13.2817 16.0054C13.3582 15.9952 13.4296 16.0054 13.4908 16.036C13.7203 16.1329 13.9549 16.1584 14.1895 16.1278C14.4242 16.087 14.6333 15.9952 14.822 15.8422C14.8985 15.7708 14.9495 15.6943 14.9903 15.5974C15.0209 15.5056 15.0209 15.4086 15.0056 15.3066C14.9699 15.1536 14.9291 14.9904 14.873 14.8578C15.0974 14.8221 15.3269 14.8017 15.5565 14.7762C16.8265 14.6283 18.1016 14.5569 19.3767 14.5926C19.846 14.6028 20.3152 14.6385 20.7895 14.6844C20.662 14.7354 20.56 14.817 20.4631 14.919C20.3866 15.021 20.3203 15.1332 20.2846 15.2658C20.2438 15.429 20.2438 15.5923 20.2846 15.7555C20.3305 15.9187 20.4223 16.0615 20.5498 16.1686C20.6722 16.2808 20.8202 16.3624 20.9885 16.3981C21.2537 16.444 21.5189 16.4593 21.7841 16.4389C21.8351 16.4389 21.8759 16.4542 21.9168 16.4746C21.9627 16.4899 21.9984 16.5256 22.0239 16.5511C22.2126 16.7858 22.4574 16.9286 22.7583 16.9694C23.0542 17.0102 23.3194 16.9286 23.5642 16.745C23.5999 16.7246 23.6407 16.7042 23.6815 16.6991C23.7274 16.6991 23.7631 16.7042 23.809 16.7246C23.8549 16.7399 23.8753 16.7603 23.9059 16.8011C23.9416 16.8572 23.9926 16.9031 24.0539 16.9337C24.11 16.9643 24.1763 16.9745 24.2426 16.9745C24.6506 16.949 25.0484 16.9184 25.4565 16.8827C25.5075 16.8827 25.5534 16.8929 25.5891 16.9133C25.635 16.9439 25.6605 16.9745 25.686 17.0204C25.7472 17.1479 25.839 17.2448 25.9512 17.3111C26.0787 17.3774 26.2113 17.4029 26.344 17.3927C26.5684 17.3723 26.7673 17.3162 26.9713 17.2346C27.1141 17.1734 27.2263 17.0918 27.3284 16.9847C27.4202 16.8776 27.5171 16.6379 27.5681 16.5001C27.5987 16.5205 27.6446 16.5358 27.6854 16.5562C27.9149 16.6532 29.4246 17.4284 29.6593 17.5559C29.695 17.6069 29.9602 17.6784 29.9959 17.7345L30.2101 17.9946C30.2305 18.0303 31.1027 21.2334 30.8579 22.4371C30.8171 22.6513 30.1642 23.3042 30.1642 23.3042C29.7562 24.0692 29.5318 24.1713 29.4144 24.3855C29.2563 24.6711 29.1747 24.9771 29.1543 25.3036C29.1441 25.5229 29.1186 25.7575 29.0778 25.9819C29.0625 26.0686 29.0268 26.1502 28.9758 26.2216C28.9197 26.3032 28.8585 26.3543 28.782 26.3951C28.5525 26.5277 27.9659 26.6603 27.7211 26.7674C27.2212 27.0173 26.803 27.3692 26.4715 27.8232L26.4817 27.8028Z" fill="white"/>
<path d="M37.0652 21.5343C36.9734 21.111 36.7948 20.7182 36.5194 20.3765C36.244 20.0246 35.9023 19.7644 35.5044 19.5859C35.0301 19.3717 34.5353 19.2493 34.0304 19.2136C33.9794 18.6576 33.9182 18.1119 33.8621 17.5559C33.7397 16.546 33.3826 15.6228 32.7706 14.8068C32.6635 14.6487 32.541 14.4956 32.4135 14.3477C32.4645 13.8887 32.4339 13.4347 32.3421 12.9859C32.1432 12.0882 31.8219 11.2466 31.373 10.4561C30.8018 9.46148 30.3478 8.72701 29.3074 7.65081C28.4097 6.71743 27.1448 5.94725 25.9818 5.3913C24.9056 4.89656 23.7937 4.51912 22.6359 4.2896C22.4778 4.2539 22.3197 4.2284 22.1616 4.19269C22.3197 4.04478 22.4778 3.88666 22.6155 3.71325C22.6614 3.66734 22.6767 3.61634 22.692 3.54493C22.7022 3.48883 22.692 3.42762 22.6665 3.37152C22.6461 3.31541 22.6053 3.26951 22.5543 3.2287C22.3503 3.08079 22.131 2.98898 21.8862 2.94818C22.0035 2.97368 22.1259 2.94818 22.2381 2.89717C22.3452 2.84107 22.4268 2.75436 22.4931 2.64725C22.5084 2.61665 22.5135 2.58094 22.5135 2.54524C22.5135 2.50444 22.4982 2.46873 22.4778 2.44323C22.4523 2.40753 22.4268 2.39223 22.3962 2.37693C22.2891 2.34122 22.1922 2.29532 22.0902 2.24941C22.2228 2.19841 22.3503 2.1576 22.488 2.1117C22.5288 2.1066 22.5645 2.0811 22.5849 2.04029C22.6155 2.00969 22.6206 1.96379 22.6155 1.92298C22.6155 1.88218 22.5951 1.84648 22.5594 1.81587C22.4778 1.73937 22.386 1.66796 22.2891 1.60165C22.233 1.57615 22.1718 1.56595 22.1004 1.57105C22.029 1.58635 21.9729 1.61696 21.9321 1.67306C21.9066 1.69856 21.876 1.71386 21.8556 1.72917C21.825 1.74447 21.7995 1.75467 21.7587 1.75467C21.5444 1.74957 21.3455 1.67306 21.1772 1.55065C21.3353 1.52515 21.4883 1.46904 21.6311 1.37723C21.677 1.34153 21.7179 1.30073 21.7434 1.24972C21.7587 1.19362 21.774 1.13751 21.774 1.08141C21.7638 1.0253 21.7485 0.969195 21.723 0.918191C21.677 0.862085 21.626 0.811081 21.5495 0.780478C21.4679 0.749875 21.4016 0.739674 21.3251 0.754976C21.218 0.780478 21.1313 0.826382 21.0599 0.897789C20.9885 0.969195 20.9426 1.0559 20.9273 1.15791C20.9069 1.25482 20.8661 1.33643 20.7947 1.40274C20.861 1.19362 20.8559 0.969195 20.7692 0.760076C20.6927 0.566258 20.6723 0.36734 20.6927 0.158221C20.6927 0.127618 20.6927 0.112316 20.6774 0.0817135C20.6672 0.0613116 20.6519 0.0460102 20.6263 0.0358092C20.6059 0.0205078 20.5753 0.0205078 20.5549 0.0205078C20.356 0.0460102 20.1622 0.0562111 19.9684 0.0409097C19.9429 0.0409097 19.9174 0.0511106 19.897 0.066412C19.8766 0.0817135 19.8562 0.0970149 19.846 0.122517C19.8358 0.142919 19.8358 0.173522 19.8409 0.199024C19.8766 0.382641 19.9021 0.550957 19.9174 0.729473C19.9327 0.892688 19.897 1.0406 19.8052 1.18342C19.5451 1.09161 19.2798 0.999798 19.0095 0.90799C18.8514 0.856985 18.6882 0.836583 18.5148 0.851885C18.474 0.856985 18.4331 0.856985 18.3974 0.841684C18.3566 0.821282 18.3209 0.80088 18.2903 0.775378C18.2597 0.749875 18.2291 0.739674 18.1883 0.734574C18.1526 0.734574 18.1169 0.734574 18.0812 0.754976C18.0455 0.775378 18.0251 0.80598 18.0098 0.841684C17.9588 0.943693 17.8874 1.0202 17.7803 1.0661C17.7344 1.09671 17.6834 1.13241 17.6579 1.18342C17.6273 1.22932 17.6171 1.28542 17.6171 1.34663C17.6273 1.40274 17.6528 1.45374 17.6885 1.49454C17.459 1.43844 17.2447 1.44864 17.0203 1.54045C16.9183 1.58635 16.8112 1.64756 16.7092 1.69346C16.6786 1.70876 16.6582 1.73937 16.648 1.76487C16.6378 1.80057 16.6378 1.83117 16.648 1.85668C16.6582 1.88728 16.6786 1.90768 16.7092 1.92808L16.8571 1.99439L16.5154 2.1015C16.5409 2.28002 16.5664 2.45343 16.5766 2.63195C16.5817 2.66255 16.5715 2.69315 16.5562 2.71866C16.5409 2.74926 16.5154 2.76456 16.4899 2.78496C16.4593 2.79516 16.4236 2.80536 16.393 2.79516C16.3573 2.78496 16.3318 2.76966 16.3114 2.74416C16.2603 2.69315 16.194 2.65235 16.1277 2.63195C16.0104 2.61155 15.9033 2.61155 15.8064 2.63195C15.8268 2.83087 15.8472 3.03489 15.8676 3.2389C16.0512 3.2389 16.2348 3.2134 16.4185 3.1777C16.4389 3.1726 16.4695 3.1777 16.4848 3.1879C16.5103 3.2032 16.5256 3.2338 16.5358 3.25421C16.546 3.27971 16.5409 3.30521 16.5256 3.33071C16.4236 3.53473 16.3063 3.72855 16.1583 3.90707C15.8931 3.92747 15.6228 3.95297 15.3576 3.97847C13.4347 4.19779 11.6495 4.79965 9.99697 5.80444C8.40562 6.77863 7.054 8.01805 5.9421 9.51248C4.8659 10.961 3.99882 12.5269 3.33576 14.2049C3.30515 14.2253 3.27965 14.2508 3.26435 14.2712C2.83081 14.664 2.44827 15.1128 2.14225 15.6024C1.98923 15.832 1.92293 16.087 1.91273 16.3573L1.92803 18.1119C1.6883 18.2496 1.46388 18.4128 1.24966 18.6015C0.790622 19.0249 0.453991 19.5298 0.239771 20.1266C-0.0560563 21.0344 -0.0764581 21.9423 0.193867 22.8502C0.479493 23.7734 1.00484 24.5232 1.76481 25.1097C1.78521 25.1199 1.80051 25.1352 1.81072 25.1454C1.6883 25.5739 1.6067 26.0176 1.5914 26.4766C1.57099 26.7776 1.45878 27.0479 1.25476 27.2723C0.698813 27.8691 0.571302 28.4607 0.464192 29.2768C0.372383 29.9348 0.561101 30.8325 0.703914 31.2966C0.846727 31.7607 0.938535 32.0821 1.21396 32.4799C1.48939 32.8777 2.15245 33.4286 2.58089 33.6581C2.7339 33.7397 3.06033 33.8621 3.12154 34.0202C3.18784 34.1682 3.20314 34.3212 3.16234 34.4895C3.07563 34.8975 3.02973 35.3158 3.02463 35.7442C3.02463 35.8054 3.04503 35.8819 3.09093 35.938C3.12664 36.0094 3.16744 36.0604 3.23885 36.0961C3.30515 36.1318 3.37656 36.1471 3.45307 36.1471C3.69279 36.1369 3.92741 36.0808 4.13143 35.9482C4.15183 36.1726 4.23344 36.3665 4.39155 36.5195C4.55477 36.6674 4.75369 36.7388 4.97811 36.7388C5.26883 36.7388 5.55956 36.6929 5.84519 36.6164C5.89109 36.9122 5.9982 37.2029 6.15632 37.4631C6.31443 37.7232 6.51845 37.9425 6.76837 38.1261C7.30902 38.4985 7.90068 38.6668 8.55354 38.6056C8.75756 39.4471 9.2115 40.1306 9.90006 40.656C10.5988 41.1711 11.3792 41.4108 12.2514 41.3751C12.4248 41.8393 12.6849 42.2524 13.0368 42.5941C13.3939 42.9461 13.807 43.2062 14.2763 43.3643C14.9852 43.604 15.7044 43.6652 16.444 43.5479C17.1784 43.4306 17.8415 43.1399 18.4433 42.6859C18.6882 42.9308 18.9687 43.1297 19.2747 43.2827C19.4124 43.349 19.5604 43.3847 19.7185 43.3694C19.8715 43.349 20.0143 43.2929 20.1469 43.2062C20.3458 43.0379 20.509 42.8441 20.6213 42.6145C20.7437 42.3799 20.8049 42.13 20.8151 41.8699C21.1007 41.977 21.4016 42.0127 21.7025 41.9566C22.0086 41.8903 22.2789 41.7628 22.5135 41.5536C23.0644 41.7526 23.6305 41.8138 24.2171 41.7271C24.4211 41.7016 24.5996 41.6148 24.7475 41.4822C24.9005 41.3343 24.9975 41.166 25.0434 40.9722C25.0944 40.7172 25.125 40.4672 25.1097 40.2122C25.6707 40.1816 26.2216 40.1051 26.7724 40.0133C26.9968 39.9674 27.1856 39.8654 27.3437 39.7124C27.5018 39.5441 27.5987 39.3604 27.6293 39.136C27.6701 38.8861 27.7058 38.6311 27.7262 38.3811C28.4352 38.3148 29.2716 38.0037 29.8072 37.4121C30.307 36.8561 30.103 36.0706 30.4499 35.7187C30.761 35.4076 31.8627 35.6371 32.2299 35.2648C32.5512 34.9383 32.0565 33.9335 32.4339 33.6428C33.5101 32.8114 33.8723 32.1382 34.0712 31.7505C34.5098 30.8988 34.7904 29.8736 34.6679 28.9963C34.5098 27.9048 34.2242 27.5273 33.8315 27.2468C33.6172 27.0938 33.352 27.002 33.1225 26.8898C33.2041 26.8133 33.2806 26.7113 33.3418 26.6144C33.6785 26.7011 34.0049 26.6705 34.3262 26.543C35.0097 26.2624 35.5707 25.8238 36.0196 25.2474C36.4174 24.7221 36.7336 24.1508 36.9479 23.5337C37.1774 22.8808 37.2233 22.228 37.0856 21.5547L37.0652 21.5343ZM4.8965 12.2718C5.55446 11.7975 6.22772 11.3436 6.91629 10.9253C7.42123 10.6244 7.92618 10.3439 8.44133 10.0837L8.171 9.53799C7.63545 9.80831 7.12031 10.099 6.61026 10.4051C6.27873 10.6091 5.9472 10.8131 5.63097 11.0222C5.88599 10.6295 6.15122 10.2368 6.43174 9.85932C7.49774 8.42608 8.79326 7.24277 10.3183 6.30939C11.8994 5.3505 13.5979 4.77415 15.429 4.57013C16.4338 4.46302 17.4386 4.41711 18.4536 4.43752C19.8205 4.45792 21.1721 4.61093 22.5135 4.88126C23.6254 5.10568 24.6863 5.45761 25.7166 5.94215C26.5633 6.34509 28.1546 7.25298 28.9197 8.07925C30.2203 9.49208 30.4193 10.0225 30.8426 10.7621C31.2608 11.5017 31.5618 12.2871 31.7454 13.1185C31.7964 13.3276 31.8117 13.5419 31.8321 13.7612C31.6179 13.5725 31.3985 13.3939 31.169 13.2256C30.0265 12.4045 28.425 11.7771 27.0937 11.3334C25.2678 10.7264 23.3959 10.3388 21.473 10.1653C19.6114 10.0072 17.7446 9.92052 15.8727 9.91542C14.5466 9.91032 13.2307 10.0225 11.93 10.247C10.6345 10.4816 9.37471 10.8437 8.1557 11.3436C7.14071 11.7567 6.16142 12.2514 5.21273 12.8125C4.922 12.9859 4.62618 13.1746 4.34565 13.3837C4.51907 13.0063 4.70268 12.6442 4.8965 12.282V12.2718ZM2.64209 15.9238C2.93792 15.4749 3.27965 15.0669 3.67239 14.6997C4.24364 14.1743 4.8557 13.7204 5.52386 13.3225C6.44704 12.7768 7.39573 12.3024 8.38522 11.8995C9.55833 11.4099 10.7824 11.063 12.0372 10.8437C13.3072 10.6193 14.5772 10.5071 15.8676 10.5071C17.7242 10.5224 19.5757 10.5989 21.422 10.7621C23.2888 10.9304 25.1199 11.3078 26.905 11.8944C28.175 12.3228 29.7103 12.9247 30.812 13.7051C31.3781 14.1182 31.8678 14.5926 32.286 15.1536C32.8267 15.8881 33.1123 16.7092 33.25 17.6171C33.3214 18.0813 33.3826 18.9943 33.3826 18.9943L32.9389 19.2646C32.9134 18.9841 32.8777 18.7035 32.842 18.4281C32.7655 17.9232 32.6329 17.4284 32.4441 16.9541C32.1432 16.2094 31.6587 15.6228 30.9752 15.1995C30.1999 14.7405 29.3737 14.3885 28.5015 14.1488L28.3434 14.7354C29.1594 14.9598 29.9347 15.2964 30.659 15.73C31.2251 16.0717 31.6383 16.5613 31.878 17.1785C32.0004 17.5049 32.1789 17.9538 32.1687 18.2802C30.6845 17.1581 29.0166 16.4236 28.9299 16.3879L28.272 16.0819C26.3389 15.1944 23.9723 14.5722 21.8811 14.2049C21.0548 14.057 20.2183 13.9754 19.3818 13.9601C18.0761 13.9397 16.7755 13.9958 15.48 14.1488C13.2256 14.4089 10.961 14.6793 8.70655 14.9598C7.52324 15.1128 6.35523 15.3219 5.19743 15.6024C4.71798 15.7198 4.29975 15.9493 3.95291 16.291C3.56528 16.6735 3.27965 17.1275 3.10113 17.6375C2.90732 17.6834 2.7135 17.7344 2.52478 17.8109L2.51458 16.3369C2.51458 16.189 2.55028 16.0462 2.63699 15.9187L2.64209 15.9238ZM32.9593 21.0191C33.0052 21.0038 33.046 20.9885 33.0868 20.9732C33.3571 20.8814 33.6427 20.861 33.9284 20.9069C34.0508 20.9375 34.1681 20.9936 34.2701 21.0702C34.3721 21.1518 34.4435 21.2538 34.4894 21.3762C34.6118 21.723 34.6475 22.0749 34.5863 22.432C34.5608 22.5595 34.5149 22.6768 34.4486 22.7788C34.3721 22.891 34.2803 22.9726 34.1681 23.0389C33.9743 23.146 33.7754 23.1868 33.5458 23.1307C33.5458 23.1307 33.5458 23.1307 33.5254 23.1256C33.5254 23.1256 33.5254 23.1154 33.5254 23.1001C33.505 22.942 33.4387 22.789 33.3469 22.6666C33.2398 22.534 33.1021 22.4473 32.9542 22.3963C32.9083 22.381 32.8675 22.3708 32.8165 22.3606C32.893 21.9168 32.9338 21.468 32.9644 21.0191H32.9593ZM32.2758 22.1463C32.1483 22.4728 31.8882 22.8961 31.4699 23.3399C31.572 21.5292 31.4342 19.7491 30.9191 18.2394C30.8528 18.0507 31.1996 18.1986 31.3526 18.3261C31.6995 18.5403 32.0157 18.6882 32.2554 18.9688C32.3523 19.4431 32.3829 20.0297 32.4288 20.6162C32.4747 21.2028 32.4594 21.6924 32.2758 22.1515V22.1463ZM27.92 30.5825C27.9557 30.6845 27.9455 30.7814 27.8996 30.8784C27.8486 30.9804 27.7772 31.0416 27.6803 31.0824C27.4202 31.164 27.1703 31.164 26.9152 31.0875C26.7877 31.0467 26.6551 31.0467 26.5174 31.0977C26.3899 31.1487 26.293 31.2303 26.2114 31.3527C26.089 31.5567 25.9461 31.7352 25.7676 31.8985C25.6554 32.0005 25.5381 32.0668 25.3953 32.1127C25.2576 32.1484 25.1199 32.1637 24.9771 32.1382C24.6098 32.0872 24.2783 31.9597 23.9723 31.7505C23.8447 31.674 23.7172 31.6434 23.5693 31.6587C23.4214 31.674 23.3041 31.7403 23.2021 31.8372C22.9675 32.0821 22.6971 32.2708 22.3758 32.3881C22.0647 32.5105 21.7434 32.5666 21.4016 32.5411C20.8712 32.5105 20.4121 32.2963 20.0347 31.9342C19.9429 31.8321 19.8307 31.776 19.7032 31.7505C19.5757 31.7352 19.4583 31.7505 19.3359 31.8117C19.2186 31.8678 19.1268 31.9597 19.0656 32.0719C18.9738 32.2453 18.8463 32.3779 18.678 32.4799C18.6066 32.5207 18.5403 32.5411 18.4586 32.5411C18.377 32.5411 18.3056 32.5156 18.2444 32.4748C18.0404 32.3473 17.8619 32.1943 17.7089 32.0107C17.6273 31.9086 17.5202 31.8423 17.3927 31.8066C17.2651 31.776 17.1325 31.7862 17.0152 31.8321C16.8877 31.8882 16.801 31.9648 16.7245 32.077C16.6582 32.179 16.5919 32.2657 16.5052 32.3371C16.4644 32.3779 16.4083 32.4034 16.3573 32.4238C16.3012 32.4391 16.245 32.4391 16.1889 32.434C16.1634 32.434 16.1379 32.4187 16.1175 32.4085C16.0971 32.3983 16.0716 32.3779 16.0563 32.3524C15.9237 32.1535 15.8115 31.9495 15.7146 31.7301C15.6585 31.6026 15.5769 31.5006 15.4545 31.4343C15.3372 31.368 15.2148 31.3476 15.077 31.3629C14.9393 31.3731 14.8271 31.4343 14.7302 31.5261C14.5823 31.6638 14.4446 31.8015 14.3018 31.924C14.2508 31.975 14.1947 31.9954 14.1233 32.0056C14.062 32.0158 14.0008 32.0158 13.9345 31.9903C13.8733 31.9546 13.8223 31.9189 13.7815 31.8627C13.6795 31.7097 13.5571 31.5924 13.4041 31.4955C13.246 31.3986 13.0828 31.3425 12.9042 31.317C12.7512 31.3017 12.6033 31.3323 12.4707 31.4343C12.0933 31.6995 11.6852 31.878 11.2262 31.9648C11.1854 31.975 11.1446 31.9648 11.0987 31.9546C11.063 31.9444 11.0273 31.9291 10.9916 31.8985C10.9049 31.8219 10.8385 31.7301 10.7977 31.6179C10.7467 31.5006 10.6753 31.3986 10.558 31.3221C10.4458 31.2507 10.3234 31.2201 10.1959 31.2201C10.0633 31.2303 9.94087 31.2711 9.83886 31.3578C9.54813 31.5975 9.2421 31.7913 8.90547 31.9546C8.71165 32.0362 8.52293 32.0617 8.31892 32.026C8.28831 32.026 8.26791 32.0056 8.24241 31.9852C8.01799 31.7454 7.87007 31.4649 7.76296 31.1487C7.73236 31.0365 7.66606 30.9396 7.57935 30.8631C7.48754 30.7814 7.38553 30.7406 7.27332 30.7202C6.92139 30.6743 6.59496 30.5723 6.26853 30.4295C5.65647 30.1337 5.12092 29.741 4.67718 29.2309C4.48336 29.0065 4.37115 28.7515 4.33545 28.4556C4.32015 28.2465 4.34565 28.0425 4.43746 27.8487C4.46296 27.8028 4.48846 27.7569 4.53947 27.7263C4.58537 27.7008 4.63638 27.6906 4.68738 27.6957C4.77919 27.6957 4.8608 27.7314 4.9271 27.7977C5.29944 28.1547 5.68197 28.5015 6.06961 28.828C6.25323 28.9759 6.45724 29.0881 6.68677 29.1544C6.91119 29.2105 7.14581 29.2309 7.37533 29.1952C7.56405 29.1748 7.74256 29.134 7.93128 29.083C8.1557 29.0218 8.36482 28.9351 8.57394 28.828C9.00238 28.6035 9.42572 28.3638 9.84396 28.119C10.099 27.966 10.3642 27.8538 10.6396 27.7773C10.9559 27.6855 11.267 27.6702 11.5883 27.7365C11.6699 27.7569 11.7515 27.7671 11.8382 27.7875C12.1086 28.221 12.4809 28.527 12.9654 28.7056C13.5316 28.9096 14.1181 28.9606 14.7098 28.8637C15.0209 28.8076 15.2913 28.6648 15.5157 28.4403C15.8166 28.1292 16.1583 27.8691 16.5307 27.6498C16.5766 27.915 16.6633 28.1802 16.7704 28.4301C16.8418 28.6086 16.9591 28.7617 17.1172 28.8739C17.2804 28.9963 17.4488 29.0677 17.6426 29.0983C18.1832 29.1748 18.7035 29.1034 19.1982 28.8943C19.3257 28.8382 19.443 28.7515 19.5297 28.6341C19.6216 28.5219 19.6828 28.3893 19.7032 28.2465C19.7491 27.9711 19.8511 27.7161 20.0143 27.4865C20.1418 27.7161 20.2693 27.9405 20.4019 28.17C20.5651 28.4301 20.7947 28.6086 21.0854 28.6903C21.4322 28.7872 21.7995 28.8025 22.1616 28.7515C22.5288 28.6954 22.8655 28.5678 23.1715 28.374C23.4061 28.2159 23.6152 28.0374 23.8039 27.8283C23.8855 27.7824 23.9672 27.7569 24.059 27.7212C24.3854 27.6039 24.722 27.5784 25.0638 27.6549C25.3647 27.7314 25.635 27.8691 25.8594 28.0782C26.14 28.323 26.4103 28.5831 26.6806 28.8484C26.8387 29.0014 27.0223 29.083 27.2417 29.1136C27.461 29.1391 27.6599 29.1085 27.8435 28.9963C28.0373 28.8841 28.1699 28.7311 28.2567 28.5219C28.272 28.5015 28.2924 28.4709 28.3128 28.4505C28.3332 28.425 28.3638 28.4097 28.3893 28.3995C28.7514 28.2567 29.1237 28.1853 29.5165 28.1649C29.5573 28.1649 29.5828 28.17 29.6134 28.1904C29.644 28.1955 29.6797 28.221 29.695 28.2414C29.7409 28.2822 29.7562 28.3332 29.7664 28.3842C29.7664 28.4403 29.746 28.4913 29.7103 28.5372C29.2767 29.0779 28.7616 29.5267 28.1648 29.894C28.0526 29.9705 27.9761 30.0623 27.92 30.2C27.8741 30.3326 27.869 30.4652 27.9098 30.5978L27.92 30.5825ZM4.65168 17.408C4.62618 17.4743 4.62108 17.5304 4.60067 17.5916C4.33545 17.5508 4.06512 17.5406 3.7999 17.5559C3.94781 17.2499 4.14673 16.9745 4.39155 16.7348C4.58537 16.5358 4.81999 16.3777 5.09032 16.2808C4.8965 16.6429 4.75369 17.0153 4.65168 17.4131V17.408ZM7.65075 16.4797C7.66095 16.2655 7.71706 16.0768 7.83437 15.8983C7.87517 15.8167 7.93638 15.7504 7.99759 15.6841C8.26281 15.6432 8.52293 15.6126 8.78306 15.5667C10.5988 15.3474 12.4146 15.1281 14.2304 14.9139C14.3069 15.0618 14.363 15.2148 14.4038 15.378C14.312 15.4596 14.1998 15.5004 14.0773 15.5208C13.96 15.531 13.8529 15.5157 13.7305 15.4698C13.5724 15.3984 13.3939 15.3729 13.2256 15.3882C13.042 15.4035 12.8736 15.4647 12.7308 15.5718C12.5727 15.6739 12.3942 15.7402 12.1953 15.7606C12.0015 15.7657 11.8178 15.73 11.6393 15.6483C11.4557 15.5565 11.2568 15.5412 11.0477 15.5871C10.8538 15.6381 10.6906 15.7555 10.5682 15.9238C10.5376 15.9697 10.4968 15.9901 10.4509 16.0054C10.3999 16.0156 10.3438 16.0054 10.303 15.9799C10.1704 15.9034 10.0225 15.8626 9.86436 15.8626C9.70624 15.8626 9.55833 15.9085 9.42572 15.985C9.29311 16.0717 9.1911 16.1788 9.11459 16.3165C9.00238 16.5409 8.82896 16.6888 8.61474 16.7909C8.39032 16.8827 8.1659 16.9082 7.93128 16.847C7.84457 16.8215 7.77827 16.7756 7.72216 16.7092C7.67116 16.6327 7.65075 16.5562 7.65075 16.4746V16.4797ZM0.77022 22.6717C0.540699 21.8862 0.545799 21.0906 0.816124 20.3153C0.98954 19.8256 1.26497 19.4023 1.6577 19.0504C2.18305 18.5862 2.79001 18.3006 3.48877 18.1935C3.8254 18.1425 4.15183 18.1425 4.48336 18.1833C4.43236 18.4944 4.39665 18.8004 4.37625 19.1116C4.36605 19.2799 4.36095 19.4431 4.35585 19.6012C4.15183 19.4533 3.93251 19.3717 3.67749 19.3411C3.43267 19.3156 3.19294 19.3462 2.95322 19.4431C2.7594 19.5298 2.58599 19.6573 2.44827 19.8256C2.31566 19.9888 2.21875 20.1776 2.17795 20.3969C2.05554 20.9528 2.06064 21.5139 2.19325 22.0647C2.23406 22.2586 2.33606 22.4218 2.49928 22.5493C2.56559 22.6156 2.65229 22.6462 2.739 22.6768C2.82571 22.7074 2.92262 22.7074 3.01443 22.6972C2.98892 23.2685 2.90732 23.8397 2.7594 24.3906C2.7339 24.4722 2.6829 24.5487 2.61659 24.5997C2.54518 24.6609 2.46868 24.6915 2.37687 24.6915C2.28506 24.6915 2.20855 24.6609 2.12184 24.6048C1.46898 24.1049 1.01504 23.4572 0.77532 22.6615L0.77022 22.6717ZM4.35585 20.7692C4.19264 20.8151 4.07022 20.912 3.97842 21.0497C3.72339 21.468 3.38676 21.8199 2.97872 22.0953C2.96852 22.1055 2.95322 22.1106 2.92772 22.1106C2.90732 22.1106 2.89202 22.1055 2.87671 22.0902C2.83081 22.0443 2.80021 21.9933 2.77981 21.9372C2.6727 21.468 2.66759 21.0038 2.7696 20.5346C2.79511 20.4122 2.84611 20.3102 2.92262 20.2184C2.99402 20.1266 3.09093 20.0552 3.20314 20.0093C3.35616 19.9531 3.50407 19.9378 3.66729 19.9582C3.8254 19.9889 3.96311 20.0501 4.08043 20.1623C4.16203 20.2337 4.25384 20.2847 4.36095 20.3255V20.7692H4.35585ZM36.3613 23.3093C36.1573 23.8703 35.8768 24.3804 35.5197 24.8547C35.1372 25.3596 34.6526 25.7269 34.0763 25.9666C33.8723 26.0482 33.6581 26.0635 33.4489 26.0023C33.4387 25.7932 33.3622 25.6045 33.2296 25.4362C33.1837 25.3749 33.1378 25.3035 33.0919 25.2423C32.9797 25.0842 32.8369 24.9414 32.6737 24.8343C32.4543 24.6813 32.2401 24.5181 32.031 24.3498C32.0055 24.1916 31.9902 24.0284 31.98 23.8652C31.98 23.6612 32.0106 23.4725 32.0973 23.2889C32.1534 23.1664 32.2452 23.0644 32.3727 23.0083C32.5002 22.9471 32.6329 22.942 32.7655 22.9828C32.8114 22.9981 32.8471 23.0236 32.8726 23.0542C32.9032 23.0848 32.9134 23.1358 32.9185 23.1664C32.9287 23.3093 32.9797 23.4317 33.0817 23.5337C33.1735 23.6408 33.2806 23.702 33.4234 23.7326C33.7907 23.8091 34.1477 23.7632 34.4792 23.5745C34.6628 23.4674 34.821 23.3195 34.9485 23.1409C35.076 22.9624 35.1525 22.7635 35.1831 22.5442C35.2596 22.08 35.2188 21.6261 35.0607 21.1824C34.974 20.9579 34.8465 20.7692 34.6628 20.6111C34.4843 20.4632 34.2701 20.3663 34.0355 20.3204C33.6836 20.2694 33.3316 20.2796 32.9899 20.3867C32.9899 20.2184 32.9899 20.0552 32.9848 19.8919C33.7652 19.744 34.5302 19.8205 35.2596 20.1419C35.5656 20.2898 35.836 20.4938 36.0553 20.7641C36.2695 21.0344 36.4123 21.3354 36.4888 21.672C36.5908 22.228 36.5602 22.7737 36.3715 23.3093H36.3613Z" fill="#1E22B0"/>
<path d="M32.0616 27.0886C32.0106 27.0121 31.9851 26.9356 32.0004 26.8387C32.0157 26.752 32.0565 26.6806 32.1228 26.6194C32.184 26.5633 32.2707 26.5378 32.3625 26.5378C32.4799 26.5429 32.5921 26.5021 32.689 26.4307C32.7757 26.344 32.8318 26.2471 32.842 26.1195C32.8573 26.0022 32.8216 25.8951 32.7553 25.7982C32.6992 25.7268 32.6482 25.6605 32.5972 25.5891C32.5258 25.482 32.4339 25.4004 32.3268 25.3239C31.6587 24.8597 31.4904 24.0641 31.0058 23.2072C31.0007 23.197 30.9905 23.2072 30.9803 23.2072C30.5264 23.6611 30.1132 24.3446 29.9551 24.6353C29.8531 24.8495 29.7868 25.0637 29.7766 25.3086C29.7562 25.5636 29.7358 25.8135 29.6848 26.0634C29.6542 26.242 29.5879 26.4052 29.4808 26.5429C29.3788 26.701 29.2462 26.8183 29.0829 26.8999C28.8432 27.0376 28.6035 27.1651 28.3485 27.2825C27.92 27.4967 27.206 27.8078 26.9305 28.2056C26.9917 28.2617 27.0581 28.328 27.1193 28.3944C27.1754 28.4505 27.2468 28.4862 27.3284 28.4964C27.41 28.4964 27.4814 28.4913 27.5528 28.4454C27.6293 28.3995 27.6803 28.3484 27.7058 28.277C27.7517 28.1699 27.818 28.0781 27.8945 27.9965C27.9761 27.9149 28.0628 27.8537 28.1751 27.818C28.5984 27.6548 29.037 27.5579 29.5012 27.5426C29.6236 27.5426 29.7358 27.5528 29.848 27.6038C29.9602 27.6497 30.0571 27.716 30.1438 27.8027C30.2866 27.9557 30.3683 28.1291 30.3785 28.3383C30.3785 28.5423 30.3173 28.7412 30.1999 28.9044C29.7103 29.491 29.1492 29.9857 28.5015 30.3937C28.5831 30.6488 28.5576 30.8987 28.4403 31.1537C28.3128 31.3934 28.1241 31.5617 27.869 31.6485C27.4916 31.776 27.1142 31.7811 26.7367 31.6587C26.5837 31.9137 26.395 32.1483 26.1706 32.3421C25.9972 32.5053 25.7982 32.6175 25.5687 32.6839C25.3443 32.7553 25.1199 32.7706 24.8904 32.74C24.4313 32.6736 24.0182 32.5053 23.6356 32.2605C23.4826 32.4135 22.9522 33.2653 21.2435 33.1021C20.6978 32.995 20.0041 32.7502 19.6012 32.3523C19.4584 32.6277 19.2492 32.8471 18.9789 33.0001C18.8208 33.097 18.8718 33.1429 18.6882 33.1429C18.4944 33.1429 18.0863 33.0868 17.9282 32.9899C17.6528 32.8267 17.4335 32.6277 17.2345 32.388C17.1478 32.5461 17.0356 32.6736 16.8979 32.791C16.7857 32.893 16.6633 32.9644 16.5205 32.995C16.3777 33.0409 16.2349 33.046 16.092 33.0256C15.9849 33.0103 15.8778 32.9695 15.7911 32.9083C15.6942 32.8522 15.6177 32.7859 15.5514 32.6839C15.3933 32.4594 15.2556 32.2146 15.1485 31.9494C15.0005 32.0922 14.8526 32.235 14.6945 32.3727C14.5619 32.4951 14.3936 32.5716 14.2151 32.5971C14.0264 32.6277 13.8529 32.6022 13.6846 32.5359C13.5163 32.4594 13.3786 32.3472 13.2766 32.1942C13.2205 32.1177 13.1542 32.0565 13.0777 32.0055C12.9961 31.9494 12.9093 31.9239 12.8175 31.9188C12.3738 32.2401 11.874 32.4492 11.3282 32.5512C11.2007 32.5767 11.0681 32.5716 10.9304 32.541C10.8029 32.5053 10.6855 32.4441 10.5835 32.3523C10.4203 32.2095 10.2979 32.031 10.2214 31.8321C9.90007 32.0922 9.54304 32.3166 9.1656 32.4951C8.85957 32.6379 8.53824 32.6839 8.21181 32.6277C8.0486 32.5869 7.91089 32.5155 7.80888 32.4033C7.52835 32.0871 7.31413 31.7301 7.18662 31.3271C6.77348 31.2761 6.38584 31.1537 6.01351 30.9803C5.32495 30.659 4.72819 30.205 4.22324 29.6338C3.94782 29.3124 3.7846 28.9401 3.7387 28.5219C3.7132 28.2056 3.754 27.9047 3.88661 27.6089C3.95802 27.4406 4.07023 27.3131 4.22324 27.2212C4.38136 27.1243 4.54457 27.0886 4.73329 27.0988C4.97301 27.1141 5.18213 27.2008 5.36065 27.3743C5.71258 27.7211 6.07982 28.0526 6.46235 28.3689C6.57966 28.4607 6.71227 28.5372 6.86019 28.578C7.003 28.6137 7.15092 28.629 7.29883 28.6086C7.46204 28.5882 7.61506 28.5525 7.77317 28.5117C7.95679 28.4505 8.12511 28.3842 8.29852 28.2974C8.47194 28.2056 8.64535 28.1087 8.81877 28.0169C8.72186 27.7823 8.62495 27.5426 8.53824 27.308C8.48724 27.1855 8.40563 27.0886 8.28832 27.0121C8.17101 26.9407 8.0435 26.9152 7.91089 26.9305C7.72727 26.956 7.55385 27.0172 7.40084 27.109C7.28353 27.1702 7.16112 27.211 7.0336 27.2212C6.91119 27.2314 6.78368 27.2212 6.66637 27.1702C6.62047 26.6806 6.60516 26.1807 6.63067 25.6911C6.63067 25.6554 6.62557 25.6248 6.61027 25.5942C6.59496 25.5636 6.56436 25.533 6.54396 25.5177C6.51336 25.4973 6.48275 25.4922 6.44195 25.4922C6.17162 25.4769 5.9013 25.4565 5.63097 25.4208C5.63097 25.1556 5.61057 24.9005 5.58507 24.6455C5.58507 24.5792 5.54427 24.5231 5.49836 24.4823C5.46266 24.4415 5.40145 24.4262 5.34025 24.416C4.93221 24.4109 4.52417 24.365 4.12124 24.2987C4.08043 23.656 4.11103 23.0134 4.21814 22.386C4.26405 22.1412 4.29465 21.8862 4.32015 21.6362C4.11614 21.9168 3.88661 22.1565 3.63669 22.3707C3.63669 23.1205 3.54488 23.8498 3.35616 24.569C3.29496 24.7832 3.17765 24.9617 2.99913 25.0995C2.82572 25.2372 2.6217 25.3086 2.39728 25.3137C2.27486 25.7064 2.20346 26.094 2.19326 26.5021C2.16776 26.956 2.00454 27.3488 1.69341 27.6854C1.22927 28.2005 1.15786 28.6698 1.06095 29.3583C0.979345 29.9551 1.13236 30.7253 1.26497 31.1588C1.30578 31.2863 1.46389 31.8168 1.70871 32.1432C1.86683 32.3523 1.86683 32.4186 2.47378 32.9338C2.72371 33.1429 3.50408 33.3979 3.67239 33.7907C3.7897 34.0661 3.81011 34.3415 3.7489 34.6322C3.6826 34.9179 3.64179 35.2239 3.63159 35.5248C3.6928 35.5044 3.754 35.4789 3.80501 35.4483C3.92742 35.3769 4.06513 35.3463 4.20794 35.3667C4.35076 35.3922 4.46297 35.4483 4.56498 35.5656C4.66189 35.6676 4.71799 35.7951 4.72309 35.9379C4.72819 35.9941 4.74859 36.0502 4.7945 36.091C4.8404 36.1216 4.89651 36.1522 4.95261 36.1522C5.20254 36.1522 5.43716 36.1114 5.67178 36.0502C5.78399 36.0247 5.8962 36.0196 6.00331 36.0502C6.11552 36.0859 6.21243 36.1522 6.28894 36.2389C6.36034 36.3256 6.41135 36.4225 6.43175 36.5398C6.46235 36.7642 6.53886 36.9682 6.65617 37.1621C6.78368 37.3559 6.92649 37.5191 7.11521 37.6517C7.52325 37.9475 7.97209 38.0597 8.47194 38.0189C8.61985 37.9985 8.76266 38.0291 8.88508 38.121C9.00749 38.2077 9.08909 38.3301 9.1248 38.4729C9.29821 39.1767 9.67055 39.748 10.2469 40.1815C10.8335 40.6049 11.4761 40.8089 12.2004 40.7783C12.333 40.7681 12.4554 40.8038 12.5676 40.8752C12.6747 40.9517 12.7563 41.0537 12.8022 41.1761C12.9399 41.5587 13.1542 41.8953 13.4449 42.1758C13.7203 42.4615 14.0672 42.6655 14.4497 42.793C15.0566 43.0072 15.684 43.0582 16.3165 42.9562C16.954 42.8491 17.5304 42.5992 18.0455 42.2166C18.1679 42.1248 18.2954 42.0789 18.4485 42.0891C18.5964 42.1044 18.7239 42.1554 18.8412 42.2625C19.0401 42.4615 19.2696 42.6196 19.5298 42.7522C19.5655 42.7675 19.6012 42.7777 19.642 42.7726C19.6777 42.7675 19.7185 42.7471 19.7542 42.7267C19.8868 42.6298 19.9888 42.4921 20.0653 42.3492C20.1469 42.2013 20.1826 42.0381 20.1826 41.8698C20.1826 41.7372 20.2387 41.6199 20.3101 41.5128C20.3917 41.4006 20.4988 41.3291 20.6264 41.2934C20.7539 41.2679 20.8814 41.2679 21.0089 41.3189C21.1925 41.3853 21.3812 41.3955 21.5699 41.3648C21.7638 41.3291 21.9372 41.2475 22.0851 41.1098C22.1718 41.0333 22.2687 40.9874 22.3758 40.967C22.4829 40.9517 22.5951 40.9568 22.7022 40.9976C23.1613 41.1506 23.6254 41.2067 24.11 41.1353C24.1916 41.12 24.263 41.0894 24.3191 41.0384C24.3752 40.9823 24.416 40.9109 24.4313 40.8344C24.4772 40.6355 24.4976 40.4417 24.4823 40.2325C24.4823 40.0693 24.5282 39.9316 24.6404 39.8092C24.7526 39.6919 24.8904 39.6205 25.0536 39.6154C25.5942 39.5797 26.1247 39.5032 26.6551 39.4114C26.7469 39.3961 26.8336 39.3553 26.8948 39.2839C26.9662 39.2176 27.007 39.1359 27.0172 39.039C27.0734 38.6973 27.0785 38.6361 27.1295 38.024C27.1856 37.412 28.0424 37.7537 28.9554 37.1621C29.7715 36.4786 29.542 35.9022 29.6338 35.5095C29.7868 34.8465 31.0619 35.1627 31.6383 34.775C31.9545 34.5608 31.3986 33.6325 31.7505 33.3469C32.082 33.0817 32.6584 32.6685 32.8216 32.4594C33.4999 31.5974 33.4132 31.776 33.7295 31.0823C34.1069 30.256 34.1375 29.7613 34.0559 29.0268C33.9947 28.5831 34.0151 28.2617 33.5101 27.7823C33.148 27.4355 32.6788 27.3233 32.2758 27.2365C32.1891 27.2161 32.1177 27.1702 32.0667 27.1039L32.0616 27.0886Z" fill="white"/>
<path d="M26.4817 27.8028C26.4154 27.7365 26.3491 27.6804 26.2828 27.6192C25.9818 27.3386 25.6248 27.1601 25.2168 27.0632C24.926 26.9867 24.6251 26.9867 24.3293 27.0224C24.4211 26.7827 24.4619 26.543 24.4568 26.2828C24.4415 26.0227 24.3752 25.7779 24.2579 25.5484C24.1814 25.4005 24.0896 25.2526 23.9926 25.1097C24.4721 25.1862 24.9413 25.1301 25.3902 24.9363C25.9818 24.6813 26.4664 24.2937 26.8591 23.7887L26.3746 23.4215C26.0481 23.8448 25.6401 24.1611 25.1505 24.3855C24.6863 24.5742 24.2222 24.5895 23.7478 24.4161C23.2837 24.2478 22.8654 23.9978 22.488 23.6765C21.9168 23.1665 21.524 22.5442 21.3353 21.7995C21.1619 21.162 21.116 20.5091 21.1823 19.8461C21.1976 19.6522 21.2537 19.4737 21.3506 19.3054C21.4577 19.1371 21.5852 18.9943 21.7382 18.8872C22.0596 18.6576 22.4217 18.525 22.8144 18.4842C23.7478 18.3975 24.6353 18.5505 25.4769 18.9586L25.7472 18.423C24.7934 17.9589 23.7988 17.7804 22.7481 17.8722C22.2534 17.9334 21.7994 18.0966 21.3965 18.3873C21.1568 18.5454 20.9681 18.7495 20.8253 18.9943C20.6824 19.2442 20.5957 19.5094 20.5702 19.7848C20.4988 20.5193 20.5549 21.2385 20.7334 21.9474C20.963 22.8145 21.4067 23.5388 22.0851 24.1304C22.3197 24.3396 22.5747 24.5181 22.845 24.6762C23.2021 25.0077 23.4877 25.3954 23.7172 25.8238C23.7988 25.9921 23.8345 26.1655 23.8396 26.3441C23.8396 26.5277 23.8039 26.7062 23.7274 26.8694C23.5183 27.2723 23.2327 27.5988 22.8552 27.8436C22.6155 27.9966 22.3605 28.0986 22.0902 28.1445C21.8096 28.1853 21.5342 28.1649 21.2639 28.0935C21.1262 28.0578 21.0191 27.9711 20.9426 27.8487C20.8151 27.6345 20.6875 27.4101 20.5702 27.1856C20.4988 27.0683 20.4019 26.9765 20.2693 26.9153C20.1418 26.8643 20.0092 26.8541 19.8715 26.8898C19.7338 26.9306 19.6266 27.002 19.545 27.1193C19.3206 27.4305 19.1829 27.762 19.1217 28.1445C19.1166 28.1751 19.1013 28.221 19.0758 28.2516C19.0452 28.2822 19.0197 28.3026 18.9738 28.323C18.5861 28.4811 18.1781 28.5373 17.7497 28.4812C17.663 28.4709 17.5814 28.4352 17.5099 28.3842C17.4334 28.323 17.3824 28.2516 17.3518 28.1751C17.2549 27.9609 17.1988 27.7467 17.158 27.5223C17.1274 27.3947 17.0713 27.2825 16.9693 27.1856C16.8775 27.104 16.7602 27.0479 16.6174 27.0326C16.4899 27.0122 16.3725 27.0428 16.2501 27.1091C15.8319 27.3488 15.4443 27.6498 15.1076 28.0017C14.975 28.1292 14.8118 28.2159 14.6282 28.2465C14.1334 28.3332 13.6642 28.2873 13.1898 28.1241C12.8736 28.0017 12.6084 27.8079 12.4197 27.5223C12.231 27.2417 12.1391 26.9306 12.1391 26.594C12.1545 26.191 12.2973 25.8391 12.5829 25.5484C12.8073 25.3189 13.047 25.1046 13.2919 24.9108C13.7611 24.5436 14.1181 24.0845 14.3681 23.5388C14.8322 22.5136 15.2198 21.4629 15.5259 20.3816C15.5922 20.147 15.6024 19.9124 15.5616 19.6624C15.5157 19.4176 15.4137 19.2085 15.2657 19.0096C14.7812 18.4026 14.1538 18.0354 13.3786 17.9232C11.93 17.7294 10.5019 17.8875 9.12477 18.372L9.32879 18.9382C10.6192 18.4893 11.9453 18.3516 13.297 18.5301C13.9039 18.6219 14.3987 18.9076 14.7812 19.3921C14.873 19.5043 14.9393 19.642 14.9648 19.7797C14.9903 19.9328 14.9852 20.0756 14.9444 20.2235C14.6435 21.2691 14.266 22.2994 13.8172 23.2991C13.603 23.7479 13.3174 24.1304 12.9144 24.4416C12.639 24.6507 12.3891 24.8802 12.1442 25.125C11.7515 25.5382 11.5475 26.0329 11.5322 26.594C11.5322 26.7674 11.5475 26.951 11.5832 27.1193C11.216 27.0632 10.8487 27.0836 10.4917 27.1907C10.1653 27.2876 9.84394 27.4203 9.53791 27.5988C9.4767 27.6243 9.4104 27.6702 9.35429 27.711C9.26758 27.5019 9.19108 27.2978 9.10947 27.0836C9.01256 26.8286 8.83915 26.6246 8.60452 26.4869C8.3648 26.3441 8.10978 26.3032 7.83435 26.3237C7.62013 26.3543 7.42632 26.4155 7.2325 26.5073C7.2274 26.242 7.2274 25.9768 7.2427 25.7167C7.2427 25.5688 7.2172 25.4362 7.14579 25.3036C7.07438 25.176 6.98767 25.0689 6.86016 24.9975C6.73775 24.9159 6.60514 24.8802 6.46743 24.8751C6.38072 24.8751 6.29401 24.8649 6.2124 24.8649C6.2073 24.7578 6.2022 24.666 6.1818 24.5691C6.1563 24.3549 6.06449 24.1764 5.90127 24.0284C5.74316 23.8856 5.55954 23.8142 5.34532 23.804C5.1311 23.7989 4.91688 23.7887 4.70776 23.7683C4.70776 23.3348 4.73837 22.9063 4.81487 22.4779C4.92708 21.8403 4.97809 21.1824 4.96279 20.5244C4.95259 20.0705 4.96279 19.6114 4.98829 19.1524C5.01889 18.6219 5.1005 18.0864 5.23821 17.5661C5.35042 17.1122 5.53914 16.6736 5.79416 16.2757C5.83497 16.2043 5.88087 16.1329 5.93188 16.0717C6.35012 15.9748 6.76835 15.8881 7.19169 15.8167C7.10499 16.0258 7.05908 16.24 7.04888 16.4644C7.04888 16.694 7.11009 16.9031 7.2427 17.0867C7.38041 17.2601 7.55893 17.3876 7.77825 17.4488C8.15568 17.5406 8.51271 17.5202 8.86465 17.3672C9.21148 17.2091 9.4818 16.949 9.66032 16.6226C9.68072 16.5716 9.71133 16.5511 9.74703 16.5205C9.78273 16.5001 9.82864 16.4848 9.87454 16.4848C9.91534 16.4848 9.95615 16.495 9.99695 16.5154C10.1806 16.6124 10.3693 16.6532 10.5784 16.6124C10.7875 16.5614 10.9507 16.4491 11.0732 16.2757C11.1089 16.2349 11.1548 16.2043 11.2109 16.1788C11.267 16.1737 11.3282 16.1737 11.3741 16.1992C11.6495 16.3369 11.9453 16.393 12.2463 16.3726C12.5472 16.342 12.8328 16.24 13.0776 16.0717C13.1439 16.0258 13.2102 16.0105 13.2817 16.0054C13.3582 15.9952 13.4296 16.0054 13.4908 16.036C13.7203 16.1329 13.9549 16.1584 14.1895 16.1278C14.4242 16.087 14.6333 15.9952 14.822 15.8422C14.8985 15.7708 14.9495 15.6943 14.9903 15.5974C15.0209 15.5056 15.0209 15.4086 15.0056 15.3066C14.9699 15.1536 14.9291 14.9904 14.873 14.8578C15.0974 14.8221 15.3269 14.8017 15.5565 14.7762C16.8265 14.6283 18.1016 14.5569 19.3767 14.5926C19.846 14.6028 20.3152 14.6385 20.7895 14.6844C20.662 14.7354 20.56 14.817 20.4631 14.919C20.3866 15.021 20.3203 15.1332 20.2846 15.2658C20.2438 15.429 20.2438 15.5923 20.2846 15.7555C20.3305 15.9187 20.4223 16.0615 20.5498 16.1686C20.6722 16.2808 20.8202 16.3624 20.9885 16.3981C21.2537 16.444 21.5189 16.4593 21.7841 16.4389C21.8351 16.4389 21.8759 16.4542 21.9168 16.4746C21.9627 16.4899 21.9984 16.5256 22.0239 16.5511C22.2126 16.7858 22.4574 16.9286 22.7583 16.9694C23.0542 17.0102 23.3194 16.9286 23.5642 16.745C23.5999 16.7246 23.6407 16.7042 23.6815 16.6991C23.7274 16.6991 23.7631 16.7042 23.809 16.7246C23.8549 16.7399 23.8753 16.7603 23.9059 16.8011C23.9416 16.8572 23.9926 16.9031 24.0539 16.9337C24.11 16.9643 24.1763 16.9745 24.2426 16.9745C24.6506 16.949 25.0484 16.9184 25.4565 16.8827C25.5075 16.8827 25.5534 16.8929 25.5891 16.9133C25.635 16.9439 25.6605 16.9745 25.686 17.0204C25.7472 17.1479 25.839 17.2448 25.9512 17.3111C26.0787 17.3774 26.2113 17.4029 26.344 17.3927C26.5684 17.3723 26.7673 17.3162 26.9713 17.2346C27.1141 17.1734 27.2263 17.0918 27.3284 16.9847C27.4202 16.8776 27.5171 16.6379 27.5681 16.5001C27.5987 16.5205 27.6446 16.5358 27.6854 16.5562C27.9149 16.6532 29.4246 17.4284 29.6593 17.5559C29.695 17.6069 29.9602 17.6784 29.9959 17.7345L30.2101 17.9946C30.2305 18.0303 31.1027 21.2334 30.8579 22.4371C30.8171 22.6513 30.1642 23.3042 30.1642 23.3042C29.7562 24.0692 29.5318 24.1713 29.4144 24.3855C29.2563 24.6711 29.1747 24.9771 29.1543 25.3036C29.1441 25.5229 29.1186 25.7575 29.0778 25.9819C29.0625 26.0686 29.0268 26.1502 28.9758 26.2216C28.9197 26.3032 28.8585 26.3543 28.782 26.3951C28.5525 26.5277 27.9659 26.6603 27.7211 26.7674C27.2212 27.0173 26.803 27.3692 26.4715 27.8232L26.4817 27.8028Z" fill="white"/>
<path d="M32.2758 22.1515C32.1483 22.478 31.8882 22.9013 31.4699 23.345C31.572 21.5344 31.4342 19.7543 30.9191 18.2446C30.8528 18.0559 31.1996 18.2038 31.3526 18.3313C31.6995 18.5455 32.0157 18.6934 32.2554 18.9739C32.3523 19.4483 32.3829 20.0348 32.4288 20.6214C32.4747 21.2079 32.4594 21.6976 32.2758 22.1566V22.1515Z" fill="white"/>
<path d="M21.1057 15.7759C21.3251 15.8218 21.5393 15.8371 21.7535 15.8218C21.8963 15.8065 22.0391 15.8422 22.1819 15.8932C22.3197 15.9544 22.4268 16.0462 22.5135 16.1635C22.6002 16.2706 22.7124 16.3267 22.845 16.3471C22.9827 16.3624 23.1 16.3318 23.2071 16.2553C23.3806 16.1227 23.5693 16.0615 23.7886 16.0819C24.0028 16.0972 24.1864 16.189 24.3343 16.342C24.6965 16.3216 25.0586 16.2961 25.4207 16.2706C25.5942 16.2502 25.7574 16.2859 25.9053 16.3726C26.0532 16.4594 26.1705 16.5767 26.247 16.7348C26.2521 16.745 26.2572 16.7603 26.2674 16.7603C26.2827 16.7654 26.298 16.7756 26.3082 16.7654C26.4612 16.7552 26.6194 16.7195 26.7622 16.6532C26.8234 16.6226 26.8999 16.4849 26.9407 16.4288C26.9764 16.3675 27.007 16.3063 27.007 16.2451V16.2349C25.334 15.5311 23.5744 15.1281 21.7892 14.8068C21.7433 14.8068 21.6923 14.7966 21.6464 14.7915C21.6107 14.9037 21.5444 15.0006 21.4475 15.0771C21.3506 15.1536 21.2384 15.1944 21.121 15.2097C21.0598 15.2097 21.0139 15.2301 20.968 15.2658C20.917 15.3016 20.8915 15.3526 20.8762 15.4087C20.8609 15.4648 20.8609 15.5209 20.8762 15.5719C20.8915 15.6229 20.917 15.6688 20.968 15.7096C21.0037 15.7453 21.0496 15.7759 21.1057 15.7759Z" fill="white"/>
<path d="M10.4764 20.8916C10.6039 20.7947 10.7569 20.7539 10.915 20.7641C11.2261 20.7896 11.5271 20.8763 11.8076 21.0243C11.4098 20.9886 11.0221 21.0243 10.6447 21.1263C10.5682 21.1467 10.4968 21.1977 10.4458 21.2589C10.3897 21.315 10.3642 21.3915 10.354 21.4731C10.3387 21.7689 10.3336 22.0801 10.3489 22.381C10.3489 22.4575 10.3744 22.5289 10.4203 22.6003C10.4662 22.6615 10.5223 22.7125 10.5937 22.7431C10.6702 22.7737 10.7416 22.7839 10.8232 22.7737C11.068 22.738 11.318 22.7023 11.5577 22.6717C11.7719 22.6411 11.9555 22.5595 12.1187 22.4269C12.2921 22.2892 12.4095 22.1209 12.4758 21.9219C12.537 21.7689 12.5727 21.5955 12.588 21.4272C12.6033 21.2385 12.5727 21.0498 12.4809 20.8814C12.3942 20.708 12.2564 20.5805 12.0881 20.4887C11.7311 20.3 11.3486 20.1878 10.9507 20.1572C10.6345 20.1419 10.3489 20.2184 10.0938 20.4071C9.83882 20.606 9.56849 20.7845 9.28796 20.9426L9.58379 21.4731C9.88982 21.2895 10.1805 21.1059 10.4611 20.8865" fill="#1E22B0"/>
<path d="M25.3902 20.6211C25.2933 20.4833 25.176 20.366 25.023 20.2895C24.875 20.2079 24.7169 20.1671 24.5486 20.1773C24.0386 20.1875 23.5897 20.3558 23.1919 20.6772L23.5795 21.1464C23.8652 20.9118 24.1916 20.7894 24.5639 20.7843C24.6761 20.7945 24.773 20.8455 24.8648 20.9067C24.9567 20.973 25.023 21.0648 25.0689 21.1617C24.9006 21.1311 24.7322 21.1209 24.5588 21.1209C24.3701 21.1209 24.1916 21.1719 24.0233 21.2484C23.9621 21.2841 23.8958 21.33 23.8601 21.3912C23.8193 21.4473 23.7989 21.5187 23.7835 21.5902C23.7733 21.7075 23.7733 21.835 23.7631 21.9625C23.7631 21.9931 23.7529 22.0288 23.7274 22.0492C23.7019 22.0747 23.6662 22.0849 23.6356 22.09C23.5846 22.09 23.5285 22.1002 23.4724 22.1104C23.4469 22.1206 23.4265 22.1308 23.4061 22.1512C23.3908 22.1818 23.3806 22.2022 23.3755 22.2277C23.3602 22.3144 23.3602 22.4011 23.3602 22.4878C23.3653 22.5286 23.3755 22.5592 23.3908 22.5847C23.4112 22.6204 23.4418 22.6408 23.4622 22.6561C23.6764 22.7735 23.9162 22.8449 24.161 22.8602C24.4721 22.8857 24.773 22.8449 25.0689 22.7378C25.2066 22.6919 25.3239 22.6102 25.431 22.5031C25.5279 22.3909 25.5942 22.2685 25.635 22.1257C25.7013 21.8656 25.7166 21.6004 25.6758 21.3453C25.6299 21.0801 25.5381 20.8404 25.4004 20.616" fill="#1E22B0"/>
</g>
<defs>
<clipPath id="clip0_1_27757">
<rect width="232" height="43.5988" fill="white"/>
</clipPath>
</defs>
</svg>
