<svg width="125" height="148" viewBox="0 0 125 148" fill="none" xmlns="http://www.w3.org/2000/svg">
<path d="M8.89639 53.7069C9.89811 52.1918 11.0404 50.8177 12.3585 49.5844C14.274 47.8139 16.3478 46.2724 18.5885 44.9334C21.6991 43.1012 24.8888 41.4892 28.219 40.1415C32.1732 38.4942 36.2855 37.3227 40.5033 36.5827C44.7738 35.8252 49.0443 35.4464 53.385 35.4552C59.6326 35.5081 65.8626 35.7547 72.0662 36.3097C78.3577 36.8734 84.5174 38.1507 90.519 40.1327C94.7894 41.5773 99.965 43.6033 103.673 46.2459C105.571 47.6289 107.223 49.2409 108.638 51.126C110.457 53.5924 111.423 56.376 111.871 59.4238C112.1 61.0006 112.32 64.066 112.32 64.066L110.826 64.9821C110.738 64.0396 110.624 63.097 110.501 62.1545C110.237 60.4544 109.806 58.772 109.165 57.1776C108.154 54.6671 106.52 52.6763 104.218 51.2669C101.608 49.7166 98.8315 48.5274 95.8966 47.7258L95.3694 49.699C98.1197 50.4565 100.721 51.584 103.163 53.0463C105.07 54.209 106.45 55.8563 107.267 57.9351C107.68 59.045 108.278 60.5513 108.251 61.6524C103.251 57.8647 97.6452 55.3982 97.3552 55.2661L95.1497 54.2443C88.6385 51.2581 80.6863 49.1528 73.6479 47.9196C70.8712 47.4263 68.0418 47.1532 65.2387 47.0916C60.8452 47.0211 56.4693 47.2149 52.1109 47.7346C44.5189 48.6155 36.9094 49.5316 29.3174 50.4741C25.3369 50.9938 21.4003 51.7074 17.5077 52.6411C15.8909 53.0375 14.4849 53.8038 13.325 54.9666C12.0246 56.2527 11.0668 57.7942 10.4605 59.5031C9.81024 59.6616 9.15121 59.8378 8.52733 60.0933L8.4834 55.1251C8.4834 54.6319 8.60642 54.1474 8.8876 53.7157L8.89639 53.7069Z" fill="white"/>
<path d="M112.75 93.6547C114.446 95.2843 114.376 96.3589 114.578 97.8564C114.859 100.332 114.745 101.997 113.479 104.789C112.416 107.123 112.706 106.533 110.43 109.431C109.877 110.136 107.926 111.519 106.819 112.417C105.633 113.377 107.513 116.505 106.441 117.227C104.49 118.539 100.22 117.465 99.6926 119.702C99.3939 121.015 100.167 122.961 97.408 125.269C94.3414 127.269 91.4504 126.115 91.2659 128.185C91.0902 130.246 91.0902 130.458 90.8881 131.612C90.8441 131.929 90.7035 132.211 90.4663 132.44C90.2554 132.677 89.9654 132.818 89.6579 132.862C87.8829 133.179 86.0816 133.426 84.2714 133.549C83.7267 133.576 83.2697 133.805 82.8831 134.21C82.514 134.633 82.3559 135.091 82.3559 135.646C82.3998 136.359 82.3295 137.02 82.1801 137.681C82.1274 137.936 81.9868 138.183 81.8023 138.368C81.6178 138.535 81.3893 138.641 81.1081 138.685C79.4825 138.932 77.9096 138.72 76.3719 138.218C76.0204 138.077 75.6426 138.068 75.2823 138.121C74.9133 138.192 74.5969 138.341 74.307 138.606C73.8149 139.055 73.235 139.337 72.5759 139.46C71.9345 139.575 71.3018 139.531 70.6867 139.302C70.2474 139.125 69.8344 139.125 69.395 139.213C68.9557 139.346 68.5954 139.583 68.323 139.962C68.0682 140.315 67.9012 140.72 67.8925 141.16C67.8925 141.742 67.7694 142.279 67.497 142.781C67.2422 143.274 66.8907 143.732 66.4514 144.058C66.3284 144.129 66.1966 144.19 66.0735 144.217C65.9242 144.217 65.8099 144.19 65.6869 144.138C64.8082 143.697 64.0525 143.16 63.3759 142.49C62.9893 142.138 62.5675 141.953 62.0579 141.909C61.5482 141.874 61.1177 142.023 60.7047 142.332C58.9736 143.627 57.0405 144.472 54.8877 144.833C52.7524 145.177 50.6435 145.001 48.605 144.278C47.3221 143.847 46.1534 143.16 45.222 142.191C44.2378 141.239 43.5173 140.103 43.0604 138.817C42.8934 138.412 42.6298 138.068 42.2695 137.804C41.8829 137.566 41.4787 137.443 41.0306 137.478C38.5965 137.584 36.4174 136.897 34.4491 135.461C32.5159 133.99 31.2682 132.07 30.6794 129.691C30.5652 129.216 30.3016 128.802 29.8798 128.511C29.4756 128.211 28.9836 128.106 28.4915 128.167C26.8044 128.299 25.2842 127.912 23.9222 126.925C23.2808 126.476 22.8063 125.93 22.3757 125.278C21.9803 124.626 21.7255 123.939 21.62 123.173C21.5497 122.776 21.3828 122.442 21.1455 122.16C20.8995 121.86 20.5744 121.64 20.1878 121.526C19.8187 121.42 19.4409 121.42 19.063 121.517C18.2722 121.719 17.4814 121.851 16.6466 121.86C16.4533 121.86 16.2775 121.772 16.1194 121.658C15.9788 121.517 15.9085 121.332 15.8821 121.147C15.8645 120.653 15.6712 120.231 15.3461 119.887C15.0122 119.499 14.6256 119.306 14.1511 119.226C13.659 119.156 13.2109 119.253 12.7891 119.499C12.6221 119.605 12.4113 119.702 12.2091 119.764C12.2443 118.76 12.3849 117.729 12.6046 116.76C12.8155 115.782 12.7452 114.857 12.3497 113.924C11.7874 112.602 9.15127 111.739 8.32529 111.034C6.2867 109.299 6.27791 109.088 5.75069 108.374C4.9335 107.273 4.37992 105.485 4.2569 105.062C3.80876 103.6 3.29912 100.992 3.57151 98.9928C3.90542 96.6761 4.14267 95.0817 5.69797 93.3464C6.75241 92.2276 7.30599 90.8887 7.38508 89.3648C7.42901 87.9906 7.66626 86.6781 8.07925 85.348C8.83493 85.348 9.51153 85.0926 10.1003 84.6345C10.689 84.1676 11.0844 83.5598 11.2953 82.8463C11.9368 80.4151 12.2443 77.9487 12.2443 75.4294C13.0966 74.7071 13.8699 73.8878 14.5465 72.9453C14.4586 73.791 14.3708 74.6542 14.2038 75.4734C13.8347 77.5875 13.7293 79.7457 13.8699 81.9214C15.2319 82.1504 16.5939 82.3002 17.9734 82.3266C18.1667 82.353 18.3776 82.4235 18.5006 82.5556C18.6588 82.6878 18.7906 82.8728 18.7906 83.1018C18.8873 83.9562 18.9488 84.8283 18.9488 85.718C19.8626 85.8413 20.7765 85.903 21.6815 85.9558C21.8134 85.9558 21.9188 85.9734 22.0242 86.0439C22.1033 86.0968 22.1912 86.2025 22.2527 86.2994C22.3054 86.3963 22.323 86.5108 22.323 86.6253C22.2351 88.2813 22.2879 89.9638 22.4372 91.611C22.8414 91.7696 23.2544 91.8136 23.6762 91.7784C24.1156 91.7432 24.5285 91.611 24.9152 91.3908C25.4424 91.0825 26.0135 90.8711 26.6374 90.783C27.068 90.7302 27.5073 90.8182 27.9028 91.0561C28.2982 91.3115 28.5794 91.6463 28.7463 92.0603C29.0451 92.8442 29.3702 93.6547 29.6953 94.4474C29.1066 94.7558 28.5266 95.0817 27.9467 95.39C27.3755 95.6895 26.8044 95.9097 26.1805 96.1211C25.6533 96.262 25.1261 96.3766 24.5813 96.447C24.0804 96.5175 23.5708 96.4646 23.105 96.3413C22.6042 96.2092 22.1648 95.9625 21.7694 95.6454C20.4865 94.5796 19.2475 93.4697 18.0613 92.2981C17.455 91.7167 16.7608 91.426 15.9436 91.3732C15.311 91.338 14.7486 91.4701 14.2214 91.7872C13.7029 92.1043 13.3251 92.5359 13.0878 93.0997C12.6573 94.0863 12.5079 95.1081 12.5958 96.174C12.7452 97.601 13.29 98.843 14.2302 99.9353C15.9261 101.856 17.9383 103.388 20.2493 104.481C21.5146 105.071 22.8151 105.476 24.2034 105.652C24.6164 107.018 25.3369 108.224 26.2859 109.29C26.6286 109.669 27.0943 109.924 27.6479 110.048C28.7551 110.233 29.8271 110.101 30.864 109.607C32.1293 108.999 33.3331 108.242 34.4139 107.37C34.6863 108.048 35.0993 108.638 35.6441 109.132C35.978 109.44 36.3822 109.651 36.804 109.766C37.2521 109.872 37.7003 109.898 38.1396 109.801C39.9673 109.458 41.6544 108.753 43.1482 107.678C43.4558 107.705 43.7457 107.784 44.0269 107.969C44.2817 108.145 44.5102 108.348 44.6947 108.612C45.055 109.132 45.5031 109.51 46.0743 109.757C46.6367 109.986 47.2254 110.074 47.8581 109.968C48.4556 109.872 49.0179 109.616 49.4661 109.202C49.9845 108.744 50.4942 108.26 50.9862 107.775C51.3465 108.665 51.8034 109.493 52.3394 110.25C52.5591 110.585 52.8139 110.814 53.1391 110.999C53.4378 111.202 53.7805 111.334 54.1496 111.387C54.6241 111.457 55.1073 111.448 55.5906 111.29C56.0739 111.184 56.4869 110.937 56.8647 110.603C57.3217 110.206 57.7083 109.775 57.9983 109.246C58.6661 110.057 59.413 110.735 60.3356 111.281C60.8628 111.607 62.2512 111.783 62.8926 111.792C63.5253 111.792 63.3496 111.633 63.8768 111.307C64.7906 110.788 65.5024 110.057 65.9769 109.123C67.3213 110.471 69.6586 111.299 71.4951 111.66C77.2418 112.215 79.0256 109.352 79.544 108.823C80.8357 109.651 82.2241 110.224 83.7618 110.444C84.5351 110.559 85.2995 110.497 86.0552 110.259C86.8285 110.039 87.5051 109.66 88.085 109.114C88.8319 108.453 89.4646 107.669 89.983 106.806C91.2571 107.211 92.5312 107.202 93.7966 106.771C94.6577 106.48 95.2991 105.916 95.7209 105.106C96.1163 104.252 96.2042 103.415 95.923 102.551C98.1022 101.177 100 99.5037 101.635 97.5305C102.021 96.9844 102.25 96.3237 102.232 95.6278C102.197 94.9055 101.925 94.3241 101.441 93.8132C101.151 93.5225 100.826 93.3023 100.457 93.1349C100.079 92.9676 99.6927 92.9323 99.2885 92.9323C97.7332 92.994 96.2569 93.3199 94.8247 93.8661C94.4556 93.9894 94.1568 94.2096 93.8757 94.4739C93.6033 94.7381 93.3924 95.0464 93.2342 95.4164C93.1639 95.6631 92.9794 95.8392 92.7246 95.9802C92.4873 96.1299 92.2413 96.1652 91.9777 96.1475C91.6877 96.1123 91.4592 95.989 91.2659 95.804C91.055 95.5926 90.8353 95.3636 90.6332 95.1698C91.5647 93.8308 93.9547 92.7826 95.4046 92.0515C96.2569 91.6463 97.0741 91.2146 97.8825 90.7566C98.4273 90.4747 98.8667 90.0783 99.2182 89.5498C99.5784 89.0917 99.7981 88.528 99.9035 87.9378C100.071 87.0833 100.15 86.2465 100.22 85.3833C100.246 84.5729 100.475 83.8329 100.817 83.1194C101.389 82.0536 103.928 79.2259 103.489 78.0984C104.692 81.1727 106.485 83.8065 108.796 85.4185C109.165 85.6651 109.464 85.947 109.71 86.3082C109.877 86.546 110.053 86.775 110.246 87.0129C110.466 87.3476 110.589 87.6911 110.536 88.0963C110.492 88.5192 110.307 88.8539 110.017 89.1358C109.701 89.3824 109.332 89.5146 108.928 89.4969C108.62 89.4969 108.339 89.5762 108.128 89.77C107.909 89.9726 107.759 90.2193 107.715 90.5099C107.671 90.8359 107.75 91.0913 107.926 91.3556C108.102 91.5758 108.339 91.7344 108.629 91.796C109.982 92.0867 111.564 92.4655 112.785 93.6458L112.75 93.6547Z" fill="white"/>
<path d="M110.87 75.5443C111.38 75.7117 111.837 76.0024 112.197 76.4516C112.522 76.8656 112.742 77.3765 112.803 77.9227C112.803 77.9667 112.803 77.9843 112.803 78.002C112.856 78.0196 112.865 78.0284 112.873 78.0284C113.629 78.2046 114.315 78.0724 114.965 77.7201C115.343 77.5087 115.65 77.2268 115.905 76.848C116.133 76.5133 116.292 76.1169 116.371 75.6853C116.573 74.4873 116.45 73.2981 116.046 72.1265C115.887 71.7125 115.65 71.3602 115.307 71.0871C114.974 70.8228 114.587 70.629 114.165 70.541C113.19 70.3824 112.232 70.4529 111.327 70.7612C111.186 70.814 111.046 70.8669 110.896 70.9109C110.808 72.4172 110.659 73.9323 110.404 75.4298C110.571 75.465 110.703 75.5003 110.861 75.5531" fill="white"/>
<path d="M121.3 70.0025C120.571 69.0864 119.657 68.3993 118.62 67.8972C116.151 66.8137 113.576 66.5494 110.958 67.0515C110.967 67.6065 110.975 68.1526 110.975 68.7252C112.135 68.3728 113.304 68.3288 114.499 68.505C115.29 68.6635 116.019 68.9983 116.617 69.4916C117.24 70.0201 117.671 70.6455 117.961 71.4119C118.497 72.9182 118.638 74.4509 118.374 76.01C118.277 76.75 118.014 77.4194 117.583 78.0272C117.161 78.635 116.625 79.1195 116.01 79.4895C114.877 80.1237 113.682 80.2911 112.452 80.0268C111.977 79.9211 111.617 79.7009 111.3 79.3485C110.975 78.9962 110.8 78.5998 110.756 78.1065C110.729 77.992 110.694 77.8334 110.597 77.7277C110.51 77.622 110.387 77.5339 110.237 77.4811C109.78 77.3401 109.341 77.3666 108.91 77.5692C108.471 77.763 108.163 78.1065 107.97 78.5205C107.68 79.1371 107.575 79.7802 107.584 80.4672C107.61 81.0046 107.671 81.5595 107.759 82.0969C108.462 82.6694 109.192 83.2156 109.93 83.7353C110.474 84.1053 110.958 84.5809 111.344 85.1094C111.503 85.3209 111.661 85.5587 111.81 85.7701C112.249 86.3427 112.504 86.9769 112.548 87.6816C113.251 87.8842 113.98 87.8402 114.657 87.5583C116.599 86.7479 118.233 85.5058 119.516 83.8058C120.72 82.2026 121.66 80.4937 122.346 78.591C122.978 76.7764 123.093 74.9265 122.741 73.0591C122.486 71.9228 122.003 70.9098 121.291 70.0025" fill="white"/>
<path d="M94.8248 100.79C96.8195 99.5476 98.5505 98.0237 100.018 96.2091C100.141 96.0506 100.202 95.8832 100.202 95.6894C100.176 95.522 100.115 95.3459 99.9652 95.2137C99.9037 95.1433 99.7895 95.064 99.684 95.0376C99.5786 94.9759 99.4819 94.9583 99.3501 94.9583C98.0408 95.0287 96.7843 95.2754 95.5629 95.7511C95.475 95.7863 95.3696 95.8392 95.3081 95.9184C95.2378 95.9977 95.1763 96.0858 95.1236 96.1651C94.8336 96.861 94.3855 97.3895 93.7352 97.7595C93.1113 98.1206 92.4435 98.2351 91.7054 98.147C90.9761 98.059 90.361 97.7771 89.825 97.2574C88.9287 96.3677 88.0061 95.4956 87.0659 94.6588C86.3102 93.9453 85.4051 93.4784 84.3946 93.223C83.2347 92.9675 82.11 93.0556 81.0116 93.452C80.7041 93.5753 80.4229 93.6722 80.1593 93.8131C79.5266 94.509 78.8237 95.1168 78.0416 95.6454C77.0047 96.2972 75.88 96.72 74.641 96.9138C73.4196 97.0988 72.1982 97.046 71.0208 96.7112C70.0366 96.4293 69.2546 95.8303 68.7186 94.9495C68.2704 94.1743 67.8487 93.4168 67.4093 92.6504C66.8645 93.4256 66.5218 94.2888 66.3637 95.2225C66.2934 95.6982 66.0825 96.1475 65.7837 96.535C65.485 96.9226 65.0983 97.2133 64.6678 97.4071C62.9894 98.1118 61.2496 98.3408 59.4307 98.0854C58.7893 97.9797 58.2093 97.7506 57.6645 97.3366C57.1373 96.9491 56.7419 96.4381 56.4958 95.8303C56.1444 94.9935 55.8544 94.095 55.6962 93.1965C54.4397 93.9277 53.2974 94.8173 52.2869 95.8656C51.5312 96.6231 50.6261 97.1076 49.5717 97.2926C47.5682 97.6273 45.6087 97.4423 43.702 96.7641C42.0676 96.1651 40.8198 95.1345 39.906 93.6722C39.6072 93.6105 39.326 93.5753 39.0536 93.496C37.9816 93.2758 36.936 93.3287 35.8639 93.637C34.9325 93.91 34.0362 94.2888 33.1839 94.7909C31.778 95.6277 30.3457 96.4293 28.9046 97.1869C28.2105 97.5569 27.5075 97.8475 26.743 98.0501C26.1104 98.2351 25.4953 98.3673 24.8626 98.4377C24.0806 98.5522 23.2985 98.4818 22.5428 98.2968C21.7696 98.0766 21.0842 97.6978 20.4691 97.1957C19.151 96.0946 17.8769 94.9319 16.6204 93.7251C16.4007 93.5048 16.1283 93.3727 15.8208 93.3815C15.645 93.3551 15.4693 93.3815 15.3199 93.4784C15.1442 93.5841 15.0563 93.7427 14.9772 93.8836C14.6784 94.5355 14.5906 95.2314 14.6433 95.9272C14.7663 96.9226 15.1354 97.7859 15.7856 98.5434C17.2882 100.261 19.0807 101.591 21.1369 102.587C22.2353 103.08 23.3337 103.432 24.5199 103.573C24.9153 103.652 25.2492 103.785 25.5568 104.067C25.8555 104.313 26.0664 104.639 26.1719 105.027C26.5233 106.084 27.0242 107.026 27.7887 107.837C27.8678 107.907 27.9468 107.96 28.0435 107.978C28.7201 108.101 29.3703 108.013 30.0118 107.731C31.1277 107.185 32.1734 106.515 33.1488 105.714C33.4914 105.423 33.9044 105.282 34.3438 105.256C34.7744 105.256 35.1698 105.353 35.5564 105.59C35.9342 105.846 36.1891 106.181 36.356 106.586C36.4878 106.973 36.7075 107.282 36.9975 107.537C37.1117 107.634 37.2259 107.687 37.3577 107.722C37.4983 107.749 37.6477 107.775 37.7795 107.749C39.3172 107.467 40.6968 106.868 41.9621 105.96C42.4015 105.626 42.9023 105.52 43.4208 105.573C44.0271 105.652 44.5807 105.837 45.1079 106.172C45.6263 106.489 46.0393 106.894 46.382 107.405C46.505 107.599 46.6808 107.705 46.8916 107.837C47.1113 107.916 47.3134 107.934 47.5243 107.89C47.7616 107.854 47.9549 107.784 48.1218 107.608C48.6051 107.202 49.0796 106.736 49.5629 106.278C49.888 105.96 50.2659 105.767 50.7228 105.723C51.1885 105.661 51.6103 105.74 51.9969 105.96C52.4099 106.189 52.6911 106.533 52.8756 106.956C53.1919 107.687 53.5786 108.392 54.0267 109.052C54.0794 109.132 54.1585 109.202 54.2376 109.237C54.3079 109.281 54.387 109.334 54.4748 109.334C54.6681 109.361 54.8527 109.352 55.0372 109.299C55.2129 109.228 55.3975 109.149 55.5293 109.008C55.8192 108.77 56.0565 108.48 56.2762 108.136C56.531 107.757 56.8298 107.502 57.2603 107.308C57.6557 107.15 58.1039 107.114 58.5344 107.22C58.9738 107.343 59.3253 107.555 59.6065 107.907C60.1161 108.533 60.7224 109.052 61.4078 109.475C61.6275 109.598 61.8559 109.695 62.1371 109.695C62.4095 109.695 62.6292 109.625 62.8752 109.484C63.4376 109.149 63.8681 108.709 64.1757 108.119C64.3866 107.74 64.6853 107.44 65.0808 107.238C65.485 107.044 65.8804 106.991 66.3197 107.035C66.7503 107.123 67.1369 107.317 67.4445 107.652C68.7186 108.885 70.2651 109.598 72.0489 109.704C73.1824 109.783 74.2808 109.598 75.3176 109.184C76.3984 108.779 77.3035 108.145 78.0943 107.317C78.437 106.991 78.8412 106.771 79.3333 106.718C79.8254 106.665 80.2559 106.771 80.6953 107.026C81.7322 107.74 82.8481 108.163 84.0783 108.339C84.5528 108.427 85.0273 108.374 85.4842 108.251C85.9675 108.101 86.3629 107.863 86.7407 107.528C87.3295 106.982 87.8215 106.374 88.2258 105.696C88.4894 105.282 88.8145 105.009 89.2538 104.833C89.7195 104.666 90.1589 104.666 90.5983 104.806C91.4682 105.062 92.3117 105.053 93.1816 104.78C93.5067 104.648 93.744 104.428 93.9197 104.093C94.0691 103.776 94.1043 103.441 93.99 103.106C93.8494 102.666 93.867 102.217 94.0252 101.767C94.2097 101.309 94.4733 100.992 94.8512 100.737" fill="white"/>
<path d="M27.4462 38.2393C31.5498 36.548 35.7851 35.3236 40.1435 34.5396C44.5282 33.7821 48.948 33.3945 53.4118 33.4209C59.7121 33.4297 65.9949 33.7204 72.2512 34.2578C78.7097 34.8479 85.0099 36.1428 91.1521 38.1953C95.6334 39.7015 101.02 41.8156 104.86 44.5816C105.633 45.1454 106.371 45.7443 107.092 46.3874C107.039 45.6474 106.977 44.9339 106.802 44.2204C106.195 41.4104 105.176 38.759 103.77 36.2661C102.356 33.7733 101.688 31.9851 97.303 27.2284C94.746 24.4448 89.3771 21.3706 86.5301 20.0228C83.0592 18.402 79.4741 17.2128 75.7484 16.4553C71.2319 15.5392 66.6802 15.0371 62.0846 14.9666C58.6665 14.905 55.2747 15.0547 51.9093 15.4159C45.7408 16.1117 40.0292 18.0497 34.7131 21.2913C29.5727 24.4448 25.2231 28.4352 21.638 33.2624C20.6978 34.5396 19.8015 35.8609 18.9492 37.1911C20.0124 36.4864 21.1284 35.7905 22.2355 35.1034C23.9578 34.0728 25.6976 33.095 27.4902 32.1789L28.404 34.0111C26.673 34.9008 24.9771 35.8521 23.2636 36.8563C20.9526 38.2657 18.6856 39.7984 16.4712 41.3928C15.821 42.6172 15.1971 43.8505 14.6084 45.1189C15.5574 44.4054 16.5415 43.78 17.5257 43.1898C20.7154 41.3047 24.0105 39.6311 27.4374 38.2393" fill="white"/>
<path d="M14.7837 56.4194C13.9577 57.2387 13.2899 58.1548 12.7979 59.1942C13.6941 59.1501 14.608 59.1766 15.4955 59.3263C15.557 59.1325 15.5833 58.9387 15.6712 58.7097C16.0139 57.362 16.4972 56.1023 17.1474 54.8867C16.2424 55.2303 15.4427 55.7588 14.7925 56.4282" fill="white"/>
<path d="M26.699 56.8427C27.481 57.0541 28.2455 56.966 29.0012 56.6577C29.7305 56.3054 30.3105 55.8121 30.6883 55.0545C30.9519 54.5877 31.2946 54.2353 31.7427 53.9447C32.1997 53.6804 32.6917 53.5306 33.2278 53.5218C33.755 53.5218 34.247 53.6628 34.6952 53.9182C34.8358 54.0063 35.0203 54.0327 35.196 54.0063C35.3542 53.9535 35.486 53.8742 35.5915 53.7244C36.0044 53.1519 36.558 52.7643 37.2083 52.5881C37.9024 52.4207 38.579 52.4824 39.1941 52.7907C39.8004 53.0638 40.4067 53.1871 41.057 53.1607C41.7248 53.099 42.3223 52.8788 42.8583 52.5264C43.3416 52.1653 43.904 51.9627 44.5278 51.901C45.099 51.8394 45.6965 51.9275 46.2237 52.1741C46.6192 52.3238 46.9882 52.3855 47.3836 52.3415C47.7878 52.2886 48.1657 52.1389 48.482 51.8658C48.3502 51.3285 48.1569 50.7999 47.8933 50.3066C41.7775 51.0113 35.6793 51.7689 29.5724 52.5C28.6937 52.6498 27.815 52.7467 26.9275 52.8964C26.7166 53.1166 26.5145 53.3457 26.3739 53.6187C25.9873 54.2265 25.7852 54.8696 25.7588 55.5919C25.7588 55.8826 25.8379 56.138 26.0048 56.3935C26.1806 56.6225 26.4002 56.7634 26.699 56.8603" fill="white"/>
<path d="M10.7685 67.4657C10.3907 67.6331 10.0832 67.8621 9.82833 68.1793C9.5735 68.4964 9.40655 68.8311 9.31868 69.2451C8.97599 70.8307 8.99356 72.3898 9.36261 73.9754C9.42412 74.1604 9.52957 74.3366 9.67895 74.4863C9.73167 74.5392 9.79318 74.5568 9.85469 74.5568C9.93377 74.5568 9.99528 74.5392 10.0216 74.5039C11.3924 73.5702 12.5172 72.381 13.3871 70.9716C13.7034 70.5136 14.1164 70.1788 14.6524 70.0291V68.5404C14.2921 68.4083 13.9758 68.2233 13.7034 67.9855C13.308 67.6067 12.8423 67.3865 12.3238 67.2896C11.779 67.2191 11.2782 67.2719 10.7685 67.4657Z" fill="white"/>
<path d="M7.99136 83.3046C8.29891 83.3046 8.56251 83.2077 8.79976 82.9963C9.03701 82.8289 9.19518 82.5735 9.29184 82.2916C9.78391 80.4329 10.0651 78.5126 10.153 76.5747C9.84542 76.6099 9.5203 76.6011 9.22154 76.5042C8.92278 76.4073 8.6416 76.3016 8.41314 76.0814C7.86834 75.6498 7.52565 75.0948 7.38505 74.443C6.9457 72.5667 6.92813 70.6817 7.34112 68.8142C7.46414 68.0831 7.79804 67.4488 8.24618 66.8939C8.71189 66.3301 9.29184 65.8897 9.95086 65.599C10.7505 65.2731 11.5501 65.1586 12.3761 65.2467C13.2284 65.3436 13.9753 65.6254 14.6519 66.1187C14.6695 65.5726 14.6959 65.0264 14.7222 64.4627C14.8013 63.4144 14.9155 62.375 15.0825 61.3268C13.9577 61.177 12.8506 61.1858 11.7258 61.3532C9.37971 61.6967 7.33233 62.6657 5.56614 64.2337C4.25688 65.414 3.31667 66.8499 2.74551 68.5059C1.84045 71.1133 1.81409 73.8 2.58735 76.4514C3.41333 79.1292 4.92469 81.3226 7.13023 83.0051C7.41142 83.1901 7.66624 83.2958 7.98257 83.2958" fill="white"/>
<path d="M89.1135 93.7687C88.885 93.5484 88.6653 93.3546 88.4369 93.1432C87.4176 92.2007 86.2137 91.5841 84.8518 91.2582C83.8676 91.0027 82.8659 90.9939 81.8554 91.126C82.1629 90.3068 82.2947 89.5052 82.2772 88.6332C82.2244 87.7523 82.0048 86.9419 81.6094 86.1579C81.3457 85.6646 81.0382 85.1625 80.7219 84.6692C82.3387 84.9335 83.9115 84.7485 85.4229 84.0878C87.4088 83.2246 89.0344 81.9209 90.37 80.212L88.7356 78.9788C87.6372 80.4058 86.2665 81.4805 84.6145 82.238C83.0504 82.8811 81.4863 82.9251 79.8959 82.3437C78.3406 81.7711 76.9259 80.9343 75.6605 79.8508C73.7274 78.1243 72.4181 76.0278 71.7855 73.5174C71.1967 71.3592 71.0474 69.1658 71.2758 66.9284C71.3285 66.2766 71.5131 65.6776 71.8382 65.0962C72.1985 64.5324 72.6202 64.048 73.1475 63.6868C74.2195 62.9116 75.4497 62.4712 76.7677 62.3303C79.9047 62.0484 82.901 62.5593 85.7305 63.9334L86.6355 62.1277C83.4283 60.5685 80.0892 59.9519 76.5392 60.2778C74.8697 60.4892 73.3408 61.0354 71.9964 62.0131C71.188 62.5505 70.5553 63.2287 70.0808 64.0656C69.6063 64.9024 69.2987 65.8009 69.2285 66.7346C68.9824 69.2187 69.1757 71.6323 69.782 74.0283C70.5641 76.9528 72.0491 79.4016 74.3249 81.3924C75.1158 82.0883 75.9769 82.7049 76.8819 83.2246C78.077 84.3521 79.0523 85.6558 79.8168 87.1004C80.0804 87.6642 80.221 88.2456 80.2298 88.8622C80.2298 89.4876 80.1068 90.0866 79.852 90.6416C79.1402 92.0069 78.1824 93.108 76.9083 93.9272C76.0999 94.4469 75.2476 94.7817 74.3337 94.9314C73.3935 95.0723 72.4621 95.0019 71.5482 94.764C71.0825 94.6407 70.731 94.3412 70.4674 93.936C70.0369 93.2049 69.6151 92.4562 69.2109 91.7074C68.9736 91.311 68.6397 90.9939 68.1916 90.8001C67.7698 90.6239 67.3217 90.5887 66.856 90.712C66.399 90.8441 66.03 91.0996 65.7576 91.4872C65.0019 92.5354 64.5362 93.6629 64.3253 94.949C64.3077 95.0547 64.2638 95.2045 64.1759 95.3102C64.0705 95.4071 63.9826 95.4864 63.8244 95.5568C62.524 96.0942 61.1444 96.2791 59.7121 96.0942C59.4221 96.0589 59.1497 95.9444 58.9037 95.7594C58.6489 95.5568 58.4644 95.319 58.3677 95.0635C58.0426 94.3324 57.8493 93.6277 57.7087 92.8614C57.612 92.4297 57.4187 92.0509 57.076 91.725C56.7597 91.4431 56.3731 91.2582 55.8986 91.2053C55.4768 91.1348 55.0726 91.2494 54.6684 91.452C53.2624 92.2712 51.9532 93.2842 50.8197 94.4557C50.3627 94.8874 49.8267 95.1781 49.2116 95.2838C47.5509 95.5744 45.9604 95.4159 44.37 94.8697C43.298 94.4557 42.4193 93.8039 41.769 92.8437C41.1364 91.9012 40.82 90.853 40.82 89.7078C40.8815 88.3425 41.3473 87.1709 42.305 86.1755C43.0607 85.4003 43.8691 84.6868 44.6951 84.0262C46.2768 82.793 47.4718 81.2338 48.3241 79.3928C49.8882 75.9398 51.1799 72.381 52.2168 68.7342C52.4365 67.9502 52.4716 67.1486 52.331 66.3118C52.1729 65.4926 51.839 64.7791 51.3293 64.1008C49.6949 62.0484 47.5948 60.8152 44.9851 60.4364C40.1171 59.7933 35.3106 60.3219 30.671 61.9427L31.3652 63.8454C35.706 62.3214 40.1698 61.8634 44.7215 62.4624C46.7688 62.7707 48.4208 63.7397 49.7037 65.3781C50.02 65.7481 50.2309 66.2149 50.3188 66.6818C50.3979 67.1927 50.3803 67.686 50.2485 68.1705C49.2292 71.694 47.9639 75.1822 46.4525 78.5383C45.7408 80.0446 44.7654 81.3395 43.421 82.3966C42.4984 83.1013 41.6548 83.8764 40.8376 84.6957C39.5196 86.0962 38.8342 87.7611 38.7815 89.6462C38.7639 90.2363 38.8342 90.8442 38.9572 91.4255C37.7182 91.2405 36.4968 91.3022 35.293 91.6722C34.1946 91.9981 33.1138 92.4473 32.0945 93.0463C31.8924 93.1432 31.6728 93.293 31.4707 93.4163C31.1807 92.7116 30.9171 92.0157 30.6447 91.3022C30.3108 90.4389 29.7396 89.7607 28.94 89.285C28.1404 88.8005 27.2705 88.6596 26.3478 88.7389C25.6361 88.8358 24.9683 89.056 24.3268 89.3643C24.3092 88.4658 24.3005 87.5849 24.3532 86.704C24.362 86.2108 24.2741 85.7527 24.0281 85.3123C23.7908 84.8894 23.5008 84.5195 23.0703 84.2728C22.6661 84.0086 22.2179 83.8764 21.7434 83.8588C21.4622 83.8588 21.1635 83.8324 20.8911 83.8148C20.8647 83.4536 20.8472 83.1365 20.7944 82.8194C20.7066 82.0971 20.3902 81.4893 19.863 81.0048C19.3358 80.5291 18.7207 80.2825 17.9914 80.2384C17.2708 80.2208 16.5503 80.1856 15.8386 80.1151C15.821 78.644 15.944 77.2082 16.1988 75.7724C16.5855 73.6231 16.7524 71.3945 16.6909 69.1835C16.6558 67.6595 16.6909 66.1092 16.7788 64.5589C16.8754 62.7619 17.1566 60.9649 17.6223 59.2032C18.009 57.6616 18.6328 56.1906 19.494 54.8516C19.6346 54.6226 19.7839 54.3672 19.9597 54.1646C21.3656 53.8298 22.7627 53.5479 24.195 53.3013C23.8963 53.9972 23.7381 54.7283 23.7117 55.4771C23.7117 56.2522 23.9138 56.9481 24.362 57.5823C24.8189 58.1725 25.4252 58.6042 26.1633 58.798C27.4286 59.1063 28.6325 59.0358 29.8275 58.5161C30.9874 57.9787 31.91 57.1155 32.5163 56.0056C32.5954 55.8294 32.692 55.7589 32.8151 55.662C32.9293 55.5916 33.0787 55.5475 33.2368 55.5475C33.3687 55.5475 33.5092 55.5916 33.6498 55.6532C34.2737 55.988 34.9064 56.1201 35.6006 55.9703C36.3035 55.7942 36.8483 55.4154 37.2701 54.834C37.3843 54.7019 37.5513 54.5962 37.727 54.5169C37.9115 54.4993 38.1136 54.4905 38.2806 54.5962C39.212 55.0542 40.1962 55.2392 41.2242 55.1688C42.2347 55.063 43.1925 54.7283 44.0273 54.1469C44.247 53.9884 44.4666 53.9443 44.7039 53.9179C44.9587 53.8915 45.2048 53.9355 45.3981 54.0148C46.1801 54.3407 46.9622 54.4376 47.753 54.3143C48.5438 54.1734 49.2468 53.8739 49.8795 53.3453C50.1343 53.0987 50.3188 52.8521 50.4418 52.5173C50.5385 52.209 50.5473 51.8831 50.5033 51.5484C50.3891 51.0286 50.2397 50.4825 50.0552 50.0333C50.8109 49.9099 51.5841 49.8395 52.3574 49.7514C56.6367 49.2493 60.9247 49.0114 65.2128 49.126C66.7944 49.1612 68.3761 49.2757 69.9666 49.4343C69.5448 49.6016 69.1933 49.8835 68.877 50.2271C68.6134 50.5794 68.3937 50.9494 68.2882 51.3986C68.1389 51.9536 68.1476 52.4997 68.3058 53.0547C68.464 53.6008 68.7715 54.0765 69.2021 54.4552C69.6239 54.834 70.1072 55.1071 70.6783 55.2216C71.5658 55.3714 72.4533 55.433 73.3583 55.3537C73.5253 55.3537 73.6659 55.4066 73.8065 55.4683C73.9647 55.5211 74.0789 55.6444 74.1755 55.7325C74.817 56.5341 75.6342 57.001 76.6447 57.1507C77.6288 57.2829 78.5427 57.0186 79.3511 56.402C79.4741 56.3315 79.6059 56.2698 79.7553 56.2434C79.9047 56.2258 80.0277 56.261 80.1771 56.3315C80.3265 56.3844 80.3967 56.4548 80.511 56.587C80.634 56.7808 80.801 56.9393 81.0118 57.0274C81.1964 57.1243 81.416 57.1595 81.6533 57.1595C83.0241 57.0803 84.3685 56.9745 85.7305 56.8512C85.9062 56.8512 86.0468 56.8865 86.1786 56.9481C86.328 57.045 86.4246 57.1507 86.5125 57.3093C86.7234 57.7409 87.0309 58.058 87.4088 58.2959C87.8306 58.5161 88.2875 58.613 88.7356 58.5689C89.4825 58.4985 90.1679 58.3135 90.8357 58.0316C91.3102 57.829 91.6968 57.5559 92.0307 57.1948C92.3383 56.8336 92.6722 56.0232 92.8304 55.5651C92.9358 55.6268 93.0764 55.6885 93.2258 55.7589C93.999 56.0937 99.0779 58.7011 99.86 59.1239C99.9918 59.2912 100.879 59.5379 100.985 59.7141L101.714 60.5949C101.784 60.7095 104.71 71.5178 103.902 75.5786C103.753 76.3097 101.565 78.5031 101.565 78.5031C100.194 81.0753 99.4294 81.4276 99.034 82.1499C98.5068 83.1189 98.2344 84.1407 98.1553 85.2506C98.1201 85.9905 98.0235 86.7745 97.8917 87.5409C97.8477 87.8404 97.7159 88.1046 97.549 88.3513C97.3645 88.6243 97.1624 88.8093 96.8988 88.9327C96.1255 89.3819 94.1484 89.8223 93.3312 90.1835C91.6529 91.0291 90.2382 92.2095 89.1223 93.7422L89.1135 93.7687Z" fill="#F3CFB2"/>
<path d="M124.727 72.628C124.411 71.1922 123.813 69.8797 122.882 68.717C121.959 67.5278 120.817 66.6469 119.464 66.0391C117.873 65.3168 116.204 64.9028 114.499 64.7795C114.323 62.912 114.121 61.071 113.928 59.1859C113.506 55.7769 112.311 52.6674 110.255 49.9191C109.904 49.3906 109.482 48.8709 109.06 48.3776C109.227 46.8273 109.13 45.2945 108.823 43.7882C108.164 40.758 107.074 37.9304 105.563 35.2526C103.647 31.8964 102.118 29.4212 98.621 25.7832C95.5895 22.6385 91.3542 20.0399 87.4264 18.1548C83.8149 16.4811 80.0628 15.2215 76.1702 14.4463C75.643 14.323 75.107 14.2349 74.571 14.1292C75.107 13.6359 75.6342 13.0986 76.0911 12.5172C76.2493 12.3587 76.2932 12.1825 76.3547 11.9446C76.3899 11.7509 76.3547 11.5483 76.2756 11.3545C76.1966 11.1607 76.0735 11.0021 75.9066 10.8612C75.23 10.3591 74.4743 10.0508 73.6571 9.91864C74.0525 9.99792 74.4655 9.91864 74.8346 9.74246C75.1948 9.54867 75.476 9.25798 75.6869 8.89682C75.7396 8.79112 75.7484 8.6678 75.7484 8.56209C75.7484 8.42996 75.6957 8.30664 75.6342 8.21855C75.5463 8.10404 75.4672 8.04238 75.3618 7.98952C75.0103 7.8662 74.6676 7.71645 74.3337 7.56671C74.7731 7.39934 75.2212 7.2584 75.6781 7.09984C75.8187 7.08222 75.9242 6.98533 76.0032 6.8532C76.1087 6.73868 76.135 6.59774 76.1087 6.448C76.1087 6.30706 76.0384 6.18373 75.9242 6.09565C75.6518 5.83138 75.3442 5.59355 75.0103 5.36452C74.817 5.28524 74.6061 5.2412 74.3776 5.25001C74.1404 5.29405 73.9471 5.39976 73.8153 5.58474C73.7274 5.67283 73.6307 5.72568 73.5517 5.76972C73.4462 5.81377 73.3584 5.849 73.2265 5.849C72.5148 5.82258 71.8294 5.57593 71.267 5.15311C71.803 5.07383 72.3127 4.87123 72.796 4.57173C72.9541 4.44841 73.0772 4.30747 73.1826 4.1313C73.2441 3.94631 73.2881 3.75252 73.2793 3.56754C73.2529 3.37375 73.2002 3.18876 73.1035 3.01259C72.9542 2.8188 72.7784 2.65143 72.5236 2.54573C72.26 2.44002 72.0139 2.41359 71.7679 2.45764C71.3988 2.53692 71.1177 2.69547 70.8716 2.94212C70.6344 3.17995 70.4762 3.47064 70.4323 3.82299C70.362 4.14891 70.2214 4.42199 69.9753 4.65101C70.2038 3.93751 70.1775 3.17995 69.8875 2.48406C69.6414 1.84103 69.5536 1.16275 69.6239 0.458054C69.6327 0.361158 69.6239 0.299497 69.5799 0.21141C69.5448 0.149749 69.5009 0.0880874 69.413 0.0528524C69.3427 0.00880874 69.246 0 69.1757 0C68.5079 0.0880874 67.8577 0.123322 67.1987 0.0792786C67.1108 0.0792786 67.0229 0.105705 66.9614 0.167366C66.8823 0.220218 66.8208 0.264262 66.7857 0.352349C66.7505 0.422819 66.7505 0.519715 66.7681 0.607803C66.8911 1.21561 66.9702 1.79698 67.0317 2.40479C67.0844 2.95974 66.9702 3.45302 66.6539 3.93751C65.7839 3.6292 64.8789 3.31209 63.9826 3.00378C63.4466 2.8276 62.893 2.75713 62.3219 2.8188C62.1813 2.83641 62.0407 2.83641 61.9177 2.79237C61.7771 2.73071 61.654 2.66024 61.5574 2.56334C61.4607 2.48406 61.3553 2.44002 61.2147 2.4224C61.0917 2.41359 60.9775 2.4224 60.8456 2.49287C60.7314 2.56334 60.6523 2.66024 60.5996 2.78356C60.4327 3.1271 60.1866 3.38256 59.8264 3.54992C59.6682 3.64682 59.5012 3.77895 59.4221 3.94631C59.3167 4.10487 59.2728 4.29866 59.2903 4.50126C59.3255 4.68625 59.4134 4.86242 59.5364 5.00336C58.7719 4.80957 58.0514 4.85361 57.2869 5.15311C56.9442 5.31167 56.5839 5.50546 56.2325 5.67283C56.127 5.73449 56.0567 5.82258 56.0216 5.91066C55.9864 6.03398 55.9864 6.13088 56.0216 6.22778C56.0567 6.32467 56.127 6.40395 56.2325 6.46561L56.7333 6.69464L55.5822 7.04699C55.6613 7.65479 55.758 8.22736 55.7931 8.82635C55.8107 8.93206 55.7668 9.03776 55.7228 9.12585C55.6789 9.23156 55.5822 9.29322 55.5031 9.34607C55.3977 9.3813 55.2835 9.40773 55.1868 9.39011C55.0638 9.35488 54.9847 9.30203 54.9144 9.22275C54.7475 9.04657 54.5278 8.91444 54.2905 8.84397C53.9039 8.76469 53.5349 8.7735 53.201 8.85278C53.2625 9.53105 53.3328 10.2093 53.3943 10.8964C54.0094 10.8964 54.6244 10.8171 55.2483 10.685C55.3186 10.6674 55.4153 10.685 55.4768 10.7202C55.5734 10.7819 55.6086 10.8788 55.6525 10.9405C55.6789 11.0285 55.6701 11.1166 55.6086 11.2047C55.2659 11.8918 54.8705 12.5436 54.3784 13.1514C53.4821 13.2307 52.5771 13.3012 51.6808 13.3893C45.2048 14.1292 39.212 16.164 33.6411 19.5554C28.281 22.8411 23.7381 27.0164 19.986 32.0638C16.3746 36.9438 13.4485 42.2379 11.2078 47.8931C11.1024 47.9724 11.0233 48.0429 10.9706 48.1221C9.51192 49.4523 8.22902 50.9585 7.19215 52.6146C6.6825 53.3898 6.44525 54.2442 6.42768 55.1515L6.4804 61.071C5.68078 61.529 4.91631 62.084 4.19578 62.727C2.64927 64.154 1.52452 65.8629 0.795203 67.8713C-0.206517 70.9279 -0.268024 73.9934 0.645825 77.0588C1.60361 80.1683 3.3698 82.6964 5.92682 84.6872C5.99711 84.7136 6.04105 84.7753 6.08499 84.8105C5.66321 86.2552 5.3996 87.7526 5.34688 89.3118C5.27658 90.3336 4.89874 91.2409 4.20457 91.9896C2.34172 94.0068 1.91115 95.9976 1.53331 98.7548C1.23455 100.966 1.85843 104.005 2.33293 105.573C2.80743 107.132 3.12376 108.215 4.05519 109.563C4.97782 110.902 7.21851 112.761 8.65079 113.527C9.16044 113.8 10.2588 114.214 10.4697 114.751C10.6894 115.245 10.7333 115.773 10.6015 116.337C10.3115 117.711 10.1534 119.121 10.127 120.565C10.127 120.777 10.1973 121.023 10.3467 121.226C10.4609 121.472 10.6103 121.64 10.8388 121.763C11.0672 121.887 11.3045 121.939 11.5593 121.931C12.3677 121.895 13.1497 121.71 13.8351 121.252C13.8966 122.019 14.1778 122.662 14.7138 123.181C15.2674 123.683 15.9264 123.93 16.6821 123.93C17.6663 123.93 18.6416 123.772 19.5994 123.516C19.7576 124.52 20.1178 125.489 20.6451 126.37C21.1811 127.251 21.8665 128 22.7012 128.608C24.5201 129.867 26.506 130.422 28.7028 130.22C29.3969 133.065 30.9171 135.373 33.2369 137.143C35.5918 138.887 38.2103 139.68 41.1452 139.566C41.7251 141.134 42.6038 142.525 43.7901 143.679C44.9939 144.86 46.3734 145.741 47.9639 146.269C50.354 147.079 52.7616 147.291 55.2571 146.895C57.7175 146.498 59.9669 145.512 61.988 143.988C62.8139 144.807 63.7541 145.485 64.791 146.005C65.2567 146.234 65.7576 146.348 66.2936 146.296C66.812 146.225 67.2953 146.04 67.7347 145.741C68.4113 145.168 68.9473 144.516 69.3339 143.75C69.7469 142.957 69.9578 142.111 69.9841 141.23C70.9419 141.592 71.9524 141.715 72.9717 141.53C74.0086 141.301 74.9137 140.869 75.7045 140.173C77.5498 140.843 79.4653 141.046 81.4248 140.746C82.1102 140.649 82.7077 140.376 83.2086 139.918C83.7182 139.416 84.0521 138.861 84.2103 138.191C84.3861 137.337 84.4739 136.491 84.4388 135.619C86.3192 135.514 88.182 135.267 90.0361 134.941C90.7918 134.782 91.4244 134.448 91.9605 133.928C92.4877 133.364 92.8128 132.739 92.927 131.981C93.0676 131.136 93.1906 130.272 93.2521 129.436C95.6422 129.215 98.4541 128.167 100.255 126.159C101.934 124.291 101.248 121.622 102.417 120.442C103.471 119.385 107.162 120.169 108.401 118.9C109.482 117.799 107.812 114.408 109.086 113.43C112.707 110.629 113.928 108.365 114.605 107.044C116.081 104.163 117.03 100.71 116.608 97.7506C116.072 94.0685 115.114 92.8 113.796 91.8487C113.076 91.329 112.179 91.0119 111.406 90.6507C111.687 90.3865 111.942 90.0517 112.135 89.717C113.26 90.0077 114.367 89.9108 115.457 89.4791C117.75 88.5366 119.648 87.0479 121.151 85.1012C122.495 83.3307 123.55 81.4015 124.279 79.3227C125.052 77.1293 125.202 74.9271 124.736 72.6545L124.727 72.628ZM16.48 41.3923C18.6944 39.7979 20.9702 38.2652 23.2724 36.8558C24.9771 35.8516 26.673 34.9002 28.4128 34.0105L27.4989 32.1783C25.7064 33.0944 23.9578 34.0722 22.2443 35.1028C21.1371 35.7899 20.0212 36.477 18.958 37.1905C19.8103 35.8604 20.7154 34.5391 21.6468 33.2618C25.2319 28.4346 29.5902 24.4442 34.7219 21.2907C40.038 18.0491 45.7496 16.12 51.918 15.4153C55.2923 15.0541 58.684 14.9044 62.0934 14.966C66.689 15.0365 71.2407 15.5386 75.7572 16.4547C79.4917 17.2123 83.068 18.4103 86.5389 20.0223C89.3859 21.3788 94.7459 24.4442 97.3118 27.2278C101.696 31.9845 102.355 33.7815 103.779 36.2656C105.185 38.7584 106.204 41.4099 106.811 44.2199C106.977 44.9246 107.039 45.6469 107.1 46.378C106.38 45.735 105.642 45.136 104.869 44.581C101.02 41.8151 95.6422 39.701 91.1608 38.1947C85.0187 36.1423 78.7096 34.8474 72.26 34.2572C65.9948 33.7198 59.7209 33.4292 53.4206 33.4204C48.9568 33.3939 44.537 33.7815 40.1522 34.5391C35.7939 35.323 31.5497 36.5475 27.455 38.2387C24.0369 39.6305 20.7417 41.2954 17.5433 43.1892C16.5591 43.7706 15.575 44.4048 14.626 45.1184C15.2147 43.8499 15.8298 42.6167 16.4888 41.3923H16.48ZM8.89683 53.7069C9.89855 52.1918 11.0409 50.8176 12.3589 49.5844C14.2745 47.8138 16.3482 46.2723 18.5889 44.9334C21.6995 43.1012 24.8892 41.4892 28.2195 40.1414C32.1736 38.4942 36.2859 37.3226 40.5037 36.5827C44.7742 35.8251 49.0447 35.4464 53.3855 35.4552C59.633 35.508 65.863 35.7547 72.0667 36.3096C78.3582 36.8734 84.5179 38.1506 90.5194 40.1326C94.7899 41.5772 99.9654 43.6032 103.674 46.2459C105.572 47.6288 107.224 49.2408 108.638 51.1259C110.457 53.5924 111.424 56.3759 111.872 59.4237C112.1 61.0005 112.32 64.0659 112.32 64.0659L110.826 64.9821C110.738 64.0395 110.624 63.097 110.501 62.1544C110.237 60.4544 109.807 58.7719 109.165 57.1775C108.155 54.667 106.521 52.6763 104.218 51.2669C101.609 49.7165 98.8319 48.5273 95.897 47.7257L95.3698 49.6989C98.1202 50.4565 100.721 51.584 103.164 53.0462C105.071 54.209 106.45 55.8562 107.267 57.9351C107.68 59.045 108.278 60.5513 108.252 61.6524C103.252 57.8646 97.6457 55.3982 97.3557 55.266L95.1501 54.2442C88.639 51.258 80.6867 49.1528 73.6483 47.9195C70.8716 47.4262 68.0422 47.1532 65.2392 47.0915C60.8456 47.021 56.4697 47.2148 52.1114 47.7346C44.5194 48.6154 36.9098 49.5315 29.3179 50.4741C25.3373 50.9938 21.4007 51.7073 17.5081 52.641C15.8913 53.0374 14.4854 53.8038 13.3255 54.9665C12.025 56.2526 11.0672 57.7941 10.4609 59.503C9.81068 59.6616 9.15165 59.8378 8.52777 60.0932L8.48384 55.1251C8.48384 54.6318 8.60686 54.1473 8.88804 53.7157L8.89683 53.7069ZM110.905 70.9015C111.055 70.8575 111.195 70.8046 111.336 70.7518C112.241 70.4435 113.199 70.373 114.174 70.5316C114.596 70.6285 114.982 70.8134 115.316 71.0777C115.65 71.3508 115.896 71.7031 116.054 72.1171C116.459 73.2799 116.582 74.4691 116.38 75.6759C116.3 76.1163 116.142 76.5039 115.914 76.8386C115.65 77.2174 115.351 77.4993 114.974 77.7107C114.332 78.0718 113.647 78.204 112.882 78.019C112.874 78.019 112.865 78.0102 112.812 77.9926C112.812 77.9749 112.812 77.9573 112.812 77.9133C112.742 77.3759 112.531 76.865 112.206 76.4422C111.845 76.0018 111.389 75.7023 110.879 75.5349C110.721 75.4821 110.589 75.4468 110.422 75.4116C110.668 73.9053 110.826 72.3902 110.914 70.8927L110.905 70.9015ZM108.612 74.7069C108.173 75.7992 107.303 77.2262 105.897 78.7237C106.248 72.6192 105.774 66.6117 104.051 61.5202C103.832 60.886 105 61.3705 105.51 61.8109C106.679 62.542 107.742 63.0265 108.55 63.9779C108.884 65.5722 108.99 67.563 109.13 69.5362C109.271 71.5093 109.227 73.1566 108.612 74.7069ZM93.9639 103.159C94.0781 103.503 94.043 103.837 93.8936 104.146C93.7179 104.48 93.4806 104.701 93.1555 104.833C92.2856 105.106 91.442 105.115 90.5721 104.859C90.1415 104.718 89.6934 104.727 89.2277 104.886C88.7883 105.053 88.4632 105.335 88.1996 105.749C87.7866 106.436 87.3033 107.035 86.7146 107.581C86.3456 107.925 85.9414 108.154 85.4669 108.303C85.0099 108.427 84.5354 108.471 84.0609 108.383C82.8307 108.207 81.7148 107.784 80.6779 107.07C80.2474 106.815 79.8168 106.7 79.3159 106.762C78.8151 106.815 78.4197 107.035 78.077 107.352C77.2861 108.18 76.3811 108.814 75.3003 109.22C74.2634 109.642 73.165 109.819 72.0315 109.739C70.2565 109.625 68.7012 108.92 67.4271 107.687C67.1284 107.352 66.7417 107.158 66.3024 107.07C65.8718 107.017 65.4764 107.07 65.0634 107.273C64.668 107.467 64.3605 107.766 64.1584 108.154C63.8596 108.744 63.4202 109.184 62.8579 109.519C62.6118 109.651 62.3922 109.722 62.1198 109.73C61.8386 109.73 61.6101 109.642 61.3904 109.51C60.7138 109.087 60.0987 108.568 59.5891 107.942C59.3079 107.59 58.9564 107.37 58.5171 107.255C58.0865 107.141 57.6384 107.176 57.243 107.343C56.8212 107.528 56.5136 107.784 56.2676 108.162C56.0479 108.506 55.8195 108.797 55.5207 109.035C55.3889 109.175 55.2044 109.255 55.0286 109.325C54.8441 109.378 54.6596 109.378 54.4663 109.352C54.3784 109.352 54.2993 109.299 54.229 109.255C54.1587 109.228 54.0797 109.149 54.0181 109.07C53.57 108.4 53.1922 107.704 52.8758 106.973C52.6913 106.55 52.4189 106.207 51.9971 105.978C51.6105 105.758 51.1887 105.678 50.723 105.74C50.2661 105.784 49.8882 105.978 49.5631 106.295C49.0711 106.762 48.6053 107.22 48.1221 107.634C47.9551 107.81 47.753 107.881 47.5245 107.916C47.3137 107.96 47.1115 107.942 46.8919 107.863C46.681 107.731 46.5052 107.625 46.3822 107.431C46.0307 106.92 45.6265 106.515 45.1081 106.198C44.5809 105.863 44.0185 105.687 43.421 105.599C42.9026 105.546 42.4017 105.661 41.9624 105.987C40.6882 106.885 39.3175 107.484 37.7797 107.775C37.6479 107.801 37.4986 107.775 37.358 107.748C37.2349 107.713 37.1207 107.66 37.0065 107.563C36.7077 107.308 36.488 106.991 36.3562 106.612C36.1893 106.216 35.9345 105.872 35.5566 105.617C35.17 105.379 34.7746 105.273 34.344 105.282C33.9047 105.308 33.4917 105.449 33.149 105.74C32.1736 106.542 31.1368 107.211 30.0208 107.757C29.3794 108.039 28.7291 108.118 28.0525 108.004C27.9559 107.986 27.8768 107.933 27.7977 107.863C27.0332 107.044 26.5412 106.11 26.1809 105.044C26.0754 104.665 25.8558 104.331 25.5658 104.084C25.2582 103.802 24.9156 103.67 24.5289 103.591C23.3427 103.441 22.2443 103.097 21.1547 102.604C19.0986 101.609 17.2972 100.279 15.7946 98.561C15.1356 97.8034 14.7753 96.9402 14.6523 95.9448C14.5996 95.2489 14.6875 94.553 14.9862 93.9011C15.0653 93.7514 15.1532 93.6016 15.3289 93.4959C15.4783 93.399 15.654 93.3726 15.8298 93.399C16.1461 93.399 16.4097 93.5312 16.6382 93.7426C17.8859 94.9406 19.1688 96.1121 20.4869 97.2132C21.1108 97.7153 21.7874 98.0941 22.5606 98.3143C23.3163 98.5081 24.0984 98.5698 24.8804 98.4553C25.5131 98.3936 26.1194 98.2527 26.7608 98.0765C27.5165 97.8651 28.2283 97.5832 28.9224 97.2132C30.3635 96.4557 31.7958 95.6541 33.2017 94.8172C34.054 94.3063 34.9503 93.9276 35.8905 93.6633C36.9625 93.355 38.0082 93.311 39.0802 93.5224C39.3526 93.5928 39.6338 93.6281 39.9326 93.6985C40.8464 95.1608 42.103 96.1914 43.7285 96.7904C45.6441 97.4687 47.5948 97.6537 49.5983 97.3189C50.6527 97.1339 51.5578 96.6495 52.3135 95.8919C53.324 94.8349 54.4663 93.954 55.7316 93.2229C55.8898 94.1214 56.1797 95.0199 56.5312 95.8567C56.7773 96.4645 57.1727 96.9754 57.6999 97.363C58.2447 97.7858 58.8158 98.006 59.4661 98.1117C61.2938 98.3672 63.0248 98.1293 64.7031 97.4334C65.1337 97.2485 65.5203 96.949 65.8191 96.5614C66.1179 96.1826 66.3287 95.7334 66.399 95.2577C66.5572 94.324 66.8999 93.4695 67.4447 92.6855C67.884 93.4607 68.3058 94.2094 68.754 94.9846C69.2988 95.8655 70.072 96.4557 71.0562 96.7464C72.2336 97.0811 73.455 97.1339 74.6764 96.949C75.9154 96.7552 77.0401 96.3324 78.077 95.6805C78.859 95.152 79.562 94.5442 80.1946 93.8483C80.467 93.6985 80.7394 93.6105 81.047 93.4871C82.1454 93.0907 83.2701 93.0026 84.43 93.2581C85.4405 93.5135 86.3456 93.9716 87.1012 94.6939C88.0415 95.5308 88.9641 96.394 89.8604 97.2925C90.3964 97.8034 91.0115 98.0941 91.7408 98.1822C92.4789 98.2703 93.1555 98.1558 93.7706 97.7946C94.4208 97.4246 94.869 96.8961 95.1589 96.2002C95.2029 96.1209 95.2732 96.0329 95.3435 95.9624C95.4138 95.8831 95.5104 95.8214 95.5983 95.795C96.8197 95.3193 98.0762 95.0727 99.3855 95.0022C99.5173 95.0022 99.6139 95.0287 99.7194 95.0815C99.8248 95.0991 99.9391 95.1784 100.001 95.2577C100.15 95.3898 100.203 95.566 100.238 95.7334C100.238 95.9271 100.176 96.0945 100.053 96.2531C98.5859 98.0677 96.8548 99.5916 94.8602 100.834C94.4823 101.089 94.2187 101.406 94.0342 101.864C93.8848 102.313 93.8672 102.763 93.999 103.203L93.9639 103.159ZM15.6628 58.7102C15.5837 58.9393 15.5486 59.1331 15.4871 59.3268C14.5996 59.1859 13.6858 59.1507 12.7895 59.1947C13.2815 58.1553 13.9494 57.2392 14.7753 56.42C15.4256 55.7593 16.2164 55.222 17.1303 54.8784C16.48 56.1029 15.9967 57.3625 15.654 58.7014L15.6628 58.7102ZM25.7503 55.5831C25.7767 54.8608 25.9788 54.2178 26.3654 53.61C26.506 53.3369 26.7081 53.1167 26.919 52.8877C27.8065 52.7467 28.6852 52.641 29.5639 52.5001C35.6709 51.7601 41.7778 51.0114 47.8848 50.3067C48.1484 50.8 48.3417 51.3285 48.4735 51.8658C48.1572 52.1389 47.7881 52.2799 47.3752 52.3415C46.9797 52.3856 46.6107 52.3239 46.2153 52.1742C45.688 51.9363 45.0905 51.8482 44.5194 51.9011C43.9043 51.9627 43.3331 52.1653 42.8498 52.5265C42.3138 52.87 41.7251 53.0991 41.0485 53.1607C40.3983 53.1872 39.7832 53.0638 39.1857 52.7908C38.5706 52.4825 37.894 52.4296 37.1998 52.5882C36.5408 52.7643 35.996 53.1519 35.583 53.7245C35.4775 53.883 35.337 53.9535 35.1876 54.0064C35.0118 54.0328 34.8361 54.0064 34.6867 53.9183C34.2386 53.6628 33.7465 53.5219 33.2193 53.5219C32.6833 53.5219 32.1912 53.6804 31.7343 53.9447C31.2949 54.2354 30.9522 54.5877 30.6798 55.0546C30.302 55.8122 29.722 56.3055 28.9927 56.6578C28.2458 56.9661 27.4726 57.0542 26.6905 56.8428C26.3918 56.7547 26.1633 56.6049 25.9964 56.3759C25.8294 56.1205 25.7503 55.865 25.7503 55.5743V55.5831ZM2.60533 76.4598C1.82328 73.8084 1.85843 71.1217 2.7635 68.5144C3.34344 66.8583 4.28365 65.4313 5.58413 64.2421C7.34153 62.6742 9.39769 61.7052 11.7438 61.3617C12.8686 61.1943 13.9757 61.1855 15.1005 61.3352C14.9335 62.3835 14.8193 63.4229 14.7402 64.4711C14.7138 65.0437 14.6875 65.5899 14.6699 66.1272C13.9933 65.6339 13.2376 65.352 12.3941 65.2463C11.5681 65.1582 10.7597 65.2639 9.96885 65.5987C9.30982 65.8805 8.72987 66.3298 8.26416 66.8935C7.81603 67.4485 7.48212 68.0827 7.3591 68.8139C6.94611 70.6901 6.96369 72.5752 7.40304 74.4426C7.54363 75.1033 7.88632 75.6494 8.43112 76.0811C8.65958 76.3013 8.94076 76.407 9.23952 76.5039C9.53828 76.6008 9.8634 76.6096 10.1709 76.5744C10.0831 78.5123 9.80189 80.4238 9.30982 82.2912C9.22195 82.5731 9.06378 82.8197 8.81775 82.9871C8.5805 83.1985 8.31689 83.2954 8.00934 83.2954C7.69301 83.2954 7.43819 83.1809 7.157 83.0047C4.96025 81.3223 3.44009 79.1289 2.61411 76.451L2.60533 76.4598ZM14.6611 70.0383C14.1163 70.188 13.7033 70.5227 13.387 70.9808C12.5259 72.3902 11.4011 73.5706 10.0216 74.5131C9.9952 74.5483 9.9337 74.566 9.85461 74.566C9.79311 74.566 9.7316 74.5483 9.67887 74.4955C9.52071 74.3457 9.41526 74.1608 9.35375 73.9846C8.9847 72.399 8.97591 70.8311 9.31861 69.2543C9.40648 68.8315 9.57343 68.4967 9.82825 68.1884C10.0743 67.8713 10.3906 67.6423 10.7685 67.4749C11.2781 67.2811 11.779 67.2283 12.3238 67.2988C12.851 67.3957 13.3079 67.6159 13.7033 67.9946C13.9757 68.2325 14.2921 68.4087 14.6435 68.5496V70.0383H14.6611ZM122.355 78.6004C121.678 80.503 120.729 82.2119 119.525 83.8151C118.242 85.5152 116.608 86.7572 114.666 87.5677C113.981 87.8407 113.251 87.8936 112.548 87.691C112.513 86.9863 112.25 86.3521 111.81 85.7795C111.661 85.5681 111.503 85.3302 111.345 85.1188C110.958 84.5815 110.483 84.1058 109.93 83.7447C109.192 83.225 108.462 82.6788 107.76 82.1062C107.672 81.5689 107.61 81.014 107.584 80.4766C107.575 79.7895 107.68 79.1465 107.97 78.5299C108.164 78.1159 108.462 77.7811 108.902 77.5874C109.341 77.3848 109.772 77.3583 110.229 77.4993C110.378 77.5521 110.492 77.6402 110.589 77.7459C110.686 77.8516 110.721 78.0102 110.747 78.1247C110.791 78.6092 110.958 79.0144 111.292 79.3667C111.599 79.7191 111.968 79.9393 112.443 80.045C113.673 80.3093 114.868 80.1419 116.002 79.5077C116.617 79.1377 117.144 78.6532 117.575 78.0454C118.005 77.4376 118.26 76.7681 118.357 76.0282C118.62 74.4691 118.488 72.9363 117.944 71.43C117.654 70.6725 117.223 70.0383 116.599 69.5097C116.002 69.0165 115.272 68.6817 114.482 68.5232C113.287 68.347 112.118 68.3822 110.958 68.7434C110.958 68.1708 110.949 67.6247 110.94 67.0697C113.559 66.5676 116.134 66.8319 118.603 67.9154C119.64 68.4087 120.545 69.1045 121.283 70.0207C121.994 70.9279 122.478 71.9498 122.733 73.0773C123.084 74.9447 122.97 76.7946 122.337 78.6092L122.355 78.6004Z" fill="#1E22B0"/>
<path d="M107.891 91.3644C107.715 91.1001 107.627 90.8447 107.68 90.5187C107.724 90.2281 107.874 89.9814 108.093 89.7788C108.304 89.585 108.585 89.5057 108.893 89.5057C109.297 89.5234 109.666 89.3912 109.982 89.1446C110.272 88.8539 110.457 88.528 110.501 88.1052C110.562 87.6999 110.439 87.3564 110.211 87.0217C110.018 86.7838 109.842 86.5548 109.675 86.317C109.438 85.9646 109.13 85.6739 108.761 85.4273C106.52 83.8593 105.94 81.1815 104.315 78.2922C104.297 78.257 104.253 78.2746 104.227 78.3098C102.698 79.8426 101.31 82.1416 100.782 83.1194C100.431 83.8329 100.211 84.5729 100.185 85.3833C100.115 86.2465 100.044 87.0833 99.8686 87.9378C99.7719 88.5368 99.5434 89.0917 99.1832 89.5498C98.8317 90.0783 98.3923 90.4747 97.8476 90.7566C97.0391 91.2146 96.2307 91.6463 95.3696 92.0515C93.9198 92.7826 91.5297 93.8308 90.5983 95.1698C90.8004 95.3636 91.0288 95.5838 91.2309 95.804C91.4242 95.989 91.6527 96.1123 91.9427 96.1475C92.2151 96.1652 92.4523 96.1299 92.6896 95.9802C92.9444 95.8304 93.1289 95.6542 93.1992 95.4164C93.3574 95.0464 93.5683 94.7381 93.8407 94.4739C94.1131 94.2008 94.4118 93.9894 94.7897 93.8661C96.2219 93.3199 97.6982 92.994 99.2535 92.9323C99.6577 92.9323 100.044 92.9676 100.422 93.1349C100.791 93.2935 101.125 93.5225 101.406 93.8132C101.89 94.3241 102.162 94.9055 102.197 95.6278C102.206 96.3237 101.986 96.9844 101.6 97.5305C99.9564 99.5037 98.0584 101.177 95.888 102.551C96.1692 103.415 96.0814 104.26 95.6859 105.106C95.2642 105.916 94.6139 106.48 93.7616 106.771C92.4963 107.202 91.2134 107.211 89.948 106.806C89.4296 107.669 88.8057 108.453 88.05 109.114C87.4701 109.66 86.7935 110.039 86.0202 110.259C85.2733 110.497 84.5089 110.559 83.7268 110.444C82.1803 110.224 80.792 109.651 79.509 108.823C78.9906 109.343 77.2156 112.215 71.4601 111.66C69.6237 111.29 67.2775 110.471 65.9419 109.123C65.4674 110.057 64.7644 110.788 63.8418 111.307C63.3146 111.633 63.4903 111.792 62.8577 111.792C62.2162 111.792 60.8366 111.607 60.3006 111.281C59.378 110.735 58.6311 110.057 57.9633 109.246C57.6821 109.783 57.2867 110.206 56.8298 110.603C56.4519 110.937 56.0302 111.184 55.5557 111.29C55.0724 111.448 54.5891 111.466 54.1146 111.387C53.7455 111.334 53.4028 111.202 53.1041 110.999C52.779 110.814 52.5241 110.585 52.3045 110.25C51.7685 109.493 51.3115 108.665 50.9513 107.775C50.4592 108.26 49.9495 108.744 49.4311 109.202C48.983 109.616 48.4118 109.863 47.8231 109.968C47.1904 110.083 46.6017 109.986 46.0393 109.757C45.4682 109.502 45.02 109.132 44.6598 108.612C44.4752 108.348 44.2556 108.154 43.9919 107.969C43.7108 107.784 43.4208 107.696 43.1132 107.678C41.6194 108.753 39.9323 109.458 38.1046 109.801C37.6741 109.898 37.2259 109.872 36.769 109.766C36.3385 109.651 35.943 109.44 35.6091 109.132C35.0643 108.647 34.6513 108.048 34.379 107.37C33.2981 108.251 32.1031 108.999 30.829 109.607C29.7921 110.101 28.7201 110.233 27.613 110.048C27.0594 109.916 26.5937 109.669 26.251 109.29C25.302 108.224 24.5814 107.018 24.1684 105.652C22.7801 105.476 21.4796 105.071 20.2143 104.481C17.9033 103.388 15.8911 101.856 14.1952 99.9353C13.2638 98.843 12.719 97.601 12.5608 96.174C12.4729 95.1081 12.6223 94.0863 13.0529 93.0997C13.2901 92.5359 13.6767 92.1043 14.1864 91.7872C14.7136 91.4701 15.276 91.338 15.9087 91.3732C16.7171 91.426 17.42 91.7167 18.0263 92.2981C19.2038 93.4697 20.4515 94.5796 21.7344 95.6454C22.1299 95.9625 22.5692 96.2092 23.0701 96.3413C23.5446 96.4646 24.0542 96.5175 24.5463 96.447C25.0911 96.3766 25.6183 96.262 26.1455 96.1211C26.7606 95.9185 27.3318 95.6983 27.9117 95.39C28.4917 95.0817 29.0716 94.7646 29.6603 94.4474C29.3352 93.6547 29.0101 92.8442 28.7113 92.0603C28.5444 91.6463 28.272 91.3115 27.8678 91.0561C27.4724 90.8182 27.0418 90.7302 26.6024 90.783C25.9786 90.8711 25.4074 91.0737 24.8802 91.3908C24.4936 91.6022 24.0806 91.7344 23.6412 91.7784C23.2194 91.8136 22.8065 91.7608 22.4023 91.611C22.2529 89.955 22.2089 88.2725 22.288 86.6253C22.288 86.5108 22.2704 86.3963 22.2177 86.2994C22.1562 86.2025 22.0683 86.0968 21.9893 86.0439C21.8838 85.9734 21.7784 85.9558 21.6466 85.9558C20.7415 85.8942 19.8277 85.8413 18.9138 85.718C18.9138 84.8283 18.8523 83.9562 18.7556 83.1018C18.7556 82.8728 18.6238 82.6878 18.4657 82.5556C18.3339 82.4235 18.1318 82.3619 17.9385 82.3266C16.5589 82.3002 15.1969 82.1593 13.8349 81.9214C13.6943 79.7457 13.7998 77.5875 14.1688 75.4734C14.327 74.6454 14.4236 73.791 14.5115 72.9453C13.8261 73.8878 13.0529 74.6983 12.2093 75.4294C12.2093 77.9575 11.9018 80.4151 11.2603 82.8463C11.0494 83.5686 10.654 84.1765 10.0653 84.6345C9.48534 85.0926 8.79996 85.348 8.04427 85.348C7.63128 86.6693 7.39404 87.9906 7.3501 89.3648C7.27102 90.8887 6.71743 92.2276 5.66299 93.3464C4.10769 95.0817 3.86166 96.6761 3.53654 98.9928C3.26414 101.001 3.78257 103.6 4.22192 105.062C4.35373 105.485 4.89852 107.273 5.71572 108.374C6.25172 109.088 6.25172 109.299 8.29031 111.034C9.12508 111.748 11.7612 112.602 12.3148 113.924C12.7102 114.857 12.7717 115.782 12.5696 116.76C12.3499 117.729 12.2093 118.76 12.1742 119.764C12.3763 119.702 12.5872 119.614 12.7541 119.499C13.1671 119.253 13.624 119.147 14.1161 119.226C14.5906 119.306 14.9772 119.508 15.3111 119.887C15.645 120.231 15.8296 120.653 15.8471 121.147C15.8735 121.332 15.935 121.517 16.0844 121.658C16.2513 121.763 16.4183 121.86 16.6116 121.86C17.4464 121.86 18.2372 121.719 19.028 121.517C19.4059 121.42 19.7837 121.42 20.1528 121.526C20.5394 121.64 20.8557 121.86 21.1106 122.16C21.3478 122.442 21.5148 122.776 21.5851 123.173C21.6905 123.939 21.9453 124.626 22.3407 125.278C22.7713 125.93 23.2546 126.476 23.8873 126.925C25.258 127.912 26.7694 128.299 28.4565 128.167C28.9486 128.097 29.4407 128.211 29.8449 128.511C30.2666 128.802 30.5302 129.216 30.6445 129.691C31.2332 132.07 32.4897 133.99 34.4141 135.461C36.3824 136.897 38.5616 137.584 40.9956 137.478C41.4437 137.434 41.8567 137.566 42.2345 137.804C42.6036 138.068 42.8672 138.403 43.0254 138.817C43.4823 140.103 44.2028 141.239 45.187 142.191C46.1184 143.16 47.2871 143.847 48.57 144.278C50.6086 145.001 52.7174 145.177 54.8527 144.833C56.9967 144.472 58.9387 143.627 60.6697 142.332C61.0739 142.023 61.5045 141.874 62.0229 141.909C62.5238 141.953 62.9543 142.129 63.341 142.49C64.0175 143.16 64.7732 143.697 65.6519 144.138C65.7749 144.19 65.8892 144.217 66.0386 144.217C66.1616 144.19 66.2934 144.138 66.4164 144.058C66.8558 143.732 67.2072 143.274 67.4621 142.781C67.7257 142.279 67.8575 141.742 67.8575 141.16C67.8663 140.72 68.042 140.315 68.288 139.962C68.5604 139.583 68.9207 139.346 69.3601 139.213C69.7906 139.125 70.2124 139.125 70.6517 139.302C71.2668 139.522 71.8995 139.566 72.5409 139.46C73.2 139.337 73.7799 139.055 74.272 138.606C74.562 138.341 74.8783 138.192 75.2473 138.121C75.6164 138.068 75.9855 138.077 76.3369 138.218C77.8747 138.729 79.4475 138.932 81.0731 138.685C81.3543 138.632 81.5828 138.535 81.7673 138.368C81.9518 138.183 82.1012 137.945 82.1451 137.681C82.3033 137.011 82.3648 136.359 82.3209 135.646C82.3209 135.091 82.4791 134.633 82.8481 134.21C83.2347 133.805 83.6917 133.576 84.2365 133.549C86.0554 133.426 87.8479 133.179 89.6229 132.862C89.9305 132.818 90.2204 132.677 90.4313 132.44C90.6686 132.211 90.8092 131.929 90.8531 131.612C91.0464 130.458 91.0552 130.246 91.2309 128.185C91.4155 126.115 94.3064 127.269 97.373 125.269C100.123 122.961 99.3589 121.015 99.6577 119.702C100.176 117.456 104.455 118.539 106.406 117.227C107.478 116.505 105.598 113.377 106.784 112.417C107.891 111.519 109.842 110.136 110.395 109.431C112.671 106.524 112.381 107.123 113.445 104.789C114.719 101.997 114.824 100.34 114.543 97.8564C114.341 96.3589 114.402 95.2843 112.715 93.6547C111.494 92.4831 109.912 92.0955 108.559 91.8048C108.269 91.7432 108.032 91.5846 107.856 91.3644H107.891Z" fill="white"/>
<path d="M89.1135 93.7687C88.885 93.5484 88.6653 93.3546 88.4369 93.1432C87.4176 92.2007 86.2137 91.5841 84.8518 91.2582C83.8676 91.0027 82.8659 90.9939 81.8554 91.126C82.1629 90.3068 82.2947 89.5052 82.2772 88.6332C82.2244 87.7523 82.0048 86.9419 81.6094 86.1579C81.3457 85.6646 81.0382 85.1625 80.7219 84.6692C82.3387 84.9335 83.9115 84.7485 85.4229 84.0878C87.4088 83.2246 89.0344 81.9209 90.37 80.212L88.7356 78.9788C87.6372 80.4058 86.2665 81.4805 84.6145 82.238C83.0504 82.8811 81.4863 82.9251 79.8959 82.3437C78.3406 81.7711 76.9259 80.9343 75.6605 79.8508C73.7274 78.1243 72.4181 76.0278 71.7855 73.5174C71.1967 71.3592 71.0474 69.1658 71.2758 66.9284C71.3285 66.2766 71.5131 65.6776 71.8382 65.0962C72.1985 64.5324 72.6202 64.048 73.1475 63.6868C74.2195 62.9116 75.4497 62.4712 76.7677 62.3303C79.9047 62.0484 82.901 62.5593 85.7305 63.9334L86.6355 62.1277C83.4283 60.5685 80.0892 59.9519 76.5392 60.2778C74.8697 60.4892 73.3408 61.0354 71.9964 62.0131C71.188 62.5505 70.5553 63.2287 70.0808 64.0656C69.6063 64.9024 69.2987 65.8009 69.2285 66.7346C68.9824 69.2187 69.1757 71.6323 69.782 74.0283C70.5641 76.9528 72.0491 79.4016 74.3249 81.3924C75.1158 82.0883 75.9769 82.7049 76.8819 83.2246C78.077 84.3521 79.0523 85.6558 79.8168 87.1004C80.0804 87.6642 80.221 88.2456 80.2298 88.8622C80.2298 89.4876 80.1068 90.0866 79.852 90.6416C79.1402 92.0069 78.1824 93.108 76.9083 93.9272C76.0999 94.4469 75.2476 94.7817 74.3337 94.9314C73.3935 95.0723 72.4621 95.0019 71.5482 94.764C71.0825 94.6407 70.731 94.3412 70.4674 93.936C70.0369 93.2049 69.6151 92.4562 69.2109 91.7074C68.9736 91.311 68.6397 90.9939 68.1916 90.8001C67.7698 90.6239 67.3217 90.5887 66.856 90.712C66.399 90.8441 66.03 91.0996 65.7576 91.4872C65.0019 92.5354 64.5362 93.6629 64.3253 94.949C64.3077 95.0547 64.2638 95.2045 64.1759 95.3102C64.0705 95.4071 63.9826 95.4864 63.8244 95.5568C62.524 96.0942 61.1444 96.2791 59.7121 96.0942C59.4221 96.0589 59.1497 95.9444 58.9037 95.7594C58.6489 95.5568 58.4644 95.319 58.3677 95.0635C58.0426 94.3324 57.8493 93.6277 57.7087 92.8614C57.612 92.4297 57.4187 92.0509 57.076 91.725C56.7597 91.4431 56.3731 91.2582 55.8986 91.2053C55.4768 91.1348 55.0726 91.2494 54.6684 91.452C53.2624 92.2712 51.9532 93.2842 50.8197 94.4557C50.3627 94.8874 49.8267 95.1781 49.2116 95.2838C47.5509 95.5744 45.9604 95.4159 44.37 94.8697C43.298 94.4557 42.4193 93.8039 41.769 92.8437C41.1364 91.9012 40.82 90.853 40.82 89.7078C40.8815 88.3425 41.3473 87.1709 42.305 86.1755C43.0607 85.4003 43.8691 84.6868 44.6951 84.0262C46.2768 82.793 47.4718 81.2338 48.3241 79.3928C49.8882 75.9398 51.1799 72.381 52.2168 68.7342C52.4365 67.9502 52.4716 67.1486 52.331 66.3118C52.1729 65.4926 51.839 64.7791 51.3293 64.1008C49.6949 62.0484 47.5948 60.8152 44.9851 60.4364C40.1171 59.7933 35.3106 60.3219 30.671 61.9427L31.3652 63.8454C35.706 62.3214 40.1698 61.8634 44.7215 62.4624C46.7688 62.7707 48.4208 63.7397 49.7037 65.3781C50.02 65.7481 50.2309 66.2149 50.3188 66.6818C50.3979 67.1927 50.3803 67.686 50.2485 68.1705C49.2292 71.694 47.9639 75.1822 46.4525 78.5383C45.7408 80.0446 44.7654 81.3395 43.421 82.3966C42.4984 83.1013 41.6548 83.8764 40.8376 84.6957C39.5196 86.0962 38.8342 87.7611 38.7815 89.6462C38.7639 90.2363 38.8342 90.8442 38.9572 91.4255C37.7182 91.2405 36.4968 91.3022 35.293 91.6722C34.1946 91.9981 33.1138 92.4473 32.0945 93.0463C31.8924 93.1432 31.6728 93.293 31.4707 93.4163C31.1807 92.7116 30.9171 92.0157 30.6447 91.3022C30.3108 90.4389 29.7396 89.7607 28.94 89.285C28.1404 88.8005 27.2705 88.6596 26.3478 88.7389C25.6361 88.8358 24.9683 89.056 24.3268 89.3643C24.3092 88.4658 24.3005 87.5849 24.3532 86.704C24.362 86.2108 24.2741 85.7527 24.0281 85.3123C23.7908 84.8894 23.5008 84.5195 23.0703 84.2728C22.6661 84.0086 22.2179 83.8764 21.7434 83.8588C21.4622 83.8588 21.1635 83.8324 20.8911 83.8148C20.8647 83.4536 20.8472 83.1365 20.7944 82.8194C20.7066 82.0971 20.3902 81.4893 19.863 81.0048C19.3358 80.5291 18.7207 80.2825 17.9914 80.2384C17.2708 80.2208 16.5503 80.1856 15.8386 80.1151C15.821 78.644 15.944 77.2082 16.1988 75.7724C16.5855 73.6231 16.7524 71.3945 16.6909 69.1835C16.6558 67.6595 16.6909 66.1092 16.7788 64.5589C16.8754 62.7619 17.1566 60.9649 17.6223 59.2032C18.009 57.6616 18.6328 56.1906 19.494 54.8516C19.6346 54.6226 19.7839 54.3672 19.9597 54.1646C21.3656 53.8298 22.7627 53.5479 24.195 53.3013C23.8963 53.9972 23.7381 54.7283 23.7117 55.4771C23.7117 56.2522 23.9138 56.9481 24.362 57.5823C24.8189 58.1725 25.4252 58.6042 26.1633 58.798C27.4286 59.1063 28.6325 59.0358 29.8275 58.5161C30.9874 57.9787 31.91 57.1155 32.5163 56.0056C32.5954 55.8294 32.692 55.7589 32.8151 55.662C32.9293 55.5916 33.0787 55.5475 33.2368 55.5475C33.3687 55.5475 33.5092 55.5916 33.6498 55.6532C34.2737 55.988 34.9064 56.1201 35.6006 55.9703C36.3035 55.7942 36.8483 55.4154 37.2701 54.834C37.3843 54.7019 37.5513 54.5962 37.727 54.5169C37.9115 54.4993 38.1136 54.4905 38.2806 54.5962C39.212 55.0542 40.1962 55.2392 41.2242 55.1688C42.2347 55.063 43.1925 54.7283 44.0273 54.1469C44.247 53.9884 44.4666 53.9443 44.7039 53.9179C44.9587 53.8915 45.2048 53.9355 45.3981 54.0148C46.1801 54.3407 46.9622 54.4376 47.753 54.3143C48.5438 54.1734 49.2468 53.8739 49.8795 53.3453C50.1343 53.0987 50.3188 52.8521 50.4418 52.5173C50.5385 52.209 50.5473 51.8831 50.5033 51.5484C50.3891 51.0286 50.2397 50.4825 50.0552 50.0333C50.8109 49.9099 51.5841 49.8395 52.3574 49.7514C56.6367 49.2493 60.9247 49.0114 65.2128 49.126C66.7944 49.1612 68.3761 49.2757 69.9666 49.4343C69.5448 49.6016 69.1933 49.8835 68.877 50.2271C68.6134 50.5794 68.3937 50.9494 68.2882 51.3986C68.1389 51.9536 68.1476 52.4997 68.3058 53.0547C68.464 53.6008 68.7715 54.0765 69.2021 54.4552C69.6239 54.834 70.1072 55.1071 70.6783 55.2216C71.5658 55.3714 72.4533 55.433 73.3583 55.3537C73.5253 55.3537 73.6659 55.4066 73.8065 55.4683C73.9647 55.5211 74.0789 55.6444 74.1755 55.7325C74.817 56.5341 75.6342 57.001 76.6447 57.1507C77.6288 57.2829 78.5427 57.0186 79.3511 56.402C79.4741 56.3315 79.6059 56.2698 79.7553 56.2434C79.9047 56.2258 80.0277 56.261 80.1771 56.3315C80.3265 56.3844 80.3967 56.4548 80.511 56.587C80.634 56.7808 80.801 56.9393 81.0118 57.0274C81.1964 57.1243 81.416 57.1595 81.6533 57.1595C83.0241 57.0803 84.3685 56.9745 85.7305 56.8512C85.9062 56.8512 86.0468 56.8865 86.1786 56.9481C86.328 57.045 86.4246 57.1507 86.5125 57.3093C86.7234 57.7409 87.0309 58.058 87.4088 58.2959C87.8306 58.5161 88.2875 58.613 88.7356 58.5689C89.4825 58.4985 90.1679 58.3135 90.8357 58.0316C91.3102 57.829 91.6968 57.5559 92.0307 57.1948C92.3383 56.8336 92.6722 56.0232 92.8304 55.5651C92.9358 55.6268 93.0764 55.6885 93.2258 55.7589C93.999 56.0937 99.0779 58.7011 99.86 59.1239C99.9918 59.2912 100.879 59.5379 100.985 59.7141L101.714 60.5949C101.784 60.7095 104.71 71.5178 103.902 75.5786C103.753 76.3097 101.565 78.5031 101.565 78.5031C100.194 81.0753 99.4294 81.4276 99.034 82.1499C98.5068 83.1189 98.2344 84.1407 98.1553 85.2506C98.1201 85.9905 98.0235 86.7745 97.8917 87.5409C97.8477 87.8404 97.7159 88.1046 97.549 88.3513C97.3645 88.6243 97.1624 88.8093 96.8988 88.9327C96.1255 89.3819 94.1484 89.8223 93.3312 90.1835C91.6529 91.0291 90.2382 92.2095 89.1223 93.7422L89.1135 93.7687Z" fill="white"/>
<path d="M108.611 74.7062C108.172 75.7985 107.302 77.2255 105.896 78.723C106.247 72.6186 105.773 66.611 104.051 61.5196C103.831 60.8853 105 61.3698 105.509 61.8102C106.678 62.5414 107.741 63.0258 108.55 63.9772C108.883 65.5716 108.989 67.5623 109.13 69.5355C109.27 71.5087 109.226 73.1559 108.611 74.7062Z" fill="white"/>
<path d="M71.0286 53.1959C71.7755 53.3545 72.4785 53.3985 73.2078 53.3545C73.6911 53.3104 74.1744 53.4161 74.6401 53.6011C75.097 53.8125 75.4661 54.112 75.7648 54.5172C76.0548 54.8784 76.4414 55.0722 76.8808 55.1338C77.3377 55.1867 77.7331 55.081 78.0934 54.8167C78.6821 54.3763 79.3236 54.1649 80.0529 54.2265C80.7734 54.2706 81.3973 54.5965 81.8894 55.1074C83.1108 55.0369 84.3322 54.9488 85.5448 54.8696C86.1335 54.7991 86.6783 54.9224 87.1791 55.2131C87.68 55.5038 88.0754 55.909 88.3303 56.4375C88.3566 56.4816 88.3742 56.5168 88.3918 56.5168C88.4445 56.5344 88.4884 56.5608 88.5324 56.5344C89.0508 56.508 89.578 56.3758 90.0525 56.1556C90.2546 56.0587 90.5094 55.5831 90.65 55.3981C90.773 55.1955 90.8697 54.9929 90.8785 54.7815V54.7374C85.246 52.3591 79.3324 51.0025 73.322 49.9279C73.1727 49.919 72.9969 49.8926 72.8475 49.875C72.7245 50.2626 72.4961 50.5797 72.1797 50.8352C71.8546 51.0906 71.4768 51.2315 71.0813 51.2756C70.8792 51.2756 70.7299 51.3461 70.5717 51.4694C70.4047 51.6015 70.3081 51.7601 70.2554 51.9539C70.2026 52.1388 70.2026 52.3238 70.2554 52.5088C70.3081 52.6762 70.396 52.8435 70.5629 52.9757C70.6771 53.099 70.8441 53.1871 71.0286 53.1959Z" fill="white"/>
<path d="M35.2579 70.4525C35.6884 70.1354 36.1981 69.9856 36.7429 70.0209C37.7885 70.109 38.799 70.3996 39.7393 70.8929C38.4036 70.7696 37.0944 70.8929 35.829 71.2365C35.5654 71.3069 35.337 71.4655 35.1612 71.6769C34.9767 71.8707 34.8888 72.1174 34.8625 72.408C34.8097 73.4034 34.7922 74.4605 34.8449 75.4647C34.8449 75.7289 34.9328 75.9668 35.0909 76.2046C35.2403 76.4072 35.4424 76.5746 35.6796 76.6979C35.9345 76.8036 36.1717 76.8388 36.4441 76.7948C37.2789 76.6803 38.1049 76.557 38.9221 76.4601C39.6426 76.3544 40.2577 76.0813 40.82 75.632C41.4 75.1652 41.7866 74.6102 42.0239 73.932C42.226 73.4122 42.3402 72.8309 42.4017 72.2671C42.4544 71.6329 42.3402 70.9986 42.0414 70.4261C41.7427 69.8447 41.2858 69.4131 40.7146 69.096C39.5196 68.4529 38.2367 68.083 36.8923 67.9772C35.8202 67.9156 34.8625 68.1887 34.0189 68.8229C33.1578 69.4924 32.2527 70.1002 31.3125 70.6375L32.3054 72.4345C33.3423 71.8179 34.3177 71.1924 35.2667 70.4525" fill="#1E22B0"/>
<path d="M85.4495 69.5468C85.1155 69.0799 84.7201 68.6923 84.2193 68.4193C83.7184 68.1462 83.1912 68.0053 82.62 68.0405C80.9066 68.0757 79.3864 68.6395 78.0596 69.7318L79.36 71.3173C80.3178 70.5246 81.425 70.1194 82.6728 70.0929C83.0418 70.1282 83.3845 70.2955 83.6833 70.5069C83.982 70.736 84.2105 71.0355 84.3599 71.3614C83.7975 71.2645 83.2263 71.2204 82.6464 71.2204C82.0049 71.2204 81.4162 71.3878 80.8363 71.6609C80.6254 71.7754 80.4145 71.934 80.2827 72.1454C80.1421 72.3392 80.0806 72.5682 80.0279 72.8148C79.9927 73.2024 79.9839 73.6516 79.9576 74.0657C79.94 74.1802 79.9224 74.2859 79.8433 74.3564C79.7467 74.4444 79.6412 74.4709 79.5358 74.4973C79.36 74.4973 79.1755 74.5237 78.9822 74.5678C78.8855 74.603 78.824 74.6382 78.7537 74.6999C78.701 74.7968 78.6747 74.8761 78.6483 74.9642C78.5956 75.2548 78.5956 75.5543 78.6044 75.845C78.6219 75.9772 78.6659 76.0917 78.7098 76.171C78.7889 76.2855 78.8855 76.3647 78.9558 76.4088C79.6852 76.814 80.4936 77.043 81.3108 77.1047C82.3652 77.1928 83.3757 77.0606 84.3599 76.6995C84.8256 76.5409 85.221 76.2767 85.5725 75.9155C85.8976 75.5367 86.126 75.1139 86.2491 74.647C86.4687 73.775 86.5127 72.8853 86.3897 72.0132C86.2315 71.1235 85.9239 70.3043 85.4582 69.5468" fill="#1E22B0"/>
</svg>
