<svg width="72" height="72" viewBox="0 0 72 72" fill="none" xmlns="http://www.w3.org/2000/svg">
<rect width="72" height="72" rx="7" fill="#FFEB35"/>
<g clip-path="url(#clip0_650_60464)">
<path d="M42.4161 35.964H53.2809C54.2121 35.9621 55.1047 35.5913 55.7633 34.9328C56.4218 34.2742 56.7926 33.3816 56.7945 32.4504V23.8824C56.7945 22.9505 56.4243 22.0568 55.7654 21.3979C55.1064 20.739 54.2127 20.3688 53.2809 20.3688H42.4161C41.9526 20.365 41.4929 20.4531 41.0637 20.628C40.6345 20.803 40.2442 21.0613 39.9155 21.3881C39.5867 21.7148 39.326 22.1035 39.1484 22.5316C38.9708 22.9598 38.8799 23.4189 38.8809 23.8824V32.4504C38.8809 32.9136 38.9725 33.3723 39.1504 33.8C39.3283 34.2277 39.589 34.616 39.9176 34.9425C40.2462 35.2691 40.6361 35.5274 41.0648 35.7027C41.4936 35.878 41.9528 35.9668 42.4161 35.964ZM41.6097 23.8824C41.6115 23.6691 41.6971 23.4651 41.8479 23.3142C41.9988 23.1634 42.2028 23.0779 42.4161 23.076H53.2809C53.3893 23.0731 53.4971 23.0917 53.5983 23.1308C53.6994 23.1699 53.7918 23.2286 53.8702 23.3036C53.9485 23.3785 54.0112 23.4683 54.0546 23.5676C54.0981 23.667 54.1214 23.774 54.1233 23.8824V32.4504C54.1139 32.6662 54.0206 32.8698 53.8632 33.0178C53.7058 33.1657 53.4968 33.2463 53.2809 33.2424H42.4161C42.2021 33.2386 41.9981 33.1515 41.8475 32.9995C41.6968 32.8475 41.6115 32.6427 41.6097 32.4288V23.8824Z" fill="#1E22B0"/>
<path d="M57.0232 46.7641C57.0255 44.9442 56.4852 43.1649 55.4713 41.6536C54.4573 40.1424 53.0158 38.9677 51.3309 38.2799C49.646 37.592 47.7942 37.4221 46.0123 37.7919C44.2303 38.1618 42.5992 39.0545 41.3272 40.3561H33.0256C32.5166 39.6666 31.9295 39.0384 31.276 38.4841V28.4833H36.1144V20.3689H25.1488L24.5152 23.0113C23.0882 22.8424 21.649 23.2049 20.4724 24.0297C19.2957 24.8544 18.464 26.0835 18.136 27.4825C17.8099 28.8742 18.0031 30.3371 18.6792 31.5965C19.3553 32.8559 20.4678 33.8252 21.808 34.3225L21.3112 36.4033C19.069 37.0573 17.0993 38.4204 15.6973 40.2884C14.2954 42.1564 13.5367 44.4285 13.5352 46.7641V48.1105H18.0712C18.38 49.5424 19.1701 50.8254 20.3098 51.7456C21.4496 52.6658 22.8703 53.1677 24.3352 53.1677C25.8 53.1677 27.2207 52.6658 28.3605 51.7456C29.5003 50.8254 30.2904 49.5424 30.5992 48.1105H41.6008C41.9096 49.5424 42.6997 50.8254 43.8394 51.7456C44.9792 52.6658 46.3999 53.1677 47.8648 53.1677C49.3296 53.1677 50.7503 52.6658 51.8901 51.7456C53.0299 50.8254 53.82 49.5424 54.1288 48.1105H57.0088L57.0232 46.7641ZM20.764 28.1017C20.8616 27.6949 21.0392 27.3117 21.2864 26.9742C21.5337 26.6367 21.8456 26.3519 22.204 26.1361C22.5138 25.9438 22.855 25.8073 23.212 25.7329L21.8944 31.3057C21.4211 30.9341 21.0635 30.4355 20.8633 29.868C20.6631 29.3006 20.6287 28.688 20.764 28.1017ZM27.28 23.0617H33.4144V25.7761H28.576V36.8425C27.2351 36.2713 25.7926 35.9774 24.3352 35.9785H24.1912L27.28 23.0617ZM24.3352 50.4721C23.6034 50.465 22.89 50.2415 22.285 49.8298C21.68 49.418 21.2103 48.8365 20.9352 48.1583C20.66 47.4802 20.5917 46.7358 20.7388 46.0189C20.886 45.302 21.2419 44.6447 21.7619 44.1297C22.2819 43.6147 22.9426 43.2651 23.6609 43.1249C24.3792 42.9848 25.1229 43.0603 25.7983 43.3419C26.4738 43.6236 27.0508 44.0989 27.4567 44.7078C27.8625 45.3168 28.0791 46.0323 28.0792 46.7641C28.0782 47.2538 27.9805 47.7385 27.7916 48.1903C27.6026 48.6421 27.3262 49.0521 26.9783 49.3967C26.6303 49.7413 26.2177 50.0137 25.7641 50.1983C25.3105 50.3828 24.8249 50.4759 24.3352 50.4721ZM24.3352 40.3561C22.8733 40.3579 21.4559 40.8583 20.317 41.7747C19.178 42.6911 18.3858 43.9686 18.0712 45.3961H16.3504C16.6314 43.7439 17.4181 42.2195 18.6019 41.0331C19.7857 39.8467 21.3083 39.0567 22.96 38.7721L28.648 39.8881C29.6666 40.5311 30.5278 41.3948 31.168 42.4153L31.5712 43.0417H42.544L42.9472 42.5665C43.7323 41.6567 44.7549 40.9831 45.9008 40.6211C47.0467 40.259 48.2707 40.2228 49.4361 40.5163C50.6014 40.8099 51.6621 41.4217 52.4997 42.2835C53.3373 43.1452 53.9188 44.2229 54.1792 45.3961H30.5992C30.2869 43.9673 29.4954 42.6883 28.3559 41.7715C27.2164 40.8547 25.7977 40.3553 24.3352 40.3561ZM47.8648 50.4721C47.1181 50.4713 46.389 50.2456 45.7725 49.8243C45.156 49.4031 44.6808 48.8058 44.4088 48.1105H51.3208C51.0479 48.8053 50.5724 49.402 49.9561 49.8231C49.3399 50.2442 48.6112 50.4703 47.8648 50.4721Z" fill="#1E22B0"/>
</g>
<defs>
<clipPath id="clip0_650_60464">
<rect width="72" height="72" fill="white"/>
</clipPath>
</defs>
</svg>
