<svg width="54" height="54" viewBox="0 0 54 54" fill="none" xmlns="http://www.w3.org/2000/svg">
<rect width="54" height="54" rx="4" fill="#E1E1E8"/>
<g clip-path="url(#clip0_650_62208)">
<path d="M38.1931 15.957H15.7993C14.7104 15.9585 13.6665 16.392 12.897 17.1626C12.1275 17.9331 11.6953 18.9775 11.6953 20.0664V33.9282C11.6953 35.0172 12.1275 36.0616 12.897 36.8321C13.6665 37.6026 14.7104 38.0362 15.7993 38.0376H38.1931C39.283 38.0376 40.3282 37.6047 41.0989 36.834C41.8696 36.0634 42.3025 35.0181 42.3025 33.9282V20.0664C42.3025 18.9766 41.8696 17.9313 41.0989 17.1607C40.3282 16.39 39.283 15.957 38.1931 15.957ZM14.1091 33.9282V20.0664C14.1091 19.6182 14.2872 19.1883 14.6042 18.8713C14.9211 18.5543 15.351 18.3762 15.7993 18.3762H34.1971L24.1909 35.6238H15.7993C15.3506 35.6224 14.9207 35.4431 14.6038 35.1253C14.287 34.8075 14.1091 34.377 14.1091 33.9282ZM39.8887 33.9282C39.8873 34.3775 39.7082 34.808 39.3905 35.1256C39.0728 35.4433 38.6424 35.6224 38.1931 35.6238H26.9827L36.9997 18.3762H38.1985C38.6473 18.3762 39.0777 18.5541 39.3956 18.871C39.7134 19.1878 39.8927 19.6177 39.8941 20.0664L39.8887 33.9282Z" fill="#AFAFAF"/>
<path d="M18.865 24.2461H17.0938V29.7541H18.865V24.2461Z" fill="#AFAFAF"/>
<path d="M24.468 29.5974C24.8744 29.405 25.2409 29.1375 25.548 28.809L24.468 27.756C24.276 27.9236 24.0615 28.0636 23.8308 28.1718C23.5909 28.2695 23.3337 28.3173 23.0748 28.3122C22.8299 28.3154 22.5882 28.2559 22.3728 28.1394C22.1711 28.0275 22.0032 27.8634 21.8868 27.6642C21.771 27.4622 21.7114 27.2329 21.714 27C21.7114 26.7631 21.7729 26.5298 21.8922 26.325C22.0086 26.1259 22.1765 25.9618 22.3782 25.8498C22.5956 25.7333 22.839 25.6739 23.0856 25.677C23.3393 25.6714 23.5914 25.7193 23.8254 25.8174C24.0467 25.921 24.2522 26.0556 24.4356 26.217L25.548 25.164C25.2512 24.846 24.8978 24.5859 24.5058 24.3972C24.0487 24.1819 23.5475 24.0765 23.0424 24.0894C22.478 24.0778 21.9201 24.2117 21.4224 24.4782C20.9593 24.729 20.5744 25.1027 20.31 25.5582C20.042 26.0008 19.9035 26.5097 19.9104 27.027C19.9037 27.5427 20.0422 28.0498 20.31 28.4904C20.5738 28.9445 20.9565 29.318 21.417 29.5704C21.9134 29.8409 22.4719 29.9768 23.037 29.9646C23.5356 29.9518 24.0248 29.8263 24.468 29.5974Z" fill="#AFAFAF"/>
</g>
<defs>
<clipPath id="clip0_650_62208">
<rect width="54" height="54" fill="white"/>
</clipPath>
</defs>
</svg>
