<svg width="72" height="72" viewBox="0 0 72 72" fill="none" xmlns="http://www.w3.org/2000/svg">
<rect width="72" height="72" rx="7" fill="#FFEB35"/>
<g clip-path="url(#clip0_650_60452)">
<path d="M46.7348 35.1216H25.2644C23.8112 35.1216 22.4175 35.6989 21.39 36.7264C20.3624 37.754 19.7852 39.1477 19.7852 40.6008V72H23.0036V40.6008C23.0055 40.0025 23.2445 39.4293 23.6683 39.0069C24.0921 38.5844 24.666 38.3472 25.2644 38.3472H29.6276C29.624 38.3903 29.624 38.4337 29.6276 38.4768C29.6276 39.0497 29.8551 39.5991 30.2602 40.0042C30.6653 40.4092 31.2147 40.6368 31.7876 40.6368H40.2404C40.8132 40.6368 41.3626 40.4092 41.7677 40.0042C42.1728 39.5991 42.4004 39.0497 42.4004 38.4768C42.4004 38.4336 42.4004 38.3904 42.4004 38.3472H46.7636C47.3612 38.3472 47.9345 38.5847 48.3571 39.0073C48.7797 39.4299 49.0172 40.0031 49.0172 40.6008V72H52.2428V40.6008C52.2418 39.8791 52.0985 39.1647 51.821 38.4985C51.5435 37.8323 51.1373 37.2273 50.6257 36.7184C50.114 36.2094 49.5069 35.8063 48.8393 35.5323C48.1716 35.2584 47.4565 35.1188 46.7348 35.1216Z" fill="#1E22B0"/>
<path d="M36.0006 15.1199C40.1178 15.1116 44.0774 16.7017 47.0454 19.5551L49.0038 16.9631C45.4653 13.6899 40.8209 11.8743 36.0006 11.8799C31.1783 11.8746 26.5317 13.69 22.9902 16.9631L24.9558 19.5551C27.9238 16.7017 31.8835 15.1116 36.0006 15.1199Z" fill="#1E22B0"/>
<path d="M32.5724 29.6207C33.5988 28.975 34.787 28.633 35.9996 28.6343C37.2172 28.6299 38.4109 28.972 39.4412 29.6207L41.3996 27.0359C39.8062 25.955 37.9251 25.3772 35.9996 25.3772C34.0742 25.3772 32.193 25.955 30.5996 27.0359L32.5724 29.6207Z" fill="#1E22B0"/>
<path d="M45.2015 21.9745C42.578 19.9025 39.3286 18.7829 35.9855 18.7993C32.6423 18.7818 29.3925 19.9014 26.7695 21.9745L28.7279 24.5593C30.7947 22.9264 33.3516 22.0382 35.9855 22.0382C38.6194 22.0382 41.1764 22.9264 43.2431 24.5593L45.2015 21.9745Z" fill="#1E22B0"/>
<path d="M33.7894 56.9233L31.0462 54.4105L29.2246 56.4049L33.8758 60.6601L42.8182 51.7177L40.9102 49.8025L33.7894 56.9233Z" fill="#1E22B0"/>
</g>
<defs>
<clipPath id="clip0_650_60452">
<rect width="72" height="72" fill="white"/>
</clipPath>
</defs>
</svg>
