<svg width="142" height="138" viewBox="0 0 142 138" fill="none" xmlns="http://www.w3.org/2000/svg">
<g clip-path="url(#clip0_1_24447)">
<path d="M0 116.025V127.248C0 128.05 0.109638 128.852 0.322463 129.621C0.515942 130.326 0.851304 130.979 1.3092 131.548C1.77355 132.117 2.33464 132.576 2.99246 132.912C4.13398 133.5 5.36579 133.752 6.64275 133.668C7.9197 133.571 9.10637 133.151 10.1576 132.414C11.312 131.58 12.0601 130.449 12.389 129.059C12.7115 127.565 12.6728 126.059 12.2536 124.585C11.9247 123.498 11.3056 122.593 10.3898 121.914C9.42238 121.216 8.31956 120.822 7.11999 120.751C6.05586 120.693 4.98528 120.751 3.93405 120.932L3.55355 120.996V116.012H0V116.025ZM5.01753 128.625H5.01108C4.57898 128.179 4.35971 127.636 4.35326 127.016C4.35971 126.388 4.58543 125.852 5.01108 125.406C5.46253 124.973 6.00427 124.746 6.61695 124.74C7.24253 124.746 7.77782 124.973 8.22282 125.406C8.65492 125.852 8.88064 126.395 8.89354 127.016C8.88064 127.643 8.66137 128.186 8.22927 128.625C7.77782 129.065 7.24253 129.291 6.6234 129.298C5.99782 129.291 5.45608 129.065 5.01753 128.632V128.625Z" fill="#1E22B0"/>
<path d="M17.2002 121.869C16.1812 122.755 15.4589 123.867 15.072 125.173C14.8849 125.82 14.7882 126.479 14.7882 127.138C14.7882 127.798 14.8849 128.457 15.072 129.104C15.4589 130.403 16.1812 131.515 17.2002 132.401C18.3289 133.345 19.6445 133.785 21.1085 133.707C22.4435 133.604 23.6044 133.074 24.5653 132.149C24.3525 131.974 22.3661 130.339 22.2952 130.281H20.4313C20.1669 130.281 19.9154 130.203 19.7026 130.054C19.4833 129.899 19.322 129.699 19.2253 129.453C19.0834 129.084 19.0125 128.703 19.0125 128.315V127.539H26.9128C26.9128 127.436 26.9257 127.242 26.9257 127.242C26.9257 126.324 26.7516 125.425 26.4033 124.559C25.9712 123.518 25.3199 122.606 24.4686 121.869C23.4238 120.99 22.1984 120.537 20.8312 120.518C19.4704 120.531 18.245 120.984 17.2002 121.869ZM19.0189 125.884V123.751H21.2375C21.6825 123.757 22.063 123.912 22.3854 124.21C22.7015 124.52 22.8691 124.901 22.8949 125.341V126.02H19.0254V125.884H19.0189Z" fill="#1E22B0"/>
<path d="M32.6784 120.712C31.6272 121.048 30.6985 121.624 29.9245 122.412C28.7508 123.647 28.1123 125.134 28.0349 126.841V127.041C28.0349 128.057 28.28 129.033 28.7637 129.938C29.2925 130.888 30.0342 131.664 30.9693 132.227C31.9109 132.783 32.9428 133.061 34.0327 133.067H39.7919V133.449H41.7332V127.242H41.114V126.912C41.1269 125.361 40.6368 123.964 39.6694 122.755C38.6827 121.572 37.4121 120.815 35.903 120.512C34.8195 120.311 33.7296 120.376 32.6719 120.706L32.6784 120.712ZM33.3685 128.438C32.9493 127.998 32.73 127.475 32.7235 126.873C32.73 126.266 32.9493 125.742 33.3685 125.309C33.807 124.882 34.3294 124.669 34.9292 124.656C35.5419 124.662 36.0643 124.882 36.4964 125.296C36.922 125.736 37.1413 126.259 37.1477 126.867C37.1413 127.481 36.922 128.005 36.5028 128.438C36.0707 128.858 35.5419 129.078 34.9421 129.091C34.3294 129.084 33.807 128.865 33.3749 128.444L33.3685 128.438Z" fill="#1E22B0"/>
<path d="M49.7238 119.904C48.8532 119.917 48.0212 120.143 47.2667 120.583C46.5121 121.029 45.9123 121.636 45.4673 122.393C44.8159 123.537 44.4806 124.792 44.4741 126.11V132.789H48.9177V126.207C48.9177 125.742 49.0918 125.335 49.4143 125.005C49.7496 124.675 50.1495 124.507 50.6138 124.501H50.8073V119.904H49.7238Z" fill="#1E22B0"/>
<path d="M61.8033 115.553V120.538L61.4164 120.473C60.3587 120.292 59.2881 120.227 58.2304 120.285C57.0309 120.357 55.9345 120.751 54.9542 121.456C54.0449 122.134 53.4193 123.033 53.0904 124.119C52.6776 125.593 52.6325 127.1 52.9549 128.593C53.2774 129.983 54.032 131.108 55.1864 131.949C56.2312 132.686 57.4178 133.106 58.7012 133.196C59.9782 133.28 61.21 133.028 62.358 132.44C63.0094 132.104 63.5704 131.638 64.0348 131.069C64.4991 130.494 64.828 129.847 65.0215 129.143C65.2279 128.367 65.3375 127.572 65.3375 126.77V115.546H61.7969L61.8033 115.553ZM57.1341 128.154C56.702 127.701 56.4827 127.164 56.4698 126.544C56.4827 125.917 56.702 125.38 57.1341 124.934C57.5791 124.501 58.1208 124.274 58.7399 124.268C59.3655 124.274 59.9073 124.501 60.3458 124.934C60.7844 125.38 61.0101 125.923 61.0165 126.544C61.0101 127.171 60.7844 127.707 60.3523 128.154C59.9008 128.593 59.3655 128.819 58.7464 128.826C58.1208 128.819 57.5791 128.593 57.1405 128.16L57.1341 128.154Z" fill="#1E22B0"/>
<path d="M77.6041 121.106C76.9527 121.442 76.3851 121.902 75.9272 122.477C75.4693 123.046 75.134 123.699 74.9341 124.404C74.7277 125.179 74.618 125.975 74.618 126.783V138.006H78.1651V133.022L78.5521 133.093C79.5969 133.274 80.6675 133.338 81.7316 133.274C82.9312 133.203 84.0275 132.808 85.0014 132.104C85.9107 131.425 86.5427 130.526 86.8652 129.433C87.278 127.966 87.3295 126.459 87.0006 124.96C86.6717 123.57 85.9236 122.445 84.7692 121.604C83.718 120.874 82.5377 120.453 81.2543 120.356C79.9774 120.272 78.7456 120.524 77.6041 121.113V121.106ZM79.6291 128.625C79.197 128.179 78.9778 127.636 78.9649 127.016C78.9713 126.388 79.197 125.852 79.6291 125.406C80.0806 124.972 80.6159 124.746 81.235 124.74C81.8606 124.746 82.4023 124.972 82.8409 125.406C83.2794 125.852 83.4987 126.395 83.5051 127.016C83.4987 127.643 83.273 128.186 82.8409 128.625C82.3959 129.065 81.8541 129.291 81.235 129.298C80.6094 129.291 80.0677 129.065 79.6291 128.632V128.625Z" fill="#1E22B0"/>
<path d="M92.9469 120.712C91.8957 121.048 90.967 121.624 90.1866 122.412C89.0193 123.647 88.3808 125.134 88.297 126.841V127.041C88.297 128.057 88.5421 129.033 89.0258 129.938C89.5546 130.888 90.2963 131.664 91.2314 132.227C92.173 132.783 93.2049 133.061 94.2948 133.067H100.054V133.449H101.989V127.242H101.37V126.912C101.383 125.361 100.892 123.964 99.925 122.755C98.9383 121.572 97.6742 120.815 96.1587 120.512C95.0752 120.311 93.9853 120.376 92.934 120.706L92.9469 120.712ZM93.637 128.438C93.2178 127.998 92.9985 127.475 92.9921 126.873C92.9921 126.266 93.2178 125.742 93.637 125.309C94.0755 124.882 94.5979 124.669 95.1977 124.656C95.8104 124.662 96.3328 124.882 96.7649 125.296C97.1905 125.736 97.4098 126.259 97.4163 126.867C97.4034 127.481 97.1905 128.005 96.7713 128.438C96.3328 128.858 95.8104 129.078 95.2042 129.091C94.5979 129.084 94.0691 128.865 93.637 128.444V128.438Z" fill="#1E22B0"/>
<path d="M107 121.106C106.348 121.442 105.787 121.902 105.323 122.477C104.865 123.046 104.53 123.699 104.336 124.404C104.123 125.179 104.02 125.981 104.02 126.783V138.006H107.567V133.022L107.954 133.093C108.999 133.274 110.076 133.338 111.14 133.274C112.333 133.203 113.436 132.808 114.416 132.104C115.319 131.425 115.951 130.526 116.274 129.433C116.687 127.966 116.738 126.459 116.409 124.96C116.087 123.57 115.332 122.445 114.178 121.604C113.133 120.874 111.946 120.453 110.663 120.356C109.386 120.272 108.154 120.524 107.013 121.113L107 121.106ZM109.025 128.625C108.593 128.179 108.374 127.63 108.361 127.016C108.374 126.395 108.593 125.852 109.025 125.406C109.47 124.972 110.012 124.746 110.631 124.74C111.256 124.746 111.792 124.972 112.237 125.406C112.669 125.852 112.894 126.395 112.901 127.016C112.888 127.643 112.669 128.186 112.237 128.625C111.785 129.065 111.25 129.291 110.631 129.298C110.005 129.291 109.47 129.065 109.025 128.632V128.625Z" fill="#1E22B0"/>
<path d="M122.833 120.712C121.775 121.048 120.846 121.623 120.072 122.412C118.899 123.647 118.267 125.134 118.183 126.841V127.041C118.176 128.063 118.421 129.039 118.912 129.944C119.44 130.895 120.182 131.67 121.117 132.233C122.059 132.789 123.091 133.067 124.181 133.073H129.946V133.455H131.881V127.248H131.268V126.919C131.281 125.367 130.798 123.97 129.824 122.761C128.837 121.578 127.567 120.822 126.051 120.518C124.967 120.318 123.878 120.382 122.826 120.712H122.833ZM123.523 128.438C123.104 127.998 122.884 127.475 122.871 126.873C122.884 126.266 123.104 125.742 123.523 125.309C123.955 124.882 124.484 124.669 125.084 124.656C125.696 124.662 126.219 124.882 126.644 125.296C127.07 125.735 127.289 126.259 127.296 126.867C127.296 127.481 127.07 128.005 126.657 128.438C126.219 128.858 125.696 129.078 125.096 129.091C124.484 129.084 123.961 128.865 123.529 128.444L123.523 128.438Z" fill="#1E22B0"/>
<path d="M137.498 132.433H139.298C139.588 132.433 139.82 132.524 140.007 132.711C140.194 132.899 140.285 133.157 140.285 133.487C140.285 133.817 140.194 134.076 140.007 134.263C139.91 134.366 139.769 134.431 139.582 134.457L140.42 136.112H139.878L139.104 134.522H137.989V136.112H137.498V132.433ZM137.989 132.841V134.108H139.253C139.394 134.108 139.517 134.056 139.62 133.959C139.717 133.856 139.769 133.701 139.769 133.487C139.769 133.287 139.711 133.132 139.601 133.015C139.485 132.899 139.349 132.841 139.195 132.841H137.995H137.989Z" fill="#1E22B0"/>
<path d="M135.667 134.121C135.667 135.873 137.086 137.295 138.833 137.295C140.581 137.295 142 135.873 142 134.121C142 132.369 140.581 130.947 138.833 130.947C137.086 130.947 135.667 132.369 135.667 134.121ZM136.06 134.121C136.06 132.589 137.305 131.341 138.833 131.341C140.362 131.341 141.607 132.589 141.607 134.121C141.607 135.653 140.362 136.901 138.833 136.901C137.305 136.901 136.06 135.653 136.06 134.121Z" fill="#1E22B0"/>
<path d="M26.9838 39.4248C27.719 38.3128 28.5574 37.3043 29.5248 36.3991C30.9307 35.0996 32.4528 33.9682 34.0973 32.9855C36.3804 31.6407 38.7214 30.4576 41.1657 29.4684C44.0679 28.2594 47.0861 27.3995 50.1818 26.8565C53.3161 26.3005 56.4505 26.0225 59.6364 26.0289C64.2219 26.0677 68.7944 26.2487 73.3476 26.656C77.9652 27.0698 82.4862 28.0073 86.891 29.4619C90.0254 30.5222 93.824 32.0092 96.5456 33.9488C97.9386 34.9638 99.1511 36.147 100.189 37.5305C101.524 39.3408 102.234 41.3838 102.563 43.6208C102.73 44.778 102.892 47.0279 102.892 47.0279L101.795 47.7003C101.731 47.0085 101.647 46.3168 101.557 45.625C101.363 44.3772 101.047 43.1423 100.576 41.9721C99.8347 40.1295 98.6352 38.6684 96.9454 37.634C95.03 36.4961 92.9921 35.6233 90.838 35.035L90.451 36.4832C92.4697 37.0392 94.3786 37.8667 96.1715 38.94C97.571 39.7934 98.5836 41.0024 99.1833 42.5281C99.4865 43.3428 99.925 44.4483 99.9057 45.2565C96.236 42.4764 92.1214 40.6662 91.9086 40.5692L90.2898 39.8192C85.5109 37.6275 79.6743 36.0823 74.5084 35.1772C72.4705 34.8151 70.3938 34.6147 68.3365 34.5695C65.1119 34.5177 61.9001 34.66 58.7013 35.0414C53.1291 35.688 47.5441 36.3603 41.9719 37.0521C39.0504 37.4336 36.1611 37.9572 33.3041 38.6426C32.1174 38.9335 31.0855 39.496 30.2342 40.3494C29.2797 41.2933 28.5767 42.4247 28.1317 43.679C27.6545 43.7953 27.1708 43.9246 26.7129 44.1121L26.6807 40.4657C26.6807 40.1037 26.771 39.7481 26.9773 39.4313L26.9838 39.4248Z" fill="white"/>
<path d="M103.208 68.7446C104.452 69.9407 104.401 70.7295 104.549 71.8285C104.755 73.6453 104.672 74.8672 103.743 76.9167C102.963 78.63 103.175 78.1968 101.505 80.3238C101.099 80.8411 99.667 81.8561 98.8544 82.5155C97.9837 83.2203 99.3639 85.5154 98.5771 86.0456C97.1453 87.0089 94.011 86.2201 93.624 87.8623C93.4048 88.8256 93.9723 90.2544 91.9472 91.9483C89.6964 93.4159 87.5746 92.569 87.4392 94.0883C87.3102 95.6011 87.3102 95.7563 87.1619 96.6032C87.1296 96.836 87.0264 97.0429 86.8523 97.211C86.6975 97.3855 86.4847 97.489 86.259 97.5213C84.9562 97.7541 83.6341 97.9351 82.3056 98.0256C81.9057 98.045 81.5704 98.2131 81.2866 98.5105C81.0157 98.8208 80.8996 99.157 80.8996 99.5643C80.9319 100.088 80.8803 100.573 80.7706 101.058C80.7319 101.245 80.6288 101.426 80.4933 101.562C80.3579 101.685 80.1902 101.762 79.9838 101.795C78.7907 101.976 77.6363 101.821 76.5077 101.452C76.2497 101.349 75.9724 101.342 75.708 101.381C75.4371 101.433 75.2049 101.543 74.9921 101.737C74.6309 102.066 74.2053 102.273 73.7216 102.364C73.2508 102.448 72.7864 102.415 72.335 102.247C72.0125 102.118 71.7094 102.118 71.387 102.183C71.0645 102.28 70.8001 102.454 70.6001 102.732C70.4131 102.991 70.2906 103.288 70.2841 103.612C70.2841 104.038 70.1938 104.433 69.9939 104.801C69.8069 105.163 69.5489 105.499 69.2264 105.739C69.1362 105.79 69.0394 105.836 68.9491 105.855C68.8395 105.855 68.7557 105.836 68.6654 105.797C68.0204 105.474 67.4658 105.079 66.9692 104.588C66.6854 104.329 66.3759 104.193 66.0018 104.161C65.6278 104.135 65.3117 104.245 65.0086 104.471C63.7381 105.422 62.3193 106.042 60.7392 106.308C59.172 106.56 57.6242 106.43 56.128 105.9C55.1864 105.583 54.3286 105.079 53.645 104.368C52.9227 103.67 52.3939 102.836 52.0585 101.892C51.936 101.594 51.7425 101.342 51.4781 101.148C51.1943 100.974 50.8976 100.883 50.5687 100.909C48.7823 100.987 47.1828 100.482 45.7382 99.4285C44.3194 98.3489 43.4036 96.9394 42.9715 95.1938C42.8876 94.8447 42.6942 94.5408 42.3846 94.3275C42.0879 94.1077 41.7268 94.0301 41.3656 94.0753C40.1273 94.1723 39.0116 93.8879 38.012 93.1638C37.5412 92.834 37.1929 92.4332 36.8769 91.9548C36.5867 91.4763 36.3997 90.972 36.3223 90.4096C36.2707 90.1186 36.1481 89.873 35.974 89.6661C35.7934 89.4463 35.5548 89.2846 35.271 89.2006C35.0002 89.123 34.7229 89.123 34.4455 89.1941C33.8651 89.3428 33.2847 89.4398 32.672 89.4463C32.5301 89.4463 32.4011 89.3816 32.285 89.2976C32.1818 89.1941 32.1303 89.0583 32.1109 88.9226C32.098 88.5605 31.9561 88.2502 31.7175 87.9981C31.4724 87.7136 31.1887 87.5713 30.8404 87.5132C30.4792 87.4614 30.1503 87.5326 29.8408 87.7136C29.7182 87.7912 29.5634 87.8623 29.4151 87.9075C29.4409 87.1705 29.5441 86.4141 29.7053 85.7029C29.8601 84.9853 29.8085 84.3064 29.5183 83.6211C29.1055 82.6513 27.1708 82.0177 26.5645 81.5005C25.0683 80.2269 25.0619 80.0717 24.6749 79.548C24.0751 78.7399 23.6688 77.4274 23.5785 77.1171C23.2496 76.0439 22.8756 74.1302 23.0755 72.6626C23.3206 70.9622 23.4947 69.792 24.6362 68.5184C25.4101 67.6973 25.8164 66.7146 25.8745 65.5961C25.9067 64.5875 26.0808 63.6242 26.384 62.6479C26.9386 62.6479 27.4352 62.4605 27.8673 62.1243C28.2994 61.7816 28.5896 61.3355 28.7444 60.8118C29.2152 59.0274 29.4409 57.2172 29.4409 55.3681C30.0665 54.838 30.634 54.2367 31.1306 53.5449C31.0661 54.1656 31.0016 54.7992 30.8791 55.4004C30.6082 56.9521 30.5308 58.5361 30.634 60.133C31.6337 60.3011 32.6333 60.411 33.6458 60.4304C33.7877 60.4498 33.9425 60.5015 34.0328 60.5985C34.1489 60.6955 34.2456 60.8312 34.2456 60.9993C34.3166 61.6264 34.3617 62.2665 34.3617 62.9195C35.0324 63.01 35.7031 63.0553 36.3674 63.094C36.4642 63.094 36.5416 63.107 36.6189 63.1587C36.677 63.1975 36.7415 63.2751 36.7866 63.3462C36.8253 63.4173 36.8382 63.5014 36.8382 63.5854C36.7737 64.8009 36.8124 66.0357 36.9221 67.2447C37.2187 67.3611 37.5218 67.3934 37.8314 67.3675C38.1539 67.3417 38.457 67.2447 38.7408 67.0831C39.1277 66.8568 39.5469 66.7016 40.0048 66.637C40.3208 66.5982 40.6433 66.6628 40.9335 66.8374C41.2237 67.0249 41.4301 67.2706 41.5526 67.5744C41.7719 68.1498 42.0105 68.7446 42.2492 69.3265C41.8171 69.5528 41.3914 69.792 40.9658 70.0183C40.5466 70.2381 40.1273 70.3997 39.6694 70.5549C39.2825 70.6583 38.8955 70.7424 38.4957 70.7941C38.1281 70.8458 37.754 70.807 37.4122 70.7165C37.0446 70.6196 36.7221 70.4385 36.4319 70.2058C35.4903 69.4235 34.581 68.6089 33.7103 67.749C33.2653 67.3223 32.7558 67.1089 32.1561 67.0701C31.6917 67.0443 31.279 67.1413 30.892 67.374C30.5115 67.6068 30.2342 67.9236 30.06 68.3373C29.744 69.0614 29.6344 69.8114 29.6989 70.5937C29.8085 71.6411 30.2084 72.5527 30.8984 73.3543C32.1432 74.7638 33.62 75.8887 35.3162 76.6904C36.2449 77.1236 37.1994 77.421 38.2184 77.5503C38.5215 78.5524 39.0503 79.4381 39.7468 80.2204C39.9984 80.4984 40.3402 80.6859 40.7465 80.7764C41.5591 80.9122 42.3459 80.8152 43.1069 80.4531C44.0356 80.007 44.9192 79.451 45.7124 78.811C45.9123 79.3088 46.2155 79.742 46.6153 80.104C46.8604 80.3303 47.157 80.4855 47.4666 80.5695C47.7955 80.6471 48.1244 80.6665 48.4469 80.5954C49.7884 80.3432 51.0266 79.826 52.123 79.0373C52.3487 79.0567 52.5615 79.1148 52.7679 79.2506C52.9549 79.3799 53.1226 79.5286 53.2581 79.7226C53.5225 80.104 53.8514 80.382 54.2706 80.5631C54.6833 80.7311 55.1154 80.7958 55.5798 80.7182C56.0183 80.6471 56.4311 80.4596 56.76 80.1557C57.1405 79.8196 57.5146 79.464 57.8757 79.1084C58.1402 79.7614 58.4755 80.3691 58.8689 80.9251C59.0302 81.1708 59.2172 81.3389 59.4558 81.4746C59.6751 81.6233 59.9266 81.7203 60.1975 81.7591C60.5457 81.8108 60.9004 81.8044 61.2552 81.688C61.6099 81.6104 61.913 81.4294 62.1903 81.1837C62.5257 80.8928 62.8094 80.576 63.0223 80.1881C63.5124 80.7829 64.0606 81.2807 64.7378 81.6815C65.1247 81.9207 66.1437 82.0501 66.6145 82.0565C67.0788 82.0565 66.9499 81.9401 67.3368 81.7009C68.0075 81.3195 68.5299 80.7829 68.8782 80.0976C69.8649 81.0867 71.5804 81.6945 72.9283 81.9595C77.1462 82.3668 78.4554 80.2657 78.8359 79.8777C79.7839 80.4855 80.8029 80.9057 81.9315 81.0673C82.4991 81.1514 83.0601 81.1061 83.6148 80.9316C84.1823 80.7699 84.6789 80.4919 85.1046 80.0911C85.6527 79.6062 86.1171 79.0308 86.4976 78.3972C87.4327 78.6946 88.3679 78.6881 89.2966 78.3713C89.9286 78.158 90.3994 77.7442 90.709 77.1494C90.9992 76.5223 91.0637 75.9081 90.8573 75.2745C92.4567 74.2659 93.8498 73.0375 95.0493 71.5893C95.3331 71.1885 95.5008 70.7036 95.4879 70.1929C95.4621 69.6627 95.2622 69.236 94.9074 68.861C94.6946 68.6477 94.456 68.486 94.1851 68.3632C93.9078 68.2404 93.624 68.2145 93.3274 68.2145C92.1859 68.2598 91.1024 68.499 90.0511 68.8998C89.7803 68.9903 89.561 69.152 89.3546 69.3459C89.1547 69.5399 88.9999 69.7661 88.8838 70.0377C88.8322 70.2187 88.6968 70.348 88.5098 70.4515C88.3356 70.5614 88.1551 70.5872 87.9616 70.5743C87.7487 70.5484 87.5811 70.4579 87.4392 70.3222C87.2844 70.167 87.1232 69.9989 86.9748 69.8567C87.6585 68.8739 89.4127 68.1046 90.4768 67.568C91.1024 67.2706 91.7022 66.9538 92.2955 66.6176C92.6953 66.4107 93.0178 66.1198 93.2758 65.7319C93.5402 65.3957 93.7014 64.9819 93.7788 64.5487C93.9014 63.9216 93.9594 63.3074 94.011 62.6738C94.0303 62.079 94.198 61.5359 94.4495 61.0122C94.8687 60.23 96.7326 58.1546 96.4101 57.3271C97.2937 59.5834 98.6093 61.5165 100.305 62.6997C100.576 62.8807 100.796 63.0876 100.976 63.3527C101.099 63.5272 101.228 63.6953 101.37 63.8699C101.531 64.1155 101.621 64.3677 101.582 64.6651C101.55 64.9754 101.415 65.2211 101.202 65.428C100.97 65.609 100.699 65.706 100.402 65.6931C100.176 65.6931 99.9701 65.7512 99.8153 65.8935C99.6541 66.0422 99.5445 66.2232 99.5122 66.4366C99.48 66.6758 99.538 66.8633 99.667 67.0572C99.796 67.2189 99.9701 67.3352 100.183 67.3805C101.176 67.5938 102.337 67.8718 103.233 68.7382L103.208 68.7446Z" fill="white"/>
<path d="M101.828 55.4521C102.202 55.575 102.537 55.7883 102.801 56.118C103.04 56.4219 103.201 56.7969 103.246 57.1977C103.246 57.2301 103.246 57.243 103.246 57.2559C103.285 57.2689 103.292 57.2753 103.298 57.2753C103.853 57.4046 104.356 57.3076 104.833 57.049C105.11 56.8939 105.336 56.687 105.523 56.409C105.691 56.1633 105.807 55.8724 105.865 55.5556C106.013 54.6763 105.923 53.8035 105.626 52.9436C105.51 52.6398 105.336 52.3812 105.084 52.1807C104.839 51.9868 104.556 51.8445 104.246 51.7799C103.53 51.6635 102.827 51.7152 102.163 51.9415C102.06 51.9803 101.957 52.0191 101.847 52.0514C101.782 53.157 101.673 54.269 101.486 55.3681C101.608 55.3939 101.705 55.4198 101.821 55.4586" fill="white"/>
<path d="M109.483 51.3856C108.947 50.7132 108.277 50.209 107.516 49.8404C105.703 49.0452 103.814 48.8513 101.892 49.2198C101.898 49.6271 101.905 50.0279 101.905 50.4482C102.756 50.1896 103.614 50.1572 104.491 50.2865C105.071 50.4029 105.607 50.6486 106.045 51.0106C106.503 51.3986 106.819 51.8576 107.032 52.4201C107.425 53.5256 107.529 54.6506 107.335 55.7949C107.264 56.338 107.071 56.8293 106.755 57.2754C106.445 57.7215 106.052 58.0771 105.6 58.3487C104.768 58.8142 103.891 58.937 102.988 58.743C102.64 58.6655 102.376 58.5038 102.143 58.2452C101.905 57.9866 101.776 57.6957 101.744 57.3336C101.724 57.2496 101.698 57.1332 101.628 57.0556C101.563 56.978 101.473 56.9134 101.363 56.8746C101.028 56.7712 100.705 56.7905 100.389 56.9392C100.067 57.0815 99.8411 57.3336 99.6992 57.6375C99.4864 58.0901 99.409 58.562 99.4154 59.0663C99.4348 59.4607 99.4799 59.868 99.5444 60.2624C100.06 60.6826 100.596 61.0834 101.137 61.4649C101.537 61.7364 101.892 62.0856 102.176 62.4735C102.292 62.6286 102.408 62.8032 102.518 62.9584C102.84 63.3786 103.027 63.8441 103.059 64.3613C103.575 64.51 104.11 64.4777 104.607 64.2708C106.032 63.676 107.232 62.7644 108.174 61.5166C109.057 60.34 109.747 59.0857 110.25 57.6892C110.715 56.3574 110.798 54.9997 110.54 53.6291C110.353 52.795 109.999 52.0515 109.476 51.3856" fill="white"/>
<path d="M90.0512 73.9814C91.5152 73.0698 92.7857 71.9513 93.8627 70.6195C93.953 70.5031 93.9981 70.3803 93.9981 70.2381C93.9788 70.1152 93.9336 69.9859 93.824 69.8889C93.7789 69.8372 93.695 69.779 93.6176 69.7596C93.5402 69.7144 93.4693 69.7015 93.3726 69.7015C92.4116 69.7532 91.4894 69.9342 90.5929 70.2833C90.5284 70.3092 90.451 70.348 90.4059 70.4062C90.3543 70.4643 90.3092 70.529 90.2705 70.5872C90.0576 71.0979 89.7287 71.4859 89.2515 71.7574C88.7936 72.0225 88.3034 72.1065 87.7617 72.0419C87.2264 71.9772 86.775 71.7703 86.3816 71.3889C85.7237 70.7359 85.0466 70.0958 84.3565 69.4816C83.8018 68.958 83.1376 68.6153 82.3959 68.4278C81.5446 68.2403 80.7191 68.305 79.9129 68.5959C79.6872 68.6864 79.4808 68.7575 79.2874 68.861C78.823 69.3717 78.3071 69.8178 77.7331 70.2057C76.9721 70.6842 76.1466 70.9945 75.2372 71.1367C74.3408 71.2725 73.4443 71.2337 72.5801 70.988C71.8578 70.7811 71.2838 70.3415 70.8904 69.695C70.5615 69.1261 70.2519 68.57 69.9295 68.0076C69.5296 68.5765 69.2781 69.2101 69.162 69.8954C69.1104 70.2445 68.9556 70.5743 68.7364 70.8587C68.5171 71.1432 68.2333 71.3565 67.9173 71.4988C66.6855 72.016 65.4085 72.1841 64.0735 71.9966C63.6027 71.919 63.1771 71.7509 62.7772 71.4471C62.3903 71.1626 62.1001 70.7876 61.9195 70.3415C61.6615 69.7273 61.4487 69.0679 61.3326 68.4084C60.4103 68.945 59.5719 69.598 58.8303 70.3674C58.2756 70.9234 57.6114 71.279 56.8374 71.4147C55.367 71.6604 53.9288 71.5246 52.5293 71.0268C51.3298 70.5872 50.414 69.8308 49.7433 68.7575C49.524 68.7123 49.3176 68.6864 49.1177 68.6282C48.3309 68.4666 47.5634 68.5054 46.7766 68.7317C46.093 68.9321 45.4351 69.2101 44.8096 69.5786C43.7777 70.1928 42.7264 70.7811 41.6688 71.3371C41.1593 71.6087 40.6433 71.822 40.0822 71.9707C39.6179 72.1065 39.1665 72.2035 38.7021 72.2552C38.1281 72.3393 37.5541 72.2875 36.9995 72.1518C36.432 71.9901 35.9289 71.7121 35.4775 71.3436C34.5101 70.5355 33.5749 69.6821 32.6527 68.7963C32.4915 68.6347 32.2915 68.5377 32.0658 68.5442C31.9368 68.5248 31.8078 68.5442 31.6982 68.6153C31.5692 68.6929 31.5047 68.8093 31.4467 68.9127C31.2274 69.3911 31.1629 69.9019 31.2016 70.4126C31.2919 71.1432 31.5628 71.7768 32.04 72.3328C33.1428 73.5935 34.4585 74.5698 35.9676 75.3003C36.7738 75.6624 37.5799 75.921 38.4506 76.0244C38.7408 76.0826 38.9859 76.1796 39.2116 76.3865C39.4309 76.5675 39.5857 76.8067 39.663 77.0912C39.921 77.867 40.2886 78.5588 40.8497 79.1536C40.9078 79.2053 40.9658 79.2441 41.0367 79.257C41.5333 79.3475 42.0106 79.2829 42.4814 79.076C43.3004 78.6752 44.0679 78.1838 44.7838 77.5955C45.0353 77.3821 45.3384 77.2787 45.6609 77.2593C45.9769 77.2593 46.2671 77.3304 46.5509 77.505C46.8282 77.6925 47.0152 77.9381 47.1377 78.2355C47.2345 78.52 47.3957 78.7463 47.6085 78.9338C47.6924 79.0049 47.7762 79.0437 47.873 79.0695C47.9762 79.0889 48.0858 79.1083 48.1825 79.0889C49.3112 78.8821 50.3237 78.4424 51.2524 77.7765C51.5748 77.5308 51.9425 77.4532 52.323 77.492C52.768 77.5502 53.1743 77.686 53.5612 77.9317C53.9417 78.1644 54.2448 78.4618 54.4964 78.8368C54.5867 78.979 54.7156 79.0566 54.8704 79.1536C55.0317 79.2118 55.18 79.2247 55.3348 79.1924C55.5089 79.1665 55.6508 79.1148 55.7733 78.9855C56.128 78.6881 56.4763 78.3454 56.831 78.0093C57.0696 77.7765 57.3469 77.6343 57.6823 77.6019C58.0241 77.5567 58.3337 77.6149 58.6174 77.7765C58.9206 77.9446 59.1269 78.1967 59.2624 78.5071C59.4945 79.0437 59.7783 79.5609 60.1072 80.0458C60.1459 80.104 60.204 80.1557 60.262 80.1816C60.3136 80.2139 60.3716 80.2527 60.4361 80.2527C60.578 80.2721 60.7135 80.2656 60.8489 80.2268C60.9779 80.1751 61.1133 80.1169 61.2101 80.0135C61.4229 79.8389 61.597 79.6256 61.7582 79.3734C61.9453 79.0954 62.1645 78.9079 62.4806 78.7657C62.7708 78.6493 63.0997 78.6235 63.4157 78.701C63.7382 78.7915 63.9961 78.9467 64.2025 79.2053C64.5766 79.6643 65.0216 80.0458 65.5246 80.3561C65.6858 80.4466 65.8535 80.5178 66.0599 80.5178C66.2598 80.5178 66.4211 80.466 66.6016 80.3626C67.0144 80.1169 67.3304 79.7937 67.5561 79.3605C67.7109 79.0825 67.9302 78.8627 68.2204 78.714C68.5171 78.5717 68.8073 78.5329 69.1298 78.5653C69.4458 78.6299 69.7295 78.7721 69.9553 79.0178C70.8904 79.923 72.0255 80.4466 73.3347 80.5242C74.1666 80.5824 74.9728 80.4466 75.7338 80.1428C76.5271 79.8454 77.1913 79.3799 77.7718 78.7721C78.0233 78.5329 78.32 78.3713 78.6811 78.3325C79.0423 78.2937 79.3583 78.3713 79.6808 78.5588C80.4418 79.0825 81.2608 79.3928 82.1637 79.5221C82.512 79.5868 82.8603 79.548 83.1956 79.4575C83.5503 79.3476 83.8405 79.173 84.1179 78.9273C84.55 78.5265 84.9111 78.0804 85.2078 77.5825C85.4013 77.2787 85.6399 77.0783 85.9623 76.949C86.3042 76.8261 86.6266 76.8261 86.9491 76.9296C87.5876 77.1171 88.2067 77.1106 88.8452 76.9102C89.0838 76.8132 89.2579 76.6516 89.3869 76.4059C89.4966 76.1731 89.5223 75.9275 89.4385 75.6818C89.3353 75.3585 89.3482 75.0288 89.4643 74.6991C89.5997 74.3629 89.7932 74.1301 90.0705 73.9426" fill="white"/>
<path d="M40.5982 28.072C43.61 26.8306 46.7185 25.932 49.9174 25.3566C53.1355 24.8006 56.3795 24.5161 59.6558 24.5355C64.2799 24.5419 68.8911 24.7553 73.483 25.1497C78.2232 25.5828 82.8473 26.5332 87.3554 28.0396C90.6445 29.1452 94.5979 30.6968 97.4162 32.7269C97.9838 33.1407 98.5255 33.5803 99.0543 34.0523C99.0156 33.5092 98.9705 32.9855 98.8415 32.4618C98.3965 30.3994 97.6484 28.4534 96.6165 26.6237C95.5782 24.7941 95.088 23.4817 91.8699 19.9904C89.9931 17.9474 86.0526 15.6911 83.9631 14.7019C81.4156 13.5123 78.7843 12.6395 76.0498 12.0835C72.7349 11.4111 69.3941 11.0426 66.0212 10.9909C63.5124 10.9456 61.023 11.0555 58.5529 11.3206C54.0255 11.8313 49.8335 13.2537 45.9317 15.6329C42.1589 17.9474 38.9665 20.8762 36.3352 24.4191C35.6451 25.3566 34.9873 26.3263 34.3617 27.3026C35.1421 26.7854 35.9611 26.2746 36.7737 25.7703C38.0378 25.0139 39.3148 24.2963 40.6304 23.6239L41.3011 24.9686C40.0306 25.6216 38.7859 26.3199 37.5283 27.0569C35.8322 28.0913 34.1682 29.2163 32.543 30.3865C32.0658 31.2852 31.6079 32.1903 31.1758 33.1213C31.8723 32.5976 32.5946 32.1386 33.3169 31.7054C35.658 30.3218 38.0765 29.0935 40.5917 28.072" fill="white"/>
<path d="M31.3047 41.4162C30.6985 42.0175 30.2083 42.6899 29.8472 43.4527C30.505 43.4204 31.1757 43.4398 31.8271 43.5497C31.8722 43.4075 31.8916 43.2653 31.9561 43.0972C32.2076 42.108 32.5623 41.1835 33.0396 40.2913C32.3753 40.5434 31.7884 40.9313 31.3112 41.4227" fill="white"/>
<path d="M40.0499 41.7264C40.6239 41.8816 41.185 41.8169 41.7396 41.5906C42.2749 41.332 42.7006 40.97 42.9779 40.4139C43.1714 40.0713 43.4229 39.8127 43.7518 39.5993C44.0872 39.4054 44.4483 39.2955 44.8417 39.289C45.2287 39.289 45.5899 39.3924 45.9188 39.5799C46.022 39.6446 46.1574 39.664 46.2864 39.6446C46.4025 39.6058 46.4992 39.5476 46.5766 39.4377C46.8797 39.0175 47.286 38.733 47.7633 38.6037C48.2728 38.4809 48.7693 38.5261 49.2208 38.7524C49.6658 38.9528 50.1108 39.0433 50.588 39.0239C51.0782 38.9787 51.5167 38.817 51.9101 38.5584C52.2648 38.2934 52.6776 38.1447 53.1355 38.0994C53.5547 38.0541 53.9933 38.1188 54.3802 38.2998C54.6704 38.4097 54.9413 38.455 55.2315 38.4227C55.5282 38.3839 55.8055 38.274 56.0377 38.0735C55.9409 37.6792 55.7991 37.2913 55.6056 36.9292C51.1169 37.4464 46.6411 38.0024 42.1588 38.539C41.5139 38.6489 40.869 38.7201 40.2176 38.83C40.0628 38.9916 39.9145 39.1597 39.8113 39.3601C39.5275 39.8062 39.3792 40.2782 39.3599 40.8083C39.3599 41.0217 39.4179 41.2092 39.5404 41.3967C39.6694 41.5648 39.8307 41.6682 40.0499 41.7393" fill="white"/>
<path d="M28.3574 49.5235C28.0801 49.6463 27.8544 49.8144 27.6674 50.0472C27.4803 50.2799 27.3578 50.5256 27.2933 50.8295C27.0418 51.9932 27.0547 53.1375 27.3255 54.3013C27.3707 54.4371 27.4481 54.5664 27.5577 54.6763C27.5964 54.7151 27.6416 54.728 27.6867 54.728C27.7447 54.728 27.7899 54.7151 27.8092 54.6892C28.8153 54.0039 29.6408 53.1311 30.2793 52.0966C30.5115 51.7605 30.8146 51.5148 31.208 51.4049V50.3122C30.9436 50.2153 30.7114 50.0795 30.5115 49.9049C30.2213 49.6269 29.8795 49.4653 29.4989 49.3942C29.0991 49.3425 28.7315 49.3813 28.3574 49.5235Z" fill="white"/>
<path d="M26.3195 61.148C26.5452 61.148 26.7387 61.0769 26.9128 60.9217C27.0869 60.7989 27.203 60.6114 27.274 60.4045C27.6351 59.0404 27.8415 57.6309 27.906 56.2086C27.6803 56.2345 27.4416 56.228 27.2224 56.1569C27.0031 56.0858 26.7967 56.0082 26.629 55.8465C26.2292 55.5297 25.9776 55.1224 25.8745 54.644C25.552 53.2669 25.5391 51.8834 25.8422 50.5127C25.9325 49.9761 26.1776 49.5106 26.5065 49.1033C26.8483 48.6895 27.274 48.3663 27.7576 48.1529C28.3445 47.9137 28.9314 47.8297 29.5376 47.8943C30.1632 47.9654 30.7114 48.1723 31.208 48.5344C31.2209 48.1335 31.2403 47.7327 31.2596 47.3189C31.3176 46.5496 31.4015 45.7867 31.524 45.0173C30.6985 44.9074 29.8859 44.9139 29.0604 45.0367C27.3384 45.2888 25.8358 46 24.5395 47.1508C23.5785 48.0172 22.8884 49.071 22.4692 50.2865C21.805 52.2002 21.7856 54.1721 22.3532 56.1181C22.9594 58.0835 24.0687 59.6933 25.6874 60.9282C25.8938 61.064 26.0808 61.1416 26.313 61.1416" fill="white"/>
<path d="M85.8591 68.8287C85.6914 68.6671 85.5301 68.5249 85.3625 68.3697C84.6143 67.6779 83.7308 67.2253 82.7312 66.9861C82.0088 66.7986 81.2736 66.7922 80.532 66.8892C80.7577 66.2879 80.8544 65.6996 80.8415 65.0595C80.8028 64.413 80.6416 63.8182 80.3514 63.2428C80.1579 62.8807 79.9322 62.5122 79.7 62.1501C80.8867 62.3441 82.0411 62.2083 83.1504 61.7234C84.6079 61.0899 85.801 60.133 86.7813 58.8788L85.5817 57.9736C84.7756 59.021 83.7695 59.8097 82.557 60.3658C81.4091 60.8377 80.2611 60.87 79.0938 60.4433C77.9523 60.0231 76.9139 59.4089 75.9852 58.6137C74.5664 57.3465 73.6054 55.8078 73.1411 53.9652C72.709 52.3812 72.5994 50.7714 72.767 49.1292C72.8057 48.6508 72.9412 48.2112 73.1798 47.7844C73.4442 47.3707 73.7538 47.0151 74.1407 46.75C74.9275 46.1811 75.8304 45.8578 76.7978 45.7544C79.1002 45.5475 81.2994 45.9225 83.3761 46.931L84.0404 45.6057C81.6864 44.4613 79.2357 44.0088 76.6301 44.248C75.4048 44.4031 74.2826 44.804 73.2959 45.5216C72.7025 45.916 72.2382 46.4138 71.8899 47.028C71.5417 47.6422 71.316 48.3017 71.2644 48.987C71.0838 50.8102 71.2257 52.5816 71.6707 54.3402C72.2446 56.4866 73.3346 58.284 75.0049 59.7451C75.5854 60.2558 76.2174 60.7084 76.8817 61.0899C77.7588 61.9174 78.4746 62.8743 79.0357 63.9345C79.2292 64.3483 79.3324 64.775 79.3388 65.2276C79.3388 65.6866 79.2486 66.1263 79.0615 66.5336C78.5391 67.5357 77.8362 68.3438 76.901 68.9451C76.3077 69.3265 75.6821 69.5722 75.0114 69.6821C74.3213 69.7856 73.6377 69.7338 72.967 69.5593C72.6252 69.4688 72.3672 69.249 72.1737 68.9516C71.8577 68.4149 71.5481 67.8654 71.2515 67.3159C71.0773 67.0249 70.8323 66.7922 70.5033 66.6499C70.1938 66.5206 69.8649 66.4948 69.5231 66.5853C69.1877 66.6823 68.9168 66.8698 68.7169 67.1542C68.1623 67.9236 67.8204 68.7511 67.6657 69.6951C67.6528 69.7726 67.6205 69.8825 67.556 69.9601C67.4786 70.0312 67.4141 70.0894 67.2981 70.1412C66.3436 70.5355 65.331 70.6713 64.2798 70.5355C64.067 70.5097 63.867 70.4256 63.6865 70.2899C63.4994 70.1412 63.364 69.9666 63.2931 69.7791C63.0544 69.2425 62.9126 68.7253 62.8094 68.1628C62.7384 67.846 62.5965 67.568 62.345 67.3288C62.1128 67.1219 61.8291 66.9861 61.4808 66.9473C61.1713 66.8956 60.8746 66.9797 60.5779 67.1284C59.546 67.7296 58.5851 68.4731 57.7531 69.333C57.4178 69.6498 57.0244 69.8632 56.5729 69.9407C55.354 70.1541 54.1867 70.0377 53.0194 69.6369C52.2326 69.333 51.5876 68.8546 51.1104 68.1499C50.646 67.4581 50.4139 66.6887 50.4139 65.8483C50.459 64.8461 50.8008 63.9863 51.5038 63.2557C52.0584 62.6868 52.6518 62.1631 53.258 61.6782C54.4189 60.7731 55.296 59.6287 55.9215 58.2775C57.0695 55.7431 58.0176 53.1312 58.7786 50.4546C58.9398 49.8792 58.9656 49.2908 58.8624 48.6766C58.7463 48.0754 58.5013 47.5517 58.1272 47.0539C56.9276 45.5475 55.3863 44.6424 53.4708 44.3643C49.8979 43.8924 46.3702 44.2803 42.965 45.4699L43.4745 46.8664C46.6604 45.7479 49.9366 45.4117 53.2773 45.8513C54.78 46.0776 55.9925 46.7888 56.9341 47.9913C57.1663 48.2629 57.321 48.6055 57.3855 48.9482C57.4436 49.3232 57.4307 49.6852 57.3339 50.0408C56.5858 52.6269 55.6571 55.1871 54.5479 57.6504C54.0255 58.7559 53.3096 59.7063 52.3229 60.4821C51.6457 60.9993 51.0266 61.5683 50.4268 62.1695C49.4594 63.1975 48.9563 64.4194 48.9176 65.803C48.9047 66.2362 48.9563 66.6823 49.0466 67.109C48.1373 66.9732 47.2408 67.0185 46.3573 67.29C45.5511 67.5292 44.7579 67.8589 44.0097 68.2986C43.8614 68.3697 43.7002 68.4796 43.5518 68.5701C43.339 68.0529 43.1455 67.5421 42.9456 67.0185C42.7005 66.3849 42.2813 65.887 41.6945 65.5379C41.1076 65.1823 40.4691 65.0789 39.7919 65.1371C39.2695 65.2082 38.7794 65.3698 38.3086 65.5961C38.2957 64.9367 38.2892 64.2901 38.3279 63.6436C38.3344 63.2816 38.2699 62.9454 38.0893 62.6221C37.9152 62.3118 37.7024 62.0402 37.3864 61.8592C37.0897 61.6653 36.7608 61.5683 36.4125 61.5554C36.2061 61.5554 35.9869 61.536 35.7869 61.523C35.7676 61.258 35.7547 61.0252 35.716 60.7925C35.6515 60.2623 35.4193 59.8162 35.0324 59.4606C34.6454 59.1115 34.194 58.9305 33.6587 58.8981C33.1298 58.8852 32.601 58.8594 32.0786 58.8076C32.0657 57.7279 32.156 56.6741 32.343 55.6203C32.6268 54.0428 32.7493 52.4071 32.7042 50.7843C32.6784 49.6658 32.7042 48.5279 32.7687 47.3901C32.8396 46.0712 33.046 44.7523 33.3878 43.4592C33.6716 42.3278 34.1295 41.2481 34.7615 40.2654C34.8647 40.0973 34.9743 39.9098 35.1033 39.7611C36.1352 39.5154 37.1606 39.3085 38.2119 39.1275C37.9926 39.6383 37.8765 40.1749 37.8571 40.7244C37.8571 41.2934 38.0055 41.8041 38.3344 42.2696C38.6698 42.7028 39.1148 43.0196 39.6565 43.1618C40.5852 43.3881 41.4687 43.3364 42.3458 42.9549C43.1971 42.5606 43.8743 41.927 44.3193 41.1123C44.3774 40.983 44.4483 40.9313 44.5386 40.8602C44.6224 40.8085 44.7321 40.7762 44.8482 40.7762C44.9449 40.7762 45.0481 40.8085 45.1513 40.8537C45.6092 41.0994 46.0735 41.1964 46.583 41.0865C47.099 40.9572 47.4988 40.6792 47.8084 40.2525C47.8922 40.1555 48.0147 40.0779 48.1437 40.0197C48.2792 40.0068 48.4275 40.0003 48.55 40.0779C49.2337 40.4141 49.956 40.5499 50.7105 40.4981C51.4522 40.4206 52.1552 40.1749 52.7679 39.7482C52.9291 39.6318 53.0903 39.5995 53.2644 39.5801C53.4515 39.5607 53.6321 39.593 53.7739 39.6512C54.3479 39.8904 54.9219 39.9615 55.5023 39.871C56.0828 39.7676 56.5987 39.5478 57.0631 39.1598C57.2501 38.9788 57.3855 38.7978 57.4758 38.5521C57.5468 38.3258 57.5532 38.0866 57.521 37.8409C57.4371 37.4595 57.3275 37.0587 57.1921 36.7289C57.7467 36.6384 58.3142 36.5867 58.8818 36.522C62.0226 36.1535 65.1698 35.979 68.317 36.063C69.4779 36.0889 70.6388 36.1729 71.8061 36.2893C71.4965 36.4121 71.2386 36.619 71.0064 36.8712C70.8129 37.1298 70.6517 37.4013 70.5743 37.731C70.4646 38.1383 70.4711 38.5392 70.5872 38.9465C70.7033 39.3473 70.929 39.6965 71.245 39.9745C71.5546 40.2525 71.9093 40.4529 72.3285 40.5369C72.9799 40.6468 73.6312 40.6921 74.2955 40.6339C74.418 40.6339 74.5212 40.6727 74.6244 40.718C74.7405 40.7568 74.8244 40.8473 74.8953 40.9119C75.3661 41.5003 75.9659 41.8429 76.7075 41.9528C77.4299 42.0498 78.1006 41.8558 78.6939 41.4033C78.7842 41.3516 78.8809 41.3063 78.9906 41.2869C79.1002 41.274 79.1905 41.2998 79.3001 41.3516C79.4098 41.3903 79.4614 41.4421 79.5452 41.539C79.6355 41.6813 79.758 41.7977 79.9128 41.8623C80.0483 41.9334 80.2095 41.9593 80.3836 41.9593C81.3897 41.9011 82.3764 41.8235 83.3761 41.733C83.5051 41.733 83.6083 41.7589 83.705 41.8041C83.8146 41.8752 83.8856 41.9528 83.9501 42.0692C84.1049 42.386 84.3306 42.6187 84.6079 42.7933C84.9175 42.9549 85.2528 43.026 85.5817 42.9937C86.1299 42.942 86.633 42.8062 87.1231 42.5993C87.4714 42.4506 87.7551 42.2502 88.0002 41.9851C88.2259 41.7201 88.471 41.1253 88.5871 40.7891C88.6645 40.8343 88.7677 40.8796 88.8773 40.9313C89.4448 41.177 93.1725 43.0907 93.7465 43.401C93.8433 43.5239 94.4946 43.7049 94.572 43.8342L95.1073 44.4807C95.1589 44.5648 97.3065 52.4976 96.7132 55.478C96.6035 56.0147 94.9977 57.6245 94.9977 57.6245C93.9916 59.5123 93.4305 59.771 93.1403 60.3011C92.7533 61.0123 92.5534 61.7622 92.4953 62.5769C92.4696 63.1199 92.3986 63.6953 92.3019 64.2578C92.2696 64.4776 92.1729 64.6716 92.0504 64.8526C91.9149 65.053 91.7666 65.1888 91.5731 65.2793C91.0056 65.609 89.5545 65.9323 88.9547 66.1974C87.7229 66.818 86.6846 67.6844 85.8655 68.8093L85.8591 68.8287Z" fill="#F3CFB2"/>
<path d="M111.998 53.312C111.766 52.2582 111.327 51.2949 110.644 50.4415C109.966 49.5687 109.128 48.9222 108.135 48.4761C106.968 47.9459 105.742 47.642 104.491 47.5515C104.362 46.1809 104.214 44.8297 104.072 43.4461C103.762 40.9441 102.885 38.6619 101.376 36.6447C101.118 36.2568 100.809 35.8754 100.499 35.5133C100.621 34.3754 100.551 33.2505 100.325 32.1449C99.8411 29.9209 99.0414 27.8456 97.9321 25.8801C96.5262 23.4169 95.404 21.6002 92.8372 18.93C90.6122 16.6219 87.5037 14.7147 84.6208 13.3312C81.9702 12.1028 79.2164 11.1782 76.3593 10.6093C75.9724 10.5188 75.579 10.4541 75.1856 10.3765C75.579 10.0145 75.9659 9.62012 76.3013 9.19342C76.4174 9.07704 76.4496 8.94774 76.4948 8.77318C76.5206 8.63094 76.4948 8.48224 76.4367 8.34001C76.3787 8.19777 76.2884 8.0814 76.1658 7.97796C75.6693 7.60944 75.1146 7.38316 74.5148 7.28618C74.805 7.34437 75.1082 7.28618 75.379 7.15687C75.6435 7.01464 75.8498 6.80129 76.0046 6.53621C76.0433 6.45863 76.0498 6.36812 76.0498 6.29053C76.0498 6.19356 76.0111 6.10304 75.9659 6.03839C75.9014 5.95434 75.8434 5.90909 75.766 5.8703C75.508 5.77978 75.2565 5.66988 75.0114 5.55997C75.3339 5.43713 75.6628 5.33368 75.9982 5.21731C76.1013 5.20438 76.1787 5.13326 76.2368 5.03628C76.3142 4.95224 76.3335 4.84879 76.3142 4.73888C76.3142 4.63544 76.2626 4.54493 76.1787 4.48028C75.9788 4.28632 75.7531 4.11176 75.508 3.94366C75.3661 3.88548 75.2114 3.85315 75.0437 3.85961C74.8695 3.89194 74.7277 3.96952 74.6309 4.10529C74.5664 4.16995 74.4955 4.20874 74.4374 4.24106C74.3601 4.27339 74.2956 4.29925 74.1988 4.29925C73.6764 4.27985 73.1734 4.09883 72.7606 3.7885C73.154 3.73031 73.5281 3.58161 73.8828 3.36179C73.9989 3.27128 74.0892 3.16784 74.1666 3.03853C74.2117 2.90276 74.244 2.76053 74.2375 2.62476C74.2182 2.48252 74.1795 2.34676 74.1085 2.21745C73.9989 2.07522 73.8699 1.95238 73.6829 1.87479C73.4894 1.79721 73.3088 1.77782 73.1282 1.81014C72.8574 1.86833 72.651 1.9847 72.4704 2.16573C72.2963 2.34029 72.1802 2.55364 72.148 2.81225C72.0964 3.05146 71.9932 3.25188 71.8126 3.41998C71.9803 2.8963 71.9609 2.34029 71.7481 1.82954C71.5675 1.35758 71.503 0.859756 71.5546 0.342539C71.5611 0.271421 71.5546 0.226165 71.5224 0.161513C71.4966 0.116256 71.4643 0.0709998 71.3998 0.0451389C71.3482 0.0128129 71.2773 0.00634766 71.2257 0.00634766C70.7356 0.0709998 70.2583 0.0968607 69.7746 0.0645346C69.7101 0.0645346 69.6456 0.0839302 69.6005 0.129187C69.5424 0.167978 69.4973 0.200304 69.4715 0.264956C69.4457 0.316678 69.4457 0.387795 69.4586 0.452447C69.5489 0.898547 69.6069 1.32525 69.6521 1.77135C69.6908 2.17866 69.6069 2.54071 69.3748 2.8963C68.7363 2.67002 68.072 2.43727 67.4142 2.21099C67.0208 2.08168 66.6145 2.02996 66.1953 2.07522C66.0921 2.08815 65.9889 2.08815 65.8986 2.05582C65.7954 2.01056 65.7051 1.95884 65.6342 1.88772C65.5632 1.82954 65.4859 1.79721 65.3827 1.78428C65.2924 1.77782 65.2085 1.78428 65.1118 1.836C65.028 1.88772 64.9699 1.95884 64.9312 2.04936C64.8087 2.3015 64.6281 2.48899 64.3637 2.61183C64.2476 2.68295 64.1251 2.77992 64.067 2.90276C63.9896 3.01914 63.9574 3.16137 63.9703 3.31007C63.9961 3.44584 64.0606 3.57515 64.1509 3.67859C63.5898 3.53635 63.0609 3.56868 62.4998 3.7885C62.2483 3.90487 61.9839 4.04711 61.7259 4.16995C61.6485 4.2152 61.597 4.27985 61.5712 4.34451C61.5454 4.43502 61.5454 4.50614 61.5712 4.57725C61.597 4.64837 61.6485 4.70656 61.7259 4.75181L62.0935 4.91991L61.2487 5.17852C61.3067 5.62462 61.3777 6.04486 61.4035 6.48449C61.4164 6.56207 61.3841 6.63966 61.3519 6.70431C61.3196 6.78189 61.2487 6.82715 61.1906 6.86594C61.1133 6.8918 61.0294 6.9112 60.9585 6.89827C60.8682 6.8724 60.8101 6.83361 60.7585 6.77543C60.636 6.64612 60.4748 6.54914 60.3006 6.49742C60.0169 6.43924 59.746 6.4457 59.5009 6.50389C59.5461 7.00171 59.5977 7.49953 59.6428 8.00382C60.0943 8.00382 60.5457 7.94563 61.0036 7.84865C61.0552 7.83572 61.1262 7.84865 61.1713 7.87451C61.2422 7.91977 61.268 7.99089 61.3003 8.03614C61.3196 8.1008 61.3132 8.16545 61.268 8.2301C61.0165 8.73439 60.7263 9.21281 60.3651 9.65891C59.7073 9.7171 59.043 9.76882 58.3852 9.83347C53.6321 10.3766 49.2337 11.87 45.1449 14.3591C41.2108 16.7706 37.8765 19.8352 35.1227 23.5397C32.4721 27.1215 30.3244 31.007 28.6799 35.1577C28.6025 35.2159 28.5444 35.2676 28.5058 35.3258C27.4352 36.3021 26.4936 37.4076 25.7326 38.6231C25.3585 39.192 25.1844 39.8191 25.1715 40.4851L25.2102 44.8297C24.6233 45.1659 24.0622 45.5732 23.5334 46.0451C22.3983 47.0925 21.5728 48.3467 21.0375 49.8208C20.3023 52.0642 20.2571 54.3141 20.9279 56.564C21.6308 58.8463 22.9271 60.7018 24.8039 62.1629C24.8555 62.1823 24.8877 62.2276 24.92 62.2534C24.6104 63.3137 24.4169 64.4128 24.3782 65.5572C24.3266 66.3071 24.0493 66.973 23.5398 67.5226C22.1726 69.0031 21.8566 70.4642 21.5792 72.4879C21.36 74.1106 21.8179 76.3411 22.1661 77.4919C22.5144 78.6363 22.7466 79.4315 23.4302 80.4207C24.1074 81.4034 25.7519 82.7676 26.8031 83.33C27.1772 83.5304 27.9834 83.8343 28.1381 84.2287C28.2994 84.5907 28.3316 84.9787 28.2349 85.3924C28.0221 86.401 27.906 87.4354 27.8866 88.4957C27.8866 88.6509 27.9382 88.8319 28.0479 88.9806C28.1317 89.1617 28.2413 89.2845 28.409 89.375C28.5767 89.4655 28.7508 89.5043 28.9379 89.4978C29.5312 89.472 30.1052 89.3362 30.6082 89C30.6534 89.5625 30.8597 90.0345 31.2531 90.4159C31.6594 90.7844 32.1431 90.9654 32.6978 90.9654C33.4201 90.9654 34.136 90.8491 34.8389 90.6616C34.955 91.3986 35.2194 92.1098 35.6064 92.7563C35.9998 93.4028 36.5028 93.9524 37.1155 94.3985C38.4505 95.323 39.9081 95.7303 41.5204 95.5816C42.0299 97.6699 43.1456 99.3638 44.8482 100.663C46.5766 101.943 48.4985 102.525 50.6525 102.441C51.0782 103.592 51.7231 104.614 52.5938 105.46C53.4773 106.327 54.4899 106.973 55.6572 107.361C57.4114 107.956 59.1785 108.111 61.0101 107.82C62.8159 107.529 64.4669 106.805 65.9502 105.687C66.5564 106.288 67.2465 106.786 68.0075 107.167C68.3493 107.335 68.7169 107.419 69.1103 107.381C69.4909 107.329 69.8456 107.193 70.168 106.973C70.6646 106.553 71.058 106.075 71.3418 105.512C71.6449 104.93 71.7997 104.31 71.819 103.663C72.522 103.928 73.2637 104.019 74.0118 103.883C74.7728 103.715 75.4371 103.398 76.0175 102.887C77.3719 103.379 78.7778 103.527 80.216 103.308C80.719 103.236 81.1576 103.036 81.5252 102.7C81.8992 102.331 82.1443 101.924 82.2604 101.433C82.3894 100.806 82.4539 100.185 82.4281 99.5448C83.8082 99.4672 85.1755 99.2862 86.5363 99.047C87.0909 98.9306 87.5553 98.6849 87.9487 98.3035C88.3356 97.8897 88.5742 97.4307 88.6581 96.8746C88.7613 96.254 88.8516 95.6204 88.8967 95.0062C90.6509 94.8446 92.7147 94.0752 94.0368 92.6011C95.2686 91.2305 94.7655 89.2716 95.6233 88.4052C96.3972 87.6294 99.1059 88.2048 100.015 87.2738C100.809 86.4657 99.5831 83.9765 100.518 83.2589C103.175 81.203 104.072 79.5414 104.568 78.5716C105.652 76.4575 106.348 73.9231 106.039 71.7508C105.645 69.0484 104.942 68.1174 103.975 67.4191C103.446 67.0377 102.788 66.8049 102.221 66.5399C102.427 66.3459 102.614 66.1002 102.756 65.8546C103.582 66.0679 104.394 65.9968 105.194 65.68C106.877 64.9882 108.27 63.8956 109.373 62.4668C110.36 61.1673 111.134 59.7514 111.669 58.2256C112.237 56.6158 112.346 54.9995 112.004 53.3314L111.998 53.312ZM32.5494 30.3864C34.1747 29.2162 35.845 28.0912 37.5347 27.0568C38.7859 26.3198 40.0306 25.6215 41.3076 24.9685L40.6368 23.6238C39.3212 24.2962 38.0378 25.0138 36.7802 25.7702C35.9676 26.2745 35.1485 26.7788 34.3681 27.3025C34.9937 26.3262 35.658 25.3565 36.3416 24.419C38.9729 20.8761 42.1718 17.9473 45.9381 15.6328C49.8399 13.2536 54.032 11.8377 58.5593 11.3205C61.0359 11.0554 63.5253 10.9455 66.0276 10.9907C69.4006 11.0425 72.7413 11.411 76.0562 12.0834C78.7971 12.6394 81.422 13.5186 83.9695 14.7018C86.059 15.6974 89.9931 17.9473 91.8763 19.9903C95.0945 23.4815 95.5781 24.8004 96.6229 26.6236C97.6548 28.4533 98.4029 30.3993 98.8479 32.4617C98.9705 32.9789 99.0156 33.5091 99.0608 34.0457C98.5319 33.5737 97.9902 33.1341 97.4226 32.7268C94.5979 30.6967 90.6509 29.1451 87.3618 28.0395C82.8537 26.5331 78.2232 25.5827 73.4894 25.1496C68.8911 24.7552 64.2863 24.5418 59.6622 24.5354C56.3859 24.516 53.142 24.8004 49.9238 25.3565C46.7249 25.9319 43.6099 26.8305 40.6046 28.0718C38.0958 29.0933 35.6773 30.3153 33.3298 31.7053C32.6075 32.132 31.8852 32.5975 31.1887 33.1212C31.6208 32.1902 32.0722 31.2851 32.5559 30.3864H32.5494ZM26.9837 39.4248C27.7189 38.3127 28.5573 37.3042 29.5247 36.399C30.9307 35.0995 32.4527 33.9681 34.0973 32.9854C36.3803 31.6406 38.7214 30.4575 41.1657 29.4683C44.0678 28.2593 47.0861 27.3995 50.1817 26.8564C53.3161 26.3004 56.4504 26.0224 59.6364 26.0288C64.2218 26.0676 68.7943 26.2487 73.3475 26.656C77.9652 27.0697 82.4861 28.0072 86.891 29.4619C90.0253 30.5222 93.8239 32.0092 96.5455 33.9487C97.9386 34.9638 99.151 36.1469 100.189 37.5304C101.524 39.3407 102.234 41.3837 102.563 43.6207C102.73 44.778 102.892 47.0278 102.892 47.0278L101.795 47.7002C101.731 47.0084 101.647 46.3167 101.557 45.6249C101.363 44.3771 101.047 43.1423 100.576 41.972C99.8347 40.1295 98.6351 38.6683 96.9454 37.6339C95.03 36.496 92.992 35.6232 90.8379 35.0349L90.451 36.4831C92.4696 37.0391 94.3786 37.8666 96.1715 38.9399C97.571 39.7933 98.5835 41.0023 99.1833 42.5281C99.4864 43.3427 99.9249 44.4482 99.9056 45.2564C96.236 42.4763 92.1213 40.6661 91.9085 40.5691L90.2897 39.8191C85.5108 37.6274 79.6742 36.0822 74.5084 35.1771C72.4704 34.8151 70.3937 34.6146 68.3364 34.5694C65.1118 34.5177 61.9001 34.6599 58.7012 35.0413C53.1291 35.6879 47.544 36.3602 41.9718 37.052C39.0503 37.4335 36.161 37.9572 33.304 38.6425C32.1173 38.9334 31.0855 39.4959 30.2342 40.3493C29.2797 41.2932 28.5767 42.4246 28.1317 43.6789C27.6544 43.7952 27.1708 43.9245 26.7129 44.112L26.6806 40.4657C26.6806 40.1036 26.7709 39.748 26.9773 39.4312L26.9837 39.4248ZM101.853 52.0449C101.963 52.0125 102.066 51.9737 102.169 51.9349C102.834 51.7087 103.537 51.6569 104.252 51.7733C104.562 51.8444 104.846 51.9802 105.091 52.1742C105.336 52.3746 105.516 52.6332 105.633 52.937C105.929 53.7905 106.02 54.6633 105.871 55.549C105.813 55.8723 105.697 56.1567 105.529 56.4024C105.336 56.6804 105.117 56.8873 104.839 57.0425C104.368 57.3075 103.865 57.4045 103.304 57.2687C103.298 57.2687 103.291 57.2623 103.253 57.2494C103.253 57.2364 103.253 57.2235 103.253 57.1912C103.201 56.7968 103.046 56.4218 102.808 56.1115C102.543 55.7882 102.208 55.5684 101.834 55.4456C101.718 55.4068 101.621 55.3809 101.499 55.355C101.679 54.2495 101.795 53.1375 101.86 52.0384L101.853 52.0449ZM100.17 54.8378C99.8476 55.6395 99.2091 56.6869 98.1772 57.786C98.4352 53.3056 98.0869 48.8963 96.8229 45.1594C96.6616 44.6939 97.5194 45.0495 97.8934 45.3728C98.7512 45.9094 99.5315 46.2649 100.125 46.9632C100.37 48.1334 100.447 49.5945 100.551 51.0427C100.654 52.491 100.621 53.6999 100.17 54.8378ZM89.4191 75.7205C89.5029 75.9726 89.4771 76.2183 89.3675 76.4446C89.2385 76.6902 89.0644 76.8519 88.8258 76.9489C88.1873 77.1493 87.5681 77.1557 86.9297 76.9683C86.6137 76.8648 86.2847 76.8713 85.9429 76.9876C85.6205 77.1105 85.3819 77.3174 85.1884 77.6212C84.8853 78.1255 84.5305 78.5652 84.0984 78.966C83.8276 79.2181 83.5309 79.3862 83.1826 79.4961C82.8473 79.5867 82.499 79.619 82.1508 79.5543C81.2479 79.425 80.4288 79.1147 79.6678 78.591C79.3518 78.4035 79.0358 78.3195 78.6682 78.3647C78.3006 78.4035 78.0103 78.5652 77.7588 78.7979C77.1784 79.4056 76.5141 79.8711 75.7208 80.1685C74.9598 80.4789 74.1537 80.6082 73.3217 80.55C72.019 80.4659 70.8774 79.9487 69.9423 79.0436C69.723 78.7979 69.4393 78.6557 69.1168 78.591C68.8008 78.5522 68.5106 78.591 68.2075 78.7397C67.9172 78.882 67.6915 79.1018 67.5432 79.3862C67.3239 79.8194 67.0014 80.1427 66.5887 80.3884C66.4081 80.4853 66.2469 80.537 66.0469 80.5435C65.8406 80.5435 65.6729 80.4789 65.5117 80.3819C65.0151 80.0716 64.5636 79.6901 64.1896 79.2311C63.9832 78.9725 63.7252 78.8108 63.4027 78.7268C63.0867 78.6427 62.7578 78.6686 62.4676 78.7914C62.158 78.9272 61.9323 79.1147 61.7517 79.3927C61.5905 79.6449 61.4228 79.8582 61.2035 80.0328C61.1068 80.1362 60.9714 80.1944 60.8424 80.2461C60.707 80.2849 60.5715 80.2849 60.4296 80.2655C60.3651 80.2655 60.3071 80.2267 60.2555 80.1944C60.2039 80.175 60.1459 80.1168 60.1007 80.0586C59.7718 79.5673 59.4945 79.0565 59.2623 78.5199C59.1269 78.2096 58.927 77.9574 58.6174 77.7893C58.3336 77.6277 58.0241 77.5695 57.6822 77.6148C57.3469 77.6471 57.0696 77.7893 56.8309 78.0221C56.4698 78.3647 56.128 78.7009 55.7733 79.0048C55.6507 79.1341 55.5024 79.1858 55.3347 79.2117C55.1799 79.244 55.0316 79.2311 54.8704 79.1729C54.7156 79.0759 54.5866 78.9983 54.4963 78.8561C54.2383 78.4811 53.9417 78.1837 53.5612 77.951C53.1742 77.7053 52.7615 77.576 52.3229 77.5113C51.9424 77.4725 51.5748 77.5566 51.2523 77.7958C50.3172 78.4553 49.3111 78.8949 48.1825 79.1082C48.0857 79.1276 47.9761 79.1082 47.8729 79.0888C47.7826 79.063 47.6988 79.0242 47.6149 78.9531C47.3957 78.7656 47.2344 78.5328 47.1377 78.2548C47.0152 77.9639 46.8281 77.7118 46.5508 77.5243C46.267 77.3497 45.9768 77.2721 45.6608 77.2786C45.3383 77.298 45.0352 77.4014 44.7837 77.6148C44.0678 78.2031 43.3068 78.6945 42.4878 79.0953C42.017 79.3022 41.5397 79.3604 41.0431 79.2763C40.9722 79.2634 40.9141 79.2246 40.8561 79.1729C40.295 78.5716 39.9339 77.8863 39.6694 77.104C39.592 76.826 39.4308 76.5803 39.218 76.3993C38.9923 76.1924 38.7407 76.0955 38.457 76.0373C37.5863 75.9274 36.7802 75.6752 35.9805 75.3132C34.4713 74.5826 33.1492 73.6063 32.0464 72.3456C31.5627 71.7896 31.2983 71.156 31.208 70.4255C31.1693 69.9147 31.2338 69.404 31.4531 68.9255C31.5111 68.8156 31.5756 68.7057 31.7046 68.6281C31.8142 68.557 31.9432 68.5376 32.0722 68.557C32.3044 68.557 32.4979 68.654 32.6655 68.8092C33.5813 69.6884 34.5229 70.5483 35.4903 71.3564C35.9482 71.725 36.4448 72.003 37.0123 72.1646C37.567 72.3068 38.141 72.3521 38.7149 72.268C39.1793 72.2228 39.6243 72.1193 40.0951 71.99C40.6497 71.8349 41.1721 71.628 41.6816 71.3564C42.7393 70.8004 43.7905 70.2121 44.8224 69.5979C45.448 69.2229 46.1058 68.9449 46.7959 68.751C47.5827 68.5247 48.3502 68.4924 49.137 68.6475C49.3369 68.6992 49.5433 68.7251 49.7625 68.7768C50.4333 69.8501 51.3555 70.6065 52.5486 71.0461C53.9546 71.5439 55.3863 71.6797 56.8567 71.434C57.6307 71.2983 58.2949 70.9427 58.8496 70.3867C59.5912 69.6108 60.4296 68.9643 61.3583 68.4277C61.4744 69.0872 61.6872 69.7466 61.9452 70.3608C62.1258 70.8069 62.416 71.1819 62.803 71.4664C63.2028 71.7767 63.622 71.9383 64.0993 72.0159C65.4407 72.2034 66.7112 72.0288 67.943 71.5181C68.259 71.3823 68.5428 71.1625 68.7621 70.878C68.9814 70.6 69.1361 70.2703 69.1877 69.9212C69.3038 69.2359 69.5553 68.6087 69.9552 68.0333C70.2777 68.6023 70.5872 69.1518 70.9161 69.7207C71.316 70.3673 71.8835 70.8004 72.6059 71.0138C73.4701 71.2595 74.3665 71.2983 75.2629 71.1625C76.1723 71.0203 76.9978 70.7099 77.7588 70.2315C78.3328 69.8436 78.8487 69.3975 79.3131 68.8867C79.513 68.7768 79.7129 68.7122 79.9387 68.6217C80.7448 68.3307 81.5703 68.2661 82.4216 68.4536C83.1633 68.6411 83.8276 68.9772 84.3822 69.5074C85.0723 70.1216 85.7495 70.7552 86.4073 71.4146C86.8007 71.7896 87.2521 72.003 87.7874 72.0676C88.3292 72.1323 88.8258 72.0482 89.2772 71.7831C89.7544 71.5116 90.0834 71.1237 90.2962 70.6129C90.3284 70.5548 90.38 70.4901 90.4316 70.4384C90.4832 70.3802 90.5542 70.3349 90.6187 70.3156C91.5151 69.9664 92.4374 69.7854 93.3983 69.7337C93.495 69.7337 93.566 69.7531 93.6434 69.7919C93.7207 69.8048 93.8046 69.863 93.8497 69.9212C93.9594 70.0182 93.9981 70.1475 94.0239 70.2703C94.0239 70.4125 93.9787 70.5354 93.8884 70.6517C92.8114 71.9836 91.5409 73.1021 90.0769 74.0136C89.7996 74.2011 89.6061 74.4339 89.4707 74.7701C89.361 75.0998 89.3482 75.4295 89.4449 75.7528L89.4191 75.7205ZM31.9497 43.097C31.8916 43.2651 31.8658 43.4073 31.8207 43.5496C31.1693 43.4461 30.4986 43.4203 29.8408 43.4526C30.2019 42.6897 30.6921 42.0173 31.2983 41.416C31.7755 40.9311 32.356 40.5368 33.0267 40.2846C32.5494 41.1833 32.1947 42.1078 31.9432 43.0905L31.9497 43.097ZM39.3534 40.8018C39.3728 40.2717 39.5211 39.7997 39.8049 39.3536C39.9081 39.1532 40.0564 38.9916 40.2112 38.8235C40.8626 38.7201 41.5075 38.6425 42.1524 38.539C46.6346 37.9959 51.1169 37.4464 55.5991 36.9292C55.7926 37.2912 55.9345 37.6791 56.0312 38.0735C55.7991 38.2739 55.5282 38.3774 55.2251 38.4226C54.9349 38.455 54.664 38.4097 54.3738 38.2998C53.9868 38.1253 53.5483 38.0606 53.1291 38.0994C52.6776 38.1446 52.2584 38.2933 51.9037 38.5584C51.5103 38.8106 51.0782 38.9787 50.5816 39.0239C50.1044 39.0433 49.6529 38.9528 49.2144 38.7524C48.7629 38.5261 48.2663 38.4873 47.7568 38.6037C47.2731 38.733 46.8733 39.0174 46.5702 39.4377C46.4928 39.5541 46.3896 39.6058 46.2799 39.6446C46.151 39.664 46.022 39.6446 45.9123 39.5799C45.5834 39.3924 45.2223 39.289 44.8353 39.289C44.4419 39.289 44.0807 39.4054 43.7454 39.5993C43.4229 39.8127 43.1714 40.0713 42.9715 40.4139C42.6941 40.9699 42.2685 41.332 41.7332 41.5906C41.185 41.8169 40.6175 41.8815 40.0435 41.7264C39.8242 41.6617 39.6565 41.5518 39.534 41.3837C39.4115 41.1962 39.3534 41.0087 39.3534 40.7954V40.8018ZM22.3661 56.1244C21.7921 54.1784 21.8179 52.2065 22.4821 50.2928C22.9078 49.0773 23.5979 48.03 24.5524 47.1572C25.8422 46.0063 27.3513 45.2952 29.0733 45.043C29.8988 44.9202 30.7114 44.9137 31.5369 45.0236C31.4144 45.793 31.3305 46.5559 31.2725 47.3252C31.2531 47.7455 31.2338 48.1463 31.2209 48.5407C30.7243 48.1787 30.1697 47.9718 29.5505 47.8942C28.9443 47.8295 28.351 47.9071 27.7705 48.1528C27.2868 48.3597 26.8612 48.6894 26.5194 49.1032C26.1905 49.5105 25.9454 49.976 25.8551 50.5126C25.552 51.8897 25.5649 53.2732 25.8874 54.6439C25.9905 55.1288 26.2421 55.5296 26.6419 55.8464C26.8096 56.008 27.016 56.0856 27.2352 56.1567C27.4545 56.2278 27.6931 56.2343 27.9189 56.2085C27.8544 57.6308 27.648 59.0337 27.2868 60.4044C27.2224 60.6113 27.1063 60.7923 26.9257 60.9151C26.7516 61.0703 26.5581 61.1414 26.3324 61.1414C26.1002 61.1414 25.9131 61.0574 25.7068 60.9281C24.0945 59.6932 22.9787 58.0834 22.3725 56.1179L22.3661 56.1244ZM31.2144 51.4113C30.8146 51.5212 30.5115 51.7668 30.2793 52.103C29.6473 53.1375 28.8218 54.0038 27.8092 54.6956C27.7899 54.7215 27.7447 54.7344 27.6867 54.7344C27.6416 54.7344 27.5964 54.7215 27.5577 54.6827C27.4416 54.5728 27.3642 54.437 27.3191 54.3077C27.0482 53.1439 27.0418 51.9931 27.2933 50.8359C27.3578 50.5255 27.4803 50.2799 27.6673 50.0536C27.8479 49.8208 28.0801 49.6527 28.3574 49.5299C28.7315 49.3876 29.0991 49.3489 29.4989 49.4006C29.8859 49.4717 30.2213 49.6333 30.5115 49.9113C30.7114 50.0859 30.9436 50.2152 31.2015 50.3186V51.4113H31.2144ZM110.257 57.6954C109.76 59.0919 109.064 60.3462 108.18 61.5229C107.238 62.7706 106.039 63.6822 104.614 64.277C104.111 64.4775 103.575 64.5163 103.059 64.3675C103.034 63.8503 102.84 63.3848 102.518 62.9646C102.408 62.8094 102.292 62.6349 102.176 62.4797C101.892 62.0853 101.544 61.7362 101.137 61.4711C100.596 61.0897 100.06 60.6888 99.5444 60.2686C99.48 59.8742 99.4348 59.4669 99.4155 59.0725C99.409 58.5683 99.4864 58.0963 99.6992 57.6437C99.8411 57.3399 100.06 57.0942 100.383 56.9519C100.705 56.8032 101.021 56.7839 101.357 56.8873C101.466 56.9261 101.55 56.9907 101.621 57.0683C101.692 57.1459 101.718 57.2623 101.737 57.3463C101.769 57.7019 101.892 57.9993 102.137 58.2579C102.363 58.5165 102.634 58.6782 102.982 58.7557C103.885 58.9497 104.762 58.8269 105.594 58.3614C106.045 58.0898 106.432 57.7342 106.748 57.2881C107.064 56.842 107.251 56.3507 107.322 55.8076C107.516 54.6633 107.419 53.5383 107.019 52.4328C106.806 51.8768 106.49 51.4113 106.032 51.0233C105.594 50.6613 105.059 50.4156 104.478 50.2992C103.601 50.1699 102.743 50.1958 101.892 50.4609C101.892 50.0406 101.886 49.6398 101.879 49.2325C103.801 48.864 105.691 49.0579 107.503 49.8531C108.264 50.2152 108.928 50.7259 109.47 51.3983C109.992 52.0642 110.347 52.8142 110.534 53.6418C110.792 55.0124 110.708 56.3701 110.244 57.7019L110.257 57.6954Z" fill="#1E22B0"/>
<path d="M99.6411 67.0637C99.5122 66.8697 99.4477 66.6822 99.4864 66.443C99.5186 66.2297 99.6282 66.0486 99.7895 65.8999C99.9443 65.7577 100.151 65.6995 100.376 65.6995C100.673 65.7125 100.944 65.6155 101.176 65.4345C101.389 65.2211 101.524 64.9819 101.557 64.6716C101.602 64.3742 101.511 64.122 101.344 63.8763C101.202 63.7018 101.073 63.5337 100.95 63.3591C100.776 63.1005 100.55 62.8872 100.28 62.7061C98.6351 61.5553 98.2094 59.5899 97.0163 57.4693C97.0034 57.4434 96.9711 57.4564 96.9518 57.4822C95.8296 58.6072 94.8106 60.2946 94.4237 61.0122C94.1657 61.5359 94.0045 62.079 93.9851 62.6738C93.9335 63.3074 93.8819 63.9216 93.753 64.5487C93.682 64.9883 93.5143 65.3957 93.2499 65.7319C92.9919 66.1198 92.6695 66.4107 92.2696 66.6176C91.6763 66.9538 91.083 67.2706 90.4509 67.568C89.3868 68.1046 87.6326 68.8739 86.949 69.8567C87.0973 69.9989 87.265 70.1605 87.4133 70.3222C87.5552 70.4579 87.7229 70.5484 87.9357 70.5743C88.1357 70.5872 88.3098 70.5614 88.4839 70.4515C88.6709 70.3416 88.8064 70.2122 88.858 70.0377C88.9741 69.7661 89.1288 69.5399 89.3288 69.3459C89.5287 69.1455 89.748 68.9903 90.0253 68.8998C91.0765 68.499 92.16 68.2598 93.3015 68.2145C93.5982 68.2145 93.8819 68.2404 94.1593 68.3632C94.4301 68.4796 94.6752 68.6477 94.8816 68.861C95.2363 69.236 95.4362 69.6627 95.462 70.1929C95.4685 70.7036 95.3072 71.1885 95.0235 71.5893C93.8175 73.0375 92.4244 74.2659 90.8314 75.2745C91.0378 75.9081 90.9733 76.5288 90.6831 77.1494C90.3735 77.7442 89.8963 78.158 89.2707 78.3713C88.342 78.6881 87.4004 78.6946 86.4717 78.3972C86.0912 79.0308 85.6333 79.6062 85.0787 80.0911C84.653 80.4919 84.1564 80.7699 83.5889 80.9316C83.0407 81.1061 82.4796 81.1514 81.9057 81.0673C80.7706 80.9057 79.7516 80.4855 78.81 79.8777C78.4295 80.2592 77.1267 82.3668 72.9025 81.9595C71.5546 81.688 69.8326 81.0867 68.8523 80.0976C68.5041 80.7829 67.9881 81.3195 67.311 81.7009C66.924 81.9401 67.053 82.0565 66.5886 82.0565C66.1178 82.0565 65.1053 81.9207 64.7119 81.6815C64.0347 81.2807 63.4865 80.7829 62.9964 80.1881C62.79 80.5824 62.4998 80.8928 62.1644 81.1837C61.8871 81.4294 61.5776 81.6104 61.2293 81.688C60.8746 81.8044 60.5199 81.8173 60.1716 81.7591C59.9008 81.7203 59.6492 81.6233 59.43 81.4746C59.1913 81.3389 59.0043 81.1708 58.8431 80.9251C58.4497 80.3691 58.1143 79.7614 57.8499 79.1084C57.4887 79.464 57.1147 79.8196 56.7342 80.1557C56.4052 80.4596 55.986 80.6406 55.5539 80.7182C55.0896 80.8023 54.6575 80.7311 54.2447 80.5631C53.8255 80.3756 53.4966 80.104 53.2322 79.7226C53.0968 79.5286 52.9355 79.3864 52.7421 79.2506C52.5357 79.1148 52.3229 79.0502 52.0971 79.0373C51.0008 79.826 49.7625 80.3432 48.4211 80.5954C48.105 80.6665 47.7761 80.6471 47.4408 80.5695C47.1247 80.4855 46.8345 80.3303 46.5895 80.104C46.1896 79.7484 45.8865 79.3088 45.6866 78.811C44.8933 79.4575 44.0162 80.007 43.0811 80.4531C42.32 80.8152 41.5332 80.9122 40.7206 80.7764C40.3143 80.6794 39.9725 80.4984 39.721 80.2204C39.0245 79.4381 38.4956 78.5524 38.1925 77.5503C37.1735 77.421 36.219 77.1236 35.2903 76.6904C33.5942 75.8887 32.1173 74.7638 30.8726 73.3543C30.189 72.5527 29.7891 71.6411 29.673 70.5937C29.6085 69.8114 29.7182 69.0614 30.0342 68.3373C30.2083 67.9236 30.4921 67.6068 30.8661 67.374C31.2531 67.1413 31.6658 67.0443 32.1302 67.0701C32.7235 67.1089 33.2395 67.3223 33.6845 67.749C34.5487 68.6089 35.4645 69.4235 36.4061 70.2058C36.6963 70.4385 37.0187 70.6196 37.3864 70.7165C37.7346 70.807 38.1087 70.8458 38.4698 70.7941C38.8697 70.7424 39.2566 70.6583 39.6436 70.5549C40.095 70.4062 40.5142 70.2446 40.9399 70.0183C41.3655 69.792 41.7912 69.5593 42.2233 69.3265C41.9847 68.7446 41.7461 68.1498 41.5268 67.5744C41.4042 67.2706 41.2043 67.0249 40.9077 66.8374C40.6174 66.6628 40.3014 66.5982 39.979 66.637C39.5211 66.7016 39.1019 66.8503 38.7149 67.0831C38.4311 67.2382 38.128 67.3352 37.8056 67.3675C37.496 67.3934 37.1929 67.3546 36.8962 67.2447C36.7866 66.0293 36.7543 64.7944 36.8124 63.5854C36.8124 63.5014 36.7995 63.4173 36.7608 63.3462C36.7156 63.2751 36.6511 63.1975 36.5931 63.1587C36.5157 63.107 36.4383 63.094 36.3416 63.094C35.6773 63.0488 35.0066 63.01 34.3358 62.9195C34.3358 62.2665 34.2907 61.6264 34.2198 60.9993C34.2198 60.8312 34.123 60.6955 34.0069 60.5985C33.9102 60.5015 33.7619 60.4562 33.62 60.4304C32.6074 60.411 31.6078 60.3075 30.6082 60.133C30.505 58.5361 30.5824 56.9521 30.8532 55.4004C30.9693 54.7927 31.0403 54.1656 31.1048 53.5449C30.6017 54.2367 30.0342 54.8315 29.4151 55.3681C29.4151 57.2236 29.1893 59.0274 28.7185 60.8118C28.5638 61.342 28.2735 61.7881 27.8414 62.1243C27.4158 62.4605 26.9127 62.6479 26.3581 62.6479C26.055 63.6177 25.8809 64.5875 25.8486 65.5961C25.7906 66.7146 25.3843 67.6973 24.6103 68.5184C23.4688 69.792 23.2883 70.9622 23.0496 72.6626C22.8497 74.1366 23.2302 76.0439 23.5527 77.1171C23.6494 77.4274 24.0493 78.7399 24.649 79.548C25.0425 80.0717 25.0425 80.2269 26.5387 81.5005C27.1514 82.0242 29.0861 82.6513 29.4924 83.6211C29.7827 84.3064 29.8278 84.9853 29.6795 85.7029C29.5182 86.4141 29.4151 87.1705 29.3893 87.9075C29.5376 87.8623 29.6924 87.7976 29.8149 87.7136C30.118 87.5326 30.4534 87.455 30.8145 87.5132C31.1628 87.5713 31.4466 87.72 31.6916 87.9981C31.9367 88.2502 32.0722 88.5605 32.0851 88.9226C32.1044 89.0583 32.1495 89.1941 32.2592 89.2976C32.3817 89.3751 32.5043 89.4463 32.6461 89.4463C33.2588 89.4463 33.8393 89.3428 34.4197 89.1941C34.697 89.123 34.9743 89.123 35.2452 89.2006C35.529 89.2846 35.7611 89.4463 35.9482 89.6661C36.1223 89.873 36.2448 90.1186 36.2964 90.4096C36.3738 90.972 36.5608 91.4763 36.8511 91.9548C37.1671 92.4332 37.5218 92.834 37.9861 93.1638C38.9922 93.8879 40.1015 94.1723 41.3398 94.0753C41.7009 94.0236 42.0621 94.1077 42.3587 94.3275C42.6683 94.5408 42.8618 94.8447 42.9456 95.1938C43.3777 96.9394 44.3 98.3489 45.7124 99.4285C47.157 100.482 48.7564 100.987 50.5429 100.909C50.8718 100.877 51.1749 100.974 51.4522 101.148C51.7231 101.342 51.9166 101.588 52.0326 101.892C52.368 102.836 52.8968 103.67 53.6192 104.368C54.3028 105.079 55.1605 105.583 56.1021 105.9C57.5984 106.43 59.1462 106.56 60.7134 106.308C62.287 106.042 63.7123 105.422 64.9828 104.471C65.2794 104.245 65.5955 104.135 65.976 104.161C66.3436 104.193 66.6596 104.323 66.9434 104.588C67.4399 105.079 67.9946 105.474 68.6395 105.797C68.7298 105.836 68.8136 105.855 68.9233 105.855C69.0136 105.836 69.1103 105.797 69.2006 105.739C69.5231 105.499 69.781 105.163 69.9681 104.801C70.1615 104.433 70.2583 104.038 70.2583 103.612C70.2647 103.288 70.3937 102.991 70.5743 102.732C70.7742 102.454 71.0386 102.28 71.3611 102.183C71.6771 102.118 71.9867 102.118 72.3091 102.247C72.7606 102.409 73.2249 102.441 73.6957 102.364C74.1794 102.273 74.6051 102.066 74.9662 101.737C75.1791 101.543 75.4112 101.433 75.6821 101.381C75.953 101.342 76.2238 101.349 76.4818 101.452C77.6104 101.827 78.7649 101.976 79.958 101.795C80.1644 101.756 80.332 101.685 80.4675 101.562C80.6029 101.426 80.7125 101.252 80.7448 101.058C80.8609 100.566 80.906 100.088 80.8738 99.5643C80.8738 99.157 80.9899 98.8208 81.2607 98.5105C81.5445 98.2131 81.8799 98.045 82.2797 98.0256C83.6147 97.9351 84.9304 97.7541 86.2331 97.5213C86.4588 97.489 86.6717 97.3855 86.8265 97.211C87.0006 97.0429 87.1038 96.836 87.136 96.6032C87.2779 95.7563 87.2843 95.6011 87.4133 94.0883C87.5488 92.569 89.6706 93.4159 91.9214 91.9483C93.94 90.2544 93.3789 88.8256 93.5982 87.8623C93.9787 86.2136 97.1195 87.0089 98.5512 86.0456C99.338 85.5154 97.9579 83.2203 98.8285 82.5155C99.6411 81.8561 101.073 80.8411 101.479 80.3238C103.15 78.1903 102.937 78.63 103.717 76.9167C104.652 74.8672 104.73 73.6517 104.523 71.8285C104.375 70.7295 104.42 69.9407 103.182 68.7446C102.285 67.8848 101.124 67.6003 100.131 67.3869C99.9185 67.3417 99.7443 67.2253 99.6153 67.0637H99.6411Z" fill="white"/>
<path d="M85.8591 68.8287C85.6914 68.6671 85.5301 68.5249 85.3625 68.3697C84.6143 67.6779 83.7308 67.2253 82.7312 66.9861C82.0088 66.7986 81.2736 66.7922 80.532 66.8892C80.7577 66.2879 80.8544 65.6996 80.8415 65.0595C80.8028 64.413 80.6416 63.8182 80.3514 63.2428C80.1579 62.8807 79.9322 62.5122 79.7 62.1501C80.8867 62.3441 82.0411 62.2083 83.1504 61.7234C84.6079 61.0899 85.801 60.133 86.7813 58.8788L85.5817 57.9736C84.7756 59.021 83.7695 59.8097 82.557 60.3658C81.4091 60.8377 80.2611 60.87 79.0938 60.4433C77.9523 60.0231 76.9139 59.4089 75.9852 58.6137C74.5664 57.3465 73.6054 55.8078 73.1411 53.9652C72.709 52.3812 72.5994 50.7714 72.767 49.1292C72.8057 48.6508 72.9412 48.2112 73.1798 47.7844C73.4442 47.3707 73.7538 47.0151 74.1407 46.75C74.9275 46.1811 75.8304 45.8578 76.7978 45.7544C79.1002 45.5475 81.2994 45.9225 83.3761 46.931L84.0404 45.6057C81.6864 44.4613 79.2357 44.0088 76.6301 44.248C75.4048 44.4031 74.2826 44.804 73.2959 45.5216C72.7025 45.916 72.2382 46.4138 71.8899 47.028C71.5417 47.6422 71.316 48.3017 71.2644 48.987C71.0838 50.8102 71.2257 52.5816 71.6707 54.3402C72.2446 56.4866 73.3346 58.284 75.0049 59.7451C75.5854 60.2558 76.2174 60.7084 76.8817 61.0899C77.7588 61.9174 78.4746 62.8743 79.0357 63.9345C79.2292 64.3483 79.3324 64.775 79.3388 65.2276C79.3388 65.6866 79.2486 66.1263 79.0615 66.5336C78.5391 67.5357 77.8362 68.3438 76.901 68.9451C76.3077 69.3265 75.6821 69.5722 75.0114 69.6821C74.3213 69.7856 73.6377 69.7338 72.967 69.5593C72.6252 69.4688 72.3672 69.249 72.1737 68.9516C71.8577 68.4149 71.5481 67.8654 71.2515 67.3159C71.0773 67.0249 70.8323 66.7922 70.5033 66.6499C70.1938 66.5206 69.8649 66.4948 69.5231 66.5853C69.1877 66.6823 68.9168 66.8698 68.7169 67.1542C68.1623 67.9236 67.8204 68.7511 67.6657 69.6951C67.6528 69.7726 67.6205 69.8825 67.556 69.9601C67.4786 70.0312 67.4141 70.0894 67.2981 70.1412C66.3436 70.5355 65.331 70.6713 64.2798 70.5355C64.067 70.5097 63.867 70.4256 63.6865 70.2899C63.4994 70.1412 63.364 69.9666 63.2931 69.7791C63.0544 69.2425 62.9126 68.7253 62.8094 68.1628C62.7384 67.846 62.5965 67.568 62.345 67.3288C62.1128 67.1219 61.8291 66.9861 61.4808 66.9473C61.1713 66.8956 60.8746 66.9797 60.5779 67.1284C59.546 67.7296 58.5851 68.4731 57.7531 69.333C57.4178 69.6498 57.0244 69.8632 56.5729 69.9407C55.354 70.1541 54.1867 70.0377 53.0194 69.6369C52.2326 69.333 51.5876 68.8546 51.1104 68.1499C50.646 67.4581 50.4139 66.6887 50.4139 65.8483C50.459 64.8461 50.8008 63.9863 51.5038 63.2557C52.0584 62.6868 52.6518 62.1631 53.258 61.6782C54.4189 60.7731 55.296 59.6287 55.9215 58.2775C57.0695 55.7431 58.0176 53.1312 58.7786 50.4546C58.9398 49.8792 58.9656 49.2908 58.8624 48.6766C58.7463 48.0754 58.5013 47.5517 58.1272 47.0539C56.9276 45.5475 55.3863 44.6424 53.4708 44.3643C49.8979 43.8924 46.3702 44.2803 42.965 45.4699L43.4745 46.8664C46.6604 45.7479 49.9366 45.4117 53.2773 45.8513C54.78 46.0776 55.9925 46.7888 56.9341 47.9913C57.1663 48.2629 57.321 48.6055 57.3855 48.9482C57.4436 49.3232 57.4307 49.6852 57.3339 50.0408C56.5858 52.6269 55.6571 55.1871 54.5479 57.6504C54.0255 58.7559 53.3096 59.7063 52.3229 60.4821C51.6457 60.9993 51.0266 61.5683 50.4268 62.1695C49.4594 63.1975 48.9563 64.4194 48.9176 65.803C48.9047 66.2362 48.9563 66.6823 49.0466 67.109C48.1373 66.9732 47.2408 67.0185 46.3573 67.29C45.5511 67.5292 44.7579 67.8589 44.0097 68.2986C43.8614 68.3697 43.7002 68.4796 43.5518 68.5701C43.339 68.0529 43.1455 67.5421 42.9456 67.0185C42.7005 66.3849 42.2813 65.887 41.6945 65.5379C41.1076 65.1823 40.4691 65.0789 39.7919 65.1371C39.2695 65.2082 38.7794 65.3698 38.3086 65.5961C38.2957 64.9367 38.2892 64.2901 38.3279 63.6436C38.3344 63.2816 38.2699 62.9454 38.0893 62.6221C37.9152 62.3118 37.7024 62.0402 37.3864 61.8592C37.0897 61.6653 36.7608 61.5683 36.4125 61.5554C36.2061 61.5554 35.9869 61.536 35.7869 61.523C35.7676 61.258 35.7547 61.0252 35.716 60.7925C35.6515 60.2623 35.4193 59.8162 35.0324 59.4606C34.6454 59.1115 34.194 58.9305 33.6587 58.8981C33.1298 58.8852 32.601 58.8594 32.0786 58.8076C32.0657 57.7279 32.156 56.6741 32.343 55.6203C32.6268 54.0428 32.7493 52.4071 32.7042 50.7843C32.6784 49.6658 32.7042 48.5279 32.7687 47.3901C32.8396 46.0712 33.046 44.7523 33.3878 43.4592C33.6716 42.3278 34.1295 41.2481 34.7615 40.2654C34.8647 40.0973 34.9743 39.9098 35.1033 39.7611C36.1352 39.5154 37.1606 39.3085 38.2119 39.1275C37.9926 39.6383 37.8765 40.1749 37.8571 40.7244C37.8571 41.2934 38.0055 41.8041 38.3344 42.2696C38.6698 42.7028 39.1148 43.0196 39.6565 43.1618C40.5852 43.3881 41.4687 43.3364 42.3458 42.9549C43.1971 42.5606 43.8743 41.927 44.3193 41.1123C44.3774 40.983 44.4483 40.9313 44.5386 40.8602C44.6224 40.8085 44.7321 40.7762 44.8482 40.7762C44.9449 40.7762 45.0481 40.8085 45.1513 40.8537C45.6092 41.0994 46.0735 41.1964 46.583 41.0865C47.099 40.9572 47.4988 40.6792 47.8084 40.2525C47.8922 40.1555 48.0147 40.0779 48.1437 40.0197C48.2792 40.0068 48.4275 40.0003 48.55 40.0779C49.2337 40.4141 49.956 40.5499 50.7105 40.4981C51.4522 40.4206 52.1552 40.1749 52.7679 39.7482C52.9291 39.6318 53.0903 39.5995 53.2644 39.5801C53.4515 39.5607 53.6321 39.593 53.7739 39.6512C54.3479 39.8904 54.9219 39.9615 55.5023 39.871C56.0828 39.7676 56.5987 39.5478 57.0631 39.1598C57.2501 38.9788 57.3855 38.7978 57.4758 38.5521C57.5468 38.3258 57.5532 38.0866 57.521 37.8409C57.4371 37.4595 57.3275 37.0587 57.1921 36.7289C57.7467 36.6384 58.3142 36.5867 58.8818 36.522C62.0226 36.1535 65.1698 35.979 68.317 36.063C69.4779 36.0889 70.6388 36.1729 71.8061 36.2893C71.4965 36.4121 71.2386 36.619 71.0064 36.8712C70.8129 37.1298 70.6517 37.4013 70.5743 37.731C70.4646 38.1383 70.4711 38.5392 70.5872 38.9465C70.7033 39.3473 70.929 39.6965 71.245 39.9745C71.5546 40.2525 71.9093 40.4529 72.3285 40.5369C72.9799 40.6468 73.6312 40.6921 74.2955 40.6339C74.418 40.6339 74.5212 40.6727 74.6244 40.718C74.7405 40.7568 74.8244 40.8473 74.8953 40.9119C75.3661 41.5003 75.9659 41.8429 76.7075 41.9528C77.4299 42.0498 78.1006 41.8558 78.6939 41.4033C78.7842 41.3516 78.8809 41.3063 78.9906 41.2869C79.1002 41.274 79.1905 41.2998 79.3001 41.3516C79.4098 41.3903 79.4614 41.4421 79.5452 41.539C79.6355 41.6813 79.758 41.7977 79.9128 41.8623C80.0483 41.9334 80.2095 41.9593 80.3836 41.9593C81.3897 41.9011 82.3764 41.8235 83.3761 41.733C83.5051 41.733 83.6083 41.7589 83.705 41.8041C83.8146 41.8752 83.8856 41.9528 83.9501 42.0692C84.1049 42.386 84.3306 42.6187 84.6079 42.7933C84.9175 42.9549 85.2528 43.026 85.5817 42.9937C86.1299 42.942 86.633 42.8062 87.1231 42.5993C87.4714 42.4506 87.7551 42.2502 88.0002 41.9851C88.2259 41.7201 88.471 41.1253 88.5871 40.7891C88.6645 40.8343 88.7677 40.8796 88.8773 40.9313C89.4448 41.177 93.1725 43.0907 93.7465 43.401C93.8433 43.5239 94.4946 43.7049 94.572 43.8342L95.1073 44.4807C95.1589 44.5648 97.3065 52.4976 96.7132 55.478C96.6035 56.0147 94.9977 57.6245 94.9977 57.6245C93.9916 59.5123 93.4305 59.771 93.1403 60.3011C92.7533 61.0123 92.5534 61.7622 92.4953 62.5769C92.4696 63.1199 92.3986 63.6953 92.3019 64.2578C92.2696 64.4776 92.1729 64.6716 92.0504 64.8526C91.9149 65.053 91.7666 65.1888 91.5731 65.2793C91.0056 65.609 89.5545 65.9323 88.9547 66.1974C87.7229 66.818 86.6846 67.6844 85.8655 68.8093L85.8591 68.8287Z" fill="white"/>
<path d="M100.17 54.8379C99.8476 55.6395 99.2092 56.6869 98.1773 57.786C98.4352 53.3056 98.087 48.8963 96.8229 45.1594C96.6617 44.6939 97.5194 45.0495 97.8935 45.3728C98.7513 45.9094 99.5316 46.265 100.125 46.9632C100.37 48.1334 100.447 49.5946 100.551 51.0428C100.654 52.491 100.622 53.7 100.17 54.8379Z" fill="white"/>
<path d="M72.5866 39.0499C73.1347 39.1663 73.6507 39.1986 74.186 39.1663C74.5407 39.134 74.8954 39.2116 75.2372 39.3473C75.5726 39.5025 75.8434 39.7223 76.0627 40.0197C76.2755 40.2848 76.5593 40.427 76.8818 40.4723C77.2171 40.5111 77.5073 40.4335 77.7718 40.2395C78.2039 39.9163 78.6747 39.7611 79.2099 39.8064C79.7388 39.8387 80.1967 40.0779 80.5578 40.4529C81.4543 40.4012 82.3507 40.3365 83.2407 40.2783C83.6728 40.2266 84.0727 40.3171 84.4403 40.5305C84.8079 40.7438 85.0981 41.0412 85.2852 41.4291C85.3045 41.4615 85.3174 41.4873 85.3303 41.4873C85.369 41.5002 85.4012 41.5196 85.4335 41.5003C85.814 41.4809 86.201 41.3839 86.5492 41.2222C86.6975 41.1511 86.8846 40.802 86.9878 40.6662C87.0781 40.5175 87.149 40.3688 87.1554 40.2137V40.1813C83.0215 38.4357 78.6811 37.4401 74.2698 36.6513C74.1602 36.6449 74.0312 36.6255 73.9215 36.6125C73.8313 36.897 73.6636 37.1298 73.4314 37.3173C73.1928 37.5047 72.9155 37.6082 72.6252 37.6405C72.4769 37.6405 72.3673 37.6922 72.2512 37.7828C72.1286 37.8797 72.0577 37.9961 72.019 38.1383C71.9803 38.2741 71.9803 38.4099 72.019 38.5456C72.0577 38.6685 72.1222 38.7913 72.2447 38.8883C72.3286 38.9788 72.4511 39.0435 72.5866 39.0499Z" fill="white"/>
<path d="M46.3315 51.7153C46.6475 51.4825 47.0216 51.3726 47.4214 51.3985C48.1889 51.4632 48.9306 51.6765 49.6206 52.0386C48.6404 51.948 47.6794 52.0386 46.7507 52.2907C46.5572 52.3424 46.3896 52.4588 46.2606 52.614C46.1251 52.7562 46.0606 52.9372 46.0413 53.1506C46.0026 53.8811 45.9897 54.657 46.0284 55.394C46.0284 55.588 46.0929 55.7625 46.209 55.9371C46.3186 56.0858 46.4669 56.2086 46.6411 56.2991C46.8281 56.3767 47.0022 56.4026 47.2022 56.3703C47.8148 56.2862 48.4211 56.1957 49.0209 56.1246C49.5497 56.047 50.0011 55.8466 50.4139 55.5168C50.8396 55.1742 51.1233 54.7669 51.2975 54.2691C51.4458 53.8876 51.5296 53.4609 51.5748 53.0471C51.6135 52.5816 51.5296 52.1161 51.3103 51.6959C51.0911 51.2692 50.7557 50.9524 50.3365 50.7197C49.4594 50.2477 48.5178 49.9762 47.5311 49.8986C46.7443 49.8533 46.0413 50.0537 45.4222 50.5192C44.7901 51.0106 44.1259 51.4567 43.4358 51.8511L44.1646 53.17C44.9256 52.7174 45.6414 52.2584 46.338 51.7153" fill="#1E22B0"/>
<path d="M83.1698 51.0494C82.9247 50.7067 82.6345 50.4223 82.2669 50.2219C81.8993 50.0214 81.5123 49.918 81.0931 49.9439C79.8355 49.9697 78.7198 50.3835 77.746 51.1852L78.7005 52.3489C79.4034 51.767 80.216 51.4696 81.1318 51.4502C81.4027 51.4761 81.6542 51.599 81.8735 51.7541C82.0928 51.9222 82.2605 52.142 82.3701 52.3812C81.9573 52.3101 81.5381 52.2778 81.1125 52.2778C80.6417 52.2778 80.2096 52.4006 79.7839 52.6011C79.6292 52.6851 79.4744 52.8015 79.3776 52.9566C79.2744 53.0989 79.2293 53.267 79.1906 53.448C79.1648 53.7325 79.1584 54.0622 79.139 54.3661C79.1261 54.4501 79.1132 54.5277 79.0552 54.5794C78.9842 54.6441 78.9068 54.6635 78.8294 54.6829C78.7005 54.6829 78.565 54.7023 78.4231 54.7346C78.3522 54.7604 78.3071 54.7863 78.2555 54.8316C78.2168 54.9027 78.1974 54.9609 78.1781 55.0255C78.1394 55.2389 78.1394 55.4587 78.1458 55.672C78.1587 55.769 78.191 55.8531 78.2232 55.9112C78.2813 55.9953 78.3522 56.0535 78.4038 56.0858C78.9391 56.3832 79.5324 56.5513 80.1322 56.5966C80.9061 56.6612 81.6478 56.5642 82.3701 56.2992C82.7119 56.1828 83.0021 55.9888 83.2601 55.7238C83.4987 55.4458 83.6664 55.1354 83.7567 54.7928C83.9179 54.1527 83.9502 53.4997 83.8599 52.8597C83.7438 52.2067 83.5181 51.6054 83.1763 51.0494" fill="#1E22B0"/>
</g>
<defs>
<clipPath id="clip0_1_24447">
<rect width="142" height="138" fill="white"/>
</clipPath>
</defs>
</svg>
