<svg width="24" height="24" viewBox="0 0 24 24" fill="none" xmlns="http://www.w3.org/2000/svg">
<g clip-path="url(#clip0_18_8979)">
<path d="M12.6048 20.2562H7.40644V14.9762H3.42004V6.33616H11.6016L17.7912 3.88816C18.1003 3.7656 18.4346 3.72051 18.765 3.75682C19.0955 3.79314 19.412 3.90976 19.6871 4.0965C19.9621 4.28325 20.1872 4.53445 20.3429 4.8282C20.4985 5.12195 20.58 5.44932 20.58 5.78176V16.1306C20.58 16.463 20.4985 16.7904 20.3429 17.0841C20.1872 17.3779 19.9621 17.6291 19.6871 17.8158C19.412 18.0026 19.0955 18.1192 18.765 18.1555C18.4346 18.1918 18.1003 18.1467 17.7912 18.0242L10.9248 15.3098V11.1626H12.6048V14.1674L18.4128 16.4666C18.4667 16.4856 18.5243 16.4916 18.5809 16.4839C18.6375 16.4763 18.6914 16.4554 18.7383 16.4228C18.7852 16.3902 18.8237 16.3469 18.8506 16.2965C18.8774 16.2461 18.8919 16.1901 18.8928 16.133V5.78416C18.8919 5.72706 18.8774 5.67099 18.8506 5.6206C18.8237 5.5702 18.7852 5.52693 18.7383 5.49434C18.6914 5.46175 18.6375 5.44078 18.5809 5.43316C18.5243 5.42555 18.4667 5.43151 18.4128 5.45056L11.9328 8.01856H5.10004V13.2986H9.08644V18.5786H10.9248V16.8362H12.6048V20.2562Z" fill="#1E22B0"/>
</g>
<defs>
<clipPath id="clip0_18_8979">
<rect width="24" height="24" fill="white"/>
</clipPath>
</defs>
</svg>
