<svg width="46" height="32" viewBox="0 0 46 32" fill="none" xmlns="http://www.w3.org/2000/svg">
<g clip-path="url(#clip0_18_9054)">
<path d="M45.0382 4.99613C44.7781 4.02986 44.2656 3.14798 43.5519 2.43875C42.8382 1.72951 41.9483 1.21781 40.9714 0.954839C37.375 1.84582e-07 23 0 23 0C23 0 8.625 1.84582e-07 5.02864 0.954839C4.0517 1.21781 3.16185 1.72951 2.44813 2.43875C1.73442 3.14798 1.22189 4.02986 0.961818 4.99613C6.23139e-08 8.56258 0 16 0 16C0 16 6.23139e-08 23.4374 0.961818 27.0039C1.22189 27.9701 1.73442 28.852 2.44813 29.5613C3.16185 30.2705 4.0517 30.7822 5.02864 31.0452C8.625 32 23 32 23 32C23 32 37.375 32 40.9714 31.0452C41.9483 30.7822 42.8382 30.2705 43.5519 29.5613C44.2656 28.852 44.7781 27.9701 45.0382 27.0039C46 23.4374 46 16 46 16C46 16 46 8.56258 45.0382 4.99613Z" fill="#FF0000"/>
<path d="M18.2955 22.7537L30.3182 16.0001L18.2955 9.24658V22.7537Z" fill="white"/>
</g>
<defs>
<clipPath id="clip0_18_9054">
<rect width="46" height="32" fill="white"/>
</clipPath>
</defs>
</svg>
