<svg width="590" height="102" viewBox="0 0 590 102" fill="none" xmlns="http://www.w3.org/2000/svg">
<path d="M17.5781 78.2139C8.80859 78.2139 2.98828 77.1299 0.117188 74.9619V61.5439C0.195312 61.5635 0.478516 61.6514 0.966797 61.8076C1.47461 61.9639 2.10938 62.1592 2.87109 62.3936C4.64844 62.9404 6.51367 63.458 8.4668 63.9463C10.4395 64.415 12.0215 64.6494 13.2129 64.6494C15.166 64.6494 16.1426 64.0537 16.1426 62.8623C16.1426 61.9443 15.3027 60.9678 13.623 59.9326C12.8613 59.4639 11.9922 58.9756 11.0156 58.4678C10.0586 57.96 9.08203 57.3936 8.08594 56.7686C5.64453 55.2646 3.68164 53.5068 2.19727 51.4951C0.732422 49.4834 0 46.9443 0 43.8779C0 37.1787 3.53516 32.6768 10.6055 30.3721C13.4766 29.4346 16.7871 28.9658 20.5371 28.9658C24.3066 28.9658 28.2422 29.3955 32.3438 30.2549C33.1836 30.4307 33.7402 30.5576 34.0137 30.6357V44.083C28.7012 42.9502 24.8828 42.3838 22.5586 42.3838C21.6602 42.3838 20.9863 42.54 20.5371 42.8525C20.0879 43.165 19.8633 43.5166 19.8633 43.9072C19.8633 44.2979 20.0586 44.708 20.4492 45.1377C20.8398 45.5479 21.5137 45.9678 22.4707 46.3975C23.4277 46.8076 24.541 47.3154 25.8105 47.9209C27.0996 48.5068 28.3008 49.1416 29.4141 49.8252C34.4141 52.8916 36.9141 57.0811 36.9141 62.3936C36.9141 67.4326 35.2148 71.3291 31.8164 74.083C28.3789 76.8174 23.6328 78.1943 17.5781 78.2139Z" fill="#1E22B0"/>
<path d="M68.3203 51.0264C67.9297 50.8311 67.4219 50.7334 66.7969 50.7334C66.1914 50.7334 65.5176 50.9189 64.7754 51.29C64.0332 51.6416 63.3008 52.1299 62.5781 52.7549C61.0547 54.083 59.7754 55.6943 58.7402 57.5889C57.7051 59.4834 57.1875 61.2314 57.1875 62.833C57.1875 64.415 57.793 65.4795 59.0039 66.0264C59.4336 66.2217 59.9609 66.3193 60.5859 66.3193C61.2109 66.3193 61.8652 66.1338 62.5488 65.7627C63.2324 65.3721 63.916 64.8545 64.5996 64.21C66.0254 62.8623 67.2754 61.2314 68.3496 59.3174C69.4238 57.3838 69.9609 55.6553 69.9609 54.1318C69.9609 52.6084 69.4141 51.5732 68.3203 51.0264ZM62.6367 78.1553C57.0508 78.1553 52.2363 76.3877 48.1934 72.8525C43.877 69.1025 41.7188 64.3857 41.7188 58.7021C41.7188 52.999 43.7402 48.3408 47.7832 44.7275C51.8262 41.0947 56.8164 39.2783 62.7539 39.2783C68.6914 39.2783 73.6816 41.0557 77.7246 44.6104C81.7676 48.1455 83.7988 52.8818 83.8184 58.8193C83.8379 62.6279 82.8711 65.9971 80.918 68.9268C78.9648 71.8564 76.3574 74.1221 73.0957 75.7236C69.834 77.3252 66.3477 78.1357 62.6367 78.1553Z" fill="#1E22B0"/>
<path d="M110.625 65.9678C112.598 65.9678 115.449 64.5713 119.18 61.7783V76.1045C112.773 78.5264 106.865 78.8682 101.455 77.1299C96.0449 75.3916 92.207 72.2861 89.9414 67.8135C88.8086 65.5479 88.2422 62.8916 88.2422 59.8447C88.2422 53.7119 90.3516 48.7412 94.5703 44.9326C98.7891 41.124 104.277 39.2197 111.035 39.2197C113.828 39.2197 116.348 39.6396 118.594 40.4795V51.7588C118.066 51.3096 117.324 51.085 116.367 51.085C115.41 51.085 114.385 51.3877 113.291 51.9932C112.197 52.5986 111.201 53.4092 110.303 54.4248C108.232 56.7686 107.197 59.1807 107.197 61.6611C107.217 64.1221 107.969 65.5088 109.453 65.8213C109.844 65.8994 110.234 65.9482 110.625 65.9678Z" fill="#1E22B0"/>
<path d="M135.088 23.7803C137.959 23.7803 140.088 24.3857 141.475 25.5967C142.861 26.7881 143.545 28.3115 143.525 30.167C143.525 32.0225 142.637 33.7314 140.859 35.2939C139.102 36.8564 136.748 37.6377 133.799 37.6377C129.658 37.6377 127.08 36.3877 126.064 33.8877C125.771 33.1846 125.625 32.4033 125.625 31.5439C125.625 30.6846 125.83 29.7861 126.24 28.8486C126.65 27.9111 127.266 27.0713 128.086 26.3291C129.902 24.6299 132.236 23.7803 135.088 23.7803ZM143.027 77.0713H126.064V40.6553H143.027V77.0713Z" fill="#1E22B0"/>
<path d="M154.189 73.8486C152.627 72.3838 151.377 70.5479 150.439 68.3408C149.521 66.1143 149.062 63.7217 149.062 61.1631C149.062 58.6045 149.316 56.3877 149.824 54.5127C150.84 50.7822 152.617 47.6475 155.156 45.1084C156.367 43.8584 157.715 42.8037 159.199 41.9443C162.246 40.167 165.459 39.2783 168.838 39.2783C172.236 39.2783 175.215 40.4014 177.773 42.6475C178.594 43.3701 179.307 44.2002 179.912 45.1377L184.102 40.6553H193.711V77.0713H184.102L179.912 71.0068C176.709 75.7334 171.855 78.1064 165.352 78.126C163.555 78.1455 161.631 77.7939 159.58 77.0713C157.549 76.3682 155.752 75.2939 154.189 73.8486ZM177.92 51.7002C177.217 51.29 176.377 51.085 175.4 51.085C174.424 51.085 173.389 51.4365 172.295 52.1396C171.221 52.8232 170.254 53.6924 169.395 54.7471C167.48 57.1104 166.523 59.5127 166.523 61.9541C166.523 63.6729 167.051 64.8838 168.105 65.5869C169.082 66.2314 170.566 66.1436 172.559 65.3232C174.57 64.4834 176.357 63.3994 177.92 62.0713V51.7002Z" fill="#1E22B0"/>
<path d="M217.383 77.0713H200.771V27.7646H217.383V77.0713Z" fill="#1E22B0"/>
<path d="M278.32 45.6357C281.641 41.3975 285.859 39.2783 290.977 39.2783C292.383 39.2783 293.828 39.5713 295.312 40.1572C296.816 40.7432 298.125 41.5928 299.238 42.7061C301.66 45.1279 302.871 48.3018 302.871 52.2275V77.0713H285.879V58.292C285.879 55.8896 285.498 54.0049 284.736 52.6377C283.975 51.251 283.066 50.5576 282.012 50.5576C280.977 50.5381 280.293 51.2119 279.961 52.5791C279.863 52.9697 279.814 53.4092 279.814 53.8975V77.0713H263.203V58.292C263.203 55.8896 262.783 54.0049 261.943 52.6377C261.123 51.251 260.225 50.5576 259.248 50.5576C257.686 50.5576 256.904 51.8174 256.904 54.3369V77.0713H239.502V40.6553H249.111L253.301 46.3389C254.727 44.1904 256.758 42.4814 259.395 41.2119C262.051 39.9229 264.756 39.2783 267.51 39.2783C271.084 39.2783 274.043 40.4893 276.387 42.9111C277.148 43.6924 277.793 44.6006 278.32 45.6357Z" fill="#1E22B0"/>
<path d="M333.516 51.085C333.516 49.3662 332.715 48.5068 331.113 48.5068C329.277 48.6826 328.086 49.6299 327.539 51.3486C327.266 52.1689 327.07 53.126 326.953 54.2197C326.855 55.2939 326.699 56.4463 326.484 57.6768L332.9 56.2412L333.457 51.7588L333.516 51.085ZM329.561 64.415C329.561 64.415 329.023 64.415 327.949 64.415C327.441 64.415 326.953 64.3955 326.484 64.3564C326.484 66.6807 327.725 67.9502 330.205 68.165C330.889 68.2236 331.553 68.2529 332.197 68.2529C333.857 68.2529 335.938 67.8721 338.438 67.1104C340.957 66.3486 343.213 65.1084 345.205 63.3896L347.021 72.501C342.666 76.2705 336.084 78.1553 327.275 78.1553C322.217 78.1553 317.871 76.6807 314.238 73.7314C310.293 70.5088 308.32 66.0459 308.32 60.3428C308.32 56.0459 309.434 52.1885 311.66 48.7705C313.73 45.6455 316.533 43.2725 320.068 41.6514C323.604 40.0303 327.422 39.2197 331.523 39.2197C336.836 39.2197 340.85 40.3818 343.564 42.7061C346.299 45.0303 347.656 47.9014 347.637 51.3193C347.637 54.7373 346.006 57.7744 342.744 60.4307C339.482 63.0869 335.088 64.415 329.561 64.415Z" fill="#1E22B0"/>
<path d="M373.535 39.3369C375.859 39.3369 378.252 39.7178 380.713 40.4795V27.7646H397.764V77.0713H386.895L382.705 71.0068C379.131 75.7334 374.434 78.0967 368.613 78.0967C363.945 78.0967 359.863 76.5146 356.367 73.3506C352.891 70.167 351.152 66.0947 351.152 61.1338C351.152 56.1729 352.168 52.0908 354.199 48.8877C358.223 42.5205 364.668 39.3369 373.535 39.3369ZM380.713 51.7002C380.049 51.29 379.326 51.085 378.545 51.085C377.764 51.085 377.012 51.2412 376.289 51.5537C374.805 52.1982 373.477 53.2432 372.305 54.6885C371.68 55.3916 371.152 56.1436 370.723 56.9443C369.785 58.6631 369.316 60.3721 369.316 62.0713C369.316 63.751 369.834 64.9229 370.869 65.5869C371.24 65.8213 371.689 65.9482 372.217 65.9678C374.756 65.9678 377.588 64.6885 380.713 62.1299V51.7002Z" fill="#1E22B0"/>
<path d="M413.877 23.7803C416.748 23.7803 418.877 24.3857 420.264 25.5967C421.65 26.7881 422.334 28.3115 422.314 30.167C422.314 32.0225 421.426 33.7314 419.648 35.2939C417.891 36.8564 415.537 37.6377 412.588 37.6377C408.447 37.6377 405.869 36.3877 404.854 33.8877C404.561 33.1846 404.414 32.4033 404.414 31.5439C404.414 30.6846 404.619 29.7861 405.029 28.8486C405.439 27.9111 406.055 27.0713 406.875 26.3291C408.691 24.6299 411.025 23.7803 413.877 23.7803ZM421.816 77.0713H404.854V40.6553H421.816V77.0713Z" fill="#1E22B0"/>
<path d="M432.979 73.8486C431.416 72.3838 430.166 70.5479 429.229 68.3408C428.311 66.1143 427.852 63.7217 427.852 61.1631C427.852 58.6045 428.105 56.3877 428.613 54.5127C429.629 50.7822 431.406 47.6475 433.945 45.1084C435.156 43.8584 436.504 42.8037 437.988 41.9443C441.035 40.167 444.248 39.2783 447.627 39.2783C451.025 39.2783 454.004 40.4014 456.562 42.6475C457.383 43.3701 458.096 44.2002 458.701 45.1377L462.891 40.6553H472.5V77.0713H462.891L458.701 71.0068C455.498 75.7334 450.645 78.1064 444.141 78.126C442.344 78.1455 440.42 77.7939 438.369 77.0713C436.338 76.3682 434.541 75.2939 432.979 73.8486ZM456.709 51.7002C456.006 51.29 455.166 51.085 454.189 51.085C453.213 51.085 452.178 51.4365 451.084 52.1396C450.01 52.8232 449.043 53.6924 448.184 54.7471C446.27 57.1104 445.312 59.5127 445.312 61.9541C445.312 63.6729 445.84 64.8838 446.895 65.5869C447.871 66.2314 449.355 66.1436 451.348 65.3232C453.359 64.4834 455.146 63.3994 456.709 62.0713V51.7002Z" fill="#1E22B0"/>
<path d="M508.67 37.2433C509.364 36.1927 510.156 35.2398 511.071 34.3846C512.399 33.1568 513.837 32.0878 515.391 31.1593C517.548 29.8887 519.76 28.7709 522.069 27.8363C524.811 26.694 527.663 25.8815 530.588 25.3684C533.549 24.8431 536.511 24.5804 539.521 24.5865C543.853 24.6232 548.173 24.7942 552.475 25.1791C556.838 25.57 561.11 26.4557 565.272 27.8301C568.233 28.8319 571.822 30.2369 574.393 32.0694C575.71 33.0285 576.855 34.1463 577.836 35.4536C579.098 37.1639 579.768 39.0942 580.079 41.2078C580.237 42.3012 580.389 44.4269 580.389 44.4269L579.354 45.0622C579.293 44.4086 579.213 43.755 579.128 43.1014C578.945 41.9225 578.647 40.7557 578.202 39.6501C577.501 37.9092 576.368 36.5286 574.771 35.5513C572.962 34.4762 571.036 33.6515 569.001 33.0957L568.635 34.464C570.542 34.9893 572.346 35.7712 574.04 36.7852C575.362 37.5915 576.319 38.7338 576.886 40.1754C577.172 40.9451 577.586 41.9896 577.568 42.7532C574.101 40.1266 570.213 38.4162 570.012 38.3245L568.483 37.616C563.968 35.5452 558.453 34.0852 553.572 33.2301C551.647 32.888 549.685 32.6986 547.741 32.6559C544.694 32.607 541.66 32.7414 538.637 33.1018C533.372 33.7126 528.096 34.3479 522.831 35.0015C520.071 35.3619 517.341 35.8567 514.641 36.5042C513.52 36.7791 512.545 37.3105 511.741 38.1169C510.839 39.0087 510.175 40.0777 509.754 41.2627C509.303 41.3727 508.846 41.4949 508.414 41.672L508.383 38.2268C508.383 37.8847 508.469 37.5488 508.664 37.2495L508.67 37.2433Z" fill="white"/>
<path d="M580.688 64.9456C581.864 66.0756 581.815 66.8209 581.955 67.8593C582.15 69.5758 582.071 70.7303 581.193 72.6667C580.456 74.2855 580.657 73.8762 579.079 75.8859C578.695 76.3746 577.342 77.3336 576.575 77.9567C575.752 78.6225 577.056 80.791 576.313 81.2919C574.96 82.2021 571.998 81.4568 571.633 83.0084C571.426 83.9186 571.962 85.2685 570.049 86.869C567.922 88.2556 565.917 87.4554 565.789 88.8909C565.667 90.3203 565.667 90.4669 565.527 91.2671C565.497 91.487 565.399 91.6825 565.235 91.8413C565.089 92.0062 564.887 92.1039 564.674 92.1345C563.443 92.3544 562.194 92.5254 560.939 92.6109C560.561 92.6293 560.244 92.7881 559.976 93.0691C559.72 93.3623 559.611 93.6799 559.611 94.0648C559.641 94.5596 559.592 95.0177 559.489 95.4758C559.452 95.653 559.355 95.824 559.227 95.9523C559.099 96.0684 558.94 96.1417 558.745 96.1722C557.618 96.3432 556.527 96.1966 555.461 95.8485C555.217 95.7507 554.955 95.7446 554.705 95.7813C554.449 95.8301 554.23 95.934 554.029 96.1172C553.688 96.4288 553.286 96.6242 552.829 96.7098C552.384 96.7892 551.945 96.7586 551.518 96.5998C551.214 96.4776 550.927 96.4776 550.623 96.5387C550.318 96.6303 550.068 96.7953 549.879 97.0579C549.703 97.3023 549.587 97.5833 549.581 97.8887C549.581 98.2919 549.495 98.6645 549.307 99.0127C549.13 99.3547 548.886 99.6724 548.581 99.8984C548.496 99.9473 548.405 99.99 548.319 100.008C548.216 100.008 548.137 99.99 548.051 99.9534C547.442 99.6479 546.918 99.2753 546.449 98.8111C546.181 98.5667 545.888 98.4385 545.535 98.4079C545.181 98.3835 544.883 98.4873 544.596 98.7011C543.396 99.5991 542.055 100.185 540.562 100.436C539.082 100.674 537.619 100.552 536.206 100.051C535.316 99.7518 534.506 99.2753 533.86 98.6034C533.177 97.9437 532.678 97.1557 532.361 96.2638C532.245 95.9828 532.062 95.7446 531.812 95.5614C531.544 95.3964 531.264 95.3109 530.953 95.3353C529.265 95.4086 527.754 94.9322 526.389 93.9365C525.049 92.9164 524.183 91.5847 523.775 89.9354C523.696 89.6056 523.513 89.3185 523.221 89.1169C522.94 88.9092 522.599 88.8359 522.258 88.8787C521.088 88.9703 520.034 88.7015 519.089 88.0174C518.644 87.7058 518.315 87.3271 518.017 86.8751C517.743 86.423 517.566 85.9466 517.493 85.4151C517.444 85.1403 517.328 84.9081 517.164 84.7127C516.993 84.505 516.768 84.3523 516.499 84.2729C516.244 84.1995 515.982 84.1996 515.72 84.2667C515.171 84.4072 514.623 84.4989 514.044 84.505C513.91 84.505 513.788 84.4439 513.678 84.3645C513.581 84.2667 513.532 84.1385 513.514 84.0102C513.502 83.6681 513.367 83.3749 513.142 83.1367C512.91 82.8679 512.642 82.7335 512.313 82.6785C511.972 82.6297 511.661 82.6969 511.369 82.8679C511.253 82.9412 511.107 83.0084 510.967 83.0512C510.991 82.3548 511.089 81.6401 511.241 80.9681C511.387 80.2901 511.338 79.6487 511.064 79.0012C510.674 78.0849 508.846 77.4863 508.273 76.9976C506.86 75.7943 506.854 75.6476 506.488 75.1529C505.921 74.3893 505.537 73.1493 505.452 72.8561C505.141 71.8421 504.788 70.0339 504.977 68.6473C505.208 67.0408 505.373 65.9351 506.451 64.7318C507.183 63.956 507.567 63.0275 507.621 61.9707C507.652 61.0178 507.816 60.1076 508.103 59.1852C508.627 59.1852 509.096 59.0081 509.504 58.6904C509.912 58.3667 510.187 57.9452 510.333 57.4504C510.778 55.7645 510.991 54.0541 510.991 52.3071C511.582 51.8062 512.118 51.2381 512.588 50.5845C512.527 51.1709 512.466 51.7695 512.35 52.3376C512.094 53.8037 512.021 55.3002 512.118 56.809C513.063 56.9679 514.007 57.0717 514.964 57.09C515.098 57.1084 515.244 57.1572 515.33 57.2488C515.439 57.3405 515.531 57.4688 515.531 57.6276C515.598 58.2201 515.64 58.8248 515.64 59.4418C516.274 59.5273 516.908 59.5701 517.535 59.6067C517.627 59.6067 517.7 59.6189 517.773 59.6678C517.828 59.7045 517.889 59.7778 517.931 59.845C517.968 59.9122 517.98 59.9916 517.98 60.071C517.919 61.2194 517.956 62.3861 518.059 63.5284C518.34 63.6383 518.626 63.6689 518.919 63.6444C519.223 63.62 519.51 63.5284 519.778 63.3757C520.143 63.1619 520.539 63.0153 520.972 62.9542C521.271 62.9175 521.575 62.9786 521.85 63.1435C522.124 63.3207 522.319 63.5528 522.434 63.8399C522.642 64.3836 522.867 64.9456 523.093 65.4953C522.684 65.7091 522.282 65.9351 521.88 66.1489C521.484 66.3566 521.088 66.5093 520.655 66.6559C520.29 66.7537 519.924 66.8331 519.546 66.882C519.199 66.9308 518.845 66.8942 518.523 66.8086C518.175 66.717 517.871 66.546 517.596 66.3261C516.707 65.5869 515.847 64.8173 515.025 64.0048C514.604 63.6017 514.123 63.4001 513.556 63.3635C513.118 63.339 512.728 63.4306 512.362 63.6506C512.003 63.8705 511.741 64.1698 511.576 64.5607C511.277 65.2449 511.174 65.9535 511.235 66.6926C511.338 67.6822 511.716 68.5435 512.368 69.3009C513.544 70.6326 514.94 71.6954 516.542 72.4529C517.42 72.8622 518.321 73.1432 519.284 73.2653C519.571 74.2121 520.07 75.049 520.728 75.7881C520.966 76.0508 521.289 76.228 521.673 76.3135C522.441 76.4418 523.184 76.3501 523.903 76.0081C524.78 75.5866 525.615 75.0612 526.365 74.4565C526.554 74.9268 526.84 75.3361 527.218 75.6782C527.449 75.892 527.73 76.0386 528.022 76.118C528.333 76.1913 528.644 76.2096 528.948 76.1424C530.216 75.9042 531.386 75.4155 532.422 74.6703C532.635 74.6886 532.836 74.7436 533.031 74.8719C533.208 74.994 533.366 75.1345 533.494 75.3178C533.744 75.6782 534.055 75.9409 534.451 76.1119C534.841 76.2707 535.249 76.3318 535.688 76.2585C536.102 76.1913 536.492 76.0142 536.803 75.7271C537.162 75.4094 537.516 75.0734 537.857 74.7375C538.107 75.3544 538.424 75.9286 538.795 76.454C538.948 76.6861 539.124 76.8449 539.35 76.9732C539.557 77.1137 539.795 77.2053 540.051 77.242C540.38 77.2908 540.715 77.2847 541.05 77.1748C541.385 77.1015 541.671 76.9304 541.933 76.6983C542.25 76.4234 542.518 76.1241 542.72 75.7576C543.183 76.3196 543.701 76.7899 544.34 77.1687C544.706 77.3947 545.669 77.5168 546.114 77.523C546.552 77.523 546.43 77.413 546.796 77.187C547.43 76.8266 547.923 76.3196 548.252 75.6721C549.185 76.6067 550.806 77.1809 552.079 77.4313C556.064 77.8162 557.301 75.8309 557.661 75.4644C558.556 76.0386 559.519 76.4356 560.585 76.5884C561.122 76.6678 561.652 76.625 562.176 76.4601C562.712 76.3074 563.181 76.0447 563.583 75.666C564.101 75.2078 564.54 74.6642 564.9 74.0655C565.783 74.3465 566.667 74.3404 567.544 74.0411C568.141 73.8395 568.586 73.4486 568.879 72.8866C569.153 72.2941 569.214 71.7138 569.019 71.1151C570.53 70.1622 571.846 69.0016 572.98 67.6333C573.248 67.2546 573.406 66.7964 573.394 66.3139C573.37 65.813 573.181 65.4098 572.845 65.0555C572.644 64.8539 572.419 64.7012 572.163 64.5852C571.901 64.4691 571.633 64.4447 571.353 64.4447C570.274 64.4874 569.25 64.7134 568.257 65.0922C568.001 65.1777 567.794 65.3304 567.599 65.5136C567.41 65.6969 567.264 65.9107 567.154 66.1673C567.105 66.3383 566.978 66.4605 566.801 66.5582C566.636 66.662 566.466 66.6865 566.283 66.6743C566.082 66.6498 565.923 66.5643 565.789 66.436C565.643 66.2894 565.491 66.1306 565.351 65.9962C565.996 65.0677 567.654 64.3408 568.659 63.8338C569.25 63.5528 569.817 63.2535 570.378 62.9359C570.755 62.7404 571.06 62.4655 571.304 62.099C571.554 61.7814 571.706 61.3904 571.779 60.9811C571.895 60.3886 571.95 59.8083 571.998 59.2097C572.017 58.6477 572.175 58.1346 572.413 57.6398C572.809 56.9007 574.57 54.9398 574.265 54.1579C575.1 56.2898 576.343 58.1163 577.946 59.2341C578.202 59.4051 578.409 59.6006 578.579 59.8511C578.695 60.016 578.817 60.1748 578.951 60.3397C579.103 60.5719 579.189 60.8101 579.152 61.0911C579.122 61.3843 578.994 61.6164 578.793 61.8119C578.573 61.9829 578.317 62.0746 578.037 62.0623C577.824 62.0623 577.629 62.1173 577.483 62.2517C577.33 62.3922 577.227 62.5632 577.196 62.7648C577.166 62.9908 577.221 63.168 577.342 63.3512C577.464 63.504 577.629 63.6139 577.83 63.6567C578.768 63.8582 579.865 64.1209 580.712 64.9394L580.688 64.9456Z" fill="white"/>
<path d="M579.384 52.3863C579.737 52.5024 580.054 52.704 580.304 53.0155C580.529 53.3026 580.682 53.6569 580.724 54.0356C580.724 54.0662 580.724 54.0784 580.724 54.0906C580.761 54.1028 580.767 54.1089 580.773 54.1089C581.297 54.2311 581.772 54.1395 582.223 53.8951C582.485 53.7485 582.699 53.5531 582.875 53.2904C583.034 53.0583 583.143 52.7834 583.198 52.4841C583.338 51.6533 583.253 50.8287 582.973 50.0162C582.863 49.7291 582.699 49.4848 582.461 49.2954C582.229 49.1122 581.961 48.9778 581.669 48.9167C580.992 48.8068 580.328 48.8556 579.701 49.0694C579.603 49.1061 579.506 49.1427 579.402 49.1733C579.341 50.2178 579.238 51.2685 579.061 52.3069C579.177 52.3314 579.268 52.3558 579.378 52.3924" fill="white"/>
<path d="M586.616 48.5443C586.111 47.909 585.477 47.4325 584.758 47.0844C583.046 46.333 581.26 46.1498 579.444 46.4979C579.451 46.8828 579.457 47.2615 579.457 47.6586C580.261 47.4142 581.071 47.3837 581.9 47.5059C582.449 47.6158 582.954 47.8479 583.369 48.19C583.801 48.5565 584.1 48.9902 584.301 49.5217C584.673 50.5662 584.77 51.6291 584.587 52.7103C584.52 53.2234 584.338 53.6877 584.039 54.1091C583.746 54.5306 583.375 54.8666 582.948 55.1232C582.162 55.563 581.333 55.679 580.48 55.4958C580.151 55.4225 579.901 55.2698 579.682 55.0254C579.457 54.7811 579.335 54.5062 579.304 54.1641C579.286 54.0847 579.262 53.9748 579.195 53.9015C579.134 53.8282 579.048 53.7671 578.945 53.7304C578.628 53.6327 578.323 53.651 578.025 53.7915C577.72 53.9259 577.507 54.1641 577.373 54.4512C577.172 54.8788 577.099 55.3247 577.105 55.8012C577.123 56.1738 577.166 56.5586 577.226 56.9313C577.714 57.3283 578.22 57.707 578.732 58.0674C579.109 58.324 579.444 58.6539 579.713 59.0204C579.822 59.167 579.932 59.3319 580.036 59.4785C580.34 59.8756 580.517 60.3154 580.547 60.8041C581.035 60.9446 581.541 60.914 582.01 60.7185C583.356 60.1566 584.49 59.2953 585.379 58.1163C586.214 57.0046 586.866 55.8195 587.342 54.5001C587.78 53.2417 587.86 51.9589 587.616 50.6639C587.439 49.8759 587.104 49.1735 586.61 48.5443" fill="white"/>
<path d="M568.257 69.8938C569.64 69.0325 570.84 67.9757 571.858 66.7173C571.943 66.6074 571.986 66.4913 571.986 66.3569C571.968 66.2409 571.925 66.1187 571.822 66.0271C571.779 65.9782 571.7 65.9232 571.627 65.9049C571.553 65.8622 571.486 65.8499 571.395 65.8499C570.487 65.8988 569.616 66.0698 568.769 66.3997C568.708 66.4241 568.635 66.4608 568.592 66.5158C568.543 66.5707 568.501 66.6318 568.464 66.6868C568.263 67.1694 567.952 67.5359 567.501 67.7924C567.069 68.0429 566.606 68.1223 566.094 68.0612C565.588 68.0001 565.161 67.8047 564.79 67.4443C564.168 66.8273 563.528 66.2226 562.876 65.6422C562.352 65.1475 561.725 64.8237 561.024 64.6466C560.22 64.4694 559.44 64.5305 558.678 64.8054C558.465 64.8909 558.27 64.9581 558.087 65.0558C557.648 65.5384 557.161 65.9599 556.618 66.3264C555.899 66.7784 555.119 67.0716 554.26 67.206C553.413 67.3343 552.566 67.2977 551.75 67.0655C551.067 66.8701 550.525 66.4547 550.153 65.8438C549.842 65.3063 549.55 64.781 549.245 64.2495C548.868 64.7871 548.63 65.3857 548.52 66.0332C548.471 66.3631 548.325 66.6746 548.118 66.9434C547.911 67.2121 547.643 67.4137 547.344 67.5481C546.18 68.0368 544.974 68.1956 543.712 68.0185C543.268 67.9452 542.866 67.7863 542.488 67.4992C542.122 67.2305 541.848 66.8762 541.677 66.4547C541.434 65.8744 541.232 65.2513 541.123 64.6282C540.251 65.1352 539.459 65.7522 538.759 66.4791C538.235 67.0044 537.607 67.3404 536.876 67.4687C535.486 67.7008 534.128 67.5725 532.805 67.1022C531.672 66.6868 530.807 65.9721 530.173 64.9581C529.966 64.9153 529.771 64.8909 529.582 64.8359C528.838 64.6832 528.113 64.7199 527.37 64.9337C526.724 65.123 526.102 65.3857 525.511 65.7339C524.536 66.3142 523.543 66.8701 522.544 67.3954C522.063 67.6519 521.575 67.8535 521.045 67.994C520.606 68.1223 520.18 68.2139 519.741 68.2628C519.199 68.3422 518.656 68.2933 518.132 68.1651C517.596 68.0123 517.121 67.7497 516.694 67.4015C515.78 66.6379 514.897 65.8316 514.025 64.9947C513.873 64.842 513.684 64.7504 513.471 64.7565C513.349 64.7382 513.227 64.7565 513.123 64.8237C513.002 64.897 512.941 65.007 512.886 65.1047C512.679 65.5567 512.618 66.0393 512.654 66.5219C512.74 67.2121 512.996 67.8108 513.446 68.3361C514.488 69.5273 515.731 70.4496 517.157 71.1399C517.919 71.482 518.681 71.7263 519.503 71.824C519.777 71.879 520.009 71.9707 520.222 72.1661C520.429 72.3372 520.576 72.5632 520.649 72.832C520.893 73.565 521.24 74.2186 521.77 74.7806C521.825 74.8294 521.88 74.8661 521.947 74.8783C522.416 74.9638 522.867 74.9027 523.312 74.7073C524.086 74.3285 524.811 73.8643 525.487 73.3084C525.725 73.1068 526.011 73.0091 526.316 72.9908C526.614 72.9908 526.889 73.058 527.157 73.2229C527.419 73.4 527.595 73.6322 527.711 73.9132C527.803 74.1819 527.955 74.3957 528.156 74.5729C528.235 74.6401 528.314 74.6767 528.406 74.7012C528.503 74.7195 528.607 74.7378 528.698 74.7195C529.765 74.524 530.721 74.1086 531.599 73.4795C531.903 73.2473 532.251 73.174 532.61 73.2107C533.031 73.2657 533.415 73.3939 533.78 73.6261C534.14 73.846 534.426 74.127 534.664 74.4812C534.749 74.6156 534.871 74.6889 535.017 74.7806C535.17 74.8355 535.31 74.8478 535.456 74.8172C535.62 74.7928 535.754 74.7439 535.87 74.6217C536.205 74.3407 536.534 74.017 536.87 73.6994C537.095 73.4795 537.357 73.3451 537.674 73.3145C537.997 73.2718 538.289 73.3267 538.557 73.4795C538.844 73.6383 539.039 73.8765 539.167 74.1697C539.386 74.6767 539.654 75.1654 539.965 75.6235C540.002 75.6785 540.056 75.7274 540.111 75.7518C540.16 75.7824 540.215 75.819 540.276 75.819C540.41 75.8373 540.538 75.8312 540.666 75.7946C540.788 75.7457 540.916 75.6907 541.007 75.593C541.208 75.4281 541.373 75.2265 541.525 74.9882C541.702 74.7256 541.909 74.5484 542.207 74.4141C542.482 74.3041 542.792 74.2797 543.091 74.353C543.396 74.4385 543.639 74.5851 543.834 74.8294C544.188 75.2631 544.608 75.6235 545.084 75.9167C545.236 76.0023 545.394 76.0695 545.589 76.0695C545.778 76.0695 545.931 76.0206 546.101 75.9229C546.491 75.6907 546.79 75.3853 547.003 74.976C547.149 74.7134 547.356 74.5057 547.631 74.3652C547.911 74.2308 548.185 74.1941 548.49 74.2247C548.788 74.2858 549.056 74.4202 549.27 74.6523C550.153 75.5075 551.226 76.0023 552.463 76.0756C553.249 76.1305 554.01 76.0023 554.729 75.7152C555.479 75.4342 556.107 74.9944 556.655 74.4202C556.893 74.1941 557.173 74.0414 557.514 74.0048C557.855 73.9681 558.154 74.0414 558.459 74.2186C559.178 74.7134 559.952 75.0066 560.805 75.1287C561.134 75.1898 561.463 75.1532 561.78 75.0677C562.115 74.9638 562.389 74.7989 562.651 74.5668C563.059 74.188 563.4 73.7666 563.681 73.2962C563.863 73.0091 564.089 72.8197 564.394 72.6976C564.717 72.5815 565.021 72.5815 565.326 72.6792C565.929 72.8564 566.514 72.8503 567.117 72.6609C567.343 72.5693 567.507 72.4166 567.629 72.1845C567.733 71.9645 567.757 71.7324 567.678 71.5003C567.58 71.1949 567.593 70.8833 567.702 70.5718C567.83 70.2542 568.013 70.0343 568.275 69.8571" fill="white"/>
<path d="M521.533 26.5172C524.379 25.3443 527.316 24.4952 530.338 23.9516C533.379 23.4263 536.444 23.1575 539.539 23.1758C543.908 23.1819 548.265 23.3835 552.603 23.7561C557.082 24.1654 561.451 25.0633 565.71 26.4866C568.818 27.5312 572.553 28.9972 575.216 30.9153C575.752 31.3062 576.264 31.7216 576.764 32.1675C576.727 31.6544 576.685 31.1596 576.563 30.6648C576.142 28.7162 575.435 26.8776 574.46 25.1488C573.479 23.4201 573.016 22.1801 569.976 18.8815C568.202 16.9512 564.479 14.8194 562.505 13.8848C560.098 12.7608 557.612 11.9362 555.028 11.4108C551.896 10.7755 548.74 10.4274 545.553 10.3785C543.183 10.3357 540.831 10.4396 538.497 10.69C534.219 11.1726 530.259 12.5165 526.572 14.7644C523.007 16.9512 519.991 19.7184 517.505 23.0658C516.853 23.9516 516.232 24.8679 515.641 25.7902C516.378 25.3016 517.152 24.819 517.919 24.3425C519.114 23.6278 520.32 22.9498 521.563 22.3145L522.197 23.5851C520.997 24.202 519.821 24.8617 518.632 25.5581C517.03 26.5355 515.458 27.5984 513.922 28.704C513.471 29.5531 513.039 30.4083 512.63 31.2879C513.288 30.7931 513.971 30.3594 514.653 29.9501C516.865 28.6429 519.15 27.4823 521.527 26.5172" fill="white"/>
<path d="M512.752 39.1249C512.179 39.693 511.716 40.3283 511.375 41.0491C511.997 41.0185 512.63 41.0369 513.246 41.1407C513.288 41.0063 513.307 40.8719 513.368 40.7131C513.605 39.7785 513.94 38.905 514.391 38.062C513.764 38.3002 513.209 38.6668 512.758 39.131" fill="white"/>
<path d="M521.015 39.4183C521.557 39.5649 522.087 39.5038 522.611 39.29C523.117 39.0456 523.519 38.7036 523.781 38.1782C523.964 37.8545 524.202 37.6101 524.512 37.4086C524.829 37.2253 525.171 37.1215 525.542 37.1153C525.908 37.1153 526.249 37.2131 526.56 37.3902C526.657 37.4513 526.785 37.4696 526.907 37.4513C527.017 37.4147 527.108 37.3597 527.181 37.2558C527.468 36.8588 527.852 36.59 528.303 36.4678C528.784 36.3518 529.253 36.3945 529.68 36.6083C530.1 36.7977 530.521 36.8832 530.971 36.8649C531.435 36.8221 531.849 36.6694 532.221 36.4251C532.556 36.1746 532.946 36.0341 533.378 35.9914C533.774 35.9486 534.189 36.0097 534.554 36.1807C534.829 36.2846 535.085 36.3273 535.359 36.2968C535.639 36.2602 535.901 36.1563 536.12 35.9669C536.029 35.5943 535.895 35.2278 535.712 34.8857C531.471 35.3744 527.242 35.8998 523.007 36.4068C522.398 36.5106 521.789 36.5778 521.173 36.6816C521.027 36.8344 520.887 36.9932 520.789 37.1825C520.521 37.604 520.381 38.0499 520.363 38.5508C520.363 38.7524 520.418 38.9296 520.533 39.1067C520.655 39.2655 520.808 39.3633 521.015 39.4305" fill="white"/>
<path d="M509.967 46.7849C509.705 46.901 509.492 47.0598 509.315 47.2797C509.139 47.4996 509.023 47.7317 508.962 48.0188C508.724 49.1184 508.736 50.1996 508.992 51.2991C509.035 51.4274 509.108 51.5496 509.212 51.6534C509.248 51.6901 509.291 51.7023 509.334 51.7023C509.388 51.7023 509.431 51.69 509.449 51.6656C510.4 51.0181 511.18 50.1935 511.783 49.2161C512.003 48.8985 512.289 48.6663 512.661 48.5625V47.5302C512.411 47.4385 512.191 47.3103 512.003 47.1453C511.728 46.8827 511.405 46.73 511.046 46.6628C510.668 46.6139 510.321 46.6505 509.967 46.7849Z" fill="white"/>
<path d="M508.042 57.7684C508.255 57.7684 508.438 57.7012 508.602 57.5546C508.767 57.4385 508.877 57.2614 508.944 57.0659C509.285 55.777 509.48 54.4453 509.541 53.1015C509.327 53.1259 509.102 53.1198 508.895 53.0526C508.688 52.9854 508.493 52.9121 508.334 52.7594C507.956 52.4601 507.719 52.0752 507.621 51.6232C507.317 50.3221 507.304 49.0149 507.591 47.7199C507.676 47.2129 507.908 46.7731 508.218 46.3882C508.541 45.9973 508.944 45.6919 509.401 45.4903C509.955 45.2643 510.51 45.1849 511.082 45.2459C511.673 45.3131 512.191 45.5086 512.661 45.8507C512.673 45.472 512.691 45.0932 512.709 44.7023C512.764 43.9754 512.843 43.2546 512.959 42.5277C512.179 42.4238 511.411 42.4299 510.631 42.546C509.005 42.7842 507.585 43.4562 506.36 44.5435C505.452 45.362 504.8 46.3577 504.404 47.5061C503.776 49.3142 503.758 51.1773 504.294 53.016C504.867 54.8729 505.915 56.394 507.445 57.5607C507.64 57.689 507.816 57.7623 508.036 57.7623" fill="white"/>
<path d="M564.297 65.0254C564.138 64.8726 563.986 64.7383 563.828 64.5917C563.121 63.938 562.286 63.5105 561.341 63.2844C560.659 63.1073 559.964 63.1012 559.264 63.1928C559.477 62.6247 559.568 62.0688 559.556 61.4641C559.519 60.8533 559.367 60.2913 559.093 59.7476C558.91 59.4055 558.697 59.0574 558.477 58.7153C559.599 58.8985 560.689 58.7703 561.737 58.3121C563.115 57.7135 564.242 56.8094 565.168 55.6244L564.035 54.7692C563.273 55.7588 562.322 56.504 561.177 57.0293C560.092 57.4753 559.008 57.5058 557.905 57.1026C556.826 56.7056 555.845 56.1253 554.968 55.3739C553.627 54.1767 552.719 52.7228 552.28 50.9819C551.872 49.4853 551.769 47.9643 551.927 46.4128C551.964 45.9607 552.092 45.5454 552.317 45.1422C552.567 44.7512 552.859 44.4153 553.225 44.1648C553.968 43.6273 554.821 43.3219 555.735 43.2241C557.911 43.0286 559.989 43.3829 561.951 44.3359L562.578 43.0836C560.354 42.0024 558.039 41.5748 555.577 41.8008C554.419 41.9474 553.359 42.3262 552.427 43.0042C551.866 43.3768 551.427 43.8472 551.098 44.4275C550.769 45.0078 550.556 45.6309 550.507 46.2784C550.337 48.001 550.471 49.6747 550.891 51.3362C551.433 53.3642 552.463 55.0624 554.041 56.4429C554.59 56.9255 555.187 57.3531 555.815 57.7135C556.643 58.4954 557.32 59.3994 557.85 60.4012C558.033 60.7922 558.13 61.1953 558.136 61.6229C558.136 62.0566 558.051 62.472 557.874 62.8568C557.381 63.8037 556.716 64.5672 555.833 65.1353C555.272 65.4957 554.681 65.7278 554.048 65.8317C553.396 65.9294 552.75 65.8805 552.116 65.7156C551.793 65.6301 551.549 65.4224 551.366 65.1414C551.068 64.6344 550.775 64.1152 550.495 63.596C550.331 63.3211 550.099 63.1012 549.788 62.9668C549.496 62.8446 549.185 62.8202 548.862 62.9057C548.545 62.9973 548.289 63.1745 548.1 63.4433C547.576 64.1702 547.253 64.9521 547.107 65.8439C547.095 65.9172 547.064 66.021 547.004 66.0943C546.93 66.1615 546.869 66.2165 546.76 66.2654C545.858 66.638 544.901 66.7663 543.908 66.638C543.707 66.6136 543.518 66.5342 543.347 66.4059C543.171 66.2654 543.043 66.1005 542.976 65.9233C542.75 65.4163 542.616 64.9276 542.519 64.3962C542.452 64.0969 542.318 63.8342 542.08 63.6082C541.861 63.4127 541.593 63.2844 541.264 63.2478C540.971 63.1989 540.691 63.2783 540.41 63.4188C539.435 63.9869 538.528 64.6894 537.742 65.5018C537.425 65.8011 537.053 66.0027 536.626 66.076C535.475 66.2776 534.372 66.1676 533.269 65.7889C532.526 65.5018 531.916 65.0498 531.465 64.384C531.027 63.7304 530.807 63.0034 530.807 62.2093C530.85 61.2625 531.173 60.4501 531.837 59.7598C532.361 59.2223 532.922 58.7275 533.494 58.2694C534.591 57.4142 535.42 56.333 536.011 55.0563C537.096 52.6618 537.991 50.1939 538.71 47.665C538.863 47.1213 538.887 46.5655 538.79 45.9852C538.68 45.4171 538.448 44.9223 538.095 44.4519C536.962 43.0286 535.505 42.1735 533.695 41.9108C530.32 41.4649 526.987 41.8314 523.769 42.9553L524.251 44.2748C527.261 43.218 530.356 42.9004 533.513 43.3157C534.932 43.5295 536.078 44.2015 536.968 45.3377C537.187 45.5942 537.333 45.918 537.394 46.2417C537.449 46.596 537.437 46.9381 537.345 47.2741C536.639 49.7175 535.761 52.1364 534.713 54.4638C534.22 55.5083 533.543 56.4063 532.611 57.1393C531.971 57.628 531.386 58.1655 530.819 58.7336C529.905 59.7049 529.43 60.8594 529.394 62.1666C529.381 62.5758 529.43 62.9973 529.515 63.4005C528.656 63.2722 527.809 63.315 526.974 63.5715C526.213 63.7976 525.463 64.1091 524.756 64.5245C524.616 64.5917 524.464 64.6955 524.324 64.781C524.123 64.2923 523.94 63.8098 523.751 63.315C523.519 62.7163 523.123 62.246 522.569 61.9161C522.014 61.5802 521.411 61.4824 520.771 61.5374C520.278 61.6046 519.815 61.7573 519.37 61.9711C519.358 61.348 519.352 60.7372 519.388 60.1263C519.394 59.7843 519.333 59.4666 519.163 59.1612C518.998 58.868 518.797 58.6114 518.498 58.4404C518.218 58.2571 517.907 58.1655 517.578 58.1533C517.383 58.1533 517.176 58.135 516.987 58.1228C516.969 57.8723 516.957 57.6524 516.92 57.4325C516.859 56.9316 516.64 56.5101 516.274 56.1741C515.909 55.8443 515.482 55.6732 514.976 55.6427C514.477 55.6305 513.977 55.6061 513.484 55.5572C513.471 54.5371 513.557 53.5414 513.733 52.5457C514.002 51.0552 514.117 49.5098 514.075 47.9765C514.05 46.9198 514.075 45.8447 514.136 44.7696C514.203 43.5234 514.398 42.2773 514.721 41.0556C514.989 39.9866 515.421 38.9665 516.018 38.038C516.116 37.8792 516.22 37.702 516.341 37.5615C517.316 37.3294 518.285 37.1339 519.278 36.9629C519.071 37.4455 518.962 37.9525 518.943 38.4717C518.943 39.0093 519.083 39.4918 519.394 39.9316C519.711 40.3409 520.132 40.6402 520.643 40.7746C521.521 40.9884 522.356 40.9395 523.184 40.5791C523.989 40.2065 524.628 39.6079 525.049 38.8382C525.104 38.716 525.171 38.6672 525.256 38.6C525.335 38.5511 525.439 38.5206 525.549 38.5206C525.64 38.5206 525.737 38.5511 525.835 38.5939C526.268 38.826 526.706 38.9176 527.188 38.8138C527.675 38.6916 528.053 38.4289 528.345 38.0258C528.425 37.9342 528.54 37.8609 528.662 37.8059C528.79 37.7937 528.93 37.7876 529.046 37.8609C529.692 38.1785 530.375 38.3068 531.087 38.2579C531.788 38.1846 532.452 37.9525 533.031 37.5493C533.184 37.4394 533.336 37.4088 533.5 37.3905C533.677 37.3722 533.848 37.4027 533.982 37.4577C534.524 37.6837 535.067 37.7509 535.615 37.6654C536.163 37.5676 536.651 37.36 537.09 36.9935C537.266 36.8224 537.394 36.6514 537.48 36.4193C537.547 36.2055 537.553 35.9794 537.522 35.7473C537.443 35.3869 537.339 35.0082 537.211 34.6967C537.735 34.6111 538.272 34.5623 538.808 34.5012C541.775 34.153 544.749 33.9881 547.723 34.0675C548.819 34.0919 549.916 34.1713 551.019 34.2813C550.727 34.3973 550.483 34.5928 550.264 34.831C550.081 35.0754 549.928 35.3319 549.855 35.6435C549.752 36.0283 549.758 36.407 549.867 36.7919C549.977 37.1706 550.19 37.5005 550.489 37.7631C550.781 38.0258 551.117 38.2152 551.513 38.2946C552.128 38.3984 552.744 38.4412 553.371 38.3862C553.487 38.3862 553.584 38.4228 553.682 38.4656C553.792 38.5023 553.871 38.5878 553.938 38.6489C554.383 39.2047 554.949 39.5285 555.65 39.6323C556.333 39.7239 556.966 39.5407 557.527 39.1131C557.612 39.0642 557.704 39.0215 557.807 39.0031C557.911 38.9909 557.996 39.0154 558.1 39.0642C558.203 39.1009 558.252 39.1498 558.331 39.2414C558.417 39.3758 558.532 39.4857 558.679 39.5468C558.807 39.614 558.959 39.6384 559.123 39.6384C560.074 39.5835 561.006 39.5102 561.951 39.4246C562.073 39.4246 562.17 39.4491 562.261 39.4918C562.365 39.559 562.432 39.6323 562.493 39.7423C562.639 40.0416 562.853 40.2615 563.115 40.4264C563.407 40.5791 563.724 40.6463 564.035 40.6158C564.553 40.5669 565.028 40.4386 565.491 40.2432C565.82 40.1027 566.088 39.9133 566.32 39.6629C566.533 39.4124 566.765 38.8504 566.874 38.5328C566.947 38.5756 567.045 38.6183 567.148 38.6672C567.685 38.8993 571.207 40.7074 571.749 41.0006C571.84 41.1167 572.456 41.2877 572.529 41.4099L573.035 42.0207C573.083 42.1002 575.113 49.5953 574.552 52.4113C574.448 52.9183 572.931 54.4393 572.931 54.4393C571.981 56.223 571.45 56.4673 571.176 56.9682C570.811 57.6402 570.622 58.3488 570.567 59.1184C570.542 59.6316 570.475 60.1752 570.384 60.7066C570.354 60.9143 570.262 61.0976 570.146 61.2686C570.018 61.458 569.878 61.5863 569.695 61.6718C569.159 61.9833 567.788 62.2888 567.222 62.5392C566.058 63.1256 565.077 63.9442 564.303 65.007L564.297 65.0254Z" fill="#F3CFB2"/>
<path d="M588.993 50.3646C588.774 49.3689 588.36 48.4587 587.714 47.6524C587.074 46.8278 586.282 46.2169 585.343 45.7954C584.24 45.2945 583.083 45.0074 581.9 44.9219C581.779 43.6269 581.638 42.3502 581.504 41.043C581.212 38.679 580.383 36.5227 578.957 34.6169C578.714 34.2504 578.421 33.89 578.129 33.5479C578.244 32.4728 578.177 31.4099 577.964 30.3654C577.507 28.264 576.752 26.3032 575.703 24.4462C574.375 22.1189 573.315 20.4024 570.89 17.8796C568.787 15.6988 565.85 13.8968 563.127 12.5896C560.622 11.429 558.02 10.5555 555.321 10.0179C554.955 9.93242 554.584 9.87133 554.212 9.79803C554.584 9.45596 554.949 9.08334 555.266 8.68018C555.376 8.57022 555.406 8.44805 555.449 8.28312C555.473 8.14874 555.449 8.00824 555.394 7.87386C555.339 7.73947 555.254 7.62952 555.138 7.53178C554.669 7.1836 554.145 6.9698 553.578 6.87817C553.852 6.93315 554.139 6.87817 554.395 6.756C554.645 6.62161 554.84 6.42003 554.986 6.16958C555.022 6.09628 555.028 6.01076 555.028 5.93746C555.028 5.84583 554.992 5.76031 554.949 5.69923C554.888 5.61982 554.833 5.57706 554.76 5.54041C554.517 5.45489 554.279 5.35105 554.047 5.2472C554.352 5.13114 554.663 5.0334 554.98 4.92345C555.077 4.91123 555.15 4.84404 555.205 4.75241C555.278 4.673 555.297 4.57527 555.278 4.47142C555.278 4.37369 555.23 4.28817 555.15 4.22708C554.961 4.04383 554.748 3.8789 554.517 3.72008C554.383 3.6651 554.236 3.63456 554.078 3.64067C553.913 3.67121 553.779 3.74451 553.688 3.87279C553.627 3.93387 553.56 3.97052 553.505 4.00107C553.432 4.03161 553.371 4.05604 553.28 4.05604C552.786 4.03772 552.311 3.86668 551.921 3.57347C552.292 3.5185 552.646 3.378 552.981 3.17031C553.091 3.08479 553.176 2.98706 553.249 2.86489C553.292 2.73661 553.322 2.60222 553.316 2.47394C553.298 2.33956 553.261 2.21128 553.194 2.08911C553.091 1.95472 552.969 1.83866 552.792 1.76536C552.609 1.69205 552.439 1.67373 552.268 1.70427C552.012 1.75925 551.817 1.8692 551.647 2.04024C551.482 2.20517 551.372 2.40675 551.342 2.65109C551.293 2.8771 551.196 3.06647 551.025 3.22529C551.183 2.7305 551.165 2.20517 550.964 1.7226C550.793 1.27668 550.733 0.806322 550.781 0.317642C550.787 0.250448 550.781 0.207689 550.751 0.146604C550.726 0.103844 550.696 0.061085 550.635 0.036651C550.586 0.0061085 550.519 0 550.471 0C550.007 0.061085 549.557 0.085519 549.1 0.0549765C549.039 0.0549765 548.978 0.073302 548.935 0.116061C548.88 0.152712 548.838 0.183255 548.813 0.24434C548.789 0.293208 548.789 0.360401 548.801 0.421486C548.886 0.842973 548.941 1.24613 548.984 1.66762C549.02 2.05246 548.941 2.39453 548.722 2.7305C548.118 2.5167 547.491 2.2968 546.869 2.083C546.498 1.96083 546.114 1.91196 545.718 1.95472C545.62 1.96694 545.523 1.96694 545.437 1.93639C545.34 1.89363 545.255 1.84477 545.188 1.77757C545.121 1.7226 545.047 1.69205 544.95 1.67984C544.865 1.67373 544.785 1.67984 544.694 1.72871C544.615 1.77757 544.56 1.84477 544.523 1.93029C544.408 2.16852 544.237 2.34566 543.987 2.46172C543.877 2.52892 543.762 2.62055 543.707 2.73661C543.634 2.84656 543.603 2.98095 543.615 3.12144C543.64 3.24972 543.701 3.37189 543.786 3.46963C543.256 3.33524 542.756 3.36578 542.226 3.57347C541.988 3.68342 541.739 3.81781 541.495 3.93387C541.422 3.97663 541.373 4.03772 541.349 4.0988C541.324 4.18432 541.324 4.25152 541.349 4.31871C541.373 4.3859 541.422 4.44088 541.495 4.48364L541.842 4.64246L541.044 4.8868C541.099 5.30829 541.166 5.70534 541.19 6.12072C541.202 6.19402 541.172 6.26732 541.141 6.3284C541.111 6.40171 541.044 6.44447 540.989 6.48112C540.916 6.50555 540.837 6.52388 540.77 6.51166C540.684 6.48723 540.63 6.45057 540.581 6.3956C540.465 6.27343 540.313 6.1818 540.148 6.13293C539.88 6.07796 539.624 6.08407 539.393 6.13904C539.435 6.6094 539.484 7.07975 539.527 7.55621C539.953 7.55621 540.38 7.50124 540.812 7.40961C540.861 7.39739 540.928 7.40961 540.971 7.43404C541.038 7.4768 541.062 7.544 541.093 7.58676C541.111 7.64784 541.105 7.70893 541.062 7.77001C540.825 8.24647 540.55 8.6985 540.209 9.11999C539.588 9.17496 538.96 9.22383 538.339 9.28492C533.848 9.79803 529.692 11.2091 525.829 13.5609C522.112 15.8393 518.961 18.7348 516.36 22.2349C513.855 25.619 511.826 29.2903 510.272 33.2119C510.199 33.2669 510.144 33.3158 510.108 33.3707C509.096 34.2931 508.206 35.3377 507.487 36.4861C507.134 37.0236 506.97 37.6161 506.957 38.2453L506.994 42.3502C506.439 42.6679 505.909 43.0527 505.41 43.4986C504.337 44.4882 503.557 45.6732 503.051 47.066C502.357 49.1856 502.314 51.3114 502.948 53.4371C503.612 55.5934 504.837 57.3466 506.61 58.7271C506.659 58.7454 506.689 58.7882 506.72 58.8126C506.427 59.8144 506.244 60.8529 506.208 61.9341C506.159 62.6427 505.897 63.2718 505.416 63.7911C504.124 65.1899 503.825 66.5704 503.563 68.4824C503.356 70.0156 503.789 72.123 504.118 73.2104C504.447 74.2916 504.666 75.0429 505.312 75.9775C505.952 76.906 507.506 78.1949 508.499 78.7263C508.852 78.9157 509.614 79.2028 509.76 79.5754C509.913 79.9175 509.943 80.284 509.852 80.6749C509.651 81.6279 509.541 82.6052 509.523 83.607C509.523 83.7536 509.571 83.9247 509.675 84.0652C509.754 84.2362 509.858 84.3523 510.016 84.4378C510.175 84.5233 510.339 84.56 510.516 84.5538C511.076 84.5294 511.619 84.4011 512.094 84.0835C512.137 84.6149 512.332 85.0609 512.703 85.4213C513.087 85.7694 513.544 85.9405 514.068 85.9405C514.751 85.9405 515.427 85.8305 516.091 85.6534C516.201 86.3497 516.451 87.0217 516.817 87.6325C517.188 88.2434 517.663 88.7626 518.242 89.1841C519.504 90.0576 520.881 90.4424 522.404 90.3019C522.886 92.275 523.94 93.8754 525.548 95.1032C527.181 96.3127 528.997 96.8625 531.032 96.7831C531.435 97.8704 532.044 98.8355 532.867 99.6357C533.701 100.454 534.658 101.065 535.761 101.432C537.418 101.994 539.088 102.14 540.819 101.865C542.525 101.59 544.085 100.906 545.486 99.8495C546.059 100.418 546.711 100.888 547.43 101.248C547.753 101.407 548.1 101.487 548.472 101.45C548.831 101.401 549.167 101.273 549.471 101.065C549.94 100.668 550.312 100.216 550.58 99.6846C550.867 99.1348 551.013 98.5484 551.031 97.9376C551.695 98.188 552.396 98.2735 553.103 98.1453C553.822 97.9864 554.45 97.6871 554.998 97.2046C556.278 97.6688 557.606 97.8093 558.965 97.6016C559.44 97.5344 559.854 97.345 560.202 97.0274C560.555 96.6792 560.787 96.2944 560.896 95.8301C561.018 95.2376 561.079 94.6512 561.055 94.0465C562.359 93.9732 563.651 93.8021 564.936 93.5761C565.46 93.4661 565.899 93.234 566.271 92.8736C566.636 92.4827 566.862 92.049 566.941 91.5236C567.039 90.9372 567.124 90.3386 567.167 89.7583C568.824 89.6056 570.774 88.8787 572.023 87.4859C573.187 86.1909 572.712 84.3401 573.522 83.5215C574.253 82.7885 576.812 83.3322 577.672 82.4525C578.421 81.689 577.263 79.3372 578.147 78.6591C580.657 76.7166 581.504 75.1468 581.974 74.2305C582.997 72.233 583.655 69.8385 583.363 67.786C582.991 65.2327 582.327 64.353 581.413 63.6933C580.913 63.3329 580.292 63.113 579.756 62.8626C579.951 62.6793 580.127 62.4472 580.261 62.2151C581.041 62.4166 581.809 62.3494 582.565 62.0501C584.155 61.3965 585.471 60.3642 586.513 59.0142C587.446 57.7864 588.177 56.4486 588.682 55.007C589.219 53.486 589.322 51.9589 588.999 50.3829L588.993 50.3646ZM513.928 28.7038C515.464 27.5982 517.042 26.5353 518.638 25.558C519.821 24.8616 520.997 24.2019 522.203 23.5849L521.569 22.3143C520.326 22.9496 519.114 23.6277 517.926 24.3424C517.158 24.8188 516.384 25.2953 515.647 25.7901C516.238 24.8677 516.865 23.9514 517.511 23.0657C519.997 19.7182 523.02 16.9511 526.578 14.7642C530.265 12.5163 534.225 11.1786 538.503 10.6899C540.843 10.4394 543.195 10.3356 545.559 10.3783C548.746 10.4272 551.903 10.7754 555.035 11.4107C557.624 11.936 560.104 12.7668 562.511 13.8846C564.485 14.8253 568.202 16.9511 569.982 18.8814C573.022 22.18 573.479 23.4261 574.466 25.1487C575.441 26.8774 576.148 28.7161 576.569 30.6647C576.685 31.1533 576.727 31.6542 576.77 32.1612C576.27 31.7153 575.758 31.2999 575.222 30.9151C572.553 28.997 568.824 27.531 565.716 26.4865C561.457 25.0632 557.082 24.1652 552.609 23.756C548.265 23.3833 543.914 23.1818 539.545 23.1756C536.45 23.1573 533.385 23.4261 530.344 23.9514C527.322 24.4951 524.378 25.3442 521.539 26.517C519.169 27.4821 516.884 28.6366 514.666 29.95C513.983 30.3531 513.301 30.7929 512.643 31.2877C513.051 30.4081 513.477 29.5529 513.934 28.7038H513.928ZM508.67 37.2435C509.364 36.1929 510.156 35.2399 511.07 34.3847C512.399 33.1569 513.837 32.0879 515.391 31.1595C517.548 29.8889 519.76 28.771 522.069 27.8364C524.811 26.6941 527.663 25.8817 530.588 25.3686C533.549 24.8433 536.51 24.5806 539.521 24.5867C543.853 24.6234 548.173 24.7944 552.475 25.1792C556.838 25.5702 561.11 26.4559 565.271 27.8303C568.233 28.8321 571.822 30.2371 574.393 32.0696C575.71 33.0287 576.855 34.1465 577.836 35.4537C579.098 37.1641 579.768 39.0944 580.079 41.2079C580.237 42.3014 580.389 44.4271 580.389 44.4271L579.353 45.0624C579.292 44.4088 579.213 43.7552 579.128 43.1016C578.945 41.9226 578.647 40.7559 578.202 39.6503C577.501 37.9093 576.368 36.5288 574.771 35.5515C572.961 34.4764 571.036 33.6517 569.001 33.0958L568.635 34.4642C570.542 34.9895 572.346 35.7714 574.04 36.7854C575.362 37.5917 576.319 38.734 576.886 40.1756C577.172 40.9453 577.586 41.9898 577.568 42.7534C574.101 40.1267 570.213 38.4164 570.012 38.3247L568.483 37.6161C563.968 35.5454 558.453 34.0854 553.572 33.2302C551.647 32.8882 549.684 32.6988 547.741 32.656C544.694 32.6072 541.659 32.7416 538.637 33.102C533.372 33.7128 528.095 34.3481 522.831 35.0017C520.07 35.3621 517.341 35.8569 514.641 36.5044C513.52 36.7793 512.545 37.3107 511.741 38.117C510.839 39.0089 510.175 40.0779 509.754 41.2629C509.303 41.3729 508.846 41.495 508.414 41.6722L508.383 38.227C508.383 37.8849 508.469 37.5489 508.663 37.2496L508.67 37.2435ZM579.408 49.1673C579.512 49.1368 579.609 49.1001 579.707 49.0635C580.334 48.8497 580.999 48.8008 581.675 48.9108C581.968 48.9779 582.236 49.1062 582.467 49.2895C582.699 49.4788 582.869 49.7232 582.979 50.0103C583.259 50.8166 583.345 51.6413 583.204 52.4781C583.15 52.7835 583.04 53.0523 582.882 53.2844C582.699 53.5471 582.492 53.7426 582.23 53.8892C581.785 54.1396 581.309 54.2313 580.779 54.103C580.773 54.103 580.767 54.0969 580.731 54.0847C580.731 54.0724 580.731 54.0602 580.731 54.0297C580.682 53.6571 580.536 53.3028 580.31 53.0096C580.06 52.7041 579.743 52.4964 579.39 52.3804C579.28 52.3437 579.189 52.3193 579.073 52.2949C579.244 51.2503 579.353 50.1996 579.414 49.1612L579.408 49.1673ZM577.818 51.8062C577.513 52.5636 576.91 53.5532 575.935 54.5917C576.179 50.3585 575.85 46.1925 574.655 42.6618C574.503 42.2219 575.313 42.5579 575.667 42.8633C576.477 43.3703 577.215 43.7063 577.775 44.366C578.007 45.4717 578.08 46.8522 578.177 48.2205C578.275 49.5888 578.244 50.7311 577.818 51.8062ZM567.66 71.5366C567.739 71.7749 567.715 72.007 567.611 72.2208C567.49 72.4529 567.325 72.6056 567.1 72.6972C566.496 72.8866 565.911 72.8927 565.308 72.7156C565.009 72.6178 564.699 72.6239 564.376 72.7339C564.071 72.85 563.846 73.0454 563.663 73.3325C563.376 73.809 563.041 74.2244 562.633 74.6031C562.377 74.8413 562.097 75.0002 561.768 75.104C561.451 75.1895 561.122 75.2201 560.793 75.159C559.94 75.0368 559.166 74.7436 558.447 74.2488C558.148 74.0717 557.85 73.9922 557.502 74.035C557.155 74.0717 556.881 74.2244 556.643 74.4443C556.095 75.0185 555.467 75.4583 554.718 75.7393C553.999 76.0325 553.237 76.1547 552.451 76.0997C551.22 76.0203 550.142 75.5316 549.258 74.6764C549.051 74.4443 548.783 74.3099 548.478 74.2488C548.179 74.2122 547.905 74.2488 547.619 74.3893C547.345 74.5237 547.131 74.7314 546.991 75.0002C546.784 75.4094 546.479 75.7148 546.089 75.947C545.919 76.0386 545.766 76.0875 545.578 76.0936C545.383 76.0936 545.224 76.0325 545.072 75.9409C544.603 75.6477 544.176 75.2873 543.823 74.8535C543.628 74.6092 543.384 74.4565 543.079 74.3771C542.781 74.2977 542.47 74.3221 542.196 74.4382C541.903 74.5665 541.69 74.7436 541.519 75.0063C541.367 75.2445 541.209 75.4461 541.001 75.611C540.91 75.7087 540.782 75.7637 540.66 75.8126C540.532 75.8492 540.404 75.8492 540.27 75.8309C540.209 75.8309 540.154 75.7943 540.106 75.7637C540.057 75.7454 540.002 75.6904 539.959 75.6354C539.649 75.1712 539.387 74.6886 539.167 74.1816C539.039 73.8884 538.85 73.6502 538.558 73.4913C538.29 73.3386 537.997 73.2837 537.674 73.3264C537.357 73.357 537.095 73.4914 536.87 73.7113C536.529 74.035 536.206 74.3526 535.871 74.6397C535.755 74.7619 535.615 74.8108 535.456 74.8352C535.31 74.8658 535.17 74.8535 535.018 74.7986C534.871 74.7069 534.749 74.6336 534.664 74.4993C534.42 74.145 534.14 73.864 533.781 73.6441C533.415 73.4119 533.025 73.2898 532.611 73.2287C532.251 73.192 531.904 73.2714 531.599 73.4975C530.716 74.1205 529.765 74.5359 528.699 74.7375C528.607 74.7558 528.504 74.7375 528.406 74.7192C528.321 74.6947 528.242 74.6581 528.162 74.5909C527.955 74.4137 527.803 74.1938 527.712 73.9312C527.596 73.6563 527.419 73.4181 527.157 73.2409C526.889 73.076 526.615 73.0027 526.316 73.0088C526.012 73.0271 525.725 73.1248 525.487 73.3264C524.811 73.8823 524.092 74.3465 523.318 74.7253C522.873 74.9207 522.422 74.9757 521.953 74.8963C521.886 74.8841 521.831 74.8474 521.777 74.7986C521.246 74.2305 520.905 73.583 520.655 72.8438C520.582 72.5812 520.43 72.3491 520.229 72.178C520.016 71.9826 519.778 71.8909 519.51 71.836C518.687 71.7321 517.926 71.4939 517.17 71.1518C515.744 70.4615 514.495 69.5392 513.453 68.348C512.996 67.8227 512.746 67.224 512.661 66.5338C512.624 66.0512 512.685 65.5686 512.892 65.1166C512.947 65.0128 513.008 64.9089 513.13 64.8356C513.234 64.7684 513.355 64.7501 513.477 64.7684C513.697 64.7684 513.879 64.86 514.038 65.0066C514.903 65.8374 515.793 66.6498 516.707 67.4134C517.139 67.7616 517.609 68.0242 518.145 68.177C518.669 68.3113 519.211 68.3541 519.754 68.2747C520.192 68.2319 520.613 68.1342 521.058 68.012C521.582 67.8654 522.075 67.67 522.557 67.4134C523.556 66.8881 524.549 66.3322 525.524 65.7519C526.115 65.3976 526.737 65.1349 527.389 64.9517C528.132 64.7379 528.857 64.7073 529.601 64.8539C529.789 64.9028 529.984 64.9272 530.192 64.9761C530.825 65.9901 531.697 66.7048 532.824 67.1202C534.152 67.5905 535.505 67.7188 536.894 67.4867C537.626 67.3584 538.253 67.0225 538.777 66.4971C539.478 65.7641 540.27 65.1533 541.148 64.6462C541.257 65.2693 541.458 65.8924 541.702 66.4727C541.873 66.8942 542.147 67.2485 542.513 67.5172C542.89 67.8104 543.286 67.9632 543.737 68.0365C545.005 68.2136 546.205 68.0487 547.369 67.5661C547.668 67.4378 547.936 67.2301 548.143 66.9614C548.35 66.6987 548.496 66.3872 548.545 66.0573C548.655 65.4098 548.892 64.8173 549.27 64.2736C549.575 64.8112 549.867 65.3304 550.178 65.8679C550.556 66.4788 551.092 66.8881 551.775 67.0896C552.591 67.3218 553.438 67.3584 554.285 67.2301C555.144 67.0958 555.924 66.8025 556.643 66.3505C557.186 65.984 557.673 65.5625 558.112 65.0799C558.301 64.9761 558.49 64.915 558.703 64.8295C559.464 64.5546 560.244 64.4935 561.049 64.6707C561.749 64.8478 562.377 65.1655 562.901 65.6664C563.553 66.2467 564.193 66.8453 564.814 67.4684C565.186 67.8227 565.613 68.0242 566.118 68.0853C566.63 68.1464 567.1 68.067 567.526 67.8166C567.977 67.56 568.288 67.1935 568.489 66.7109C568.519 66.6559 568.568 66.5949 568.617 66.546C568.666 66.491 568.733 66.4483 568.794 66.4299C569.64 66.1001 570.512 65.929 571.42 65.8802C571.511 65.8802 571.578 65.8985 571.651 65.9351C571.724 65.9474 571.804 66.0023 571.846 66.0573C571.95 66.1489 571.986 66.2711 572.011 66.3872C572.011 66.5216 571.968 66.6376 571.883 66.7476C570.865 68.0059 569.665 69.0627 568.282 69.924C568.02 70.1011 567.837 70.321 567.709 70.6387C567.605 70.9502 567.593 71.2617 567.685 71.5672L567.66 71.5366ZM513.362 40.7131C513.307 40.872 513.282 41.0064 513.24 41.1407C512.624 41.043 511.991 41.0186 511.369 41.0491C511.71 40.3283 512.173 39.693 512.746 39.1249C513.197 38.6668 513.745 38.2942 514.379 38.056C513.928 38.905 513.593 39.7785 513.355 40.707L513.362 40.7131ZM520.357 38.5446C520.375 38.0437 520.515 37.5978 520.783 37.1763C520.881 36.987 521.021 36.8343 521.167 36.6754C521.783 36.5777 522.392 36.5044 523.001 36.4067C527.236 35.8935 531.471 35.3743 535.706 34.8856C535.889 35.2277 536.023 35.5942 536.114 35.9668C535.895 36.1562 535.639 36.2539 535.353 36.2967C535.079 36.3272 534.823 36.2845 534.548 36.1806C534.183 36.0157 533.768 35.9546 533.372 35.9913C532.946 36.034 532.55 36.1745 532.215 36.425C531.843 36.6632 531.435 36.822 530.965 36.8648C530.515 36.8831 530.088 36.7976 529.674 36.6082C529.247 36.3944 528.778 36.3578 528.297 36.4677C527.84 36.5899 527.462 36.8587 527.175 37.2557C527.102 37.3657 527.005 37.4146 526.901 37.4512C526.779 37.4695 526.657 37.4512 526.554 37.3901C526.243 37.213 525.902 37.1152 525.536 37.1152C525.165 37.1152 524.823 37.2252 524.506 37.4085C524.202 37.61 523.964 37.8544 523.775 38.1781C523.513 38.7034 523.111 39.0455 522.605 39.2899C522.087 39.5037 521.551 39.5647 521.009 39.4181C520.802 39.3571 520.643 39.2532 520.527 39.0944C520.412 38.9172 520.357 38.7401 520.357 38.5385V38.5446ZM504.307 53.0218C503.764 51.1831 503.789 49.32 504.416 47.5119C504.819 46.3635 505.471 45.3739 506.372 44.5493C507.591 43.462 509.017 42.79 510.644 42.5518C511.424 42.4357 512.192 42.4296 512.972 42.5335C512.856 43.2604 512.777 43.9812 512.722 44.7081C512.703 45.1052 512.685 45.4839 512.673 45.8565C512.204 45.5144 511.68 45.319 511.095 45.2457C510.522 45.1846 509.961 45.2579 509.413 45.49C508.956 45.6855 508.554 45.997 508.231 46.3879C507.92 46.7728 507.689 47.2126 507.603 47.7196C507.317 49.0207 507.329 50.3279 507.634 51.6229C507.731 52.0811 507.969 52.4598 508.347 52.7591C508.505 52.9118 508.7 52.9851 508.907 53.0523C509.114 53.1195 509.34 53.1256 509.553 53.1012C509.492 54.4451 509.297 55.7706 508.956 57.0656C508.895 57.2611 508.785 57.4321 508.615 57.5482C508.45 57.6948 508.267 57.762 508.054 57.762C507.835 57.762 507.658 57.6826 507.463 57.5604C505.94 56.3937 504.886 54.8727 504.313 53.0157L504.307 53.0218ZM512.667 48.5687C512.289 48.6725 512.003 48.9046 511.783 49.2223C511.186 50.1996 510.406 51.0182 509.45 51.6718C509.431 51.6962 509.389 51.7084 509.334 51.7084C509.291 51.7084 509.248 51.6962 509.212 51.6596C509.102 51.5557 509.029 51.4275 508.986 51.3053C508.731 50.2058 508.724 49.1184 508.962 48.025C509.023 47.7318 509.139 47.4997 509.315 47.2859C509.486 47.066 509.705 46.9072 509.967 46.7911C510.321 46.6567 510.668 46.6201 511.046 46.6689C511.412 46.7361 511.728 46.8888 512.003 47.1515C512.192 47.3164 512.411 47.4386 512.655 47.5363V48.5687H512.667ZM587.348 54.5061C586.879 55.8256 586.221 57.0106 585.386 58.1224C584.496 59.3013 583.363 60.1626 582.016 60.7246C581.541 60.914 581.035 60.9506 580.548 60.8101C580.523 60.3214 580.341 59.8816 580.036 59.4846C579.932 59.338 579.823 59.173 579.713 59.0264C579.445 58.6538 579.116 58.324 578.732 58.0735C578.22 57.7131 577.714 57.3344 577.227 56.9373C577.166 56.5647 577.123 56.1799 577.105 55.8072C577.099 55.3308 577.172 54.8849 577.373 54.4573C577.507 54.1702 577.714 53.938 578.019 53.8037C578.324 53.6632 578.622 53.6448 578.939 53.7426C579.043 53.7792 579.122 53.8403 579.189 53.9136C579.256 53.9869 579.28 54.0969 579.299 54.1763C579.329 54.5122 579.445 54.7932 579.676 55.0376C579.89 55.2819 580.146 55.4346 580.475 55.5079C581.328 55.6912 582.156 55.5751 582.942 55.1353C583.369 54.8788 583.735 54.5428 584.033 54.1213C584.332 53.6998 584.508 53.2356 584.576 52.7225C584.758 51.6413 584.667 50.5784 584.289 49.5338C584.088 49.0085 583.789 48.5687 583.357 48.2022C582.942 47.8601 582.437 47.628 581.888 47.518C581.06 47.3958 580.249 47.4203 579.445 47.6707C579.445 47.2737 579.439 46.8949 579.433 46.5101C581.248 46.1619 583.034 46.3452 584.746 47.0965C585.465 47.4386 586.093 47.9212 586.605 48.5565C587.098 49.1856 587.433 49.8942 587.61 50.6761C587.854 51.9711 587.775 53.2539 587.336 54.5122L587.348 54.5061Z" fill="#1E22B0"/>
<path d="M577.318 63.3573C577.196 63.1741 577.135 62.9969 577.172 62.7709C577.202 62.5693 577.306 62.3983 577.458 62.2578C577.604 62.1234 577.799 62.0685 578.013 62.0685C578.293 62.0807 578.549 61.989 578.768 61.818C578.969 61.6164 579.097 61.3904 579.128 61.0972C579.17 60.8162 579.085 60.578 578.927 60.3459C578.793 60.1809 578.671 60.0221 578.555 59.8572C578.39 59.6128 578.177 59.4113 577.921 59.2402C576.367 58.1529 575.965 56.2959 574.838 54.2923C574.826 54.2679 574.795 54.2801 574.777 54.3046C573.717 55.3674 572.754 56.9617 572.388 57.6398C572.145 58.1346 571.992 58.6477 571.974 59.2097C571.925 59.8083 571.877 60.3886 571.755 60.9811C571.688 61.3965 571.529 61.7814 571.279 62.099C571.036 62.4655 570.731 62.7404 570.353 62.9359C569.793 63.2535 569.232 63.5528 568.635 63.8338C567.629 64.3408 565.972 65.0677 565.326 65.9962C565.466 66.1306 565.625 66.2833 565.765 66.436C565.899 66.5643 566.057 66.6498 566.258 66.6743C566.447 66.6865 566.612 66.662 566.776 66.5582C566.953 66.4544 567.081 66.3322 567.13 66.1673C567.239 65.9107 567.386 65.6969 567.575 65.5136C567.763 65.3243 567.971 65.1777 568.233 65.0922C569.226 64.7134 570.25 64.4874 571.328 64.4447C571.608 64.4447 571.877 64.4691 572.139 64.5852C572.394 64.6951 572.626 64.8539 572.821 65.0555C573.156 65.4098 573.345 65.813 573.369 66.3139C573.375 66.7964 573.223 67.2546 572.955 67.6333C571.816 69.0016 570.499 70.1622 568.994 71.1151C569.189 71.7138 569.128 72.3002 568.854 72.8866C568.562 73.4486 568.111 73.8395 567.52 74.0411C566.642 74.3404 565.753 74.3465 564.875 74.0655C564.516 74.6642 564.083 75.2078 563.559 75.666C563.157 76.0447 562.688 76.3074 562.151 76.4601C561.633 76.625 561.103 76.6678 560.561 76.5884C559.489 76.4356 558.526 76.0386 557.636 75.4644C557.277 75.8248 556.046 77.8162 552.055 77.4313C550.781 77.1748 549.154 76.6067 548.228 75.6721C547.899 76.3196 547.411 76.8266 546.772 77.187C546.406 77.413 546.528 77.523 546.089 77.523C545.644 77.523 544.688 77.3947 544.316 77.1687C543.676 76.7899 543.158 76.3196 542.695 75.7576C542.5 76.1302 542.226 76.4234 541.909 76.6983C541.647 76.9304 541.355 77.1015 541.025 77.1748C540.69 77.2847 540.355 77.2969 540.026 77.242C539.77 77.2053 539.533 77.1137 539.325 76.9732C539.1 76.8449 538.923 76.6861 538.771 76.454C538.399 75.9286 538.082 75.3544 537.832 74.7375C537.491 75.0734 537.138 75.4094 536.778 75.7271C536.468 76.0142 536.071 76.1852 535.663 76.2585C535.225 76.3379 534.816 76.2707 534.426 76.1119C534.03 75.9347 533.719 75.6782 533.47 75.3178C533.342 75.1345 533.189 75.0001 533.006 74.8719C532.812 74.7436 532.61 74.6825 532.397 74.6703C531.361 75.4155 530.191 75.9042 528.924 76.1424C528.625 76.2096 528.315 76.1913 527.998 76.118C527.699 76.0386 527.425 75.892 527.193 75.6782C526.816 75.3422 526.529 74.9268 526.34 74.4565C525.591 75.0673 524.762 75.5866 523.879 76.0081C523.16 76.3501 522.416 76.4418 521.648 76.3135C521.264 76.2218 520.941 76.0508 520.704 75.7881C520.046 75.049 519.546 74.2121 519.26 73.2653C518.297 73.1432 517.395 72.8622 516.518 72.4529C514.915 71.6954 513.52 70.6326 512.344 69.3009C511.698 68.5435 511.32 67.6822 511.21 66.6926C511.149 65.9535 511.253 65.2449 511.552 64.5607C511.716 64.1698 511.984 63.8705 512.338 63.6506C512.703 63.4306 513.093 63.339 513.532 63.3635C514.092 63.4001 514.58 63.6017 515 64.0048C515.817 64.8173 516.682 65.5869 517.572 66.3261C517.846 66.546 518.151 66.717 518.498 66.8086C518.827 66.8942 519.18 66.9308 519.522 66.882C519.9 66.8331 520.265 66.7537 520.631 66.6559C521.057 66.5154 521.453 66.3627 521.856 66.1489C522.258 65.9351 522.66 65.7152 523.068 65.4953C522.843 64.9456 522.617 64.3836 522.41 63.8399C522.294 63.5528 522.105 63.3207 521.825 63.1435C521.551 62.9786 521.252 62.9175 520.948 62.9542C520.515 63.0153 520.119 63.1558 519.753 63.3757C519.485 63.5223 519.199 63.6139 518.894 63.6444C518.602 63.6689 518.315 63.6322 518.035 63.5284C517.931 62.38 517.901 61.2133 517.956 60.071C517.956 59.9916 517.944 59.9122 517.907 59.845C517.864 59.7778 517.803 59.7045 517.749 59.6678C517.675 59.6189 517.602 59.6067 517.511 59.6067C516.883 59.564 516.25 59.5273 515.616 59.4418C515.616 58.8248 515.573 58.2201 515.506 57.6276C515.506 57.4688 515.415 57.3405 515.305 57.2488C515.214 57.1572 515.074 57.1145 514.939 57.09C513.983 57.0717 513.038 56.974 512.094 56.809C511.996 55.3002 512.069 53.8037 512.325 52.3376C512.435 51.7634 512.502 51.1709 512.563 50.5845C512.088 51.2381 511.552 51.8001 510.967 52.3071C510.967 54.0602 510.753 55.7645 510.308 57.4504C510.162 57.9513 509.888 58.3728 509.48 58.6904C509.078 59.0081 508.602 59.1852 508.078 59.1852C507.792 60.1015 507.627 61.0178 507.597 61.9707C507.542 63.0275 507.158 63.956 506.427 64.7318C505.348 65.9351 505.178 67.0408 504.952 68.6473C504.763 70.04 505.123 71.8421 505.428 72.8561C505.519 73.1493 505.897 74.3893 506.463 75.1529C506.835 75.6476 506.835 75.7943 508.249 76.9976C508.828 77.4924 510.656 78.0849 511.04 79.0012C511.314 79.6487 511.357 80.2901 511.216 80.9681C511.064 81.6401 510.967 82.3548 510.942 83.0512C511.082 83.0084 511.229 82.9473 511.344 82.8679C511.631 82.6969 511.948 82.6236 512.289 82.6785C512.618 82.7335 512.886 82.874 513.118 83.1367C513.349 83.3749 513.477 83.6681 513.489 84.0102C513.508 84.1385 513.55 84.2667 513.654 84.3645C513.77 84.4378 513.885 84.505 514.019 84.505C514.598 84.505 515.147 84.4072 515.695 84.2667C515.957 84.1996 516.219 84.1995 516.475 84.2729C516.743 84.3523 516.962 84.505 517.139 84.7127C517.304 84.9081 517.419 85.1403 517.468 85.4151C517.541 85.9466 517.718 86.423 517.992 86.8751C518.291 87.3271 518.626 87.7058 519.065 88.0174C520.015 88.7015 521.063 88.9703 522.233 88.8787C522.575 88.8298 522.916 88.9092 523.196 89.1169C523.489 89.3185 523.671 89.6056 523.751 89.9354C524.159 91.5847 525.03 92.9164 526.365 93.9365C527.73 94.9322 529.241 95.4086 530.929 95.3353C531.239 95.3048 531.526 95.3964 531.788 95.5614C532.044 95.7446 532.227 95.9767 532.336 96.2638C532.653 97.1557 533.153 97.9437 533.835 98.6034C534.481 99.2753 535.292 99.7518 536.181 100.051C537.595 100.552 539.057 100.674 540.538 100.436C542.025 100.185 543.371 99.5991 544.572 98.7011C544.852 98.4873 545.151 98.3835 545.51 98.4079C545.858 98.4385 546.156 98.5606 546.424 98.8111C546.893 99.2753 547.417 99.6479 548.027 99.9534C548.112 99.99 548.191 100.008 548.295 100.008C548.38 99.99 548.472 99.9534 548.557 99.8984C548.862 99.6724 549.105 99.3547 549.282 99.0127C549.465 98.6645 549.556 98.2919 549.556 97.8887C549.562 97.5833 549.684 97.3023 549.855 97.0579C550.044 96.7953 550.294 96.6303 550.598 96.5387C550.897 96.4776 551.189 96.4776 551.494 96.5998C551.921 96.7525 552.359 96.7831 552.804 96.7098C553.261 96.6242 553.663 96.4288 554.004 96.1172C554.206 95.934 554.425 95.8301 554.681 95.7813C554.937 95.7446 555.193 95.7507 555.436 95.8485C556.503 96.2027 557.594 96.3432 558.721 96.1722C558.916 96.1356 559.074 96.0684 559.202 95.9523C559.33 95.824 559.434 95.6591 559.464 95.4758C559.574 95.0116 559.617 94.5596 559.586 94.0648C559.586 93.6799 559.696 93.3623 559.952 93.0691C560.22 92.7881 560.537 92.6293 560.914 92.6109C562.176 92.5254 563.419 92.3544 564.65 92.1345C564.863 92.1039 565.064 92.0062 565.21 91.8413C565.375 91.6825 565.472 91.487 565.503 91.2671C565.637 90.4669 565.643 90.3203 565.765 88.8909C565.893 87.4554 567.897 88.2556 570.024 86.869C571.931 85.2685 571.401 83.9186 571.608 83.0084C571.968 81.4507 574.935 82.2021 576.288 81.2919C577.032 80.791 575.728 78.6225 576.55 77.9567C577.318 77.3336 578.671 76.3746 579.055 75.8859C580.633 73.8701 580.432 74.2855 581.169 72.6667C582.053 70.7303 582.126 69.5819 581.931 67.8593C581.791 66.8209 581.833 66.0756 580.663 64.9456C579.816 64.1331 578.719 63.8644 577.781 63.6628C577.58 63.62 577.415 63.5101 577.294 63.3573H577.318Z" fill="white"/>
<path d="M564.297 65.0254C564.138 64.8726 563.986 64.7383 563.828 64.5917C563.121 63.938 562.286 63.5105 561.341 63.2844C560.659 63.1073 559.964 63.1012 559.264 63.1928C559.477 62.6247 559.568 62.0688 559.556 61.4641C559.519 60.8533 559.367 60.2913 559.093 59.7476C558.91 59.4055 558.697 59.0574 558.477 58.7153C559.599 58.8985 560.689 58.7703 561.737 58.3121C563.115 57.7135 564.242 56.8094 565.168 55.6244L564.035 54.7692C563.273 55.7588 562.322 56.504 561.177 57.0293C560.092 57.4753 559.008 57.5058 557.905 57.1026C556.826 56.7056 555.845 56.1253 554.968 55.3739C553.627 54.1767 552.719 52.7228 552.28 50.9819C551.872 49.4853 551.769 47.9643 551.927 46.4128C551.964 45.9607 552.092 45.5454 552.317 45.1422C552.567 44.7512 552.859 44.4153 553.225 44.1648C553.968 43.6273 554.821 43.3219 555.735 43.2241C557.911 43.0286 559.989 43.3829 561.951 44.3359L562.578 43.0836C560.354 42.0024 558.039 41.5748 555.577 41.8008C554.419 41.9474 553.359 42.3262 552.427 43.0042C551.866 43.3768 551.427 43.8472 551.098 44.4275C550.769 45.0078 550.556 45.6309 550.507 46.2784C550.337 48.001 550.471 49.6747 550.891 51.3362C551.433 53.3642 552.463 55.0624 554.041 56.4429C554.59 56.9255 555.187 57.3531 555.815 57.7135C556.643 58.4954 557.32 59.3994 557.85 60.4012C558.033 60.7922 558.13 61.1953 558.136 61.6229C558.136 62.0566 558.051 62.472 557.874 62.8568C557.381 63.8037 556.716 64.5672 555.833 65.1353C555.272 65.4957 554.681 65.7278 554.048 65.8317C553.396 65.9294 552.75 65.8805 552.116 65.7156C551.793 65.6301 551.549 65.4224 551.366 65.1414C551.068 64.6344 550.775 64.1152 550.495 63.596C550.331 63.3211 550.099 63.1012 549.788 62.9668C549.496 62.8446 549.185 62.8202 548.862 62.9057C548.545 62.9973 548.289 63.1745 548.1 63.4433C547.576 64.1702 547.253 64.9521 547.107 65.8439C547.095 65.9172 547.064 66.021 547.004 66.0943C546.93 66.1615 546.869 66.2165 546.76 66.2654C545.858 66.638 544.901 66.7663 543.908 66.638C543.707 66.6136 543.518 66.5342 543.347 66.4059C543.171 66.2654 543.043 66.1005 542.976 65.9233C542.75 65.4163 542.616 64.9276 542.519 64.3962C542.452 64.0969 542.318 63.8342 542.08 63.6082C541.861 63.4127 541.593 63.2844 541.264 63.2478C540.971 63.1989 540.691 63.2783 540.41 63.4188C539.435 63.9869 538.528 64.6894 537.742 65.5018C537.425 65.8011 537.053 66.0027 536.626 66.076C535.475 66.2776 534.372 66.1676 533.269 65.7889C532.526 65.5018 531.916 65.0498 531.465 64.384C531.027 63.7304 530.807 63.0034 530.807 62.2093C530.85 61.2625 531.173 60.4501 531.837 59.7598C532.361 59.2223 532.922 58.7275 533.494 58.2694C534.591 57.4142 535.42 56.333 536.011 55.0563C537.096 52.6618 537.991 50.1939 538.71 47.665C538.863 47.1213 538.887 46.5655 538.79 45.9852C538.68 45.4171 538.448 44.9223 538.095 44.4519C536.962 43.0286 535.505 42.1735 533.695 41.9108C530.32 41.4649 526.987 41.8314 523.769 42.9553L524.251 44.2748C527.261 43.218 530.356 42.9004 533.513 43.3157C534.932 43.5295 536.078 44.2015 536.968 45.3377C537.187 45.5942 537.333 45.918 537.394 46.2417C537.449 46.596 537.437 46.9381 537.345 47.2741C536.639 49.7175 535.761 52.1364 534.713 54.4638C534.22 55.5083 533.543 56.4063 532.611 57.1393C531.971 57.628 531.386 58.1655 530.819 58.7336C529.905 59.7049 529.43 60.8594 529.394 62.1666C529.381 62.5758 529.43 62.9973 529.515 63.4005C528.656 63.2722 527.809 63.315 526.974 63.5715C526.213 63.7976 525.463 64.1091 524.756 64.5245C524.616 64.5917 524.464 64.6955 524.324 64.781C524.123 64.2923 523.94 63.8098 523.751 63.315C523.519 62.7163 523.123 62.246 522.569 61.9161C522.014 61.5802 521.411 61.4824 520.771 61.5374C520.278 61.6046 519.815 61.7573 519.37 61.9711C519.358 61.348 519.352 60.7372 519.388 60.1263C519.394 59.7843 519.333 59.4666 519.163 59.1612C518.998 58.868 518.797 58.6114 518.498 58.4404C518.218 58.2571 517.907 58.1655 517.578 58.1533C517.383 58.1533 517.176 58.135 516.987 58.1228C516.969 57.8723 516.957 57.6524 516.92 57.4325C516.859 56.9316 516.64 56.5101 516.274 56.1741C515.909 55.8443 515.482 55.6732 514.976 55.6427C514.477 55.6305 513.977 55.6061 513.484 55.5572C513.471 54.5371 513.557 53.5414 513.733 52.5457C514.002 51.0552 514.117 49.5098 514.075 47.9765C514.05 46.9198 514.075 45.8447 514.136 44.7696C514.203 43.5234 514.398 42.2773 514.721 41.0556C514.989 39.9866 515.421 38.9665 516.018 38.038C516.116 37.8792 516.22 37.702 516.341 37.5615C517.316 37.3294 518.285 37.1339 519.278 36.9629C519.071 37.4455 518.962 37.9525 518.943 38.4717C518.943 39.0093 519.083 39.4918 519.394 39.9316C519.711 40.3409 520.132 40.6402 520.643 40.7746C521.521 40.9884 522.356 40.9395 523.184 40.5791C523.989 40.2065 524.628 39.6079 525.049 38.8382C525.104 38.716 525.171 38.6672 525.256 38.6C525.335 38.5511 525.439 38.5206 525.549 38.5206C525.64 38.5206 525.737 38.5511 525.835 38.5939C526.268 38.826 526.706 38.9176 527.188 38.8138C527.675 38.6916 528.053 38.4289 528.345 38.0258C528.425 37.9342 528.54 37.8609 528.662 37.8059C528.79 37.7937 528.93 37.7876 529.046 37.8609C529.692 38.1785 530.375 38.3068 531.087 38.2579C531.788 38.1846 532.452 37.9525 533.031 37.5493C533.184 37.4394 533.336 37.4088 533.5 37.3905C533.677 37.3722 533.848 37.4027 533.982 37.4577C534.524 37.6837 535.067 37.7509 535.615 37.6654C536.163 37.5676 536.651 37.36 537.09 36.9935C537.266 36.8224 537.394 36.6514 537.48 36.4193C537.547 36.2055 537.553 35.9794 537.522 35.7473C537.443 35.3869 537.339 35.0082 537.211 34.6967C537.735 34.6111 538.272 34.5623 538.808 34.5012C541.775 34.153 544.749 33.9881 547.723 34.0675C548.819 34.0919 549.916 34.1713 551.019 34.2813C550.727 34.3973 550.483 34.5928 550.264 34.831C550.081 35.0754 549.928 35.3319 549.855 35.6435C549.752 36.0283 549.758 36.407 549.867 36.7919C549.977 37.1706 550.19 37.5005 550.489 37.7631C550.781 38.0258 551.117 38.2152 551.513 38.2946C552.128 38.3984 552.744 38.4412 553.371 38.3862C553.487 38.3862 553.584 38.4228 553.682 38.4656C553.792 38.5023 553.871 38.5878 553.938 38.6489C554.383 39.2047 554.949 39.5285 555.65 39.6323C556.333 39.7239 556.966 39.5407 557.527 39.1131C557.612 39.0642 557.704 39.0215 557.807 39.0031C557.911 38.9909 557.996 39.0154 558.1 39.0642C558.203 39.1009 558.252 39.1498 558.331 39.2414C558.417 39.3758 558.532 39.4857 558.679 39.5468C558.807 39.614 558.959 39.6384 559.123 39.6384C560.074 39.5835 561.006 39.5102 561.951 39.4246C562.073 39.4246 562.17 39.4491 562.261 39.4918C562.365 39.559 562.432 39.6323 562.493 39.7423C562.639 40.0416 562.853 40.2615 563.115 40.4264C563.407 40.5791 563.724 40.6463 564.035 40.6158C564.553 40.5669 565.028 40.4386 565.491 40.2432C565.82 40.1027 566.088 39.9133 566.32 39.6629C566.533 39.4124 566.765 38.8504 566.874 38.5328C566.947 38.5756 567.045 38.6183 567.148 38.6672C567.685 38.8993 571.207 40.7074 571.749 41.0006C571.84 41.1167 572.456 41.2877 572.529 41.4099L573.035 42.0207C573.083 42.1002 575.113 49.5953 574.552 52.4113C574.448 52.9183 572.931 54.4393 572.931 54.4393C571.981 56.223 571.45 56.4673 571.176 56.9682C570.811 57.6402 570.622 58.3488 570.567 59.1184C570.542 59.6316 570.475 60.1752 570.384 60.7066C570.354 60.9143 570.262 61.0976 570.146 61.2686C570.018 61.458 569.878 61.5863 569.695 61.6718C569.159 61.9833 567.788 62.2888 567.222 62.5392C566.058 63.1256 565.077 63.9442 564.303 65.007L564.297 65.0254Z" fill="white"/>
<path d="M577.818 51.8059C577.513 52.5634 576.91 53.553 575.935 54.5914C576.178 50.3582 575.849 46.1922 574.655 42.6615C574.503 42.2217 575.313 42.5577 575.667 42.8631C576.477 43.3701 577.214 43.7061 577.775 44.3658C578.006 45.4714 578.08 46.8519 578.177 48.2202C578.275 49.5885 578.244 50.7308 577.818 51.8059Z" fill="white"/>
<path d="M551.756 36.8888C552.274 36.9988 552.761 37.0293 553.267 36.9988C553.602 36.9683 553.937 37.0416 554.26 37.1698C554.577 37.3164 554.833 37.5241 555.04 37.8051C555.241 38.0556 555.509 38.19 555.814 38.2327C556.131 38.2694 556.405 38.1961 556.655 38.0128C557.063 37.7074 557.508 37.5608 558.014 37.6035C558.513 37.6341 558.946 37.8601 559.287 38.2144C560.134 38.1655 560.981 38.1044 561.822 38.0495C562.23 38.0006 562.608 38.0861 562.956 38.2877C563.303 38.4893 563.577 38.7703 563.754 39.1368C563.772 39.1673 563.784 39.1917 563.796 39.1917C563.833 39.204 563.863 39.2223 563.894 39.204C564.253 39.1856 564.619 39.094 564.948 38.9413C565.088 38.8741 565.265 38.5442 565.362 38.416C565.448 38.2755 565.515 38.135 565.521 37.9884V37.9578C561.615 36.3085 557.514 35.3678 553.346 34.6226C553.243 34.6165 553.121 34.5982 553.017 34.5859C552.932 34.8547 552.773 35.0746 552.554 35.2518C552.329 35.4289 552.067 35.5266 551.792 35.5572C551.652 35.5572 551.549 35.6061 551.439 35.6916C551.323 35.7832 551.256 35.8932 551.22 36.0275C551.183 36.1558 551.183 36.2841 551.22 36.4124C551.256 36.5284 551.317 36.6445 551.433 36.7361C551.512 36.8216 551.628 36.8827 551.756 36.8888Z" fill="white"/>
<path d="M526.95 48.8557C527.248 48.6358 527.602 48.5319 527.98 48.5564C528.705 48.6175 529.405 48.819 530.057 49.1611C529.131 49.0756 528.223 49.1611 527.346 49.3993C527.163 49.4482 527.005 49.5582 526.883 49.7048C526.755 49.8391 526.694 50.0102 526.676 50.2118C526.639 50.902 526.627 51.635 526.663 52.3314C526.663 52.5147 526.724 52.6796 526.834 52.8445C526.938 52.985 527.078 53.1011 527.242 53.1866C527.419 53.2599 527.584 53.2843 527.772 53.2538C528.351 53.1744 528.924 53.0889 529.491 53.0217C529.99 52.9484 530.417 52.759 530.807 52.4475C531.209 52.1237 531.477 51.7389 531.642 51.2685C531.782 50.9081 531.861 50.505 531.904 50.114C531.94 49.6742 531.861 49.2344 531.654 48.8374C531.447 48.4342 531.13 48.1349 530.734 47.915C529.905 47.4691 529.015 47.2125 528.083 47.1392C527.34 47.0964 526.676 47.2858 526.091 47.7256C525.493 48.1899 524.866 48.6113 524.214 48.984L524.902 50.2301C525.621 49.8025 526.298 49.3688 526.956 48.8557" fill="#1E22B0"/>
<path d="M561.755 48.227C561.524 47.9032 561.25 47.6344 560.902 47.4451C560.555 47.2557 560.189 47.158 559.793 47.1824C558.605 47.2068 557.551 47.5978 556.631 48.3552L557.533 49.4548C558.197 48.905 558.965 48.624 559.83 48.6057C560.086 48.6301 560.323 48.7462 560.531 48.8928C560.738 49.0516 560.896 49.2593 561 49.4853C560.61 49.4181 560.214 49.3876 559.812 49.3876C559.367 49.3876 558.959 49.5036 558.556 49.693C558.41 49.7724 558.264 49.8824 558.172 50.029C558.075 50.1634 558.032 50.3222 557.996 50.4932C557.971 50.762 557.965 51.0735 557.947 51.3606C557.935 51.44 557.923 51.5133 557.868 51.5622C557.801 51.6233 557.728 51.6416 557.655 51.6599C557.533 51.6599 557.405 51.6783 557.271 51.7088C557.204 51.7332 557.161 51.7577 557.112 51.8004C557.076 51.8676 557.057 51.9226 557.039 51.9837C557.003 52.1853 557.003 52.393 557.009 52.5945C557.021 52.6862 557.051 52.7656 557.082 52.8206C557.137 52.9 557.204 52.9549 557.252 52.9855C557.758 53.2665 558.319 53.4253 558.885 53.4681C559.617 53.5291 560.317 53.4375 561 53.1871C561.323 53.0771 561.597 52.8939 561.841 52.6434C562.066 52.3807 562.225 52.0875 562.31 51.7638C562.462 51.159 562.493 50.5421 562.407 49.9373C562.298 49.3204 562.084 48.7523 561.762 48.227" fill="#1E22B0"/>
</svg>
